M48
;Layer_Color=9474304
;FILE_FORMAT=2:5
INCH,TZ
;TYPE=PLATED
T1F00S00C0.01181
T2F00S00C0.02362
T3F00S00C0.03150
T4F00S00C0.03543
T5F00S00C0.03937
T6F00S00C0.04016
T7F00S00C0.05118
T8F00S00C0.05512
T9F00S00C0.05906
T10F00S00C0.07874
T11F00S00C0.12205
T12F00S00C0.12598
;TYPE=NON_PLATED
T13F00S00C0.03937
T14F00S00C0.07874
T15F00S00C0.11811
T17F00S00C0.14567
%
T01
X191339Y38976
X177953Y55905
X196850Y70866
Y74803
Y78740
Y82677
X200787
X204724
Y78740
X200787
Y74803
Y70866
X204724
Y74803
X208661
Y70866
X212598
Y74803
X216535
Y70866
X220473
Y74803
Y66929
X216535Y78740
X212598
X208661
X212598Y102362
X212598Y104921
X212598Y107480
X212598Y110039
X204724
Y107480
Y104921
X204724Y102362
X196850
X196850Y104921
X196850Y107480
X196850Y110039
X178347Y110630
X171654Y90945
Y87795
X235039Y99606
X260630Y13386
X164961Y55905
X168504Y62205
X127165Y63386
X123622Y64173
X118110Y54331
X115354Y51772
X112598Y54331
X107874Y54331
X109842Y50788
X103937Y50689
X96555Y52255
X94291Y56693
X88976
X83465
X72835Y56693
X71260Y53150
X69291Y48425
X72835Y37992
X64961Y38189
X58651Y38572
X59055Y26181
X64961Y26378
X62992Y23228
X67716
X72835Y27165
X81102Y23228
Y11417
X49606Y11024
Y23622
X50787Y75591
X53543Y79528
X56196Y73280
X59448Y75197
X67323Y70866
X72835
X69135Y81832
X62598Y89370
X56299Y87500
X45669Y87402
Y93701
X35433Y91732
X31496Y87008
X21654Y84941
Y77953
X37795Y77165
X37008Y69291
X29921
X25197Y104331
X14567Y101575
X35433Y112598
X40551Y109843
Y115354
X54841Y108957
X54331Y103543
Y97638
X68898Y98819
X70894Y104380
X71260Y111417
X77559
X82284Y115354
X93307Y111024
X95079Y99213
Y87402
X83268
Y99213
X111318Y100394
X111811Y96457
X110138Y93307
X108661Y103937
X112205Y104724
X105512Y113779
X133071
X147638Y112992
X142520Y107480
X126772Y100000
X126772Y94095
Y88189
X129528Y85039
X129921Y79921
X130708Y75197
X126772Y76378
X126772Y82284
X112106
Y76378
X100394Y71260
X88976Y72441
X86221Y48425
X84646Y44882
X92520Y38583
X100108Y56800
X118110Y41339
X118504Y36614
X131496Y37008
X113348Y24765
X7087Y78347
Y84252
Y90158
Y96063
X7874Y127559
Y155118
Y182677
Y209842
X15748Y213386
X47244Y202756
X53937Y195669
X57874Y206693
X78347Y213779
X84646
Y197638
X77559
Y192126
X88582Y184252
X98032Y184252
X96063Y187205
X100000
Y181299
X96063
X107480Y176378
X107874Y188976
X122047
Y183071
Y176378
X126772Y167323
X137402Y171653
Y175591
Y179528
Y183465
Y187402
X144488Y182087
X148819Y181922
X152559Y194095
X144685
X146063Y207087
X156693
X159646
X165748Y200787
X162992Y197244
X168898Y196850
X157087Y166929
X150787
X144095
X142913Y159449
X138976Y148819
X132677Y148425
X120866Y134646
X116732Y134627
X101181Y134252
X95276
X105905Y125591
X116535Y117717
X90533Y119095
X70079Y123622
X64961Y118898
X58268Y119291
X35433Y118110
X35827Y170079
X54331Y167323
Y161024
X66535Y159843
X64173Y143307
X88189Y159843
X91339Y166535
X104278Y158870
X112598Y163779
X159449Y153937
X167717Y154724
X169685Y144902
X162598Y135827
X132874Y239173
X123031Y242126
Y235236
X115157Y237205
X111221
X113189Y240158
X115157Y243110
X111221
X103347Y240158
X91536Y231299
X91285Y257928
X98425Y258858
X128937Y260827
X168307Y265748
X199213Y261024
X186221Y211024
X176969Y211417
X183071Y199213
X179921Y164173
X174016Y162598
X183858Y159055
X186221Y155118
X190945Y155512
X194882
X198819
X202756
X206693
X210630
X214567
X218504
X222441
X226378
X230315
Y159449
X226378
Y163386
X230315
Y167323
X226378
X222441
X218504
X214567
X210630
X206693
X202756
X198819
X194882
X190945
Y163386
Y159449
X194882
Y163386
X198819
X202756
Y159449
X198819
X206693
Y163386
X210630
Y159449
X214567
Y163386
X218504
X222441
Y159449
X218504
X186614Y144882
X188583Y127165
X179528Y124016
X226378Y208268
X274016Y247244
Y250394
Y253543
Y256693
X277165
Y259842
X280315
Y256693
X283465
Y259842
X286614Y259842
Y256693
Y253543
Y250394
Y247244
Y244094
X289764
Y247244
Y250394
Y253543
Y256693
X283465Y253543
Y250394
X280315
X277165
Y253543
X280315
Y247244
X277165
Y244094
X280315
X283465
Y247244
T02
X24409Y51575
X30709
X37008
X33858Y58661
X27559
T03
X197756Y240905
X207756
Y270905
X197756
T04
X245079Y45276
Y64961
Y84646
Y104331
X279528
Y84646
Y64961
Y124016
Y143701
Y163386
X245079
Y183071
Y143701
Y124016
T05
X285197Y10669
Y20669
Y30669
X315197
Y20669
Y10669
T06
X60039Y236221
Y248031
X71850
Y236221
X83661
X83661Y248031
X146654Y248031
Y236221
X158465
Y248031
X170276
X170276Y236221
T07
X228346Y252953
X316929
T08
X279361Y180008
X250166Y225504
T09
X338071Y92795
X308071
Y122795
Y152795
Y182795
X338071
Y152795
Y122795
T10
X47244Y54724
X14173
T11
X350394Y19685
X19685
Y255906
X350394
T12
X351929Y62795
Y212795
T13
X54961Y28539
Y36539
X74961Y32539
T14
X7874Y110236
Y137795
Y165354
Y192913
Y220472
T15
X71850Y264961
X158465Y264961
T17
X208661Y55118
Y220472
M30
