G04*
G04 #@! TF.GenerationSoftware,Altium Limited,Altium Designer,20.2.4 (192)*
G04*
G04 Layer_Physical_Order=4*
G04 Layer_Color=16711680*
%FSLAX25Y25*%
%MOIN*%
G70*
G04*
G04 #@! TF.SameCoordinates,632904D4-FBC6-4040-AE52-8F74E4E9F4E0*
G04*
G04*
G04 #@! TF.FilePolarity,Positive*
G04*
G01*
G75*
%ADD10C,0.00984*%
%ADD11C,0.00787*%
%ADD44C,0.01181*%
%ADD45C,0.02756*%
%ADD46C,0.02362*%
%ADD47C,0.00906*%
%ADD48C,0.14173*%
%ADD49C,0.31496*%
%ADD50C,0.08268*%
%ADD51C,0.05906*%
%ADD52C,0.05984*%
%ADD53R,0.05984X0.05984*%
%ADD54C,0.11811*%
%ADD55C,0.02559*%
%ADD56C,0.05118*%
%ADD57C,0.10236*%
%ADD58C,0.07087*%
%ADD59O,0.11811X0.15748*%
%ADD60C,0.04724*%
%ADD61O,0.03150X0.01575*%
%ADD62R,0.05512X0.05512*%
%ADD63C,0.05512*%
%ADD64C,0.23622*%
%ADD65O,0.01575X0.03150*%
%ADD66C,0.01968*%
%ADD67R,0.03937X0.03937*%
%ADD68R,0.03583X0.04803*%
%ADD69R,0.21654X0.03347*%
%ADD70R,0.17323X0.03347*%
%ADD71R,0.03347X0.04528*%
%ADD72R,0.03740X0.03543*%
%ADD73R,0.03740X0.03543*%
%ADD74R,0.05118X0.02756*%
%ADD75R,0.05118X0.21260*%
%ADD76R,0.05512X0.04331*%
%ADD77R,0.01614X0.04016*%
%ADD78R,0.22047X0.22047*%
G04:AMPARAMS|DCode=79|XSize=9.84mil|YSize=35.43mil|CornerRadius=2.46mil|HoleSize=0mil|Usage=FLASHONLY|Rotation=270.000|XOffset=0mil|YOffset=0mil|HoleType=Round|Shape=RoundedRectangle|*
%AMROUNDEDRECTD79*
21,1,0.00984,0.03051,0,0,270.0*
21,1,0.00492,0.03543,0,0,270.0*
1,1,0.00492,-0.01526,-0.00246*
1,1,0.00492,-0.01526,0.00246*
1,1,0.00492,0.01526,0.00246*
1,1,0.00492,0.01526,-0.00246*
%
%ADD79ROUNDEDRECTD79*%
G04:AMPARAMS|DCode=80|XSize=9.84mil|YSize=35.43mil|CornerRadius=2.46mil|HoleSize=0mil|Usage=FLASHONLY|Rotation=180.000|XOffset=0mil|YOffset=0mil|HoleType=Round|Shape=RoundedRectangle|*
%AMROUNDEDRECTD80*
21,1,0.00984,0.03051,0,0,180.0*
21,1,0.00492,0.03543,0,0,180.0*
1,1,0.00492,-0.00246,0.01526*
1,1,0.00492,0.00246,0.01526*
1,1,0.00492,0.00246,-0.01526*
1,1,0.00492,-0.00246,-0.01526*
%
%ADD80ROUNDEDRECTD80*%
G04:AMPARAMS|DCode=81|XSize=15.75mil|YSize=43.31mil|CornerRadius=3.94mil|HoleSize=0mil|Usage=FLASHONLY|Rotation=270.000|XOffset=0mil|YOffset=0mil|HoleType=Round|Shape=RoundedRectangle|*
%AMROUNDEDRECTD81*
21,1,0.01575,0.03543,0,0,270.0*
21,1,0.00787,0.04331,0,0,270.0*
1,1,0.00787,-0.01772,-0.00394*
1,1,0.00787,-0.01772,0.00394*
1,1,0.00787,0.01772,0.00394*
1,1,0.00787,0.01772,-0.00394*
%
%ADD81ROUNDEDRECTD81*%
%ADD82R,0.03543X0.02717*%
%ADD83R,0.03898X0.02717*%
%ADD84R,0.10236X0.10236*%
%ADD85R,0.01181X0.02953*%
%ADD86R,0.02953X0.01181*%
%ADD87R,0.05512X0.04724*%
%ADD88R,0.05906X0.04331*%
%ADD89R,0.03740X0.20866*%
%ADD90R,0.01102X0.02756*%
%ADD91R,0.06496X0.09449*%
G04:AMPARAMS|DCode=92|XSize=9.06mil|YSize=31.5mil|CornerRadius=1.81mil|HoleSize=0mil|Usage=FLASHONLY|Rotation=90.000|XOffset=0mil|YOffset=0mil|HoleType=Round|Shape=RoundedRectangle|*
%AMROUNDEDRECTD92*
21,1,0.00906,0.02787,0,0,90.0*
21,1,0.00543,0.03150,0,0,90.0*
1,1,0.00362,0.01394,0.00272*
1,1,0.00362,0.01394,-0.00272*
1,1,0.00362,-0.01394,-0.00272*
1,1,0.00362,-0.01394,0.00272*
%
%ADD92ROUNDEDRECTD92*%
%ADD93R,0.05512X0.05512*%
G04:AMPARAMS|DCode=94|XSize=31.5mil|YSize=15.75mil|CornerRadius=1.97mil|HoleSize=0mil|Usage=FLASHONLY|Rotation=0.000|XOffset=0mil|YOffset=0mil|HoleType=Round|Shape=RoundedRectangle|*
%AMROUNDEDRECTD94*
21,1,0.03150,0.01181,0,0,0.0*
21,1,0.02756,0.01575,0,0,0.0*
1,1,0.00394,0.01378,-0.00591*
1,1,0.00394,-0.01378,-0.00591*
1,1,0.00394,-0.01378,0.00591*
1,1,0.00394,0.01378,0.00591*
%
%ADD94ROUNDEDRECTD94*%
%ADD95R,0.04331X0.05512*%
%ADD96R,0.05984X0.02402*%
%ADD97O,0.05984X0.02402*%
G04:AMPARAMS|DCode=98|XSize=23.62mil|YSize=70.87mil|CornerRadius=5.91mil|HoleSize=0mil|Usage=FLASHONLY|Rotation=0.000|XOffset=0mil|YOffset=0mil|HoleType=Round|Shape=RoundedRectangle|*
%AMROUNDEDRECTD98*
21,1,0.02362,0.05906,0,0,0.0*
21,1,0.01181,0.07087,0,0,0.0*
1,1,0.01181,0.00591,-0.02953*
1,1,0.01181,-0.00591,-0.02953*
1,1,0.01181,-0.00591,0.02953*
1,1,0.01181,0.00591,0.02953*
%
%ADD98ROUNDEDRECTD98*%
%ADD99R,0.02362X0.07087*%
%ADD100R,0.06299X0.04331*%
%ADD101R,0.03937X0.04331*%
G04:AMPARAMS|DCode=102|XSize=62.99mil|YSize=35.04mil|CornerRadius=1.75mil|HoleSize=0mil|Usage=FLASHONLY|Rotation=0.000|XOffset=0mil|YOffset=0mil|HoleType=Round|Shape=RoundedRectangle|*
%AMROUNDEDRECTD102*
21,1,0.06299,0.03154,0,0,0.0*
21,1,0.05949,0.03504,0,0,0.0*
1,1,0.00350,0.02974,-0.01577*
1,1,0.00350,-0.02974,-0.01577*
1,1,0.00350,-0.02974,0.01577*
1,1,0.00350,0.02974,0.01577*
%
%ADD102ROUNDEDRECTD102*%
G04:AMPARAMS|DCode=103|XSize=11.81mil|YSize=27.56mil|CornerRadius=1.77mil|HoleSize=0mil|Usage=FLASHONLY|Rotation=0.000|XOffset=0mil|YOffset=0mil|HoleType=Round|Shape=RoundedRectangle|*
%AMROUNDEDRECTD103*
21,1,0.01181,0.02402,0,0,0.0*
21,1,0.00827,0.02756,0,0,0.0*
1,1,0.00354,0.00413,-0.01201*
1,1,0.00354,-0.00413,-0.01201*
1,1,0.00354,-0.00413,0.01201*
1,1,0.00354,0.00413,0.01201*
%
%ADD103ROUNDEDRECTD103*%
%ADD104R,0.06102X0.04528*%
%ADD105R,0.01575X0.03543*%
%ADD106R,0.11024X0.06299*%
%ADD107R,0.01181X0.03543*%
%ADD108R,0.06299X0.07087*%
%ADD109R,0.04134X0.08661*%
%ADD110R,0.04331X0.03937*%
%ADD111R,0.07087X0.06299*%
%ADD112R,0.02756X0.05118*%
%ADD113R,0.21260X0.05118*%
%ADD114R,0.04331X0.05906*%
%ADD115R,0.03543X0.01575*%
%ADD116C,0.03937*%
%ADD117C,0.11811*%
%ADD118R,0.17323X0.16535*%
G36*
X121260Y259842D02*
X121063Y261614D01*
X120866Y262402D01*
X120276Y263583D01*
X119685Y264370D01*
X118504Y265551D01*
X117520Y266142D01*
X117126Y266339D01*
Y270276D01*
X121260D01*
Y259842D01*
D02*
G37*
G36*
X111221Y266339D02*
X110433Y265945D01*
X109843Y265551D01*
X108465Y264173D01*
X107874Y263189D01*
X107677Y262795D01*
X107283Y261614D01*
X107087Y259842D01*
Y270276D01*
X111221D01*
Y266339D01*
D02*
G37*
G36*
X107283Y258071D02*
X107480Y257283D01*
X108071Y256102D01*
X108465Y255512D01*
X109449Y254528D01*
X110236Y253937D01*
X111221Y253346D01*
Y249410D01*
X107087D01*
Y259842D01*
X107283Y258071D01*
D02*
G37*
G36*
X121260Y250000D02*
X124016D01*
Y248031D01*
X119685Y243701D01*
X118110Y243701D01*
X118110Y249410D01*
X117126D01*
Y253346D01*
X118110Y253937D01*
X118898Y254528D01*
X119488Y255118D01*
X120079Y255906D01*
X120669Y257087D01*
X120866Y257480D01*
X121063Y258268D01*
X121260Y259842D01*
Y250000D01*
D02*
G37*
G36*
X319685Y230709D02*
X319685Y206693D01*
X299213D01*
X299213Y218898D01*
X271654Y246457D01*
Y256693D01*
X276772Y261811D01*
X288583Y261811D01*
X319685Y230709D01*
D02*
G37*
G36*
X123425Y210827D02*
X122638Y210433D01*
X122047Y210039D01*
X120669Y208661D01*
X120079Y207677D01*
X119882Y207283D01*
X119488Y206102D01*
X119291Y204331D01*
Y214764D01*
X123425D01*
Y210827D01*
D02*
G37*
G36*
X106299Y204331D02*
X106102Y206102D01*
X105905Y206890D01*
X105315Y208071D01*
X104724Y208858D01*
X103543Y210039D01*
X102559Y210630D01*
X102165Y210827D01*
Y214764D01*
X106299D01*
Y204331D01*
D02*
G37*
G36*
X96260Y210827D02*
X95473Y210433D01*
X94882Y210039D01*
X93504Y208661D01*
X92913Y207677D01*
X92717Y207283D01*
X92323Y206102D01*
X92126Y204331D01*
Y214764D01*
X96260D01*
Y210827D01*
D02*
G37*
G36*
X149114Y206594D02*
X146455Y203936D01*
X143209Y207182D01*
X143209Y214469D01*
X149114D01*
Y206594D01*
D02*
G37*
G36*
X139961Y211024D02*
Y206102D01*
X141929Y204134D01*
Y201181D01*
X134252Y201181D01*
X133465Y201969D01*
Y193898D01*
X129331D01*
Y197835D01*
X130315Y198425D01*
X131102Y199016D01*
X131693Y199606D01*
X132283Y200394D01*
X132874Y201575D01*
X133071Y201969D01*
X133150Y202283D01*
X133071Y202362D01*
Y206890D01*
X132480Y208071D01*
X131890Y208858D01*
X130709Y210039D01*
X129725Y210630D01*
X129331Y210827D01*
Y214764D01*
X133071D01*
Y214961D01*
X136024Y214961D01*
X139961Y211024D01*
D02*
G37*
G36*
X119488Y202559D02*
X119685Y201772D01*
X120276Y200591D01*
X120669Y200000D01*
X121654Y199016D01*
X122441Y198425D01*
X123425Y197835D01*
Y193898D01*
X119291D01*
Y204331D01*
X119488Y202559D01*
D02*
G37*
G36*
X106299Y193898D02*
X102165D01*
Y197835D01*
X103150Y198425D01*
X103937Y199016D01*
X104528Y199606D01*
X105118Y200394D01*
X105709Y201575D01*
X105905Y201969D01*
X106102Y202756D01*
X106299Y204331D01*
Y193898D01*
D02*
G37*
G36*
X92323Y202559D02*
X92520Y201772D01*
X93110Y200591D01*
X93504Y200000D01*
X94488Y199016D01*
X95276Y198425D01*
X96260Y197835D01*
Y193898D01*
X92126D01*
Y204331D01*
X92323Y202559D01*
D02*
G37*
G36*
X341535Y188976D02*
Y179134D01*
X338583Y176181D01*
X305118D01*
X299213Y182087D01*
Y193898D01*
X303150Y197835D01*
X332677D01*
X341535Y188976D01*
D02*
G37*
G36*
X161024Y198882D02*
X160757Y198535D01*
X160499Y197912D01*
X160411Y197244D01*
Y196850D01*
X159843D01*
Y195472D01*
X155709Y191339D01*
X143898Y191339D01*
X142323Y189764D01*
X142323Y184843D01*
X139370Y181890D01*
Y171063D01*
X137992Y169685D01*
X132317Y169685D01*
X131964Y170040D01*
X132087Y189370D01*
X133071Y190354D01*
X136024D01*
X143307Y197638D01*
X151772Y197638D01*
Y205118D01*
X155118Y208465D01*
Y215320D01*
X161024D01*
Y198882D01*
D02*
G37*
G36*
X232283Y148425D02*
X230315Y146457D01*
X188976D01*
Y169291D01*
X232283D01*
Y148425D01*
D02*
G37*
G36*
X230709Y136221D02*
X218504Y124016D01*
X194095D01*
Y126772D01*
X188976Y131890D01*
Y140551D01*
X230709D01*
Y136221D01*
D02*
G37*
G36*
X194095Y114961D02*
Y111811D01*
X193701Y111417D01*
X183071D01*
Y115748D01*
X193307D01*
X194095Y114961D01*
D02*
G37*
G36*
X180709Y124409D02*
Y109055D01*
X179134Y107480D01*
X175984D01*
Y124803D01*
X176378Y125197D01*
X179921D01*
X180709Y124409D01*
D02*
G37*
G36*
X187008Y104724D02*
X176772D01*
Y106299D01*
X179528D01*
X182283Y109055D01*
X187008Y109055D01*
Y104724D01*
D02*
G37*
G36*
X174016Y105512D02*
X175984Y103543D01*
X177953D01*
Y102362D01*
X172047Y102362D01*
X169685Y104724D01*
Y130315D01*
X174016D01*
X174016Y105512D01*
D02*
G37*
G36*
X187008Y91732D02*
X182283Y91732D01*
X179528Y94488D01*
X176772D01*
Y96063D01*
X187008D01*
Y91732D01*
D02*
G37*
G36*
X194095Y88583D02*
Y85433D01*
X193701Y85039D01*
X183071D01*
Y89370D01*
X193307D01*
X194095Y88583D01*
D02*
G37*
G36*
X177953Y98425D02*
Y97244D01*
X175984D01*
X174016Y95276D01*
X174016Y78740D01*
X169685D01*
X169685Y96063D01*
X172047Y98425D01*
X177953Y98425D01*
D02*
G37*
G36*
X180709Y91732D02*
Y74409D01*
X177559Y72047D01*
X175984Y72835D01*
Y93307D01*
X179134D01*
X180709Y91732D01*
D02*
G37*
G36*
X248031Y68110D02*
Y59842D01*
X244488Y56299D01*
X238583D01*
Y75197D01*
X240945D01*
X248031Y68110D01*
D02*
G37*
G36*
X213878Y85335D02*
Y83957D01*
X215256D01*
X226378Y72835D01*
X228346D01*
Y53937D01*
X222759D01*
X222420Y54304D01*
X222484Y55118D01*
X222313Y57280D01*
X221807Y59389D01*
X220977Y61393D01*
X219844Y63243D01*
X218435Y64892D01*
X216786Y66300D01*
X214936Y67434D01*
X212933Y68264D01*
X210824Y68770D01*
X208661Y68940D01*
X206499Y68770D01*
X204390Y68264D01*
X202386Y67434D01*
X200537Y66300D01*
X198888Y64892D01*
X197479Y63243D01*
X196346Y61393D01*
X195516Y59389D01*
X195382Y58832D01*
X194882Y58891D01*
Y83957D01*
X195571D01*
Y85335D01*
X198031Y87795D01*
X211417D01*
X213878Y85335D01*
D02*
G37*
G36*
X363192Y100318D02*
X365004D01*
Y99389D01*
X363192D01*
Y98367D01*
X362341D01*
Y99389D01*
X357437D01*
Y100150D01*
X362341Y103602D01*
X363192D01*
Y100318D01*
D02*
G37*
%LPC*%
G36*
X151181Y196098D02*
X148819D01*
X148128Y195960D01*
X147542Y195569D01*
X147150Y194983D01*
X147013Y194291D01*
X147150Y193600D01*
X147542Y193014D01*
X148128Y192622D01*
X148819Y192485D01*
X151181D01*
X151872Y192622D01*
X152458Y193014D01*
X152850Y193600D01*
X152988Y194291D01*
X152850Y194983D01*
X152458Y195569D01*
X151872Y195960D01*
X151181Y196098D01*
D02*
G37*
G36*
X362341Y102687D02*
X358931Y100318D01*
X362341D01*
Y102687D01*
D02*
G37*
%LPD*%
D10*
X97047Y185503D02*
Y190354D01*
X99016Y178150D02*
Y183001D01*
Y185503D02*
Y190354D01*
X97047Y178150D02*
Y183001D01*
X122645Y235236D02*
X123031D01*
X121661Y236221D02*
X122645Y235236D01*
X34449Y97244D02*
Y99311D01*
X35630Y100492D01*
X85317Y51083D02*
X90158D01*
X79823Y56576D02*
X85317Y51083D01*
X66535Y159843D02*
X71516D01*
X213846Y198425D02*
X222441D01*
X100394Y67126D02*
X100787D01*
X104872Y194636D02*
X105905Y195669D01*
X98032Y183986D02*
Y184252D01*
Y184518D02*
X99016Y185503D01*
X97047Y183001D02*
X98032Y183986D01*
X99016Y183001D01*
X98032Y184252D02*
Y184518D01*
X103839Y188189D02*
Y193602D01*
X97047Y185503D02*
X98032Y184518D01*
X103839Y193602D02*
X104872Y194636D01*
X19291Y120473D02*
X24409Y115354D01*
X19291Y120473D02*
Y158268D01*
X15748Y161811D02*
X19291Y158268D01*
X21260Y121653D02*
X24803Y118110D01*
X21260Y121653D02*
Y175197D01*
X15748Y180709D02*
X21260Y175197D01*
X24803Y118110D02*
X35433D01*
X24409Y115354D02*
X40551D01*
X15748Y120866D02*
X24016Y112598D01*
X35433D01*
X15748Y120866D02*
Y134449D01*
X19685Y109843D02*
X40551D01*
X84252Y107087D02*
Y113386D01*
X82284Y115354D02*
X84252Y113386D01*
X78588Y114469D02*
X82284Y110773D01*
X74884Y114469D02*
X78588D01*
X71832Y111417D02*
X74884Y114469D01*
X82284Y107087D02*
Y110773D01*
X80315Y107087D02*
Y109902D01*
X78800Y111417D02*
X80315Y109902D01*
X77559Y111417D02*
X78800D01*
X71260D02*
X71832D01*
X64764Y108071D02*
Y109449D01*
X79823Y56576D02*
Y69821D01*
X80868Y70866D01*
X84646D01*
X80709Y45669D02*
Y53150D01*
X77854Y56004D02*
X80709Y53150D01*
X78740Y47244D02*
Y52273D01*
X76083Y54930D02*
X78740Y52273D01*
X77559Y46063D02*
X78740Y47244D01*
X76083Y54930D02*
Y72683D01*
X78445Y43406D02*
X80709Y45669D01*
X74410Y43406D02*
X78445D01*
X77854Y56004D02*
Y71949D01*
X78839Y72933D01*
X83169D01*
X76083Y72683D02*
X78105Y74705D01*
X81398D01*
X64961Y26378D02*
Y27165D01*
X67618Y29823D01*
Y39290D01*
X60532Y46376D02*
X67618Y39290D01*
X60532Y46376D02*
Y70768D01*
X69685Y30315D02*
Y39728D01*
X62303Y47110D02*
X69685Y39728D01*
X62303Y47110D02*
Y69784D01*
X107185Y53642D02*
X107874Y54331D01*
X109842Y49749D02*
Y50788D01*
X107185Y49597D02*
Y53642D01*
X105217Y47629D02*
X107185Y49597D01*
X103937Y50394D02*
Y50689D01*
X110943Y48130D02*
X112500Y49687D01*
X110943Y48130D02*
X110943D01*
X109744Y46931D02*
X110943Y48130D01*
X109744Y24114D02*
Y46931D01*
X129528Y85039D02*
Y98247D01*
X141419Y110138D01*
X262205Y111024D02*
X267323Y105905D01*
X230906Y108071D02*
X233858Y111024D01*
X262205D01*
X267323Y13780D02*
Y105905D01*
X223228Y108071D02*
X230906D01*
X15748Y180709D02*
Y189567D01*
Y106890D02*
Y106938D01*
X17323Y108512D01*
X18355D01*
X19685Y109843D01*
X45669Y101575D02*
X53150Y94095D01*
X45669Y101575D02*
Y175197D01*
X43701Y100759D02*
Y169291D01*
Y100759D02*
X52334Y92126D01*
X72835Y70866D02*
Y73622D01*
X75689Y76476D02*
X79626D01*
X72835Y73622D02*
X75689Y76476D01*
X184306Y179331D02*
X184306Y179331D01*
X203187Y198266D02*
X203553D01*
X203712Y198425D01*
X186115Y178581D02*
Y178635D01*
X203712Y198425D02*
X213846D01*
X177548Y177521D02*
X185055D01*
X203937Y196457D02*
X213846D01*
X186115Y178635D02*
X203937Y196457D01*
X185055Y177521D02*
X186115Y178581D01*
X184306Y179331D02*
Y179384D01*
X176575Y179331D02*
X184306D01*
X184306Y179384D02*
X203187Y198266D01*
X183858Y171850D02*
X184350Y172343D01*
X191339Y179528D02*
X195473D01*
X184350Y172539D02*
X191339Y179528D01*
X184350Y172343D02*
Y172539D01*
X143799Y110138D02*
X149606Y104331D01*
X141419Y110138D02*
X143799D01*
X133464Y77953D02*
X139891D01*
X130708Y75197D02*
X133464Y77953D01*
X139891D02*
X157214Y95276D01*
X129921Y79921D02*
X139354D01*
X124311Y105785D02*
X134132D01*
X152756Y124409D02*
Y155905D01*
X134132Y105785D02*
X152756Y124409D01*
X150787Y124946D02*
Y157087D01*
X126294Y107951D02*
X133792D01*
X150787Y124946D01*
X77362Y142913D02*
X103543D01*
X105905Y140551D01*
Y125591D02*
Y140551D01*
X93307Y110348D02*
Y111024D01*
X94095Y107087D02*
Y109560D01*
X93307Y110348D02*
X94095Y109560D01*
X240416Y196457D02*
X245337Y201378D01*
X175394Y178150D02*
X176575Y179331D01*
X166240Y166240D02*
Y168996D01*
X141831Y132579D02*
X142028D01*
X228316Y196457D02*
X240416D01*
X223295D02*
X228316D01*
X222441Y198425D02*
X239764D01*
X244488Y203150D01*
X294882D01*
X213846Y196457D02*
X223295D01*
X140354Y134055D02*
X141831Y132579D01*
X147085Y132466D02*
Y158395D01*
X175394Y178150D02*
X175394D01*
X142717Y131890D02*
X146509D01*
X147085Y132466D01*
X151879Y163189D02*
X163189D01*
X142028Y132579D02*
X142717Y131890D01*
X163189Y163189D02*
X166240Y166240D01*
X147085Y158395D02*
X151879Y163189D01*
X166240Y168996D02*
X175394Y178150D01*
X226772Y50787D02*
X229134D01*
X231496Y48425D01*
X235433Y50787D02*
X238189D01*
X233465Y48819D02*
X235433Y50787D01*
X71516Y161024D02*
Y168504D01*
X21654Y84449D02*
X25591D01*
X17717D02*
X21654D01*
X223228Y99803D02*
X223425Y99606D01*
X235039D01*
X212894Y116831D02*
X213780Y117717D01*
X218504D02*
X220571Y119783D01*
X213780Y117717D02*
X218504D01*
X204724Y113189D02*
X211713D01*
X212894Y114370D01*
Y116831D01*
X223228Y121260D02*
Y121457D01*
X221752Y119783D02*
X223228Y121260D01*
X220571Y119783D02*
X221752D01*
X216732Y113779D02*
X222244D01*
X223228Y114764D01*
X204724Y86811D02*
X211024D01*
X212205Y87992D01*
Y89764D01*
X213976Y91535D02*
X223228D01*
X212205Y89764D02*
X213976Y91535D01*
X216732Y86811D02*
Y87402D01*
Y86811D02*
X218701Y84842D01*
X223228D01*
X182874Y164173D02*
X183858Y165157D01*
X179921Y164173D02*
X182874D01*
X227420Y17323D02*
X231496Y21399D01*
Y48425D01*
X159194Y17323D02*
X227420D01*
X158379Y15354D02*
X228235D01*
X233465Y20584D02*
Y48819D01*
X228235Y15354D02*
X233465Y20584D01*
X154331Y22186D02*
Y59016D01*
Y22186D02*
X159194Y17323D01*
X152362Y21371D02*
X158379Y15354D01*
X152362Y21371D02*
Y58200D01*
X147368Y129528D02*
X148857Y131017D01*
X142717Y129528D02*
X147368D01*
X140354Y127362D02*
X141831Y128839D01*
X140354Y127165D02*
Y127362D01*
X141831Y128839D02*
X142028D01*
X142717Y129528D01*
X140354Y134055D02*
Y134252D01*
X168110Y168110D02*
X176341Y176341D01*
X176367D01*
X177548Y177521D01*
X154724Y157874D02*
X165748D01*
X152613Y161417D02*
X164173D01*
X165748Y157874D02*
X172047Y164173D01*
X164959Y159646D02*
X170079Y164766D01*
X164173Y161417D02*
X168110Y165354D01*
X153347Y159646D02*
X164959D01*
X150787Y157087D02*
X153347Y159646D01*
X152756Y155905D02*
X154724Y157874D01*
X148857Y157661D02*
X152613Y161417D01*
X172047Y164173D02*
Y166142D01*
X169685Y144902D02*
X172362D01*
X148857Y131017D02*
Y157661D01*
X168110Y165354D02*
Y168110D01*
X295473Y203740D02*
Y209055D01*
X294882Y203150D02*
X295473Y203740D01*
Y196457D02*
Y200801D01*
X245337Y201378D02*
X294896D01*
X295473Y200801D01*
X170079Y167323D02*
X172343Y169587D01*
X170079Y164766D02*
Y167323D01*
X172047Y166142D02*
X173327Y167421D01*
X123031Y105512D02*
X123327Y105807D01*
X124253D01*
Y105728D02*
X124311Y105785D01*
X172343Y169587D02*
X181805D01*
X173327Y167421D02*
X180413D01*
X131102Y11417D02*
X248425D01*
X111811Y30709D02*
Y37795D01*
Y30709D02*
X131102Y11417D01*
X113348Y24765D02*
X128468Y9646D01*
X132283Y13386D02*
X247638D01*
X114961Y30709D02*
Y37795D01*
Y30709D02*
X132283Y13386D01*
X247638D02*
X253543Y19291D01*
X288760Y4232D02*
X315197Y30669D01*
X105217Y23631D02*
X124615Y4232D01*
X288760D01*
X66142Y73622D02*
X68504D01*
X73130Y78248D02*
X78347D01*
X68504Y73622D02*
X73130Y78248D01*
X125879Y108366D02*
X126294Y107951D01*
X123327Y108366D02*
X125879D01*
X74360Y48474D02*
X74410Y48524D01*
X69341Y48474D02*
X74360D01*
X69291Y48425D02*
X69341Y48474D01*
X17520Y84252D02*
Y90158D01*
X86437Y44882D02*
X87418Y45863D01*
X84646Y44882D02*
X86437D01*
X108268Y76378D02*
X112106D01*
X112500Y49687D02*
Y54232D01*
X109744Y24114D02*
X125984Y7874D01*
X112500Y54232D02*
X112598Y54331D01*
X106988Y46895D02*
X109842Y49749D01*
X128468Y9646D02*
X263189D01*
X267323Y13780D01*
X100394Y67520D02*
X100787Y67126D01*
X100394Y67520D02*
Y71260D01*
X99803D02*
X100394D01*
X93701Y68504D02*
Y73228D01*
X90158Y76772D02*
X93701Y73228D01*
X90158Y76772D02*
Y79528D01*
X86442Y48646D02*
X90035D01*
X86221Y48425D02*
X86442Y48646D01*
X90035D02*
X90158Y48524D01*
X88976Y72441D02*
Y74410D01*
Y67126D02*
Y72441D01*
X74508Y46063D02*
X77559D01*
X74213Y45768D02*
X74508Y46063D01*
X68191Y45768D02*
X74213D01*
X66634Y47324D02*
Y60138D01*
X66929Y60433D01*
X66634Y47324D02*
X68191Y45768D01*
X74606Y82480D02*
X75591D01*
X67716Y75591D02*
X74606Y82480D01*
X60532Y70768D02*
X65354Y75591D01*
X67716D01*
X62303Y69784D02*
X66142Y73622D01*
X68655Y81832D02*
X69135D01*
X66240Y82776D02*
X68110Y84646D01*
X53051Y82776D02*
X66240D01*
X68110Y84646D02*
X71321D01*
X74311Y104134D02*
Y105217D01*
X80315Y77165D02*
Y79528D01*
X79626Y76476D02*
X80315Y77165D01*
X82284Y75591D02*
Y79528D01*
X81398Y74705D02*
X82284Y75591D01*
X84252Y74016D02*
Y79528D01*
X83169Y72933D02*
X84252Y74016D01*
X84646Y70866D02*
X86221Y72441D01*
Y79528D01*
X88189Y75197D02*
X88976Y74410D01*
X88189Y76279D02*
Y79528D01*
X88189Y76279D02*
X88189Y76279D01*
X88189Y75197D02*
Y76279D01*
X94488Y67520D02*
X94882Y67126D01*
X88976D02*
X88976Y67126D01*
X88976Y67126D02*
X88976Y67126D01*
X83071Y67126D02*
X88976D01*
X94882D02*
X100394D01*
X94882Y67126D02*
X94882Y67126D01*
X107087Y77559D02*
X108268Y76378D01*
X107087Y77559D02*
Y83071D01*
X102756Y84449D02*
X105709D01*
X107087Y83071D01*
X116535Y114370D02*
Y117717D01*
X115945Y113779D02*
X116535Y114370D01*
X119272Y136240D02*
X120866Y134646D01*
X119272Y136240D02*
Y139370D01*
X103445Y49902D02*
X103937Y50394D01*
X103445Y22897D02*
Y49902D01*
Y22897D02*
X123881Y2461D01*
X105217Y23631D02*
Y47629D01*
X106988Y24365D02*
X125250Y6102D01*
X106988Y24365D02*
Y46895D01*
X109364Y93307D02*
X110138D01*
X108380Y92323D02*
X109364Y93307D01*
X78347Y78248D02*
Y79528D01*
X105807Y101287D02*
Y105807D01*
X108661Y108661D02*
X116339D01*
X105807Y105807D02*
X108661Y108661D01*
X108661Y103458D02*
Y103937D01*
X107579Y102375D02*
X108661Y103458D01*
X90533Y119095D02*
X90872Y118755D01*
X91874D01*
X92126Y118504D01*
X21654Y77953D02*
X28543D01*
X17913D02*
X21654D01*
Y84941D02*
Y85433D01*
Y84449D02*
Y84941D01*
X15748Y223819D02*
Y224016D01*
X12795Y226969D02*
X15748Y224016D01*
X7874Y226969D02*
X12795D01*
X15748Y196260D02*
Y196457D01*
X12795Y199409D02*
X15748Y196457D01*
X7874Y199409D02*
X12795D01*
X15748Y168701D02*
Y168898D01*
X12795Y171850D02*
X15748Y168898D01*
X7874Y171850D02*
X12795D01*
X15748Y141142D02*
Y141339D01*
X12795Y144291D02*
X15748Y141339D01*
X7874Y144291D02*
X12795D01*
X15748Y113583D02*
Y113779D01*
X12795Y116732D02*
X15748Y113779D01*
X7874Y116732D02*
X12795D01*
X119272Y116949D02*
Y122047D01*
Y116949D02*
X122441Y113779D01*
X122638D01*
X116624Y121959D02*
X116713Y122047D01*
X116624Y117805D02*
Y121959D01*
X116535Y117717D02*
X116624Y117805D01*
X64764Y79528D02*
X66240Y81004D01*
X67828D01*
X68655Y81832D01*
X15748Y161811D02*
Y162008D01*
X87418Y45863D02*
X90056D01*
X90158Y45965D01*
X156693Y104331D02*
X158071Y102953D01*
X161024D01*
X139354Y79921D02*
X157268Y97835D01*
X161024D01*
X157214Y95276D02*
X161024D01*
X252362Y15354D02*
X255906D01*
X248425Y11417D02*
X252362Y15354D01*
X253543Y19291D02*
X256299D01*
X35630Y100492D02*
Y103937D01*
X41339Y92323D02*
X44291D01*
X45669Y93701D01*
Y87402D02*
X48425D01*
X53051Y82776D01*
X41339Y90354D02*
X48622D01*
X54331Y84646D01*
X17520Y84252D02*
X17717Y84449D01*
X28543Y77953D02*
Y81496D01*
X21654Y90158D02*
Y93307D01*
X18996Y94587D02*
X20374D01*
X21654Y93307D01*
X17520Y96063D02*
X18996Y94587D01*
X17520Y78347D02*
X17913Y77953D01*
X28543D02*
X29921D01*
X22638Y86417D02*
X25591D01*
X21654Y85433D02*
X22638Y86417D01*
X29921Y77953D02*
X30512Y78543D01*
Y81496D01*
X28543Y77953D02*
X28543Y77953D01*
X23327Y88484D02*
X25492D01*
X21654Y90158D02*
X23327Y88484D01*
X25492D02*
X25591Y88386D01*
X54331Y84646D02*
X65354D01*
X125984Y7874D02*
X282283D01*
X282283Y7874D01*
X123881Y2461D02*
X306988D01*
X125250Y6102D02*
X288124D01*
X290551Y8529D02*
Y25315D01*
X285197Y30669D02*
X290551Y25315D01*
X288124Y6102D02*
X290551Y8529D01*
X306988Y2461D02*
X315197Y10669D01*
X69135Y81832D02*
X69193Y81890D01*
X71071D01*
X92126Y115748D02*
Y118504D01*
X109924Y100394D02*
X111318D01*
X64764Y109449D02*
Y113976D01*
X62598Y89370D02*
X63386Y90158D01*
X69291D01*
X65748Y88189D02*
X69854D01*
X57665Y86614D02*
X64173D01*
X65748Y88189D01*
X56299Y87500D02*
X56779D01*
X57665Y86614D01*
X67126Y86417D02*
X70587D01*
X65354Y84646D02*
X67126Y86417D01*
X69291Y90158D02*
X71457Y92323D01*
X52334Y92126D02*
X68754D01*
X70920Y94291D01*
X69854Y88189D02*
X72019Y90354D01*
X53150Y94095D02*
X68110D01*
X70276Y96260D01*
X98032Y118504D02*
X100084Y120557D01*
X92126Y118504D02*
X98032D01*
X90158Y113779D02*
X92126Y115748D01*
X90158Y107087D02*
Y113779D01*
X69685Y30315D02*
X72835Y27165D01*
X87008Y118254D02*
X88189Y117072D01*
X88189Y107087D02*
Y108510D01*
X88189Y108510D02*
X88189Y108510D01*
X88189Y108510D02*
Y117072D01*
X84646Y118110D02*
Y126181D01*
X80512Y130315D02*
X84646Y126181D01*
Y118110D02*
X86221Y116535D01*
X87008Y121850D02*
X88779Y123622D01*
X87008Y118254D02*
Y121850D01*
X88779Y123622D02*
X95276D01*
X100084Y120557D02*
Y122525D01*
X101181Y123622D01*
X86221Y107087D02*
Y116535D01*
X285079Y10669D02*
X285197D01*
X282283Y7874D02*
X285079Y10669D01*
X41428Y171564D02*
X43701Y169291D01*
X40807Y175787D02*
X41428Y175167D01*
Y171564D02*
Y175167D01*
X71321Y84646D02*
X73093Y86417D01*
X70587Y86417D02*
X72556Y88386D01*
X64764Y97638D02*
X65945Y98819D01*
X68898D01*
X69968Y98228D02*
X75591D01*
X69377Y98819D02*
X69968Y98228D01*
X68898Y98819D02*
X69377D01*
X70276Y96260D02*
X75591D01*
X65158Y102559D02*
X65650Y102067D01*
X72019Y90354D02*
X75591D01*
X71457Y92323D02*
X75591D01*
X65945Y108268D02*
X71260D01*
X74311Y105217D01*
X70894Y104303D02*
X73032Y102165D01*
X69587Y102067D02*
X71457Y100197D01*
X65650Y102067D02*
X69587D01*
X70894Y104303D02*
Y104380D01*
X73032Y102165D02*
X75591D01*
X74311Y104134D02*
X75591D01*
X70920Y94291D02*
X75591D01*
X71457Y100197D02*
X75591D01*
X146918Y60630D02*
X152716D01*
X146918Y58661D02*
X151901D01*
X152716Y60630D02*
X154331Y59016D01*
X151901Y58661D02*
X152362Y58200D01*
X146457Y61091D02*
Y64173D01*
Y61091D02*
X146918Y60630D01*
X146457Y55118D02*
Y58200D01*
X146918Y58661D01*
X130000Y48425D02*
X146457D01*
X128642Y49783D02*
X130000Y48425D01*
X128642Y49783D02*
Y50984D01*
X130000Y70866D02*
X146457D01*
X128642Y69508D02*
X130000Y70866D01*
X128642Y68307D02*
Y69508D01*
X180413Y167421D02*
X181805D01*
X182382Y166845D01*
X180413Y167421D02*
X180413Y167421D01*
X182382Y166634D02*
X183858Y165157D01*
X182382Y166634D02*
Y166845D01*
Y170374D02*
X183858Y171850D01*
X182382Y170163D02*
Y170374D01*
X181805Y169587D02*
X182382Y170163D01*
X72556Y88386D02*
X75591D01*
X73093Y86417D02*
X75591D01*
X74167Y84449D02*
X75591D01*
X74167Y84449D02*
X74167Y84449D01*
X73630Y84449D02*
X74167D01*
X71071Y81890D02*
X73630Y84449D01*
X73622Y130315D02*
X80118D01*
X102756Y88386D02*
X116339D01*
Y82284D02*
Y88189D01*
Y94095D02*
Y100000D01*
X108661Y96457D02*
X111811D01*
X102756Y90354D02*
X111614D01*
X115491Y92618D02*
X116180Y93307D01*
X113878Y92618D02*
X115491D01*
X111614Y90354D02*
X113878Y92618D01*
X105791Y96260D02*
X109924Y100394D01*
X106496Y94291D02*
X108661Y96457D01*
X107579Y100554D02*
Y102375D01*
X105254Y98228D02*
X107579Y100554D01*
X104717Y100197D02*
X105807Y101287D01*
X102756Y98228D02*
X105254D01*
X102756Y100197D02*
X104717D01*
X102756Y96260D02*
X105791D01*
X102756Y94291D02*
X106496D01*
X123031Y108661D02*
X123327Y108366D01*
X99410Y236811D02*
X104242D01*
X105580Y238150D02*
X107343D01*
X107382Y238189D01*
X104242Y236811D02*
X105580Y238150D01*
X80118Y130315D02*
X80512D01*
X65158Y102559D02*
X65158Y102559D01*
X104717Y92323D02*
X108380D01*
X104717Y92323D02*
X104717Y92323D01*
X102756Y92323D02*
X104717D01*
X118996Y236221D02*
X121661D01*
X118996Y238189D02*
X124409D01*
X127362Y235236D01*
X127559D01*
X103347Y240158D02*
X107382D01*
X118996Y242126D02*
X123031D01*
X123031Y242126D01*
X92913Y242913D02*
X96063Y246063D01*
Y246457D01*
X97638Y248031D01*
X98032D01*
X101969Y245472D02*
X105315Y242126D01*
X100246Y245472D02*
X101969D01*
X105315Y242126D02*
X107382D01*
X98032Y248031D02*
X99606Y246457D01*
Y246112D02*
Y246457D01*
Y246112D02*
X100246Y245472D01*
X91142Y241142D02*
X91339D01*
X92913Y242717D01*
Y242913D01*
X97835Y235236D02*
X99410Y236811D01*
X97835Y235236D02*
X97835Y235236D01*
Y241142D01*
D11*
X98032Y184252D02*
X103839D01*
X114173Y234055D02*
Y239112D01*
Y241203D02*
Y246260D01*
X113189Y240158D02*
X118996D01*
X104872Y194636D02*
X106693D01*
X108169Y196112D01*
Y204331D01*
X100394Y180315D02*
X103839D01*
X88582Y184252D02*
X92224D01*
Y188189D02*
X94980D01*
X88582Y184252D02*
X88582Y184252D01*
X95965Y187205D02*
X96063D01*
X103839Y180315D02*
X103839Y180315D01*
X94980Y188189D02*
X95965Y187205D01*
X103839Y186221D02*
X106693D01*
X90233Y186221D02*
X92224D01*
X91339Y171260D02*
Y180276D01*
X91378Y180315D02*
X92224D01*
X91339Y180276D02*
X91378Y180315D01*
X92224Y186221D02*
X92224Y186221D01*
X103839Y182283D02*
X109252D01*
X110039Y183071D01*
X84842Y181102D02*
X89052D01*
X90233Y182283D02*
X92224D01*
X89052Y181102D02*
X90233Y182283D01*
X88658Y187795D02*
X90233Y186221D01*
X84449Y187795D02*
X88658D01*
X106693Y57087D02*
X110039D01*
X101377Y51771D02*
X106693Y57087D01*
X99606Y52559D02*
X107480Y60433D01*
X101377Y14763D02*
Y51771D01*
X99606Y15354D02*
Y52559D01*
X66209Y5906D02*
X90158D01*
X99606Y15354D01*
X63386Y5906D02*
Y10236D01*
X64961Y4331D02*
X90945D01*
X63386Y5906D02*
X64961Y4331D01*
X90945D02*
X101377Y14763D01*
X65748Y6367D02*
X66209Y5906D01*
X65748Y6367D02*
Y10236D01*
X37008Y69291D02*
X41339D01*
X42717Y67913D01*
X34449Y74016D02*
Y81496D01*
Y63189D02*
Y74016D01*
X41339D01*
X42717Y75394D01*
X149606Y104331D02*
X156693D01*
X145686Y206710D02*
X146063Y207087D01*
X145686Y205529D02*
Y206710D01*
X145669Y205512D02*
X145686Y205529D01*
X145669Y205512D02*
X145866Y205315D01*
X135335Y204331D02*
X141339D01*
X141929Y203740D01*
Y202559D02*
Y203740D01*
X118996Y244094D02*
Y246161D01*
X120866Y248031D01*
Y249016D01*
X123130Y251279D02*
Y259842D01*
X120866Y249016D02*
X123130Y251279D01*
X113189Y240218D02*
X114173Y241203D01*
X113189Y240158D02*
Y240218D01*
X112205Y241461D02*
Y246260D01*
X109843Y244094D02*
X111403Y242534D01*
Y241944D02*
X113189Y240158D01*
X111403Y241944D02*
Y242534D01*
X107382Y244094D02*
X109843D01*
X113189Y239838D02*
Y240096D01*
X114173Y239112D01*
X113189Y240096D02*
Y240158D01*
X112205Y234055D02*
Y238854D01*
X113189Y239838D01*
X114927Y65585D02*
X116074D01*
X116535Y65124D01*
Y60236D02*
Y65124D01*
X257087Y20669D02*
Y26969D01*
X120965Y50984D02*
Y58200D01*
X118110Y58661D02*
X121426D01*
X116535Y60236D02*
X118110Y58661D01*
X118571Y60630D02*
X120965D01*
X118110Y61091D02*
X118571Y60630D01*
X118110Y61091D02*
Y69156D01*
X120965Y60630D02*
X131102D01*
X121426Y58661D02*
X131102D01*
X120965Y58200D02*
X121426Y58661D01*
X120965Y60630D02*
X120965Y60630D01*
X120965Y60630D02*
Y68307D01*
X116794Y70473D02*
X118110Y69156D01*
X113386Y66929D02*
Y67126D01*
X114927Y65585D01*
X110630Y70473D02*
X116794D01*
X134646Y55118D02*
Y55315D01*
X133071Y56890D02*
X134646Y55315D01*
X132874Y56890D02*
X133071D01*
X131102Y58661D02*
X132874Y56890D01*
X134646Y63976D02*
Y64173D01*
X133071Y62401D02*
X134646Y63976D01*
X132874Y62401D02*
X133071D01*
X131102Y60630D02*
X132874Y62401D01*
X120551Y51398D02*
X120965Y50984D01*
X120551Y51398D02*
Y52677D01*
X95669Y74803D02*
X102362D01*
X94095Y76378D02*
X95669Y74803D01*
X103150Y76378D02*
X106299Y73228D01*
X97244Y76378D02*
X103150D01*
X96063Y77559D02*
X97244Y76378D01*
X104331Y64471D02*
Y72835D01*
X102362Y74803D02*
X104331Y72835D01*
X66929Y11417D02*
X74410D01*
X65748Y10236D02*
X66929Y11417D01*
X55905D02*
X60236D01*
X60236D02*
X62205D01*
X60236D02*
X60236D01*
X62205D02*
X63386Y10236D01*
X111811Y58661D02*
X113386Y60236D01*
X111614Y58661D02*
X111811D01*
X110039Y57087D02*
X111614Y58661D01*
X113386Y60236D02*
Y60433D01*
X94095Y76378D02*
Y79528D01*
X107480Y67323D02*
X110630Y70473D01*
X105023Y63779D02*
X110039D01*
X111811Y65354D02*
X113386Y66929D01*
X111614Y65354D02*
X111811D01*
X110039Y63779D02*
X111614Y65354D01*
X107480Y67126D02*
Y67323D01*
X106299Y68307D02*
X107480Y67126D01*
X106299Y68307D02*
Y73228D01*
X96063Y77559D02*
Y79528D01*
X94095Y79528D02*
X94095Y79528D01*
X104331Y64471D02*
X105023Y63779D01*
X110236Y128740D02*
X111221Y129724D01*
X98032Y111417D02*
X110236Y123622D01*
X113692Y131693D02*
X114154Y132154D01*
Y139370D01*
X111221Y129724D02*
X113692D01*
X110236Y123622D02*
Y128740D01*
X98032Y107087D02*
Y111417D01*
X107535Y187063D02*
Y188637D01*
X106693Y186221D02*
X107535Y187063D01*
X84055Y168839D02*
Y175591D01*
Y168839D02*
X84390Y168504D01*
X84055Y175591D02*
Y181890D01*
X84055Y175591D02*
X84055Y175591D01*
X83858Y188189D02*
X84055D01*
X77559Y181890D02*
X83858Y188189D01*
X77362Y181890D02*
X77559D01*
X84055D02*
X84842Y181102D01*
X84055Y188189D02*
X84449Y187795D01*
X138779Y122047D02*
X140354Y120473D01*
X136024Y122047D02*
X138779D01*
X134449Y120473D02*
X136024Y122047D01*
X138779Y139370D02*
X140354Y140945D01*
X136024Y139370D02*
X138779D01*
X134449Y140945D02*
X136024Y139370D01*
X121831Y139370D02*
X132874D01*
X121831Y122047D02*
X132874D01*
X134449Y120473D01*
X132874Y139370D02*
X134449Y140945D01*
X128543Y134252D02*
X130118Y132677D01*
X132874D02*
X134449Y134252D01*
X130118Y132677D02*
X132874D01*
X128543Y127165D02*
X130118Y128740D01*
X132874D02*
X134449Y127165D01*
X130118Y128740D02*
X132874D01*
X128543Y134055D02*
Y134252D01*
X126969Y132480D02*
X128543Y134055D01*
X126772Y132480D02*
X126969D01*
X125984Y131693D02*
X126772Y132480D01*
X113692Y131693D02*
X125984D01*
X126969Y128937D02*
X128740Y127165D01*
X126772Y128937D02*
X126969D01*
X125984Y129724D02*
X126772Y128937D01*
X113692Y129724D02*
X125984D01*
X108661Y124274D02*
Y129949D01*
X110405Y131693D01*
X96063Y111676D02*
X108661Y124274D01*
X96063Y107087D02*
Y111676D01*
X110405Y131693D02*
X113692D01*
Y129724D02*
X114154Y129263D01*
Y122047D02*
Y129263D01*
X107535Y188637D02*
X107874Y188976D01*
X37795Y57587D02*
Y59842D01*
X34449Y63189D02*
X37795Y59842D01*
X32480Y69291D02*
Y81496D01*
Y63583D02*
Y69291D01*
X29921D02*
X32480D01*
X30709Y51575D02*
X33895Y54761D01*
X34969D01*
X37795Y57587D01*
X27559Y58661D02*
X32480Y63583D01*
X42717Y67913D02*
X44291Y69488D01*
X134646Y55118D02*
X140551D01*
X134646Y64173D02*
X140551D01*
D44*
X80709Y161024D02*
X84390D01*
X88189Y159843D02*
X92126D01*
X93307Y161024D01*
X84390Y159843D02*
X88189D01*
X95276Y161024D02*
X96457Y159843D01*
X93307Y161024D02*
X95276D01*
X165945Y211417D02*
X176969D01*
X91339Y166535D02*
Y171260D01*
Y166535D02*
X91339D01*
X58661Y45243D02*
X64961Y38944D01*
Y38189D02*
Y38944D01*
X115354Y51345D02*
Y51772D01*
X216339Y179528D02*
X239764D01*
X245079Y163386D02*
Y174213D01*
X239764Y179528D02*
X245079Y174213D01*
X202165Y179528D02*
X209646D01*
X93307Y38583D02*
X96457Y41732D01*
X92520Y38583D02*
X93307D01*
X190945Y223622D02*
X203150Y235827D01*
X184055Y186614D02*
X190945Y193504D01*
Y223622D01*
X183071Y194488D02*
Y199213D01*
Y194488D02*
X183071Y194488D01*
X145866Y202559D02*
Y205315D01*
X112598Y163209D02*
X115965Y159843D01*
X112598Y163209D02*
Y163779D01*
X115965Y159843D02*
X116555D01*
X98032Y171260D02*
X101969Y167323D01*
X97835Y171260D02*
X98032D01*
X101969Y167323D02*
Y167323D01*
X171575Y153524D02*
X172362D01*
X78347Y163386D02*
X80709Y161024D01*
X77362Y175591D02*
X78347Y174606D01*
Y163386D02*
Y174606D01*
X172362Y152736D02*
Y153524D01*
X170374Y154724D02*
X171575Y153524D01*
X167717Y154724D02*
X170374D01*
X177480Y144902D02*
X182500D01*
X182677Y145079D01*
X159449Y142146D02*
X173420D01*
X174921Y143647D02*
Y144902D01*
X173420Y142146D02*
X174921Y143647D01*
X247638Y50394D02*
X253937D01*
X257087Y47244D01*
Y46654D02*
Y47244D01*
Y33661D02*
Y39961D01*
X116142Y105315D02*
X116339Y105512D01*
X113222Y105315D02*
X116142D01*
X112631Y104724D02*
X113222Y105315D01*
X112205Y104724D02*
X112631D01*
X123622Y64173D02*
Y68209D01*
X126299Y65859D02*
X127165Y64993D01*
Y63386D02*
Y64993D01*
X126299Y65859D02*
Y68090D01*
X123524Y68307D02*
X123622Y68209D01*
X118110Y48819D02*
Y54331D01*
X114961Y44488D02*
X115157Y44685D01*
Y45866D01*
X118110Y48819D01*
X112008Y46260D02*
X114370Y48622D01*
X112008Y44685D02*
Y46260D01*
X114370Y48622D02*
Y50361D01*
X115354Y51345D01*
X111811Y44488D02*
X112008Y44685D01*
X122835Y44094D02*
Y46063D01*
X126083Y68307D02*
X126299Y68090D01*
X71260Y52854D02*
Y53150D01*
Y52854D02*
X73032Y51083D01*
X74410D01*
X56299Y44822D02*
Y73177D01*
X59448Y72834D02*
Y75197D01*
X58661Y45243D02*
Y72047D01*
X59448Y72834D01*
X56196Y73280D02*
X56299Y73177D01*
Y44822D02*
X61811Y39310D01*
X116713Y134646D02*
X116732Y134627D01*
X116713Y134646D02*
Y139370D01*
X165551Y148819D02*
X174921D01*
X165354Y148622D02*
X165551Y148819D01*
X174921D02*
Y152736D01*
Y157677D01*
X173543Y159055D02*
X174921Y157677D01*
X173425Y159055D02*
X173543D01*
X177480Y152736D02*
Y156614D01*
X179921Y159055D01*
X180118D01*
X165354Y205315D02*
X165354Y205315D01*
X203150Y235827D02*
Y261811D01*
X197756Y267205D02*
Y270905D01*
Y267205D02*
X203150Y261811D01*
X197756Y270905D02*
X207756D01*
X194291Y260906D02*
X194350Y260965D01*
X199153D01*
X199213Y261024D01*
X197756Y240905D02*
Y253902D01*
X195752Y255906D02*
X197756Y253902D01*
X194291Y255906D02*
X195752D01*
X182480Y185039D02*
X182677D01*
X184055Y186417D01*
Y186614D01*
X175197Y185630D02*
Y190748D01*
Y185630D02*
X175787Y185039D01*
X163779Y186221D02*
X169291D01*
X162205Y184646D02*
X163779Y186221D01*
X165748Y200787D02*
Y204921D01*
X165354Y205315D02*
X165748Y204921D01*
Y211614D02*
X165945Y211417D01*
X181299Y203543D02*
X182283D01*
X179429Y202461D02*
X180512Y203543D01*
X181299D01*
X177953Y203937D02*
X179134Y202756D01*
X172441Y204823D02*
X173327Y203937D01*
X181299D02*
X182283Y204921D01*
X173327Y203937D02*
X177953D01*
X175295Y198228D02*
X176476Y199409D01*
X175197Y198228D02*
X175295D01*
X176476Y199409D02*
Y199508D01*
X179429Y202461D01*
X144488Y178051D02*
X144882Y177657D01*
X144488Y178051D02*
Y182087D01*
X149409Y178740D02*
X150787Y177362D01*
X149409Y178740D02*
Y180905D01*
X148819Y181496D02*
X149409Y180905D01*
X148819Y181496D02*
Y181922D01*
X161811Y178740D02*
Y181395D01*
X151772Y182726D02*
X157111Y177387D01*
X222835Y100197D02*
X223228Y99803D01*
X116713Y139370D02*
X116713Y139370D01*
X50787Y167520D02*
X50807Y167539D01*
Y175787D01*
X35807D02*
X35817Y175778D01*
Y170089D02*
Y175778D01*
Y170089D02*
X35827Y170079D01*
X153150Y100394D02*
X161024D01*
X152756Y100787D02*
X153150Y100394D01*
X153150Y108071D02*
X161024D01*
X152756Y107677D02*
X153150Y108071D01*
X96457Y41732D02*
Y41929D01*
X90158Y43406D02*
X96161D01*
X96457Y43110D01*
X36417Y78543D02*
Y81496D01*
Y78543D02*
X37795Y77165D01*
X53543Y79528D02*
X58071D01*
X50787Y71850D02*
X50984Y71653D01*
X50787Y71850D02*
Y75591D01*
X61811Y34740D02*
Y39310D01*
X59055Y26181D02*
Y31985D01*
X61811Y34740D01*
X144488Y182087D02*
X145866Y183465D01*
Y186024D01*
X151772Y182726D02*
Y186024D01*
X155709Y178740D02*
X157087Y177362D01*
X155118Y182283D02*
X160922D01*
X153740Y183661D02*
X155118Y182283D01*
X153740Y183661D02*
Y186024D01*
X160922Y182283D02*
X161811Y181395D01*
Y178740D02*
X162205D01*
X161614Y178937D02*
X161811Y178740D01*
X155905Y184646D02*
X162205D01*
X155709Y184843D02*
X155905Y184646D01*
X155709Y184843D02*
Y186024D01*
X127559Y43504D02*
X128445Y42618D01*
X127559Y43504D02*
Y46063D01*
X126083Y47539D02*
Y50984D01*
Y47539D02*
X127559Y46063D01*
X123524Y46752D02*
Y50984D01*
X122835Y46063D02*
X123524Y46752D01*
X148622Y261771D02*
X154488Y255906D01*
X148622Y261771D02*
Y268701D01*
X154488Y255906D02*
X169291D01*
X100394Y272638D02*
X144685D01*
X148622Y268701D01*
X168307Y269094D02*
X168898Y269685D01*
X168307Y265748D02*
Y269094D01*
X175197Y269291D02*
X175591Y269685D01*
X169291Y260906D02*
X170881D01*
X175197Y265222D01*
Y269291D01*
X97933Y270177D02*
X100394Y272638D01*
X97933Y263779D02*
Y270177D01*
X148819Y181922D02*
X149803Y182906D01*
X165354Y205315D02*
X165748Y204921D01*
X149803Y182906D02*
Y186024D01*
X168898Y186417D02*
X168898Y186417D01*
X148819Y194291D02*
X151181D01*
D45*
X110728Y172146D02*
Y176378D01*
X96457Y159843D02*
Y161811D01*
X84646Y197638D02*
Y201575D01*
Y208661D01*
X112106Y82284D02*
X116339D01*
X57579Y108957D02*
X58071Y109449D01*
X54841Y108957D02*
X57579D01*
X64961Y115945D02*
Y118898D01*
X64567Y115551D02*
X64961Y115945D01*
X64567Y115551D02*
X64764Y115354D01*
X58268Y115551D02*
Y119291D01*
X58071Y115354D02*
X58268Y115551D01*
X54331Y103543D02*
X58071D01*
X66929Y67126D02*
X67323Y67520D01*
Y70866D01*
X83465Y56693D02*
Y59842D01*
X83563Y59941D01*
X120079Y41339D02*
X122047Y43307D01*
X118110Y41339D02*
X120079D01*
X100108Y56800D02*
X100197Y56890D01*
X96555Y48720D02*
Y52255D01*
X162992Y193504D02*
Y197244D01*
Y193504D02*
X162992Y193504D01*
X168898Y193110D02*
Y196850D01*
Y193110D02*
X168898Y193110D01*
X157087Y166929D02*
Y170669D01*
X157087Y170669D01*
X150787Y166929D02*
Y170669D01*
X144095Y166929D02*
Y170571D01*
X143898Y170768D02*
X144095Y170571D01*
X139173Y159449D02*
X139173Y159449D01*
X142913D01*
X118405Y176378D02*
X122047D01*
X101181Y130315D02*
Y134252D01*
X101181Y130315D02*
X101181Y130315D01*
X95276Y130315D02*
Y134252D01*
X95276Y130315D02*
X95276Y130315D01*
X123246Y88189D02*
X126772D01*
X123139Y88296D02*
X123246Y88189D01*
X123031Y94095D02*
X126772D01*
X191339Y38976D02*
X196457D01*
X197244Y38189D01*
X72835Y67126D02*
Y70866D01*
X142520Y107480D02*
X149016Y100984D01*
X152756D01*
X147638Y112992D02*
X152756Y107874D01*
Y107677D02*
Y107874D01*
X152756Y100984D02*
X152756Y100984D01*
X8661Y102953D02*
X10039D01*
X11417Y101575D02*
X14567D01*
X10039Y102953D02*
X11417Y101575D01*
X7874Y103740D02*
X8661Y102953D01*
X7874Y127559D02*
Y131299D01*
Y155118D02*
Y158858D01*
Y182677D02*
Y186417D01*
Y209842D02*
Y213976D01*
X15748Y213386D02*
Y217126D01*
X28543Y104331D02*
X28937Y103937D01*
X25197Y104331D02*
X28543D01*
X184055Y211024D02*
X186221D01*
X182283Y211614D02*
Y211614D01*
X182874Y212205D01*
X184055Y211024D01*
X134301Y239665D02*
Y244045D01*
Y235285D02*
Y239173D01*
X118307Y183071D02*
X122047D01*
X118307Y188976D02*
X122047D01*
X77658Y208661D02*
X78347Y209350D01*
Y213779D01*
X50787Y167520D02*
X50984Y167323D01*
X54331D01*
X50984Y161024D02*
X54331D01*
X50787Y160827D02*
X50984Y161024D01*
X68701Y143307D02*
X69095Y142913D01*
X64173Y143307D02*
X68701D01*
X226378Y212598D02*
X226772Y212992D01*
X226378Y208268D02*
Y212598D01*
X96457Y157874D02*
Y159843D01*
X101969Y167323D02*
X105512D01*
X96457Y161811D02*
X101969Y167323D01*
X101575Y152756D02*
X107283D01*
X96457Y157874D02*
X101575Y152756D01*
X107283D02*
X107283Y152756D01*
X107874D01*
X104278Y158870D02*
X107295D01*
X107874Y159449D01*
Y152756D02*
X108248Y152382D01*
X107874Y159449D02*
X108268Y159055D01*
X105768Y167106D02*
Y167717D01*
X105354Y166693D02*
X105768Y167106D01*
X107480Y176378D02*
X110728D01*
X107874Y188976D02*
X111614D01*
X105768Y167717D02*
Y168327D01*
X106181Y168740D01*
X107323D01*
X110728Y172146D01*
X173228Y159055D02*
X174016Y159843D01*
Y162598D01*
X257087Y13976D02*
X257677Y13386D01*
X260630D01*
X122047Y43307D02*
Y43504D01*
X123031Y76378D02*
X126772D01*
X72835Y56693D02*
Y60433D01*
X88976D02*
X88976Y60433D01*
Y56693D02*
Y60433D01*
X94291Y56693D02*
Y59842D01*
X94882Y60433D01*
X7087Y78347D02*
X10827D01*
X7087Y84252D02*
X10827D01*
X7087Y90158D02*
X10827D01*
X7087Y96063D02*
X10827D01*
X121850Y36614D02*
X122047Y36811D01*
X118504Y36614D02*
X121850D01*
X100197Y59842D02*
X100787Y60433D01*
X100197Y56890D02*
Y59842D01*
X83071Y60433D02*
X83563Y59941D01*
X84646Y208661D02*
Y213779D01*
X112205Y76378D02*
X116339D01*
X96457Y48622D02*
X96555Y48720D01*
X132677Y148425D02*
Y152165D01*
X81102Y17323D02*
Y23228D01*
X49213Y17323D02*
X49606Y16929D01*
Y11024D02*
Y16929D01*
X49213Y17323D02*
X49606Y17717D01*
Y23622D01*
X62598Y17323D02*
X62992Y17717D01*
Y23228D01*
X67716Y17323D02*
X67717Y17323D01*
X67716Y17323D02*
Y23228D01*
X81102Y11417D02*
Y17323D01*
X164567Y49213D02*
X164961Y49606D01*
Y55905D01*
X177953Y49213D02*
Y55905D01*
X173228Y159055D02*
X173425D01*
X182677Y151575D02*
Y151772D01*
X180512Y149409D02*
X182677Y151575D01*
X179081Y149409D02*
X180512D01*
X178864Y149193D02*
X179081Y149409D01*
X175295Y149193D02*
X178864D01*
X174921Y148819D02*
X175295Y149193D01*
X183071Y151772D02*
Y151969D01*
X186221Y155118D01*
Y155118D01*
X157087Y170669D02*
X162992D01*
X116535Y152382D02*
X116555Y152362D01*
X108248Y152382D02*
X116535D01*
X108268Y159055D02*
X110630D01*
X116535Y156122D02*
X116555Y156102D01*
X113563Y156122D02*
X116535D01*
X110630Y159055D02*
X113563Y156122D01*
X126752Y159843D02*
X126772Y159823D01*
X132106D01*
X132480Y159449D01*
X138976Y152165D02*
X139173Y152362D01*
X138976Y148819D02*
Y152165D01*
X132480Y152362D02*
X132677Y152165D01*
X126752Y152362D02*
X132480D01*
X126752Y152362D02*
X126752Y152362D01*
X105512Y113779D02*
X109252D01*
X129331D02*
X133071D01*
X84646Y208661D02*
X89764D01*
X84547D02*
X84646D01*
X89764D02*
X90256Y208169D01*
Y204331D02*
Y208169D01*
X77559Y201378D02*
X77756Y201575D01*
X77559Y197638D02*
Y201378D01*
X77362Y188189D02*
X77559Y188386D01*
Y192126D01*
X123031Y88189D02*
X123139Y88296D01*
X123031Y82284D02*
X126772D01*
X91093Y248081D02*
Y257928D01*
Y258120D02*
Y263730D01*
Y258120D02*
X91285Y257928D01*
X54331Y97638D02*
X58071D01*
X127953Y36811D02*
X128150Y37008D01*
X131496D01*
X73622Y123622D02*
X80118D01*
X73622Y123622D02*
X73622Y123622D01*
X88779Y130315D02*
X95276D01*
X88779Y130315D02*
X88779Y130315D01*
X70079Y123622D02*
X73622D01*
X168898Y193110D02*
X169291Y193504D01*
X122047Y36811D02*
Y37008D01*
X122638Y37598D01*
X123031Y100000D02*
X126772D01*
X91536Y231299D02*
Y233661D01*
X90551Y234646D02*
X91536Y233661D01*
X90551Y234646D02*
X91142Y235236D01*
X35807Y209449D02*
X36004Y209646D01*
X36417D01*
X35807Y196260D02*
Y209449D01*
X43307Y209842D02*
X43799Y210335D01*
X43307Y205709D02*
Y209842D01*
X40807Y196260D02*
Y203209D01*
X43307Y205709D01*
X134301Y244045D02*
X134350Y244094D01*
X134252Y235236D02*
X134301Y235285D01*
X91043Y263779D02*
X91093Y263730D01*
Y248081D02*
X91142Y248031D01*
X97835Y253937D02*
X98425Y254528D01*
Y258858D01*
X97933Y263779D02*
X98425Y263287D01*
Y258858D02*
Y263287D01*
X97933Y263779D02*
X104724D01*
X105217Y263287D01*
Y259842D02*
Y263287D01*
X129567Y252165D02*
X133071D01*
X127461Y244094D02*
X127953Y244587D01*
Y250551D01*
X129567Y252165D01*
X133071D02*
X134843Y253937D01*
X125492Y242126D02*
X126083Y242717D01*
X123031Y242126D02*
X125492D01*
X130551Y264764D02*
X133858D01*
X128937Y263149D02*
X130551Y264764D01*
X128937Y260827D02*
Y263149D01*
X133858Y264764D02*
X134843Y265748D01*
X135236Y253543D02*
X143425D01*
X145039Y251929D01*
Y249646D02*
X146654Y248031D01*
X145039Y249646D02*
Y251929D01*
X134843Y265748D02*
X136388Y264203D01*
X155878Y248649D02*
X157847D01*
X136388Y264203D02*
X140325D01*
X155878Y248649D01*
X157847D02*
X158465Y248031D01*
X134843Y253937D02*
X135236Y253543D01*
D46*
X186539Y144957D02*
X186614Y144882D01*
X183192Y144957D02*
X186539D01*
X117126Y196653D02*
Y204035D01*
Y196653D02*
X118110Y195669D01*
X122047D01*
X126673Y171653D02*
Y187402D01*
X122047Y195669D02*
Y195669D01*
Y195669D02*
X125890Y191826D01*
X132874Y239173D02*
X132949Y239249D01*
X133884D01*
X134301Y239665D01*
X183071Y145079D02*
X183192Y144957D01*
X159449Y149803D02*
Y153937D01*
X166611Y135902D02*
X166929Y136221D01*
X162674Y135902D02*
X166611D01*
X162598Y135827D02*
X162674Y135902D01*
X164173Y73228D02*
X164370Y73425D01*
X171654D01*
X171850Y73622D01*
X164173Y62205D02*
X168504D01*
X180118Y159055D02*
X183858D01*
X126279Y171260D02*
X126673Y171653D01*
X121575Y171260D02*
X126279D01*
X118642Y167717D02*
Y168327D01*
X121575Y171260D01*
X126673Y171653D02*
X126723Y171604D01*
Y167372D02*
Y171604D01*
Y167372D02*
X126772Y167323D01*
X57874Y202559D02*
Y206693D01*
X53937Y195669D02*
X57087D01*
X51398D02*
X53937D01*
X50807Y196260D02*
X51398Y195669D01*
X57087D02*
X57480Y196063D01*
X125890Y188185D02*
X126673Y187402D01*
X125890Y188185D02*
Y191826D01*
X45807Y196260D02*
Y201212D01*
X47244Y202649D01*
Y202756D01*
D47*
X186555Y81831D02*
X190492D01*
X192578Y86869D02*
X192717Y87008D01*
X192578Y83916D02*
Y86869D01*
X190492Y81831D02*
X192578Y83916D01*
X191496Y115000D02*
X192717Y113779D01*
X191496Y115000D02*
Y117165D01*
X187992Y120669D02*
X191496Y117165D01*
X185039Y120669D02*
X187992D01*
X185039Y68898D02*
Y73425D01*
X171260Y55118D02*
X185039Y68898D01*
Y80315D02*
X186555Y81831D01*
X185039Y80118D02*
Y80315D01*
Y127362D02*
X185236Y127165D01*
X188583D01*
D48*
X338071Y122795D02*
D03*
X308071D02*
D03*
X338071Y92795D02*
D03*
X308071D02*
D03*
Y152795D02*
D03*
X338071D02*
D03*
X308071Y182795D02*
D03*
X338071D02*
D03*
D49*
X351929Y62795D02*
D03*
Y212795D02*
D03*
D50*
X250166Y225504D02*
D03*
X279361Y180008D02*
D03*
D51*
X315197Y10669D02*
D03*
X285197Y30669D02*
D03*
X315197D02*
D03*
X285197Y10669D02*
D03*
Y20669D02*
D03*
X315197D02*
D03*
D52*
X170276Y236221D02*
D03*
X158465D02*
D03*
X146654D02*
D03*
X170276Y248031D02*
D03*
X158465D02*
D03*
X83661Y236221D02*
D03*
X71850D02*
D03*
X60039D02*
D03*
X83661Y248031D02*
D03*
X71850D02*
D03*
D53*
X146654Y248031D02*
D03*
X60039Y248031D02*
D03*
D54*
X158465Y264961D02*
D03*
X71850Y264961D02*
D03*
D55*
X111221Y237205D02*
D03*
X115157D02*
D03*
Y243110D02*
D03*
X111221D02*
D03*
X113189Y240158D02*
D03*
X98032Y184252D02*
D03*
X96063Y187205D02*
D03*
X100000D02*
D03*
Y181299D02*
D03*
X96063D02*
D03*
X123031Y235236D02*
D03*
X186614Y144882D02*
D03*
X66535Y159843D02*
D03*
X88189D02*
D03*
X196850Y104921D02*
D03*
Y110039D02*
D03*
X212598D02*
D03*
Y104921D02*
D03*
X204724Y110039D02*
D03*
Y107480D02*
D03*
Y104921D02*
D03*
X83268Y87402D02*
D03*
X95079D02*
D03*
Y99213D02*
D03*
X83268D02*
D03*
X91339Y166535D02*
D03*
X88582Y184252D02*
D03*
X112106Y82284D02*
D03*
X54841Y108957D02*
D03*
X40551Y109843D02*
D03*
Y115354D02*
D03*
X64961Y118898D02*
D03*
X58268Y119291D02*
D03*
X82284Y115354D02*
D03*
X77559Y111417D02*
D03*
X71260D02*
D03*
X54331Y103543D02*
D03*
X35433Y112598D02*
D03*
X67323Y70866D02*
D03*
X83465Y56693D02*
D03*
X64961Y26378D02*
D03*
Y38189D02*
D03*
X118110Y41339D02*
D03*
X115354Y51772D02*
D03*
X107874Y54331D02*
D03*
X109842Y50788D02*
D03*
X100108Y56800D02*
D03*
X103937Y50689D02*
D03*
X96555Y52255D02*
D03*
X212598Y107480D02*
D03*
X196850D02*
D03*
Y102362D02*
D03*
X162992Y197244D02*
D03*
X168898Y196850D02*
D03*
X157087Y166929D02*
D03*
X150787D02*
D03*
X144095D02*
D03*
X142913Y159449D02*
D03*
X122047Y176378D02*
D03*
X101181Y134252D02*
D03*
X95276D02*
D03*
X126772Y88189D02*
D03*
Y94095D02*
D03*
X191339Y38976D02*
D03*
X35433Y118110D02*
D03*
X129528Y85039D02*
D03*
X130708Y75197D02*
D03*
X129921Y79921D02*
D03*
X142520Y107480D02*
D03*
X147638Y112992D02*
D03*
X92520Y38583D02*
D03*
X15748Y213386D02*
D03*
X7874Y182677D02*
D03*
Y155118D02*
D03*
X14567Y101575D02*
D03*
X7874Y127559D02*
D03*
X25197Y104331D02*
D03*
X186221Y211024D02*
D03*
X183071Y199213D02*
D03*
X176969Y211417D02*
D03*
X137402Y187402D02*
D03*
Y179528D02*
D03*
Y171653D02*
D03*
X54331Y161024D02*
D03*
X105905Y125591D02*
D03*
X93307Y111024D02*
D03*
X64173Y143307D02*
D03*
X277165Y259842D02*
D03*
Y256693D02*
D03*
X274016D02*
D03*
Y250394D02*
D03*
Y253543D02*
D03*
X277165Y250394D02*
D03*
Y253543D02*
D03*
X274016Y247244D02*
D03*
X277165Y244094D02*
D03*
Y247244D02*
D03*
X283465Y259842D02*
D03*
Y256693D02*
D03*
X280315Y259842D02*
D03*
Y256693D02*
D03*
Y250394D02*
D03*
Y253543D02*
D03*
X283465Y250394D02*
D03*
Y253543D02*
D03*
X280315Y244094D02*
D03*
Y247244D02*
D03*
X283465Y244094D02*
D03*
Y247244D02*
D03*
X289764Y247244D02*
D03*
Y244094D02*
D03*
X286614Y247244D02*
D03*
Y244094D02*
D03*
X289764Y253543D02*
D03*
Y250394D02*
D03*
X286614Y253543D02*
D03*
Y250394D02*
D03*
Y256693D02*
D03*
Y259842D02*
D03*
X289764Y256693D02*
D03*
X226378Y208268D02*
D03*
X112598Y163779D02*
D03*
X104278Y158870D02*
D03*
X235039Y99606D02*
D03*
X179921Y164173D02*
D03*
X167717Y154724D02*
D03*
X174016Y162598D02*
D03*
X169685Y144902D02*
D03*
X162598Y135827D02*
D03*
X113348Y24765D02*
D03*
X168504Y62205D02*
D03*
X260630Y13386D02*
D03*
X171654Y90945D02*
D03*
Y87795D02*
D03*
X84646Y44882D02*
D03*
X126772Y76378D02*
D03*
X127165Y63386D02*
D03*
X123622Y64173D02*
D03*
X112106Y76378D02*
D03*
X112205Y104724D02*
D03*
X118110Y54331D02*
D03*
X112598D02*
D03*
X69291Y48425D02*
D03*
X71260Y53150D02*
D03*
X72835Y56693D02*
D03*
X88976Y56693D02*
D03*
X100394Y71260D02*
D03*
X86221Y48425D02*
D03*
X94291Y56693D02*
D03*
X56196Y73280D02*
D03*
X59448Y75197D02*
D03*
X69135Y81832D02*
D03*
X88976Y72441D02*
D03*
X118504Y36614D02*
D03*
X116732Y134627D02*
D03*
X116535Y117717D02*
D03*
X132677Y148425D02*
D03*
X120866Y134646D02*
D03*
X81102Y23228D02*
D03*
X49606Y11024D02*
D03*
Y23622D02*
D03*
X62992Y23228D02*
D03*
X67716D02*
D03*
X81102Y11417D02*
D03*
X110138Y93307D02*
D03*
X72835Y70866D02*
D03*
X226378Y163386D02*
D03*
Y159449D02*
D03*
Y155512D02*
D03*
X230315Y163386D02*
D03*
Y159449D02*
D03*
Y155512D02*
D03*
Y167323D02*
D03*
X226378D02*
D03*
X159449Y153937D02*
D03*
X164961Y55905D02*
D03*
X177953D02*
D03*
X178347Y110630D02*
D03*
X179528Y124016D02*
D03*
X188583Y127165D02*
D03*
X108661Y103937D02*
D03*
X183858Y159055D02*
D03*
X186221Y155118D02*
D03*
X126772Y167323D02*
D03*
X152559Y194095D02*
D03*
X199213Y261024D02*
D03*
X165748Y200787D02*
D03*
X156693Y207087D02*
D03*
X159646D02*
D03*
X146063D02*
D03*
X138976Y148819D02*
D03*
X105512Y113779D02*
D03*
X84646Y213779D02*
D03*
X77559Y197638D02*
D03*
X84646D02*
D03*
X77559Y192126D02*
D03*
X90533Y119095D02*
D03*
X54331Y167323D02*
D03*
X35827Y170079D02*
D03*
X7087Y78347D02*
D03*
Y84252D02*
D03*
Y90158D02*
D03*
Y96063D02*
D03*
X21654Y77953D02*
D03*
X31496Y87008D02*
D03*
X35433Y91732D02*
D03*
X21654Y84941D02*
D03*
X7874Y209842D02*
D03*
X133071Y113779D02*
D03*
X122047Y183071D02*
D03*
X107874Y188976D02*
D03*
X122047D02*
D03*
X107480Y176378D02*
D03*
X45669Y93701D02*
D03*
Y87402D02*
D03*
X37795Y77165D02*
D03*
X53543Y79528D02*
D03*
X50787Y75591D02*
D03*
X29921Y69291D02*
D03*
X37008D02*
D03*
X126772Y82284D02*
D03*
X111318Y100394D02*
D03*
X58651Y38572D02*
D03*
X62598Y89370D02*
D03*
X56299Y87500D02*
D03*
X91285Y257928D02*
D03*
X57874Y206693D02*
D03*
X53937Y195669D02*
D03*
X54331Y97638D02*
D03*
X68898Y98819D02*
D03*
X70894Y104380D02*
D03*
X78347Y213779D02*
D03*
X144488Y182087D02*
D03*
X148819Y181922D02*
D03*
X131496Y37008D02*
D03*
X70079Y123622D02*
D03*
X111811Y96457D02*
D03*
X126772Y100000D02*
D03*
X72835Y37992D02*
D03*
X59055Y26181D02*
D03*
X72835Y27165D02*
D03*
X91536Y231299D02*
D03*
X47244Y202756D02*
D03*
X132874Y239173D02*
D03*
X123031Y242126D02*
D03*
X128937Y260827D02*
D03*
X168307Y265748D02*
D03*
X103347Y240158D02*
D03*
X98425Y258858D02*
D03*
X144685Y194095D02*
D03*
X137402Y183465D02*
D03*
Y175591D02*
D03*
X190945Y167323D02*
D03*
X194882D02*
D03*
X198819D02*
D03*
X202756D02*
D03*
X206693D02*
D03*
X210630D02*
D03*
X214567D02*
D03*
X218504D02*
D03*
X222441D02*
D03*
X204724Y82677D02*
D03*
X200787D02*
D03*
X196850D02*
D03*
Y78740D02*
D03*
Y74803D02*
D03*
Y70866D02*
D03*
X222441Y155512D02*
D03*
Y159449D02*
D03*
Y163386D02*
D03*
X218504Y155512D02*
D03*
Y159449D02*
D03*
Y163386D02*
D03*
X214567Y155512D02*
D03*
Y159449D02*
D03*
Y163386D02*
D03*
X210630Y155512D02*
D03*
Y159449D02*
D03*
Y163386D02*
D03*
X206693Y155512D02*
D03*
Y159449D02*
D03*
Y163386D02*
D03*
X202756Y155512D02*
D03*
Y159449D02*
D03*
Y163386D02*
D03*
X198819Y155512D02*
D03*
Y159449D02*
D03*
Y163386D02*
D03*
X194882Y155512D02*
D03*
Y159449D02*
D03*
Y163386D02*
D03*
X190945Y155512D02*
D03*
Y159449D02*
D03*
Y163386D02*
D03*
X212598Y102362D02*
D03*
X204724D02*
D03*
X200787Y78740D02*
D03*
Y70866D02*
D03*
Y74803D02*
D03*
X220473Y66929D02*
D03*
Y70866D02*
D03*
Y74803D02*
D03*
X216535Y70866D02*
D03*
Y74803D02*
D03*
Y78740D02*
D03*
X204724Y70866D02*
D03*
Y74803D02*
D03*
Y78740D02*
D03*
X212598Y70866D02*
D03*
Y74803D02*
D03*
Y78740D02*
D03*
X208661D02*
D03*
Y74803D02*
D03*
Y70866D02*
D03*
D56*
X197756Y240905D02*
D03*
X207756D02*
D03*
Y270905D02*
D03*
X197756D02*
D03*
D57*
X316929Y252953D02*
D03*
X228346D02*
D03*
D58*
X7874Y220472D02*
D03*
Y192913D02*
D03*
Y137795D02*
D03*
Y110236D02*
D03*
Y165354D02*
D03*
D59*
X14173Y54724D02*
D03*
X47244D02*
D03*
D60*
X33858Y58661D02*
D03*
X30709Y51575D02*
D03*
X27559Y58661D02*
D03*
X24409Y51575D02*
D03*
X37008D02*
D03*
D61*
X54961Y36539D02*
D03*
Y28539D02*
D03*
X74961Y32539D02*
D03*
X276575Y225394D02*
D03*
D62*
X164173Y73228D02*
D03*
Y62205D02*
D03*
X245079Y163386D02*
D03*
X279528Y104331D02*
D03*
Y64961D02*
D03*
X245079Y124016D02*
D03*
X279528Y143701D02*
D03*
X245079Y45276D02*
D03*
Y84646D02*
D03*
D63*
Y183071D02*
D03*
X279528Y124016D02*
D03*
Y84646D02*
D03*
X245079Y143701D02*
D03*
X279528Y163386D02*
D03*
X245079Y64961D02*
D03*
Y104331D02*
D03*
D64*
X208661Y220472D02*
D03*
Y55118D02*
D03*
X19685Y19685D02*
D03*
Y255906D02*
D03*
X350394D02*
D03*
Y19685D02*
D03*
D65*
X91339Y24409D02*
D03*
X243110Y24606D02*
D03*
D66*
X43799Y224705D02*
X44673Y225579D01*
Y228768D01*
X52126Y236221D01*
X50394Y242520D02*
X65551D01*
X34941Y224705D02*
X35257D01*
X36537Y225984D01*
Y228663D01*
X50394Y242520D01*
X65551D02*
X71850Y236221D01*
X71850D01*
X52126D02*
X60039D01*
D67*
X50984Y71653D02*
D03*
X42717Y75394D02*
D03*
Y67913D02*
D03*
X74410Y11417D02*
D03*
X171260Y55118D02*
D03*
X55905Y11417D02*
D03*
D68*
X71516Y159843D02*
D03*
X84390D02*
D03*
X84390Y168504D02*
D03*
X71516D02*
D03*
X105768Y167717D02*
D03*
X118642D02*
D03*
D69*
X204724Y99016D02*
D03*
Y125394D02*
D03*
D70*
Y86811D02*
D03*
Y113189D02*
D03*
D71*
X216732Y87402D02*
D03*
X192717D02*
D03*
Y113779D02*
D03*
X216732D02*
D03*
D72*
X175197Y190748D02*
D03*
X183071Y194488D02*
D03*
D73*
X175197Y198228D02*
D03*
D74*
X238583Y51378D02*
D03*
X225984D02*
D03*
D75*
Y65354D02*
D03*
X238583D02*
D03*
D76*
X143898Y177657D02*
D03*
Y170768D02*
D03*
X246063Y58563D02*
D03*
Y51673D02*
D03*
X172441Y204823D02*
D03*
Y211713D02*
D03*
D77*
X123524Y68307D02*
D03*
X120965D02*
D03*
X128642D02*
D03*
X126083D02*
D03*
X123524Y50984D02*
D03*
X120965D02*
D03*
X128642D02*
D03*
X126083D02*
D03*
X119272Y122047D02*
D03*
X121831D02*
D03*
X114154D02*
D03*
X116713D02*
D03*
X119272Y139370D02*
D03*
X121831D02*
D03*
X114154D02*
D03*
X116713D02*
D03*
D78*
X89173Y93307D02*
D03*
D79*
X75591Y104134D02*
D03*
Y102165D02*
D03*
Y100197D02*
D03*
Y98228D02*
D03*
Y96260D02*
D03*
Y94291D02*
D03*
Y92323D02*
D03*
Y90354D02*
D03*
Y88386D02*
D03*
Y86417D02*
D03*
Y84449D02*
D03*
Y82480D02*
D03*
X102756D02*
D03*
Y84449D02*
D03*
Y86417D02*
D03*
Y88386D02*
D03*
Y90354D02*
D03*
Y92323D02*
D03*
Y94291D02*
D03*
Y96260D02*
D03*
Y98228D02*
D03*
Y100197D02*
D03*
Y102165D02*
D03*
Y104134D02*
D03*
D80*
X78347Y79528D02*
D03*
X80315D02*
D03*
X82284D02*
D03*
X84252D02*
D03*
X86221D02*
D03*
X88189D02*
D03*
X90158D02*
D03*
X92126D02*
D03*
X94095D02*
D03*
X96063D02*
D03*
X98032D02*
D03*
X100000D02*
D03*
Y107087D02*
D03*
X98032D02*
D03*
X96063D02*
D03*
X94095D02*
D03*
X92126D02*
D03*
X90158D02*
D03*
X88189D02*
D03*
X86221D02*
D03*
X84252D02*
D03*
X82284D02*
D03*
X80315D02*
D03*
X78347D02*
D03*
D81*
X74410Y43406D02*
D03*
Y45965D02*
D03*
Y48524D02*
D03*
Y51083D02*
D03*
X90158Y43406D02*
D03*
Y45965D02*
D03*
Y48524D02*
D03*
Y51083D02*
D03*
D82*
X126752Y152362D02*
D03*
Y159843D02*
D03*
D83*
X116555Y152362D02*
D03*
Y156102D02*
D03*
Y159843D02*
D03*
D84*
X33465Y89370D02*
D03*
D85*
X34449Y81496D02*
D03*
X36417D02*
D03*
X38386D02*
D03*
X28543D02*
D03*
X30512D02*
D03*
X32480D02*
D03*
Y97244D02*
D03*
X30512D02*
D03*
X28543D02*
D03*
X38386D02*
D03*
X36417D02*
D03*
X34449D02*
D03*
D86*
X41339Y90354D02*
D03*
Y92323D02*
D03*
Y94291D02*
D03*
Y84449D02*
D03*
Y86417D02*
D03*
Y88386D02*
D03*
X25591Y90354D02*
D03*
Y92323D02*
D03*
Y94291D02*
D03*
Y84449D02*
D03*
Y86417D02*
D03*
Y88386D02*
D03*
D87*
X88779Y130315D02*
D03*
Y123622D02*
D03*
X80118Y130315D02*
D03*
Y123622D02*
D03*
D88*
X223228Y108071D02*
D03*
Y99803D02*
D03*
D89*
X105217Y259842D02*
D03*
X123130D02*
D03*
X108169Y204331D02*
D03*
X90256D02*
D03*
X117421Y204331D02*
D03*
X135335D02*
D03*
D90*
X114173Y234055D02*
D03*
X112205D02*
D03*
X114173Y246260D02*
D03*
X112205D02*
D03*
X97047Y190354D02*
D03*
X99016D02*
D03*
X97047Y178150D02*
D03*
X99016D02*
D03*
D91*
X113189Y240158D02*
D03*
X98032Y184252D02*
D03*
D92*
X118996Y240158D02*
D03*
Y244094D02*
D03*
Y242126D02*
D03*
Y238189D02*
D03*
Y236221D02*
D03*
X107382Y244094D02*
D03*
Y242126D02*
D03*
Y238189D02*
D03*
Y236221D02*
D03*
Y240158D02*
D03*
X92224Y184252D02*
D03*
Y180315D02*
D03*
Y182283D02*
D03*
Y186221D02*
D03*
Y188189D02*
D03*
X103839Y180315D02*
D03*
Y182283D02*
D03*
Y186221D02*
D03*
Y188189D02*
D03*
Y184252D02*
D03*
D93*
X166929Y136221D02*
D03*
X177953D02*
D03*
D94*
X161024Y92716D02*
D03*
Y95276D02*
D03*
Y97835D02*
D03*
Y100394D02*
D03*
Y102953D02*
D03*
Y105512D02*
D03*
Y108071D02*
D03*
X177559D02*
D03*
Y105512D02*
D03*
Y102953D02*
D03*
Y100394D02*
D03*
Y97835D02*
D03*
Y95276D02*
D03*
Y92716D02*
D03*
D95*
X134350Y244094D02*
D03*
X127461D02*
D03*
X133563Y187402D02*
D03*
X126673D02*
D03*
X133563Y171653D02*
D03*
X126673D02*
D03*
X133760Y179528D02*
D03*
X126870D02*
D03*
X111516Y176378D02*
D03*
X118405D02*
D03*
X84547Y208661D02*
D03*
X77658D02*
D03*
X91043Y263779D02*
D03*
X97933D02*
D03*
D96*
X169291Y255906D02*
D03*
D97*
Y260906D02*
D03*
X194291Y255906D02*
D03*
Y260906D02*
D03*
D98*
X50807Y175787D02*
D03*
D99*
X45807D02*
D03*
X40807D02*
D03*
X35807D02*
D03*
Y196260D02*
D03*
X40807D02*
D03*
X45807D02*
D03*
X50807D02*
D03*
D100*
X7874Y213976D02*
D03*
Y226969D02*
D03*
Y199409D02*
D03*
Y186417D02*
D03*
Y144291D02*
D03*
Y131299D02*
D03*
Y116732D02*
D03*
Y103740D02*
D03*
Y171850D02*
D03*
Y158858D02*
D03*
D101*
X107874Y152756D02*
D03*
Y159449D02*
D03*
X107480Y60433D02*
D03*
Y67126D02*
D03*
X134449Y127165D02*
D03*
Y120473D02*
D03*
X140551Y55118D02*
D03*
Y48425D02*
D03*
X127953Y43504D02*
D03*
Y36811D02*
D03*
X134449Y134252D02*
D03*
Y140945D02*
D03*
X140551Y64173D02*
D03*
Y70866D02*
D03*
X96457Y48622D02*
D03*
Y41929D02*
D03*
X73622Y123622D02*
D03*
Y130315D02*
D03*
X95276Y130315D02*
D03*
Y123622D02*
D03*
X72835Y60433D02*
D03*
Y67126D02*
D03*
X152756Y100984D02*
D03*
Y107677D02*
D03*
X50787Y160827D02*
D03*
Y167520D02*
D03*
X88976Y67126D02*
D03*
Y60433D02*
D03*
X94882Y67126D02*
D03*
Y60433D02*
D03*
X162992Y177362D02*
D03*
Y170669D02*
D03*
X183071Y145079D02*
D03*
Y151772D02*
D03*
X122047Y36811D02*
D03*
Y43504D02*
D03*
X140354Y127165D02*
D03*
Y120473D02*
D03*
X146457Y55118D02*
D03*
Y48425D02*
D03*
X128543Y120473D02*
D03*
Y127165D02*
D03*
X134646Y48425D02*
D03*
Y55118D02*
D03*
X140354Y134252D02*
D03*
Y140945D02*
D03*
X146457Y64173D02*
D03*
Y70866D02*
D03*
X128543Y140945D02*
D03*
Y134252D02*
D03*
X134646Y70866D02*
D03*
Y64173D02*
D03*
X101181Y123622D02*
D03*
Y130315D02*
D03*
X66929Y67126D02*
D03*
Y60433D02*
D03*
X165748Y204921D02*
D03*
Y211614D02*
D03*
X162992Y186811D02*
D03*
Y193504D02*
D03*
X150787Y170669D02*
D03*
Y177362D02*
D03*
X168898Y193110D02*
D03*
Y186417D02*
D03*
X182283Y211614D02*
D03*
Y204921D02*
D03*
X183858Y171850D02*
D03*
Y165157D02*
D03*
X257087Y20669D02*
D03*
Y13976D02*
D03*
X83071Y67126D02*
D03*
Y60433D02*
D03*
X100787Y67126D02*
D03*
Y60433D02*
D03*
X57874Y195866D02*
D03*
Y202559D02*
D03*
X185039Y106890D02*
D03*
Y113583D02*
D03*
Y127362D02*
D03*
Y120669D02*
D03*
X223228Y121457D02*
D03*
Y114764D02*
D03*
X185039Y93898D02*
D03*
Y87205D02*
D03*
X15748Y196260D02*
D03*
Y189567D02*
D03*
Y141142D02*
D03*
Y134449D02*
D03*
Y113583D02*
D03*
Y106890D02*
D03*
Y168701D02*
D03*
Y162008D02*
D03*
Y223819D02*
D03*
Y217126D02*
D03*
X157087Y177362D02*
D03*
Y170669D02*
D03*
X257087Y46654D02*
D03*
Y39961D02*
D03*
Y33661D02*
D03*
Y26969D02*
D03*
X159449Y143110D02*
D03*
Y149803D02*
D03*
X165354Y149803D02*
D03*
Y143110D02*
D03*
X185039Y80118D02*
D03*
Y73425D02*
D03*
X223228Y84842D02*
D03*
Y91535D02*
D03*
X113386Y67126D02*
D03*
Y60433D02*
D03*
D102*
X174921Y148819D02*
D03*
D103*
X172362Y152736D02*
D03*
X174921D02*
D03*
X177480D02*
D03*
X172362Y144902D02*
D03*
X174921D02*
D03*
X177480D02*
D03*
D104*
X34941Y210335D02*
D03*
Y224705D02*
D03*
X43799D02*
D03*
Y210335D02*
D03*
D105*
X114961Y37795D02*
D03*
Y44488D02*
D03*
X111811D02*
D03*
Y37795D02*
D03*
D106*
X148819Y194291D02*
D03*
D107*
X141929Y186024D02*
D03*
X145866D02*
D03*
X149803D02*
D03*
X151772D02*
D03*
X153740D02*
D03*
X155709D02*
D03*
Y202559D02*
D03*
X153740D02*
D03*
X151772D02*
D03*
X149803D02*
D03*
X145866D02*
D03*
X141929D02*
D03*
D108*
X208661Y38189D02*
D03*
X196850D02*
D03*
X146063Y212205D02*
D03*
X157874D02*
D03*
D109*
X81102Y17323D02*
D03*
X67717D02*
D03*
X177953Y49213D02*
D03*
X164567D02*
D03*
X49213Y17323D02*
D03*
X62598D02*
D03*
D110*
X115945Y113779D02*
D03*
X109252D02*
D03*
X123031Y82284D02*
D03*
X116339D02*
D03*
X122638Y113779D02*
D03*
X129331D02*
D03*
X10827Y84252D02*
D03*
X17520D02*
D03*
Y90158D02*
D03*
X10827D02*
D03*
X35630Y103937D02*
D03*
X28937D02*
D03*
X10827Y78347D02*
D03*
X17520D02*
D03*
X123031Y88189D02*
D03*
X116339D02*
D03*
X139173Y152362D02*
D03*
X132480D02*
D03*
X116339Y100000D02*
D03*
X123031D02*
D03*
X116339Y94095D02*
D03*
X123031D02*
D03*
X171850Y84646D02*
D03*
X178543D02*
D03*
X171850Y78740D02*
D03*
X178543D02*
D03*
X84449Y201575D02*
D03*
X77756D02*
D03*
X118307Y183071D02*
D03*
X111614D02*
D03*
X139173Y159449D02*
D03*
X132480D02*
D03*
X58071Y103543D02*
D03*
X64764D02*
D03*
X58071Y79528D02*
D03*
X64764D02*
D03*
X175787Y185039D02*
D03*
X182480D02*
D03*
X77362Y175591D02*
D03*
X84055D02*
D03*
X84055Y181890D02*
D03*
X77362D02*
D03*
X84055Y188189D02*
D03*
X77362D02*
D03*
X91142Y171260D02*
D03*
X97835D02*
D03*
X127559Y235236D02*
D03*
X134252D02*
D03*
X64764Y115354D02*
D03*
X58071D02*
D03*
X171850Y116142D02*
D03*
X178543D02*
D03*
Y72835D02*
D03*
X171850D02*
D03*
X171850Y128347D02*
D03*
X178543D02*
D03*
X123031Y76378D02*
D03*
X116339D02*
D03*
X91142Y253937D02*
D03*
X97835D02*
D03*
X91142Y235236D02*
D03*
X97835D02*
D03*
X175591Y269685D02*
D03*
X168898D02*
D03*
X97835Y241142D02*
D03*
X91142D02*
D03*
X97835Y248031D02*
D03*
X91142D02*
D03*
X17520Y96063D02*
D03*
X10827D02*
D03*
X58071Y109449D02*
D03*
X64764D02*
D03*
X178543Y122047D02*
D03*
X171850D02*
D03*
X216339Y179528D02*
D03*
X209646D02*
D03*
X202165D02*
D03*
X195473D02*
D03*
X180118Y159055D02*
D03*
X173425D02*
D03*
X118307Y188976D02*
D03*
X111614D02*
D03*
X58071Y97638D02*
D03*
X64764D02*
D03*
D111*
X226772Y224803D02*
D03*
Y212992D02*
D03*
X209842Y149213D02*
D03*
Y137402D02*
D03*
X218504Y149213D02*
D03*
Y137402D02*
D03*
X192520D02*
D03*
Y149213D02*
D03*
X201181Y137402D02*
D03*
Y149213D02*
D03*
X134843Y253937D02*
D03*
Y265748D02*
D03*
X227165Y137402D02*
D03*
Y149213D02*
D03*
D112*
X295473Y196457D02*
D03*
Y209055D02*
D03*
D113*
X309449D02*
D03*
Y196457D02*
D03*
D114*
X69095Y142913D02*
D03*
X77362D02*
D03*
D115*
X123031Y105512D02*
D03*
X116339D02*
D03*
Y108661D02*
D03*
X123031D02*
D03*
D116*
X208661Y38189D02*
Y55118D01*
X213386Y225197D02*
X226378D01*
X226772Y224803D01*
X178347Y128347D02*
Y135827D01*
Y128347D02*
X178543D01*
X177953Y136221D02*
X178347Y135827D01*
X245768Y51673D02*
X246063D01*
X245571Y51476D02*
X245768Y51673D01*
X245571Y45768D02*
Y51476D01*
X245079Y45276D02*
X245571Y45768D01*
D117*
X215748Y132283D02*
X236811D01*
X245079Y124016D01*
D118*
X204724Y105905D02*
D03*
M02*
