G04*
G04 #@! TF.GenerationSoftware,Altium Limited,Altium Designer,20.2.4 (192)*
G04*
G04 Layer_Physical_Order=2*
G04 Layer_Color=36540*
%FSLAX25Y25*%
%MOIN*%
G70*
G04*
G04 #@! TF.SameCoordinates,632904D4-FBC6-4040-AE52-8F74E4E9F4E0*
G04*
G04*
G04 #@! TF.FilePolarity,Positive*
G04*
G01*
G75*
%ADD44C,0.01181*%
%ADD45C,0.02756*%
%ADD46C,0.02362*%
%ADD48C,0.14173*%
%ADD50C,0.08268*%
%ADD52C,0.05984*%
%ADD55C,0.02559*%
%ADD57C,0.10236*%
%ADD62R,0.05512X0.05512*%
%ADD63C,0.05512*%
%ADD66C,0.01968*%
G36*
X2352Y234171D02*
X4895Y232367D01*
X7623Y230859D01*
X10503Y229666D01*
X13499Y228803D01*
X16572Y228281D01*
X17485Y228229D01*
Y186024D01*
X17622Y184634D01*
X18027Y183299D01*
X18686Y182068D01*
X19571Y180988D01*
X20650Y180103D01*
X21881Y179445D01*
X23217Y179040D01*
X24606Y178903D01*
X68504D01*
X69893Y179040D01*
X71229Y179445D01*
X72460Y180103D01*
X73539Y180988D01*
X74425Y182068D01*
X75083Y183299D01*
X75488Y184634D01*
X75625Y186024D01*
Y189858D01*
X76125Y190125D01*
X76599Y189808D01*
X77559Y189617D01*
X78519Y189808D01*
X79333Y190352D01*
X79877Y191166D01*
X80068Y192126D01*
X79877Y193086D01*
X79333Y193900D01*
X78519Y194444D01*
X77559Y194635D01*
X76599Y194444D01*
X76125Y194127D01*
X75625Y194394D01*
Y195370D01*
X76125Y195637D01*
X76599Y195320D01*
X77559Y195129D01*
X78519Y195320D01*
X79333Y195864D01*
X79877Y196678D01*
X80068Y197638D01*
X79877Y198598D01*
X79333Y199412D01*
X78519Y199956D01*
X77559Y200147D01*
X76599Y199956D01*
X76125Y199639D01*
X75625Y199906D01*
Y212524D01*
X76125Y212675D01*
X76573Y212005D01*
X77386Y211462D01*
X78347Y211271D01*
X79307Y211462D01*
X80120Y212005D01*
X80664Y212819D01*
X80855Y213779D01*
X80664Y214740D01*
X80571Y214879D01*
X80807Y215320D01*
X92602D01*
Y169207D01*
X92102Y168893D01*
X91339Y169044D01*
X90378Y168853D01*
X89565Y168309D01*
X89021Y167496D01*
X88830Y166535D01*
X89021Y165575D01*
X89565Y164761D01*
X90378Y164218D01*
X91339Y164027D01*
X92299Y164218D01*
X93113Y164761D01*
X93651Y165567D01*
X93702Y165643D01*
X94192Y165732D01*
X98507Y161417D01*
X102762D01*
X102914Y160917D01*
X102504Y160644D01*
X101960Y159830D01*
X101769Y158870D01*
X101960Y157910D01*
X102504Y157096D01*
X103318Y156552D01*
X104278Y156361D01*
X105238Y156552D01*
X106052Y157096D01*
X106596Y157910D01*
X106787Y158870D01*
X106596Y159830D01*
X106052Y160644D01*
X105642Y160917D01*
X105794Y161417D01*
X111861D01*
X112598Y161271D01*
X113336Y161417D01*
X129403Y161417D01*
X129787Y161161D01*
X130709Y160977D01*
X140445D01*
X140681Y160536D01*
X140595Y160409D01*
X140405Y159449D01*
X140595Y158489D01*
X141139Y157675D01*
X141953Y157131D01*
X142913Y156940D01*
X143874Y157131D01*
X144687Y157675D01*
X145231Y158489D01*
X145422Y159449D01*
X145231Y160409D01*
X145146Y160536D01*
X145382Y160977D01*
X151365D01*
X154990Y157352D01*
X155771Y156830D01*
X156693Y156647D01*
X157875D01*
X157987Y156488D01*
X157866Y155839D01*
X157675Y155711D01*
X157131Y154897D01*
X156940Y153937D01*
X157131Y152977D01*
X157675Y152163D01*
X158489Y151619D01*
X159392Y151439D01*
X162502Y148329D01*
X163088Y147937D01*
X163779Y147800D01*
X165748D01*
Y138235D01*
X164173D01*
X163595Y138120D01*
X163558Y138145D01*
X162598Y138336D01*
X161638Y138145D01*
X160824Y137601D01*
X160281Y136787D01*
X160090Y135827D01*
X160281Y134867D01*
X160824Y134053D01*
X160977Y133951D01*
Y63589D01*
X161161Y62667D01*
X161683Y61885D01*
X163066Y60502D01*
X163848Y59980D01*
X164770Y59796D01*
X165748D01*
Y58652D01*
X165361Y58335D01*
X164961Y58414D01*
X164001Y58223D01*
X163187Y57679D01*
X162643Y56866D01*
X162452Y55905D01*
X162643Y54945D01*
X163187Y54132D01*
X164001Y53588D01*
X164961Y53397D01*
X165361Y53476D01*
X165748Y53159D01*
Y1003D01*
X40826D01*
X40622Y1460D01*
X41420Y2352D01*
X43224Y4895D01*
X44732Y7623D01*
X45925Y10503D01*
X46788Y13499D01*
X47310Y16572D01*
X47485Y19685D01*
X47372Y21694D01*
X47510Y21740D01*
X47865Y21826D01*
X48646Y21304D01*
X49606Y21113D01*
X50566Y21304D01*
X51380Y21848D01*
X51924Y22662D01*
X52115Y23622D01*
X51924Y24582D01*
X51380Y25396D01*
X50566Y25940D01*
X49606Y26131D01*
X48646Y25940D01*
X47832Y25396D01*
X47468Y24851D01*
X46942Y24963D01*
X46788Y25871D01*
X45925Y28867D01*
X44732Y31747D01*
X43224Y34475D01*
X41420Y37018D01*
X39342Y39342D01*
X37018Y41420D01*
X34475Y43224D01*
X31747Y44732D01*
X28867Y45925D01*
X25871Y46788D01*
X22798Y47310D01*
X19685Y47485D01*
X19660Y47483D01*
X19413Y47970D01*
X20094Y48800D01*
X20707Y49947D01*
X20988Y49991D01*
X21249Y49946D01*
X21314Y49788D01*
X21882Y49048D01*
X22623Y48480D01*
X23484Y48123D01*
X24409Y48001D01*
X25335Y48123D01*
X26196Y48480D01*
X26937Y49048D01*
X27244Y49448D01*
X27874D01*
X28182Y49048D01*
X28922Y48480D01*
X29784Y48123D01*
X30709Y48001D01*
X31634Y48123D01*
X32496Y48480D01*
X33236Y49048D01*
X33543Y49448D01*
X34173D01*
X34481Y49048D01*
X35221Y48480D01*
X36083Y48123D01*
X37008Y48001D01*
X37933Y48123D01*
X38795Y48480D01*
X39535Y49048D01*
X40103Y49788D01*
X40168Y49946D01*
X40429Y49991D01*
X40710Y49947D01*
X41323Y48800D01*
X42209Y47721D01*
X43288Y46835D01*
X44519Y46177D01*
X45855Y45772D01*
X47244Y45635D01*
X48633Y45772D01*
X49969Y46177D01*
X51200Y46835D01*
X52279Y47721D01*
X53165Y48800D01*
X53823Y50031D01*
X54228Y51367D01*
X54365Y52756D01*
Y56693D01*
X54228Y58082D01*
X53823Y59418D01*
X53165Y60649D01*
X52279Y61728D01*
X51200Y62614D01*
X49969Y63272D01*
X48633Y63677D01*
X47244Y63814D01*
X45855Y63677D01*
X44519Y63272D01*
X43288Y62614D01*
X42209Y61728D01*
X41323Y60649D01*
X40665Y59418D01*
X40260Y58082D01*
X40123Y56693D01*
Y54157D01*
X39623Y53987D01*
X39535Y54102D01*
X38795Y54670D01*
X37933Y55027D01*
X37008Y55149D01*
X36083Y55027D01*
X35221Y54670D01*
X34481Y54102D01*
X34173Y53701D01*
X33543D01*
X33236Y54102D01*
X32496Y54670D01*
X31634Y55027D01*
X30709Y55149D01*
X29784Y55027D01*
X28922Y54670D01*
X28182Y54102D01*
X27874Y53701D01*
X27244D01*
X26937Y54102D01*
X26196Y54670D01*
X25335Y55027D01*
X24409Y55149D01*
X23484Y55027D01*
X22623Y54670D01*
X21882Y54102D01*
X21794Y53987D01*
X21294Y54157D01*
Y56693D01*
X21157Y58082D01*
X20752Y59418D01*
X20094Y60649D01*
X19208Y61728D01*
X18129Y62614D01*
X16898Y63272D01*
X15563Y63677D01*
X14173Y63814D01*
X12784Y63677D01*
X11448Y63272D01*
X10217Y62614D01*
X9138Y61728D01*
X8252Y60649D01*
X7594Y59418D01*
X7189Y58082D01*
X7052Y56693D01*
Y52756D01*
X7189Y51367D01*
X7594Y50031D01*
X8252Y48800D01*
X9138Y47721D01*
X10217Y46835D01*
X10838Y46503D01*
X10786Y46006D01*
X10503Y45925D01*
X7623Y44732D01*
X4895Y43224D01*
X2352Y41420D01*
X1460Y40622D01*
X1003Y40826D01*
Y234764D01*
X1460Y234968D01*
X2352Y234171D01*
D02*
G37*
G36*
X311904Y256078D02*
X311447Y255224D01*
X311109Y254110D01*
X310995Y252953D01*
X311109Y251795D01*
X311447Y250682D01*
X311995Y249656D01*
X312231Y249368D01*
X316372Y253509D01*
X316929Y252953D01*
X317486Y253509D01*
X321627Y249368D01*
X321863Y249656D01*
X322411Y250682D01*
X322545Y251123D01*
X323058Y251091D01*
X323291Y249720D01*
X324154Y246724D01*
X325347Y243844D01*
X326855Y241115D01*
X328659Y238573D01*
X330736Y236248D01*
X333061Y234171D01*
X334646Y233046D01*
Y214567D01*
X335053Y214159D01*
X334964Y212795D01*
X335109Y210581D01*
X335542Y208404D01*
X336255Y206303D01*
X337237Y204313D01*
X338470Y202467D01*
X339933Y200799D01*
X341601Y199336D01*
X343446Y198103D01*
X345437Y197121D01*
X347538Y196408D01*
X349715Y195975D01*
X350394Y195931D01*
X350394Y153543D01*
X345178Y148328D01*
X344772Y148629D01*
X345381Y149767D01*
X345831Y151252D01*
X345983Y152795D01*
X345831Y154339D01*
X345381Y155823D01*
X344650Y157191D01*
X344167Y157778D01*
X338628Y152239D01*
X333088Y146699D01*
X333675Y146217D01*
X333792Y146154D01*
X333670Y145669D01*
X312472Y145669D01*
X312350Y146154D01*
X312467Y146217D01*
X313054Y146699D01*
X307514Y152239D01*
X301974Y157778D01*
X301492Y157191D01*
X300761Y155823D01*
X300311Y154339D01*
X300159Y152795D01*
X300311Y151252D01*
X300761Y149767D01*
X300782Y149728D01*
X300376Y149427D01*
X291339Y158465D01*
X291339Y236221D01*
X311498Y256380D01*
X311904Y256078D01*
D02*
G37*
G36*
X341439Y100490D02*
X341138Y100084D01*
X341099Y100105D01*
X339615Y100555D01*
X338071Y100707D01*
X336527Y100555D01*
X335043Y100105D01*
X333675Y99374D01*
X333088Y98892D01*
X338628Y93352D01*
X344167Y87812D01*
X344650Y88399D01*
X344972Y89004D01*
X345473Y88878D01*
Y78481D01*
X345437Y78469D01*
X343446Y77488D01*
X341601Y76255D01*
X339933Y74792D01*
X338470Y73123D01*
X337237Y71278D01*
X336255Y69288D01*
X335542Y67186D01*
X335109Y65010D01*
X334964Y62795D01*
X335109Y60581D01*
X335542Y58404D01*
X336255Y56303D01*
X337237Y54313D01*
X338470Y52467D01*
X339933Y50799D01*
X341601Y49336D01*
X343446Y48103D01*
X344860Y47406D01*
X344784Y46886D01*
X344208Y46788D01*
X341212Y45925D01*
X338332Y44732D01*
X335603Y43224D01*
X333061Y41420D01*
X330736Y39342D01*
X328659Y37018D01*
X326855Y34475D01*
X325347Y31747D01*
X324154Y28867D01*
X323291Y25871D01*
X322769Y22798D01*
X322594Y19685D01*
X322769Y16572D01*
X323291Y13499D01*
X324154Y10503D01*
X325347Y7623D01*
X326855Y4895D01*
X328659Y2352D01*
X329457Y1460D01*
X329252Y1003D01*
X232283D01*
Y62008D01*
X239961Y69685D01*
X247358Y69685D01*
X261376Y55667D01*
X262027Y55232D01*
X262795Y55080D01*
X282480D01*
X283248Y55232D01*
X283899Y55667D01*
X287837Y59604D01*
X288272Y60256D01*
X288424Y61024D01*
Y102396D01*
X339533Y102396D01*
X341439Y100490D01*
D02*
G37*
G36*
X286417Y184055D02*
Y61024D01*
X282480Y57087D01*
X262795D01*
X231299Y88583D01*
Y99301D01*
X231799Y99334D01*
X231875Y98758D01*
X232202Y97968D01*
X232723Y97290D01*
X233401Y96769D01*
X234191Y96442D01*
X235039Y96330D01*
X235887Y96442D01*
X236677Y96769D01*
X237356Y97290D01*
X237877Y97968D01*
X238204Y98758D01*
X238316Y99606D01*
X238204Y100454D01*
X237877Y101244D01*
X237356Y101923D01*
X236677Y102444D01*
X235887Y102771D01*
X235039Y102882D01*
X234191Y102771D01*
X233401Y102444D01*
X232723Y101923D01*
X232202Y101244D01*
X231875Y100454D01*
X231799Y99879D01*
X231299Y99911D01*
X231299Y152404D01*
X231953Y152675D01*
X232631Y153195D01*
X233152Y153874D01*
X233479Y154664D01*
X233591Y155512D01*
X233479Y156360D01*
X233152Y157150D01*
X232898Y157480D01*
X233152Y157811D01*
X233479Y158601D01*
X233591Y159449D01*
X233479Y160297D01*
X233152Y161087D01*
X232898Y161417D01*
X233152Y161748D01*
X233479Y162538D01*
X233591Y163386D01*
X233479Y164234D01*
X233152Y165024D01*
X232898Y165354D01*
X233152Y165685D01*
X233479Y166475D01*
X233591Y167323D01*
X233479Y168171D01*
X233152Y168961D01*
X232631Y169639D01*
X231953Y170160D01*
X231299Y170431D01*
Y180118D01*
X242126Y190945D01*
X279528D01*
X286417Y184055D01*
D02*
G37*
G36*
X365019Y114239D02*
X365016D01*
X365005D01*
X364988D01*
X364964D01*
X364932D01*
X364897Y114242D01*
X364859Y114246D01*
X364813Y114249D01*
X364765Y114253D01*
X364716Y114260D01*
X364608Y114280D01*
X364492Y114308D01*
X364377Y114347D01*
X364370Y114350D01*
X364353Y114357D01*
X364325Y114368D01*
X364290Y114385D01*
X364245Y114403D01*
X364189Y114431D01*
X364126Y114459D01*
X364060Y114497D01*
X363983Y114535D01*
X363906Y114581D01*
X363822Y114629D01*
X363735Y114685D01*
X363644Y114745D01*
X363554Y114811D01*
X363463Y114881D01*
X363369Y114958D01*
X363362Y114961D01*
X363348Y114979D01*
X363320Y115003D01*
X363281Y115038D01*
X363232Y115080D01*
X363177Y115132D01*
X363114Y115195D01*
X363040Y115268D01*
X362960Y115348D01*
X362870Y115439D01*
X362775Y115540D01*
X362678Y115649D01*
X362569Y115767D01*
X362458Y115896D01*
X362343Y116033D01*
X362224Y116176D01*
X362220Y116179D01*
X362213Y116190D01*
X362199Y116207D01*
X362178Y116228D01*
X362154Y116259D01*
X362126Y116291D01*
X362095Y116333D01*
X362056Y116375D01*
X362014Y116423D01*
X361973Y116476D01*
X361924Y116532D01*
X361871Y116587D01*
X361763Y116713D01*
X361645Y116846D01*
X361519Y116985D01*
X361386Y117125D01*
X361254Y117261D01*
X361121Y117397D01*
X360988Y117526D01*
X360859Y117645D01*
X360796Y117701D01*
X360737Y117750D01*
X360678Y117798D01*
X360622Y117840D01*
X360615Y117844D01*
X360594Y117858D01*
X360563Y117882D01*
X360521Y117910D01*
X360468Y117941D01*
X360405Y117980D01*
X360336Y118018D01*
X360259Y118060D01*
X360175Y118099D01*
X360088Y118137D01*
X359994Y118175D01*
X359899Y118210D01*
X359802Y118235D01*
X359701Y118259D01*
X359599Y118273D01*
X359502Y118277D01*
X359495D01*
X359477D01*
X359449Y118273D01*
X359411Y118270D01*
X359362Y118266D01*
X359306Y118256D01*
X359247Y118242D01*
X359177Y118228D01*
X359107Y118207D01*
X359034Y118179D01*
X358957Y118148D01*
X358877Y118109D01*
X358800Y118064D01*
X358720Y118011D01*
X358647Y117948D01*
X358573Y117879D01*
X358570Y117875D01*
X358556Y117861D01*
X358538Y117837D01*
X358514Y117809D01*
X358486Y117767D01*
X358451Y117722D01*
X358420Y117666D01*
X358381Y117603D01*
X358346Y117533D01*
X358312Y117456D01*
X358280Y117369D01*
X358252Y117278D01*
X358228Y117181D01*
X358210Y117079D01*
X358196Y116968D01*
X358193Y116853D01*
Y116825D01*
X358196Y116786D01*
X358200Y116741D01*
X358203Y116685D01*
X358214Y116619D01*
X358228Y116545D01*
X358242Y116465D01*
X358263Y116382D01*
X358291Y116294D01*
X358322Y116203D01*
X358360Y116116D01*
X358409Y116025D01*
X358462Y115938D01*
X358524Y115855D01*
X358594Y115778D01*
X358598Y115774D01*
X358612Y115760D01*
X358636Y115739D01*
X358667Y115715D01*
X358709Y115683D01*
X358758Y115652D01*
X358818Y115614D01*
X358884Y115575D01*
X358961Y115537D01*
X359044Y115502D01*
X359135Y115467D01*
X359233Y115436D01*
X359341Y115411D01*
X359456Y115390D01*
X359582Y115376D01*
X359711Y115369D01*
X359610Y114413D01*
X359606D01*
X359596D01*
X359582Y114417D01*
X359564Y114420D01*
X359537Y114424D01*
X359509Y114427D01*
X359474Y114434D01*
X359435Y114438D01*
X359390Y114448D01*
X359345Y114455D01*
X359243Y114479D01*
X359128Y114507D01*
X359006Y114542D01*
X358877Y114588D01*
X358744Y114640D01*
X358608Y114699D01*
X358472Y114769D01*
X358340Y114849D01*
X358214Y114937D01*
X358095Y115038D01*
X357983Y115153D01*
Y115156D01*
X357977Y115160D01*
X357969Y115171D01*
X357959Y115181D01*
X357945Y115198D01*
X357931Y115219D01*
X357914Y115244D01*
X357896Y115268D01*
X357854Y115334D01*
X357805Y115411D01*
X357753Y115502D01*
X357701Y115607D01*
X357648Y115725D01*
X357600Y115855D01*
X357551Y115994D01*
X357509Y116148D01*
X357474Y116312D01*
X357446Y116486D01*
X357429Y116675D01*
X357422Y116870D01*
Y116919D01*
X357425Y116943D01*
Y116975D01*
X357429Y117010D01*
X357432Y117052D01*
X357436Y117094D01*
X357439Y117142D01*
X357446Y117195D01*
X357453Y117251D01*
X357470Y117366D01*
X357498Y117495D01*
X357530Y117631D01*
X357568Y117771D01*
X357617Y117914D01*
X357676Y118057D01*
X357746Y118200D01*
X357826Y118339D01*
X357921Y118472D01*
X357969Y118535D01*
X358025Y118594D01*
Y118598D01*
X358032Y118601D01*
X358053Y118622D01*
X358088Y118654D01*
X358134Y118692D01*
X358193Y118741D01*
X358263Y118797D01*
X358346Y118852D01*
X358437Y118912D01*
X358542Y118971D01*
X358657Y119027D01*
X358779Y119083D01*
X358912Y119132D01*
X359051Y119170D01*
X359202Y119201D01*
X359359Y119222D01*
X359439Y119229D01*
X359523D01*
X359526D01*
X359543D01*
X359568D01*
X359599Y119226D01*
X359641Y119222D01*
X359690Y119219D01*
X359746Y119215D01*
X359805Y119205D01*
X359872Y119198D01*
X359941Y119184D01*
X360018Y119170D01*
X360095Y119153D01*
X360172Y119132D01*
X360256Y119107D01*
X360336Y119076D01*
X360420Y119044D01*
X360423Y119041D01*
X360440Y119037D01*
X360461Y119023D01*
X360496Y119009D01*
X360535Y118989D01*
X360583Y118964D01*
X360636Y118933D01*
X360699Y118898D01*
X360765Y118859D01*
X360835Y118814D01*
X360912Y118762D01*
X360992Y118706D01*
X361076Y118643D01*
X361163Y118577D01*
X361250Y118503D01*
X361341Y118427D01*
X361348Y118423D01*
X361362Y118406D01*
X361390Y118381D01*
X361428Y118343D01*
X361480Y118298D01*
X361540Y118238D01*
X361610Y118168D01*
X361690Y118088D01*
X361781Y117994D01*
X361878Y117889D01*
X361990Y117771D01*
X362109Y117641D01*
X362234Y117498D01*
X362374Y117345D01*
X362521Y117177D01*
X362674Y116996D01*
X362678Y116992D01*
X362681Y116985D01*
X362691Y116975D01*
X362705Y116961D01*
X362719Y116940D01*
X362740Y116916D01*
X362786Y116860D01*
X362845Y116793D01*
X362908Y116720D01*
X362981Y116636D01*
X363054Y116549D01*
X363215Y116364D01*
X363295Y116277D01*
X363372Y116190D01*
X363445Y116109D01*
X363515Y116036D01*
X363575Y115973D01*
X363602Y115945D01*
X363627Y115921D01*
X363630Y115917D01*
X363637Y115910D01*
X363651Y115896D01*
X363669Y115882D01*
X363693Y115861D01*
X363718Y115837D01*
X363749Y115813D01*
X363784Y115785D01*
X363857Y115722D01*
X363944Y115656D01*
X364035Y115589D01*
X364129Y115530D01*
Y119240D01*
X365019D01*
Y114239D01*
D02*
G37*
%LPC*%
G36*
X7874Y225635D02*
X6538Y225459D01*
X5293Y224943D01*
X4224Y224123D01*
X3403Y223054D01*
X2888Y221809D01*
X2712Y220472D01*
X2888Y219136D01*
X3403Y217891D01*
X4224Y216822D01*
X5293Y216002D01*
X6538Y215486D01*
X7874Y215310D01*
X9210Y215486D01*
X10455Y216002D01*
X11524Y216822D01*
X12345Y217891D01*
X12860Y219136D01*
X13036Y220472D01*
X12860Y221809D01*
X12345Y223054D01*
X11524Y224123D01*
X10455Y224943D01*
X9210Y225459D01*
X7874Y225635D01*
D02*
G37*
G36*
Y212351D02*
X6914Y212160D01*
X6100Y211616D01*
X5556Y210803D01*
X5365Y209842D01*
X5556Y208882D01*
X6100Y208068D01*
X6914Y207525D01*
X7874Y207334D01*
X8834Y207525D01*
X9648Y208068D01*
X10192Y208882D01*
X10383Y209842D01*
X10192Y210803D01*
X9648Y211616D01*
X8834Y212160D01*
X7874Y212351D01*
D02*
G37*
G36*
Y198076D02*
X6538Y197900D01*
X5293Y197384D01*
X4224Y196564D01*
X3403Y195494D01*
X2888Y194249D01*
X2712Y192913D01*
X2888Y191577D01*
X3403Y190332D01*
X4224Y189263D01*
X5293Y188443D01*
X6538Y187927D01*
X7874Y187751D01*
X9210Y187927D01*
X10455Y188443D01*
X11524Y189263D01*
X12345Y190332D01*
X12860Y191577D01*
X13036Y192913D01*
X12860Y194249D01*
X12345Y195494D01*
X11524Y196564D01*
X10455Y197384D01*
X9210Y197900D01*
X7874Y198076D01*
D02*
G37*
G36*
Y185186D02*
X6914Y184995D01*
X6100Y184451D01*
X5556Y183637D01*
X5365Y182677D01*
X5556Y181717D01*
X6100Y180903D01*
X6914Y180359D01*
X7874Y180168D01*
X8834Y180359D01*
X9648Y180903D01*
X10192Y181717D01*
X10383Y182677D01*
X10192Y183637D01*
X9648Y184451D01*
X8834Y184995D01*
X7874Y185186D01*
D02*
G37*
G36*
X35827Y172588D02*
X34867Y172397D01*
X34053Y171853D01*
X33509Y171039D01*
X33318Y170079D01*
X33509Y169119D01*
X34053Y168305D01*
X34867Y167761D01*
X35827Y167570D01*
X36787Y167761D01*
X37601Y168305D01*
X38145Y169119D01*
X38336Y170079D01*
X38145Y171039D01*
X37601Y171853D01*
X36787Y172397D01*
X35827Y172588D01*
D02*
G37*
G36*
X7874Y170517D02*
X6538Y170341D01*
X5293Y169825D01*
X4224Y169005D01*
X3403Y167936D01*
X2888Y166690D01*
X2712Y165354D01*
X2888Y164018D01*
X3403Y162773D01*
X4224Y161704D01*
X5293Y160884D01*
X6538Y160368D01*
X7874Y160192D01*
X9210Y160368D01*
X10455Y160884D01*
X11524Y161704D01*
X12345Y162773D01*
X12860Y164018D01*
X13036Y165354D01*
X12860Y166690D01*
X12345Y167936D01*
X11524Y169005D01*
X10455Y169825D01*
X9210Y170341D01*
X7874Y170517D01*
D02*
G37*
G36*
X54331Y163532D02*
X53371Y163341D01*
X52557Y162798D01*
X52013Y161984D01*
X51822Y161024D01*
X52013Y160064D01*
X52557Y159250D01*
X53371Y158706D01*
X54331Y158515D01*
X55291Y158706D01*
X56105Y159250D01*
X56649Y160064D01*
X56840Y161024D01*
X56649Y161984D01*
X56105Y162798D01*
X55291Y163341D01*
X54331Y163532D01*
D02*
G37*
G36*
X88189Y162351D02*
X87229Y162160D01*
X86415Y161617D01*
X85871Y160803D01*
X85680Y159843D01*
X85871Y158882D01*
X86415Y158069D01*
X87229Y157525D01*
X88189Y157334D01*
X89149Y157525D01*
X89963Y158069D01*
X90507Y158882D01*
X90698Y159843D01*
X90507Y160803D01*
X89963Y161617D01*
X89149Y162160D01*
X88189Y162351D01*
D02*
G37*
G36*
X66535D02*
X65575Y162160D01*
X64761Y161617D01*
X64218Y160803D01*
X64027Y159843D01*
X64218Y158882D01*
X64761Y158069D01*
X65575Y157525D01*
X66535Y157334D01*
X67496Y157525D01*
X68309Y158069D01*
X68853Y158882D01*
X69044Y159843D01*
X68853Y160803D01*
X68309Y161617D01*
X67496Y162160D01*
X66535Y162351D01*
D02*
G37*
G36*
X7874Y157627D02*
X6914Y157436D01*
X6100Y156892D01*
X5556Y156078D01*
X5365Y155118D01*
X5556Y154158D01*
X6100Y153344D01*
X6914Y152800D01*
X7874Y152609D01*
X8834Y152800D01*
X9648Y153344D01*
X10192Y154158D01*
X10383Y155118D01*
X10192Y156078D01*
X9648Y156892D01*
X8834Y157436D01*
X7874Y157627D01*
D02*
G37*
G36*
X134252Y156716D02*
X134252Y156716D01*
X124803D01*
X124342Y156624D01*
X123952Y156363D01*
X108597Y141009D01*
X108336Y140618D01*
X108245Y140157D01*
X108245Y140157D01*
Y127419D01*
X107745Y127267D01*
X107679Y127365D01*
X106866Y127908D01*
X105905Y128099D01*
X104945Y127908D01*
X104131Y127365D01*
X103588Y126551D01*
X103397Y125591D01*
X103588Y124630D01*
X104131Y123817D01*
X104945Y123273D01*
X105905Y123082D01*
X106866Y123273D01*
X107679Y123817D01*
X107745Y123914D01*
X108245Y123762D01*
Y115019D01*
X107745Y114867D01*
X107286Y115553D01*
X106472Y116097D01*
X105512Y116288D01*
X104552Y116097D01*
X103738Y115553D01*
X103194Y114740D01*
X103003Y113779D01*
X103194Y112819D01*
X103738Y112005D01*
X104552Y111462D01*
X105512Y111271D01*
X106472Y111462D01*
X107286Y112005D01*
X107745Y112692D01*
X108245Y112540D01*
Y106363D01*
X107701Y106255D01*
X106887Y105711D01*
X106343Y104897D01*
X106152Y103937D01*
X106343Y102977D01*
X106887Y102163D01*
X107701Y101619D01*
X108549Y101451D01*
X108662Y101426D01*
X108924Y100971D01*
X108810Y100394D01*
X109001Y99434D01*
X109544Y98620D01*
X110037Y98290D01*
Y98231D01*
X109493Y97417D01*
X109302Y96457D01*
X109457Y95680D01*
X109178Y95625D01*
X108364Y95081D01*
X107820Y94267D01*
X107629Y93307D01*
X107820Y92347D01*
X108364Y91533D01*
X108387Y91109D01*
X108370Y91052D01*
X108336Y91002D01*
X108302Y90829D01*
X108250Y90659D01*
X108256Y90600D01*
X108245Y90541D01*
Y78959D01*
X108336Y78498D01*
X108597Y78108D01*
X108988Y77846D01*
X109449Y77755D01*
X112027D01*
X112460Y77698D01*
X112790Y77561D01*
X113073Y77344D01*
X113290Y77061D01*
X113426Y76732D01*
X113473Y76378D01*
X113426Y76024D01*
X113290Y75695D01*
X113073Y75412D01*
X112790Y75195D01*
X112460Y75058D01*
X112027Y75001D01*
X109449D01*
X108988Y74909D01*
X108597Y74648D01*
X108336Y74258D01*
X108245Y73797D01*
Y57144D01*
X107874Y56840D01*
X106913Y56649D01*
X106100Y56105D01*
X105556Y55291D01*
X105365Y54331D01*
X105556Y53371D01*
X105801Y53004D01*
X105440Y52644D01*
X104897Y53007D01*
X103937Y53198D01*
X102977Y53007D01*
X102163Y52463D01*
X101619Y51649D01*
X101428Y50689D01*
X101619Y49729D01*
X102163Y48915D01*
X102977Y48371D01*
X103937Y48180D01*
X104897Y48371D01*
X105711Y48915D01*
X106254Y49729D01*
X106445Y50689D01*
X106254Y51649D01*
X106009Y52016D01*
X106370Y52376D01*
X106913Y52013D01*
X107459Y51904D01*
X107524Y51748D01*
X107333Y50788D01*
X107524Y49828D01*
X108068Y49014D01*
X108296Y48862D01*
X108489Y48394D01*
X108456Y48258D01*
X108403Y48129D01*
X108403Y48031D01*
X108380Y47937D01*
X108366Y47561D01*
X108370Y47539D01*
X108365Y47517D01*
X108407Y47308D01*
X108441Y47097D01*
X108453Y47078D01*
X108457Y47056D01*
X108576Y46879D01*
X108687Y46697D01*
X108706Y46684D01*
X108718Y46665D01*
X116529Y38855D01*
X116730Y38388D01*
X116563Y38139D01*
X116186Y37574D01*
X115995Y36614D01*
X116186Y35654D01*
X116730Y34840D01*
X117544Y34296D01*
X118504Y34105D01*
X119464Y34296D01*
X120278Y34840D01*
X120822Y35654D01*
X121013Y36614D01*
X120822Y37574D01*
X120721Y37725D01*
X120957Y38166D01*
X127165D01*
X127165Y38166D01*
X127626Y38258D01*
X128017Y38519D01*
X129985Y40487D01*
X130246Y40878D01*
X130338Y41339D01*
X130338Y41339D01*
Y72384D01*
X130708Y72688D01*
X131668Y72879D01*
X132482Y73423D01*
X133026Y74237D01*
X133217Y75197D01*
X133026Y76157D01*
X132482Y76971D01*
X131668Y77515D01*
X131600Y77528D01*
X131503Y78019D01*
X131695Y78147D01*
X132239Y78961D01*
X132430Y79921D01*
X132239Y80881D01*
X131695Y81695D01*
X130881Y82239D01*
X130662Y82283D01*
X130654Y82303D01*
X130610Y82803D01*
X131302Y83265D01*
X131845Y84079D01*
X132036Y85039D01*
X131845Y86000D01*
X131302Y86813D01*
X130488Y87357D01*
X129558Y87542D01*
X129230Y87934D01*
X129280Y88189D01*
X129172Y88736D01*
X129483Y88830D01*
X129536Y88858D01*
X129595Y88870D01*
X129742Y88968D01*
X129898Y89052D01*
X129936Y89098D01*
X129985Y89131D01*
X130084Y89278D01*
X130196Y89415D01*
X130213Y89472D01*
X130246Y89522D01*
X130281Y89695D01*
X130332Y89865D01*
X130326Y89924D01*
X130338Y89983D01*
X130338Y92301D01*
X130326Y92359D01*
X130332Y92419D01*
X130281Y92588D01*
X130246Y92762D01*
X130213Y92811D01*
X130196Y92868D01*
X130084Y93005D01*
X129985Y93152D01*
X129936Y93186D01*
X129898Y93232D01*
X129742Y93315D01*
X129595Y93413D01*
X129536Y93425D01*
X129483Y93453D01*
X129172Y93548D01*
X129280Y94095D01*
X129172Y94641D01*
X129483Y94736D01*
X129536Y94764D01*
X129595Y94776D01*
X129742Y94874D01*
X129898Y94957D01*
X129936Y95003D01*
X129985Y95037D01*
X130084Y95184D01*
X130196Y95321D01*
X130213Y95378D01*
X130246Y95427D01*
X130281Y95601D01*
X130332Y95770D01*
X130326Y95830D01*
X130338Y95888D01*
Y98206D01*
X130326Y98265D01*
X130332Y98324D01*
X130281Y98494D01*
X130246Y98667D01*
X130213Y98717D01*
X130196Y98774D01*
X130084Y98911D01*
X129985Y99058D01*
X129936Y99091D01*
X129898Y99137D01*
X129742Y99221D01*
X129595Y99319D01*
X129536Y99331D01*
X129483Y99359D01*
X129172Y99453D01*
X129280Y100000D01*
X129172Y100547D01*
X129483Y100641D01*
X129536Y100670D01*
X129595Y100681D01*
X129742Y100779D01*
X129898Y100863D01*
X129936Y100909D01*
X129985Y100942D01*
X130084Y101089D01*
X130196Y101226D01*
X130213Y101283D01*
X130246Y101333D01*
X130281Y101506D01*
X130332Y101676D01*
X130326Y101735D01*
X130338Y101794D01*
Y112540D01*
X130838Y112692D01*
X131297Y112005D01*
X132111Y111462D01*
X133071Y111271D01*
X134031Y111462D01*
X134845Y112005D01*
X135389Y112819D01*
X135580Y113779D01*
X135389Y114740D01*
X134845Y115553D01*
X134031Y116097D01*
X133071Y116288D01*
X132111Y116097D01*
X131297Y115553D01*
X130838Y114867D01*
X130338Y115019D01*
Y138871D01*
X136285Y144818D01*
X136546Y145208D01*
X136637Y145669D01*
X136637Y145669D01*
Y146991D01*
X137137Y147142D01*
X137202Y147045D01*
X138016Y146501D01*
X138976Y146310D01*
X139936Y146501D01*
X140750Y147045D01*
X141294Y147859D01*
X141485Y148819D01*
X141294Y149779D01*
X140750Y150593D01*
X139936Y151137D01*
X138976Y151328D01*
X138016Y151137D01*
X137202Y150593D01*
X137137Y150496D01*
X136637Y150647D01*
Y154331D01*
X136546Y154792D01*
X136285Y155182D01*
X135103Y156363D01*
X134713Y156624D01*
X134252Y156716D01*
D02*
G37*
G36*
X64173Y145816D02*
X63213Y145625D01*
X62399Y145081D01*
X61855Y144267D01*
X61664Y143307D01*
X61855Y142347D01*
X62399Y141533D01*
X63213Y140989D01*
X64173Y140798D01*
X65133Y140989D01*
X65947Y141533D01*
X66491Y142347D01*
X66682Y143307D01*
X66491Y144267D01*
X65947Y145081D01*
X65133Y145625D01*
X64173Y145816D01*
D02*
G37*
G36*
X7874Y142957D02*
X6538Y142782D01*
X5293Y142266D01*
X4224Y141446D01*
X3403Y140376D01*
X2888Y139131D01*
X2712Y137795D01*
X2888Y136459D01*
X3403Y135214D01*
X4224Y134145D01*
X5293Y133325D01*
X6538Y132809D01*
X7874Y132633D01*
X9210Y132809D01*
X10455Y133325D01*
X11524Y134145D01*
X12345Y135214D01*
X12860Y136459D01*
X13036Y137795D01*
X12860Y139131D01*
X12345Y140376D01*
X11524Y141446D01*
X10455Y142266D01*
X9210Y142782D01*
X7874Y142957D01*
D02*
G37*
G36*
X95276Y136761D02*
X94315Y136570D01*
X93502Y136026D01*
X92958Y135212D01*
X92767Y134252D01*
X92958Y133292D01*
X93502Y132478D01*
X94315Y131934D01*
X95276Y131743D01*
X96236Y131934D01*
X97050Y132478D01*
X97593Y133292D01*
X97785Y134252D01*
X97593Y135212D01*
X97050Y136026D01*
X96236Y136570D01*
X95276Y136761D01*
D02*
G37*
G36*
X7874Y130068D02*
X6914Y129877D01*
X6100Y129333D01*
X5556Y128519D01*
X5365Y127559D01*
X5556Y126599D01*
X6100Y125785D01*
X6914Y125241D01*
X7874Y125050D01*
X8834Y125241D01*
X9648Y125785D01*
X10192Y126599D01*
X10383Y127559D01*
X10192Y128519D01*
X9648Y129333D01*
X8834Y129877D01*
X7874Y130068D01*
D02*
G37*
G36*
X70079Y126131D02*
X69119Y125940D01*
X68305Y125396D01*
X67761Y124582D01*
X67570Y123622D01*
X67761Y122662D01*
X68305Y121848D01*
X69119Y121304D01*
X70079Y121113D01*
X71039Y121304D01*
X71853Y121848D01*
X72397Y122662D01*
X72588Y123622D01*
X72397Y124582D01*
X71853Y125396D01*
X71039Y125940D01*
X70079Y126131D01*
D02*
G37*
G36*
X58268Y121800D02*
X57308Y121609D01*
X56494Y121065D01*
X55950Y120251D01*
X55759Y119291D01*
X55950Y118331D01*
X56494Y117517D01*
X57308Y116973D01*
X58268Y116782D01*
X59228Y116973D01*
X60042Y117517D01*
X60586Y118331D01*
X60777Y119291D01*
X60586Y120251D01*
X60042Y121065D01*
X59228Y121609D01*
X58268Y121800D01*
D02*
G37*
G36*
X90533Y121603D02*
X89573Y121412D01*
X88759Y120869D01*
X88215Y120055D01*
X88024Y119095D01*
X88215Y118134D01*
X88759Y117321D01*
X89573Y116777D01*
X90533Y116586D01*
X91493Y116777D01*
X92307Y117321D01*
X92851Y118134D01*
X93042Y119095D01*
X92851Y120055D01*
X92307Y120869D01*
X91493Y121412D01*
X90533Y121603D01*
D02*
G37*
G36*
X35433Y120619D02*
X34473Y120428D01*
X33659Y119884D01*
X33115Y119070D01*
X32924Y118110D01*
X33115Y117150D01*
X33659Y116336D01*
X34473Y115792D01*
X35433Y115601D01*
X36393Y115792D01*
X37207Y116336D01*
X37751Y117150D01*
X37942Y118110D01*
X37751Y119070D01*
X37207Y119884D01*
X36393Y120428D01*
X35433Y120619D01*
D02*
G37*
G36*
X82284Y117863D02*
X81323Y117672D01*
X80510Y117128D01*
X79966Y116314D01*
X79775Y115354D01*
X79966Y114394D01*
X80510Y113580D01*
X81323Y113037D01*
X82284Y112846D01*
X83244Y113037D01*
X84057Y113580D01*
X84601Y114394D01*
X84792Y115354D01*
X84601Y116314D01*
X84057Y117128D01*
X83244Y117672D01*
X82284Y117863D01*
D02*
G37*
G36*
X40551D02*
X39591Y117672D01*
X38777Y117128D01*
X38233Y116314D01*
X38042Y115354D01*
X38233Y114394D01*
X38777Y113580D01*
X39591Y113037D01*
X40551Y112846D01*
X41511Y113037D01*
X42325Y113580D01*
X42869Y114394D01*
X43060Y115354D01*
X42869Y116314D01*
X42325Y117128D01*
X41511Y117672D01*
X40551Y117863D01*
D02*
G37*
G36*
X35433Y115107D02*
X34473Y114916D01*
X33659Y114373D01*
X33115Y113558D01*
X32924Y112598D01*
X33115Y111638D01*
X33659Y110824D01*
X34473Y110281D01*
X35433Y110090D01*
X36393Y110281D01*
X37207Y110824D01*
X37751Y111638D01*
X37942Y112598D01*
X37751Y113558D01*
X37207Y114373D01*
X36393Y114916D01*
X35433Y115107D01*
D02*
G37*
G36*
X77559Y113926D02*
X76599Y113735D01*
X75785Y113191D01*
X75241Y112377D01*
X75050Y111417D01*
X75241Y110457D01*
X75785Y109643D01*
X76599Y109099D01*
X77559Y108908D01*
X78519Y109099D01*
X79333Y109643D01*
X79877Y110457D01*
X80068Y111417D01*
X79877Y112377D01*
X79333Y113191D01*
X78519Y113735D01*
X77559Y113926D01*
D02*
G37*
G36*
X71260D02*
X70300Y113735D01*
X69486Y113191D01*
X68942Y112377D01*
X68751Y111417D01*
X68942Y110457D01*
X69486Y109643D01*
X70300Y109099D01*
X71260Y108908D01*
X72220Y109099D01*
X73034Y109643D01*
X73578Y110457D01*
X73769Y111417D01*
X73578Y112377D01*
X73034Y113191D01*
X72220Y113735D01*
X71260Y113926D01*
D02*
G37*
G36*
X93307Y113532D02*
X92347Y113342D01*
X91533Y112798D01*
X90989Y111984D01*
X90798Y111024D01*
X90989Y110064D01*
X91533Y109250D01*
X92347Y108706D01*
X93307Y108515D01*
X94267Y108706D01*
X95081Y109250D01*
X95625Y110064D01*
X95815Y111024D01*
X95625Y111984D01*
X95081Y112798D01*
X94267Y113342D01*
X93307Y113532D01*
D02*
G37*
G36*
X40551Y112351D02*
X39591Y112160D01*
X38777Y111617D01*
X38233Y110803D01*
X38042Y109843D01*
X38233Y108882D01*
X38777Y108069D01*
X39591Y107525D01*
X40551Y107334D01*
X41511Y107525D01*
X42325Y108069D01*
X42869Y108882D01*
X43060Y109843D01*
X42869Y110803D01*
X42325Y111617D01*
X41511Y112160D01*
X40551Y112351D01*
D02*
G37*
G36*
X7874Y115399D02*
X6538Y115223D01*
X5293Y114707D01*
X4224Y113886D01*
X3403Y112817D01*
X2888Y111572D01*
X2712Y110236D01*
X2888Y108900D01*
X3403Y107655D01*
X4224Y106586D01*
X5293Y105766D01*
X6538Y105250D01*
X7874Y105074D01*
X9210Y105250D01*
X10455Y105766D01*
X11524Y106586D01*
X12345Y107655D01*
X12860Y108900D01*
X13036Y110236D01*
X12860Y111572D01*
X12345Y112817D01*
X11524Y113886D01*
X10455Y114707D01*
X9210Y115223D01*
X7874Y115399D01*
D02*
G37*
G36*
X142520Y109989D02*
X141560Y109798D01*
X140746Y109254D01*
X140202Y108440D01*
X140011Y107480D01*
X140202Y106520D01*
X140746Y105706D01*
X141560Y105162D01*
X142520Y104972D01*
X143480Y105162D01*
X144294Y105706D01*
X144838Y106520D01*
X145028Y107480D01*
X144838Y108440D01*
X144294Y109254D01*
X143480Y109798D01*
X142520Y109989D01*
D02*
G37*
G36*
X70894Y106889D02*
X69934Y106698D01*
X69120Y106154D01*
X68576Y105341D01*
X68385Y104380D01*
X68576Y103420D01*
X69120Y102606D01*
X69934Y102063D01*
X70894Y101872D01*
X71854Y102063D01*
X72668Y102606D01*
X73212Y103420D01*
X73403Y104380D01*
X73212Y105341D01*
X72668Y106154D01*
X71854Y106698D01*
X70894Y106889D01*
D02*
G37*
G36*
X25197Y106840D02*
X24237Y106649D01*
X23423Y106105D01*
X22879Y105291D01*
X22688Y104331D01*
X22879Y103371D01*
X23423Y102557D01*
X24237Y102013D01*
X25197Y101822D01*
X26157Y102013D01*
X26971Y102557D01*
X27515Y103371D01*
X27706Y104331D01*
X27515Y105291D01*
X26971Y106105D01*
X26157Y106649D01*
X25197Y106840D01*
D02*
G37*
G36*
X54841Y111466D02*
X53881Y111275D01*
X53067Y110731D01*
X52523Y109917D01*
X52332Y108957D01*
X52523Y107997D01*
X53067Y107183D01*
X53881Y106639D01*
X54362Y106543D01*
X54397Y106536D01*
X54331Y106052D01*
X54281Y106042D01*
X53371Y105861D01*
X52557Y105317D01*
X52013Y104503D01*
X51822Y103543D01*
X52013Y102583D01*
X52557Y101769D01*
X53371Y101225D01*
X54331Y101034D01*
X55291Y101225D01*
X56105Y101769D01*
X56649Y102583D01*
X56840Y103543D01*
X56649Y104503D01*
X56105Y105317D01*
X55291Y105861D01*
X54810Y105957D01*
X54775Y105964D01*
X54841Y106448D01*
X54891Y106458D01*
X55801Y106639D01*
X56615Y107183D01*
X57159Y107997D01*
X57350Y108957D01*
X57159Y109917D01*
X56615Y110731D01*
X55801Y111275D01*
X54841Y111466D01*
D02*
G37*
G36*
X14567Y104084D02*
X13607Y103893D01*
X12793Y103349D01*
X12249Y102535D01*
X12058Y101575D01*
X12249Y100615D01*
X12793Y99801D01*
X13607Y99257D01*
X14567Y99066D01*
X15527Y99257D01*
X16341Y99801D01*
X16885Y100615D01*
X17076Y101575D01*
X16885Y102535D01*
X16341Y103349D01*
X15527Y103893D01*
X14567Y104084D01*
D02*
G37*
G36*
X95079Y101722D02*
X94119Y101531D01*
X93305Y100987D01*
X92761Y100173D01*
X92570Y99213D01*
X92761Y98252D01*
X93305Y97439D01*
X94119Y96895D01*
X95079Y96704D01*
X96039Y96895D01*
X96853Y97439D01*
X97397Y98252D01*
X97588Y99213D01*
X97397Y100173D01*
X96853Y100987D01*
X96039Y101531D01*
X95079Y101722D01*
D02*
G37*
G36*
X83268D02*
X82308Y101531D01*
X81494Y100987D01*
X80950Y100173D01*
X80759Y99213D01*
X80950Y98252D01*
X81494Y97439D01*
X82308Y96895D01*
X83268Y96704D01*
X84228Y96895D01*
X85042Y97439D01*
X85586Y98252D01*
X85777Y99213D01*
X85586Y100173D01*
X85042Y100987D01*
X84228Y101531D01*
X83268Y101722D01*
D02*
G37*
G36*
X68898Y101328D02*
X67938Y101137D01*
X67124Y100593D01*
X66580Y99779D01*
X66389Y98819D01*
X66580Y97859D01*
X67124Y97045D01*
X67938Y96501D01*
X68898Y96310D01*
X69858Y96501D01*
X70672Y97045D01*
X71215Y97859D01*
X71407Y98819D01*
X71215Y99779D01*
X70672Y100593D01*
X69858Y101137D01*
X68898Y101328D01*
D02*
G37*
G36*
X7087Y98572D02*
X6126Y98381D01*
X5313Y97837D01*
X4769Y97023D01*
X4578Y96063D01*
X4769Y95103D01*
X5313Y94289D01*
X6126Y93745D01*
X7087Y93554D01*
X8047Y93745D01*
X8861Y94289D01*
X9404Y95103D01*
X9595Y96063D01*
X9404Y97023D01*
X8861Y97837D01*
X8047Y98381D01*
X7087Y98572D01*
D02*
G37*
G36*
X45669Y96210D02*
X44709Y96019D01*
X43895Y95475D01*
X43351Y94661D01*
X43161Y93701D01*
X43351Y92741D01*
X43895Y91927D01*
X44709Y91383D01*
X45669Y91192D01*
X46629Y91383D01*
X47443Y91927D01*
X47987Y92741D01*
X48178Y93701D01*
X47987Y94661D01*
X47443Y95475D01*
X46629Y96019D01*
X45669Y96210D01*
D02*
G37*
G36*
X35433Y94241D02*
X34473Y94050D01*
X33659Y93506D01*
X33115Y92692D01*
X32924Y91732D01*
X33115Y90772D01*
X33659Y89958D01*
X34473Y89414D01*
X35433Y89223D01*
X36393Y89414D01*
X37207Y89958D01*
X37751Y90772D01*
X37942Y91732D01*
X37751Y92692D01*
X37207Y93506D01*
X36393Y94050D01*
X35433Y94241D01*
D02*
G37*
G36*
X7087Y92666D02*
X6126Y92475D01*
X5313Y91931D01*
X4769Y91118D01*
X4578Y90158D01*
X4769Y89197D01*
X5313Y88384D01*
X6126Y87840D01*
X7087Y87649D01*
X8047Y87840D01*
X8861Y88384D01*
X9404Y89197D01*
X9595Y90158D01*
X9404Y91118D01*
X8861Y91931D01*
X8047Y92475D01*
X7087Y92666D01*
D02*
G37*
G36*
X62598Y91879D02*
X61638Y91688D01*
X60824Y91144D01*
X60281Y90330D01*
X60090Y89370D01*
X60281Y88410D01*
X60824Y87596D01*
X61638Y87052D01*
X62598Y86861D01*
X63559Y87052D01*
X64372Y87596D01*
X64916Y88410D01*
X65107Y89370D01*
X64916Y90330D01*
X64372Y91144D01*
X63559Y91688D01*
X62598Y91879D01*
D02*
G37*
G36*
X56299Y90009D02*
X55339Y89818D01*
X54525Y89274D01*
X53981Y88460D01*
X53790Y87500D01*
X53981Y86540D01*
X54525Y85726D01*
X55339Y85182D01*
X56299Y84991D01*
X57259Y85182D01*
X58073Y85726D01*
X58617Y86540D01*
X58808Y87500D01*
X58617Y88460D01*
X58073Y89274D01*
X57259Y89818D01*
X56299Y90009D01*
D02*
G37*
G36*
X95079Y89910D02*
X94119Y89719D01*
X93305Y89176D01*
X92761Y88362D01*
X92570Y87402D01*
X92761Y86441D01*
X93305Y85628D01*
X94119Y85084D01*
X95079Y84893D01*
X96039Y85084D01*
X96853Y85628D01*
X97397Y86441D01*
X97588Y87402D01*
X97397Y88362D01*
X96853Y89176D01*
X96039Y89719D01*
X95079Y89910D01*
D02*
G37*
G36*
X83268D02*
X82308Y89719D01*
X81494Y89176D01*
X80950Y88362D01*
X80759Y87402D01*
X80950Y86441D01*
X81494Y85628D01*
X82308Y85084D01*
X83268Y84893D01*
X84228Y85084D01*
X85042Y85628D01*
X85586Y86441D01*
X85777Y87402D01*
X85586Y88362D01*
X85042Y89176D01*
X84228Y89719D01*
X83268Y89910D01*
D02*
G37*
G36*
X45669Y89910D02*
X44709Y89719D01*
X43895Y89176D01*
X43351Y88362D01*
X43161Y87402D01*
X43351Y86441D01*
X43895Y85628D01*
X44709Y85084D01*
X45669Y84893D01*
X46629Y85084D01*
X47443Y85628D01*
X47987Y86441D01*
X48178Y87402D01*
X47987Y88362D01*
X47443Y89176D01*
X46629Y89719D01*
X45669Y89910D01*
D02*
G37*
G36*
X31496Y89517D02*
X30536Y89326D01*
X29722Y88782D01*
X29178Y87968D01*
X28987Y87008D01*
X29178Y86048D01*
X29722Y85234D01*
X30536Y84690D01*
X31496Y84499D01*
X32456Y84690D01*
X33270Y85234D01*
X33814Y86048D01*
X34005Y87008D01*
X33814Y87968D01*
X33270Y88782D01*
X32456Y89326D01*
X31496Y89517D01*
D02*
G37*
G36*
X21654Y87450D02*
X20694Y87259D01*
X19880Y86715D01*
X19336Y85901D01*
X19145Y84941D01*
X19336Y83981D01*
X19880Y83167D01*
X20694Y82623D01*
X21654Y82432D01*
X22614Y82623D01*
X23428Y83167D01*
X23971Y83981D01*
X24162Y84941D01*
X23971Y85901D01*
X23428Y86715D01*
X22614Y87259D01*
X21654Y87450D01*
D02*
G37*
G36*
X7087Y86761D02*
X6126Y86570D01*
X5313Y86026D01*
X4769Y85212D01*
X4578Y84252D01*
X4769Y83292D01*
X5313Y82478D01*
X6126Y81934D01*
X7087Y81743D01*
X8047Y81934D01*
X8861Y82478D01*
X9404Y83292D01*
X9595Y84252D01*
X9404Y85212D01*
X8861Y86026D01*
X8047Y86570D01*
X7087Y86761D01*
D02*
G37*
G36*
X69135Y84340D02*
X68175Y84149D01*
X67361Y83605D01*
X66817Y82792D01*
X66626Y81832D01*
X66817Y80871D01*
X67361Y80058D01*
X68175Y79514D01*
X69135Y79323D01*
X70095Y79514D01*
X70909Y80058D01*
X71452Y80871D01*
X71644Y81832D01*
X71452Y82792D01*
X70909Y83605D01*
X70095Y84149D01*
X69135Y84340D01*
D02*
G37*
G36*
X53543Y82036D02*
X52583Y81845D01*
X51769Y81302D01*
X51226Y80488D01*
X51034Y79528D01*
X51226Y78567D01*
X51290Y78470D01*
X51012Y78055D01*
X50787Y78099D01*
X49827Y77908D01*
X49013Y77365D01*
X48469Y76551D01*
X48279Y75591D01*
X48469Y74630D01*
X49013Y73817D01*
X49827Y73273D01*
X50787Y73082D01*
X51748Y73273D01*
X52561Y73817D01*
X53105Y74630D01*
X53296Y75591D01*
X53105Y76551D01*
X53040Y76648D01*
X53318Y77064D01*
X53543Y77019D01*
X54503Y77210D01*
X55317Y77754D01*
X55861Y78567D01*
X56052Y79528D01*
X55861Y80488D01*
X55317Y81302D01*
X54503Y81845D01*
X53543Y82036D01*
D02*
G37*
G36*
X7087Y80855D02*
X6126Y80664D01*
X5313Y80120D01*
X4769Y79307D01*
X4578Y78347D01*
X4769Y77386D01*
X5313Y76572D01*
X6126Y76029D01*
X7087Y75838D01*
X8047Y76029D01*
X8861Y76572D01*
X9404Y77386D01*
X9595Y78347D01*
X9404Y79307D01*
X8861Y80120D01*
X8047Y80664D01*
X7087Y80855D01*
D02*
G37*
G36*
X59448Y77706D02*
X58488Y77515D01*
X57674Y76971D01*
X57131Y76157D01*
X57025Y75624D01*
X56196Y75789D01*
X55236Y75598D01*
X54422Y75054D01*
X53879Y74240D01*
X53688Y73280D01*
X53879Y72320D01*
X54422Y71506D01*
X55236Y70962D01*
X56196Y70771D01*
X57157Y70962D01*
X57970Y71506D01*
X58514Y72320D01*
X58620Y72853D01*
X59448Y72688D01*
X60409Y72879D01*
X61222Y73423D01*
X61766Y74237D01*
X61957Y75197D01*
X61766Y76157D01*
X61222Y76971D01*
X60409Y77515D01*
X59448Y77706D01*
D02*
G37*
G36*
X21654Y80462D02*
X20694Y80271D01*
X19880Y79727D01*
X19336Y78913D01*
X19145Y77953D01*
X19336Y76993D01*
X19880Y76179D01*
X20694Y75635D01*
X21654Y75444D01*
X22614Y75635D01*
X23428Y76179D01*
X23971Y76993D01*
X24162Y77953D01*
X23971Y78913D01*
X23428Y79727D01*
X22614Y80271D01*
X21654Y80462D01*
D02*
G37*
G36*
X37795Y79674D02*
X36835Y79483D01*
X36021Y78939D01*
X35477Y78126D01*
X35287Y77165D01*
X35477Y76205D01*
X36021Y75391D01*
X36835Y74848D01*
X37795Y74656D01*
X38755Y74848D01*
X39569Y75391D01*
X40113Y76205D01*
X40304Y77165D01*
X40113Y78126D01*
X39569Y78939D01*
X38755Y79483D01*
X37795Y79674D01*
D02*
G37*
G36*
X88976Y74950D02*
X88016Y74759D01*
X87202Y74215D01*
X86659Y73401D01*
X86468Y72441D01*
X86659Y71481D01*
X87202Y70667D01*
X88016Y70123D01*
X88976Y69932D01*
X89937Y70123D01*
X90750Y70667D01*
X91294Y71481D01*
X91485Y72441D01*
X91294Y73401D01*
X90750Y74215D01*
X89937Y74759D01*
X88976Y74950D01*
D02*
G37*
G36*
X100394Y73769D02*
X99434Y73578D01*
X98620Y73034D01*
X98076Y72220D01*
X97885Y71260D01*
X98076Y70300D01*
X98620Y69486D01*
X99434Y68942D01*
X100394Y68751D01*
X101354Y68942D01*
X102168Y69486D01*
X102712Y70300D01*
X102903Y71260D01*
X102712Y72220D01*
X102168Y73034D01*
X101354Y73578D01*
X100394Y73769D01*
D02*
G37*
G36*
X67323Y73375D02*
X66363Y73184D01*
X65549Y72640D01*
X65005Y71826D01*
X64814Y70866D01*
X65005Y69906D01*
X65549Y69092D01*
X66363Y68548D01*
X67323Y68357D01*
X68283Y68548D01*
X69097Y69092D01*
X69641Y69906D01*
X69832Y70866D01*
X69641Y71826D01*
X69097Y72640D01*
X68283Y73184D01*
X67323Y73375D01*
D02*
G37*
G36*
X37008Y71800D02*
X36048Y71609D01*
X35234Y71065D01*
X34690Y70251D01*
X34499Y69291D01*
X34690Y68331D01*
X35234Y67517D01*
X36048Y66974D01*
X37008Y66782D01*
X37968Y66974D01*
X38782Y67517D01*
X39326Y68331D01*
X39517Y69291D01*
X39326Y70251D01*
X38782Y71065D01*
X37968Y71609D01*
X37008Y71800D01*
D02*
G37*
G36*
X29921D02*
X28961Y71609D01*
X28147Y71065D01*
X27603Y70251D01*
X27412Y69291D01*
X27603Y68331D01*
X28147Y67517D01*
X28961Y66974D01*
X29921Y66782D01*
X30881Y66974D01*
X31695Y67517D01*
X32239Y68331D01*
X32430Y69291D01*
X32239Y70251D01*
X31695Y71065D01*
X30881Y71609D01*
X29921Y71800D01*
D02*
G37*
G36*
X33858Y62235D02*
X32933Y62113D01*
X32071Y61756D01*
X31331Y61189D01*
X31024Y60788D01*
X30394D01*
X30086Y61189D01*
X29346Y61756D01*
X28484Y62113D01*
X27559Y62235D01*
X26634Y62113D01*
X25772Y61756D01*
X25032Y61189D01*
X24464Y60448D01*
X24107Y59586D01*
X23985Y58661D01*
X24107Y57736D01*
X24464Y56875D01*
X25032Y56134D01*
X25772Y55566D01*
X26634Y55209D01*
X27559Y55088D01*
X28484Y55209D01*
X29346Y55566D01*
X30086Y56134D01*
X30394Y56535D01*
X31024D01*
X31331Y56134D01*
X32071Y55566D01*
X32933Y55209D01*
X33858Y55088D01*
X34783Y55209D01*
X35645Y55566D01*
X36385Y56134D01*
X36953Y56875D01*
X37310Y57736D01*
X37432Y58661D01*
X37310Y59586D01*
X36953Y60448D01*
X36385Y61189D01*
X35645Y61756D01*
X34783Y62113D01*
X33858Y62235D01*
D02*
G37*
G36*
X94291Y59202D02*
X93331Y59011D01*
X92517Y58467D01*
X91974Y57653D01*
X91889Y57227D01*
X91379D01*
X91294Y57653D01*
X90750Y58467D01*
X89937Y59011D01*
X88976Y59202D01*
X88016Y59011D01*
X87202Y58467D01*
X86659Y57653D01*
X86468Y56693D01*
X86659Y55733D01*
X87202Y54919D01*
X88016Y54375D01*
X88976Y54184D01*
X89937Y54375D01*
X90750Y54919D01*
X91294Y55733D01*
X91379Y56159D01*
X91889D01*
X91974Y55733D01*
X92517Y54919D01*
X93331Y54375D01*
X94291Y54184D01*
X94583Y53732D01*
X94237Y53215D01*
X94046Y52255D01*
X94237Y51295D01*
X94781Y50481D01*
X95595Y49937D01*
X96555Y49746D01*
X97515Y49937D01*
X98329Y50481D01*
X98873Y51295D01*
X99064Y52255D01*
X98873Y53215D01*
X98329Y54029D01*
X97515Y54573D01*
X96555Y54764D01*
X96263Y55215D01*
X96609Y55733D01*
X96800Y56693D01*
X96609Y57653D01*
X96065Y58467D01*
X95251Y59011D01*
X94291Y59202D01*
D02*
G37*
G36*
X72835Y59202D02*
X71875Y59011D01*
X71061Y58467D01*
X70517Y57653D01*
X70326Y56693D01*
X70462Y56010D01*
X70320Y55536D01*
X70157Y55372D01*
X69486Y54924D01*
X68942Y54110D01*
X68751Y53150D01*
X68942Y52189D01*
X69463Y51410D01*
X69394Y51166D01*
X69257Y50927D01*
X68331Y50743D01*
X67517Y50199D01*
X66974Y49385D01*
X66782Y48425D01*
X66974Y47465D01*
X67517Y46651D01*
X68331Y46107D01*
X69291Y45916D01*
X70251Y46107D01*
X71065Y46651D01*
X71609Y47465D01*
X71800Y48425D01*
X71609Y49385D01*
X71088Y50165D01*
X71158Y50408D01*
X71294Y50648D01*
X72220Y50832D01*
X73034Y51376D01*
X73578Y52189D01*
X73769Y53150D01*
X73633Y53833D01*
X73774Y54307D01*
X73938Y54471D01*
X74609Y54919D01*
X75152Y55733D01*
X75344Y56693D01*
X75152Y57653D01*
X74609Y58467D01*
X73795Y59011D01*
X72835Y59202D01*
D02*
G37*
G36*
X86221Y50934D02*
X85260Y50743D01*
X84447Y50199D01*
X83903Y49385D01*
X83712Y48425D01*
X83903Y47465D01*
X83802Y47223D01*
X83686Y47200D01*
X82872Y46656D01*
X82328Y45842D01*
X82137Y44882D01*
X82328Y43922D01*
X82872Y43108D01*
X83686Y42564D01*
X84646Y42373D01*
X85606Y42564D01*
X86420Y43108D01*
X86964Y43922D01*
X87155Y44882D01*
X86964Y45842D01*
X87064Y46084D01*
X87181Y46107D01*
X87994Y46651D01*
X88538Y47465D01*
X88729Y48425D01*
X88538Y49385D01*
X87994Y50199D01*
X87181Y50743D01*
X86221Y50934D01*
D02*
G37*
G36*
X58651Y41081D02*
X57691Y40890D01*
X56877Y40347D01*
X56333Y39533D01*
X56172Y39446D01*
X55783Y39608D01*
X54961Y39716D01*
X54138Y39608D01*
X53372Y39291D01*
X52714Y38786D01*
X52210Y38128D01*
X51892Y37362D01*
X51784Y36539D01*
X51892Y35717D01*
X52210Y34951D01*
X52714Y34293D01*
X53372Y33788D01*
X54138Y33471D01*
X54961Y33363D01*
X55783Y33471D01*
X56549Y33788D01*
X57207Y34293D01*
X57712Y34951D01*
X58029Y35717D01*
X58042Y35813D01*
X58448Y36104D01*
X58651Y36064D01*
X59611Y36255D01*
X60425Y36798D01*
X60969Y37612D01*
X61160Y38572D01*
X60969Y39533D01*
X60425Y40347D01*
X59611Y40890D01*
X58651Y41081D01*
D02*
G37*
G36*
X64961Y40698D02*
X64001Y40507D01*
X63187Y39963D01*
X62643Y39149D01*
X62452Y38189D01*
X62643Y37229D01*
X63187Y36415D01*
X64001Y35871D01*
X64961Y35680D01*
X65921Y35871D01*
X66735Y36415D01*
X67278Y37229D01*
X67470Y38189D01*
X67278Y39149D01*
X66735Y39963D01*
X65921Y40507D01*
X64961Y40698D01*
D02*
G37*
G36*
X131496Y39517D02*
X130536Y39326D01*
X129722Y38782D01*
X129178Y37968D01*
X128987Y37008D01*
X129178Y36048D01*
X129722Y35234D01*
X130536Y34690D01*
X131496Y34499D01*
X132456Y34690D01*
X133270Y35234D01*
X133814Y36048D01*
X134005Y37008D01*
X133814Y37968D01*
X133270Y38782D01*
X132456Y39326D01*
X131496Y39517D01*
D02*
G37*
G36*
X74961Y35716D02*
X74138Y35608D01*
X73372Y35291D01*
X72714Y34786D01*
X72210Y34128D01*
X71892Y33362D01*
X71784Y32539D01*
X71892Y31717D01*
X72210Y30951D01*
X72714Y30293D01*
X72892Y30157D01*
X72872Y29986D01*
X72727Y29653D01*
X71875Y29483D01*
X71061Y28939D01*
X70517Y28126D01*
X70326Y27165D01*
X70517Y26205D01*
X71061Y25391D01*
X71875Y24848D01*
X72835Y24656D01*
X73795Y24848D01*
X74609Y25391D01*
X75152Y26205D01*
X75344Y27165D01*
X75152Y28126D01*
X74634Y28901D01*
X74680Y29066D01*
X74854Y29377D01*
X74961Y29363D01*
X75783Y29471D01*
X76549Y29788D01*
X77207Y30293D01*
X77712Y30951D01*
X78029Y31717D01*
X78137Y32539D01*
X78029Y33362D01*
X77712Y34128D01*
X77207Y34786D01*
X76549Y35291D01*
X75783Y35608D01*
X74961Y35716D01*
D02*
G37*
G36*
X113348Y27274D02*
X112388Y27083D01*
X111574Y26539D01*
X111030Y25725D01*
X110839Y24765D01*
X111030Y23805D01*
X111574Y22991D01*
X112388Y22447D01*
X113348Y22256D01*
X114308Y22447D01*
X115122Y22991D01*
X115666Y23805D01*
X115857Y24765D01*
X115666Y25725D01*
X115122Y26539D01*
X114308Y27083D01*
X113348Y27274D01*
D02*
G37*
G36*
X81102Y25737D02*
X80142Y25546D01*
X79328Y25002D01*
X78785Y24188D01*
X78593Y23228D01*
X78785Y22268D01*
X79328Y21454D01*
X80142Y20910D01*
X81102Y20719D01*
X82063Y20910D01*
X82876Y21454D01*
X83420Y22268D01*
X83611Y23228D01*
X83420Y24188D01*
X82876Y25002D01*
X82063Y25546D01*
X81102Y25737D01*
D02*
G37*
G36*
X54961Y31716D02*
X54138Y31608D01*
X53372Y31291D01*
X52714Y30786D01*
X52210Y30128D01*
X51892Y29362D01*
X51784Y28539D01*
X51892Y27717D01*
X52210Y26951D01*
X52714Y26293D01*
X53372Y25788D01*
X54138Y25471D01*
X54961Y25363D01*
X55783Y25471D01*
X56148Y25622D01*
X56718Y25317D01*
X56737Y25221D01*
X57281Y24407D01*
X58095Y23863D01*
X59055Y23672D01*
X60015Y23863D01*
X60113Y23928D01*
X60563Y23628D01*
X60483Y23228D01*
X60674Y22268D01*
X61218Y21454D01*
X62032Y20910D01*
X62992Y20719D01*
X63952Y20910D01*
X64766Y21454D01*
X65054Y21885D01*
X65655D01*
X65943Y21454D01*
X66756Y20910D01*
X67716Y20719D01*
X68677Y20910D01*
X69491Y21454D01*
X70034Y22268D01*
X70225Y23228D01*
X70034Y24188D01*
X69491Y25002D01*
X68677Y25546D01*
X67747Y25731D01*
X67419Y26123D01*
X67470Y26378D01*
X67278Y27338D01*
X66735Y28152D01*
X65921Y28696D01*
X64961Y28887D01*
X64001Y28696D01*
X63187Y28152D01*
X62643Y27338D01*
X62452Y26378D01*
X62595Y25658D01*
X62032Y25546D01*
X61935Y25481D01*
X61484Y25782D01*
X61564Y26181D01*
X61373Y27141D01*
X60829Y27955D01*
X60015Y28499D01*
X59055Y28690D01*
X58633Y28606D01*
X58076Y29005D01*
X58029Y29362D01*
X57712Y30128D01*
X57207Y30786D01*
X56549Y31291D01*
X55783Y31608D01*
X54961Y31716D01*
D02*
G37*
G36*
X91339Y35467D02*
X89949Y35331D01*
X88613Y34925D01*
X87382Y34267D01*
X86303Y33382D01*
X85418Y32303D01*
X84760Y31071D01*
X84355Y29736D01*
X84218Y28346D01*
Y20472D01*
X84355Y19083D01*
X84760Y17747D01*
X85418Y16516D01*
X86303Y15437D01*
X87382Y14552D01*
X88613Y13894D01*
X89949Y13488D01*
X91339Y13352D01*
X92728Y13488D01*
X94064Y13894D01*
X95295Y14552D01*
X96374Y15437D01*
X97259Y16516D01*
X97917Y17747D01*
X98323Y19083D01*
X98460Y20472D01*
Y28346D01*
X98323Y29736D01*
X97917Y31071D01*
X97259Y32303D01*
X96374Y33382D01*
X95295Y34267D01*
X94064Y34925D01*
X92728Y35331D01*
X91339Y35467D01*
D02*
G37*
G36*
X81102Y13926D02*
X80142Y13735D01*
X79328Y13191D01*
X78785Y12377D01*
X78593Y11417D01*
X78785Y10457D01*
X79328Y9643D01*
X80142Y9099D01*
X81102Y8908D01*
X82063Y9099D01*
X82876Y9643D01*
X83420Y10457D01*
X83611Y11417D01*
X83420Y12377D01*
X82876Y13191D01*
X82063Y13735D01*
X81102Y13926D01*
D02*
G37*
G36*
X49606Y13532D02*
X48646Y13341D01*
X47832Y12798D01*
X47289Y11984D01*
X47098Y11024D01*
X47289Y10063D01*
X47832Y9250D01*
X48646Y8706D01*
X49606Y8515D01*
X50566Y8706D01*
X51380Y9250D01*
X51924Y10063D01*
X52115Y11024D01*
X51924Y11984D01*
X51380Y12798D01*
X50566Y13341D01*
X49606Y13532D01*
D02*
G37*
%LPD*%
G36*
X135433Y154331D02*
X135433Y145669D01*
X129134Y139370D01*
Y101794D01*
X128634Y101642D01*
X128546Y101774D01*
X127732Y102318D01*
X126772Y102509D01*
X125812Y102318D01*
X124998Y101774D01*
X124454Y100960D01*
X124263Y100000D01*
X124454Y99040D01*
X124998Y98226D01*
X125812Y97682D01*
X126772Y97491D01*
X127732Y97682D01*
X128546Y98226D01*
X128634Y98358D01*
X129134Y98206D01*
Y95888D01*
X128634Y95736D01*
X128546Y95868D01*
X127732Y96412D01*
X126772Y96603D01*
X125812Y96412D01*
X124998Y95868D01*
X124454Y95055D01*
X124263Y94095D01*
X124454Y93134D01*
X124998Y92321D01*
X125812Y91777D01*
X126772Y91586D01*
X127732Y91777D01*
X128546Y92321D01*
X128634Y92452D01*
X129134Y92301D01*
X129134Y89983D01*
X128634Y89831D01*
X128546Y89963D01*
X127732Y90507D01*
X126772Y90698D01*
X125812Y90507D01*
X124998Y89963D01*
X124454Y89149D01*
X124263Y88189D01*
X124454Y87229D01*
X124998Y86415D01*
X125812Y85871D01*
X126741Y85686D01*
X126957Y85428D01*
X126812Y84908D01*
X126566Y84751D01*
X125812Y84601D01*
X124998Y84057D01*
X124454Y83244D01*
X124263Y82284D01*
X124454Y81323D01*
X124998Y80510D01*
X125812Y79966D01*
X126772Y79775D01*
X127416Y79903D01*
X127548Y79242D01*
X127147Y78812D01*
X126772Y78887D01*
X125812Y78696D01*
X124998Y78152D01*
X124454Y77338D01*
X124263Y76378D01*
X124454Y75418D01*
X124998Y74604D01*
X125812Y74060D01*
X126772Y73869D01*
X127732Y74060D01*
X127928Y74191D01*
X128547Y74003D01*
X128934Y73423D01*
X129134Y73290D01*
Y41339D01*
X127165Y39370D01*
X117717D01*
X109570Y47517D01*
X109584Y47893D01*
X109842Y48279D01*
X110802Y48470D01*
X111616Y49014D01*
X112160Y49828D01*
X112351Y50788D01*
X112296Y51064D01*
X112725Y51470D01*
X112915Y51421D01*
X113037Y50812D01*
X113580Y49998D01*
X114394Y49454D01*
X115354Y49263D01*
X116314Y49454D01*
X117128Y49998D01*
X117672Y50812D01*
X117863Y51772D01*
X118353Y51870D01*
X119070Y52013D01*
X119884Y52557D01*
X120428Y53371D01*
X120619Y54331D01*
X120428Y55291D01*
X119884Y56105D01*
X119070Y56649D01*
X118110Y56840D01*
X117150Y56649D01*
X116336Y56105D01*
X115792Y55291D01*
X115690Y54776D01*
X115354Y54610D01*
X115019Y54776D01*
X114916Y55291D01*
X114373Y56105D01*
X113558Y56649D01*
X112598Y56840D01*
X111638Y56649D01*
X110824Y56105D01*
X110537Y55674D01*
X109935D01*
X109648Y56105D01*
X109449Y56238D01*
Y73797D01*
X112106D01*
X112774Y73885D01*
X113397Y74143D01*
X113931Y74553D01*
X114342Y75087D01*
X114600Y75710D01*
X114687Y76378D01*
X114600Y77046D01*
X114342Y77668D01*
X113931Y78203D01*
X113397Y78613D01*
X112774Y78871D01*
X112106Y78959D01*
X109449D01*
Y90541D01*
X109835Y90858D01*
X110138Y90798D01*
X111098Y90989D01*
X111912Y91533D01*
X112456Y92347D01*
X112647Y93307D01*
X112492Y94083D01*
X112771Y94139D01*
X113585Y94683D01*
X114129Y95497D01*
X114320Y96457D01*
X114129Y97417D01*
X113585Y98231D01*
X113093Y98560D01*
Y98620D01*
X113636Y99434D01*
X113827Y100394D01*
X113636Y101354D01*
X113261Y101916D01*
X113187Y102292D01*
X113389Y102556D01*
X113979Y102950D01*
X114523Y103764D01*
X114714Y104724D01*
X114523Y105684D01*
X113979Y106498D01*
X113165Y107042D01*
X112205Y107233D01*
X111245Y107042D01*
X110431Y106498D01*
X110068Y105956D01*
X109621Y106255D01*
X109449Y106289D01*
Y140157D01*
X124803Y155512D01*
X134252D01*
X135433Y154331D01*
D02*
G37*
%LPC*%
G36*
X116732Y137136D02*
X115771Y136945D01*
X114957Y136401D01*
X114414Y135587D01*
X114223Y134627D01*
X114414Y133667D01*
X114957Y132853D01*
X115771Y132309D01*
X116732Y132118D01*
X117692Y132309D01*
X118506Y132853D01*
X119049Y133667D01*
X119240Y134627D01*
X119049Y135587D01*
X118506Y136401D01*
X117692Y136945D01*
X116732Y137136D01*
D02*
G37*
G36*
X123622Y66682D02*
X122662Y66491D01*
X121848Y65947D01*
X121304Y65133D01*
X121113Y64173D01*
X121304Y63213D01*
X121848Y62399D01*
X122662Y61855D01*
X123622Y61664D01*
X124582Y61855D01*
X125396Y62399D01*
X125940Y63213D01*
X126131Y64173D01*
X125940Y65133D01*
X125396Y65947D01*
X124582Y66491D01*
X123622Y66682D01*
D02*
G37*
G36*
X316929Y251839D02*
X313345Y248255D01*
X313632Y248019D01*
X314658Y247470D01*
X315772Y247133D01*
X316929Y247019D01*
X318087Y247133D01*
X319200Y247470D01*
X320226Y248019D01*
X320514Y248255D01*
X316929Y251839D01*
D02*
G37*
G36*
X338071Y191103D02*
X336450Y190943D01*
X334892Y190471D01*
X333455Y189703D01*
X332196Y188670D01*
X331163Y187411D01*
X330396Y185975D01*
X329923Y184416D01*
X329763Y182795D01*
X329923Y181175D01*
X330396Y179616D01*
X331163Y178180D01*
X332196Y176921D01*
X333455Y175888D01*
X334892Y175120D01*
X336450Y174647D01*
X338071Y174488D01*
X339692Y174647D01*
X341250Y175120D01*
X342686Y175888D01*
X343945Y176921D01*
X344978Y178180D01*
X345746Y179616D01*
X346219Y181175D01*
X346379Y182795D01*
X346219Y184416D01*
X345746Y185975D01*
X344978Y187411D01*
X343945Y188670D01*
X342686Y189703D01*
X341250Y190471D01*
X339692Y190943D01*
X338071Y191103D01*
D02*
G37*
G36*
X308071D02*
X306450Y190943D01*
X304892Y190471D01*
X303455Y189703D01*
X302197Y188670D01*
X301163Y187411D01*
X300396Y185975D01*
X299923Y184416D01*
X299763Y182795D01*
X299923Y181175D01*
X300396Y179616D01*
X301163Y178180D01*
X302197Y176921D01*
X303455Y175888D01*
X304892Y175120D01*
X306450Y174647D01*
X308071Y174488D01*
X309692Y174647D01*
X311250Y175120D01*
X312686Y175888D01*
X313945Y176921D01*
X314979Y178180D01*
X315746Y179616D01*
X316219Y181175D01*
X316379Y182795D01*
X316219Y184416D01*
X315746Y185975D01*
X314979Y187411D01*
X313945Y188670D01*
X312686Y189703D01*
X311250Y190471D01*
X309692Y190943D01*
X308071Y191103D01*
D02*
G37*
G36*
X338071Y160707D02*
X336527Y160555D01*
X335043Y160105D01*
X333675Y159374D01*
X333088Y158892D01*
X338071Y153909D01*
X343054Y158892D01*
X342467Y159374D01*
X341099Y160105D01*
X339615Y160555D01*
X338071Y160707D01*
D02*
G37*
G36*
X308071D02*
X306527Y160555D01*
X305043Y160105D01*
X303675Y159374D01*
X303088Y158892D01*
X308071Y153909D01*
X313054Y158892D01*
X312467Y159374D01*
X311099Y160105D01*
X309614Y160555D01*
X308071Y160707D01*
D02*
G37*
G36*
X314167Y157778D02*
X309185Y152795D01*
X314167Y147812D01*
X314650Y148399D01*
X315381Y149767D01*
X315831Y151252D01*
X315983Y152795D01*
X315831Y154339D01*
X315381Y155823D01*
X314650Y157191D01*
X314167Y157778D01*
D02*
G37*
G36*
X331974Y157778D02*
X331492Y157191D01*
X330761Y155823D01*
X330311Y154339D01*
X330159Y152795D01*
X330311Y151252D01*
X330761Y149767D01*
X331492Y148399D01*
X331974Y147812D01*
X336957Y152795D01*
X331974Y157778D01*
D02*
G37*
G36*
X308071Y100707D02*
X306527Y100555D01*
X305043Y100105D01*
X303675Y99374D01*
X303088Y98892D01*
X308071Y93909D01*
X313054Y98892D01*
X312467Y99374D01*
X311099Y100105D01*
X309614Y100555D01*
X308071Y100707D01*
D02*
G37*
G36*
X314167Y97778D02*
X309185Y92795D01*
X314167Y87812D01*
X314650Y88399D01*
X315381Y89767D01*
X315831Y91252D01*
X315983Y92795D01*
X315831Y94339D01*
X315381Y95823D01*
X314650Y97191D01*
X314167Y97778D01*
D02*
G37*
G36*
X331974Y97778D02*
X331492Y97191D01*
X330761Y95823D01*
X330311Y94339D01*
X330159Y92795D01*
X330311Y91252D01*
X330761Y89767D01*
X331492Y88399D01*
X331974Y87812D01*
X336957Y92795D01*
X331974Y97778D01*
D02*
G37*
G36*
X301974D02*
X301492Y97191D01*
X300761Y95823D01*
X300311Y94339D01*
X300159Y92795D01*
X300311Y91252D01*
X300761Y89767D01*
X301492Y88399D01*
X301974Y87812D01*
X306957Y92795D01*
X301974Y97778D01*
D02*
G37*
G36*
X338071Y91682D02*
X333088Y86699D01*
X333675Y86217D01*
X335043Y85485D01*
X336527Y85035D01*
X338071Y84883D01*
X339615Y85035D01*
X341099Y85485D01*
X342467Y86217D01*
X343054Y86699D01*
X338071Y91682D01*
D02*
G37*
G36*
X308071D02*
X303088Y86699D01*
X303675Y86217D01*
X305043Y85485D01*
X306527Y85035D01*
X308071Y84883D01*
X309614Y85035D01*
X311099Y85485D01*
X312467Y86217D01*
X313054Y86699D01*
X308071Y91682D01*
D02*
G37*
G36*
X245079Y68534D02*
X244154Y68413D01*
X243292Y68056D01*
X243182Y67971D01*
X245079Y66074D01*
X246976Y67971D01*
X246866Y68056D01*
X246004Y68413D01*
X245079Y68534D01*
D02*
G37*
G36*
X248089Y66858D02*
X246192Y64961D01*
X248089Y63064D01*
X248174Y63174D01*
X248531Y64036D01*
X248653Y64961D01*
X248531Y65886D01*
X248174Y66748D01*
X248089Y66858D01*
D02*
G37*
G36*
X242068Y66858D02*
X241984Y66748D01*
X241627Y65886D01*
X241505Y64961D01*
X241627Y64036D01*
X241984Y63174D01*
X242068Y63064D01*
X243965Y64961D01*
X242068Y66858D01*
D02*
G37*
G36*
X245079Y63847D02*
X243182Y61950D01*
X243292Y61866D01*
X244154Y61509D01*
X245079Y61387D01*
X246004Y61509D01*
X246866Y61866D01*
X246976Y61950D01*
X245079Y63847D01*
D02*
G37*
G36*
X249803Y50000D02*
X240354D01*
Y40551D01*
X249803D01*
Y50000D01*
D02*
G37*
G36*
X315197Y34839D02*
X314118Y34697D01*
X313112Y34280D01*
X312249Y33618D01*
X311586Y32754D01*
X311169Y31749D01*
X311027Y30669D01*
X311169Y29590D01*
X311586Y28585D01*
X312249Y27721D01*
X313112Y27058D01*
X314118Y26642D01*
X315197Y26500D01*
X316276Y26642D01*
X317282Y27058D01*
X318145Y27721D01*
X318808Y28585D01*
X319224Y29590D01*
X319366Y30669D01*
X319224Y31749D01*
X318808Y32754D01*
X318145Y33618D01*
X317282Y34280D01*
X316276Y34697D01*
X315197Y34839D01*
D02*
G37*
G36*
X285197D02*
X284118Y34697D01*
X283112Y34280D01*
X282249Y33618D01*
X281586Y32754D01*
X281169Y31749D01*
X281027Y30669D01*
X281169Y29590D01*
X281586Y28585D01*
X282249Y27721D01*
X283112Y27058D01*
X284118Y26642D01*
X285197Y26500D01*
X286276Y26642D01*
X287282Y27058D01*
X288145Y27721D01*
X288808Y28585D01*
X289224Y29590D01*
X289366Y30669D01*
X289224Y31749D01*
X288808Y32754D01*
X288145Y33618D01*
X287282Y34280D01*
X286276Y34697D01*
X285197Y34839D01*
D02*
G37*
G36*
X315197Y24839D02*
X314118Y24697D01*
X313112Y24280D01*
X312249Y23618D01*
X311586Y22754D01*
X311169Y21748D01*
X311027Y20669D01*
X311169Y19590D01*
X311586Y18585D01*
X312249Y17721D01*
X313112Y17058D01*
X314118Y16642D01*
X315197Y16500D01*
X316276Y16642D01*
X317282Y17058D01*
X318145Y17721D01*
X318808Y18585D01*
X319224Y19590D01*
X319366Y20669D01*
X319224Y21748D01*
X318808Y22754D01*
X318145Y23618D01*
X317282Y24280D01*
X316276Y24697D01*
X315197Y24839D01*
D02*
G37*
G36*
X285197D02*
X284118Y24697D01*
X283112Y24280D01*
X282249Y23618D01*
X281586Y22754D01*
X281169Y21748D01*
X281027Y20669D01*
X281169Y19590D01*
X281586Y18585D01*
X282249Y17721D01*
X283112Y17058D01*
X284118Y16642D01*
X285197Y16500D01*
X286276Y16642D01*
X287282Y17058D01*
X288145Y17721D01*
X288808Y18585D01*
X289224Y19590D01*
X289366Y20669D01*
X289224Y21748D01*
X288808Y22754D01*
X288145Y23618D01*
X287282Y24280D01*
X286276Y24697D01*
X285197Y24839D01*
D02*
G37*
G36*
X243110Y35664D02*
X241721Y35527D01*
X240385Y35122D01*
X239154Y34464D01*
X238075Y33579D01*
X237189Y32500D01*
X236531Y31268D01*
X236126Y29932D01*
X235989Y28543D01*
Y20669D01*
X236126Y19280D01*
X236531Y17944D01*
X237189Y16713D01*
X238075Y15634D01*
X239154Y14749D01*
X240385Y14090D01*
X241721Y13685D01*
X243110Y13548D01*
X244499Y13685D01*
X245835Y14090D01*
X247066Y14749D01*
X248146Y15634D01*
X249031Y16713D01*
X249689Y17944D01*
X250094Y19280D01*
X250231Y20669D01*
Y28543D01*
X250094Y29932D01*
X249689Y31268D01*
X249031Y32500D01*
X248146Y33579D01*
X247066Y34464D01*
X245835Y35122D01*
X244499Y35527D01*
X243110Y35664D01*
D02*
G37*
G36*
X260630Y15895D02*
X259670Y15704D01*
X258856Y15160D01*
X258312Y14346D01*
X258121Y13386D01*
X258312Y12426D01*
X258856Y11612D01*
X259670Y11068D01*
X260630Y10877D01*
X261590Y11068D01*
X262404Y11612D01*
X262948Y12426D01*
X263139Y13386D01*
X262948Y14346D01*
X262404Y15160D01*
X261590Y15704D01*
X260630Y15895D01*
D02*
G37*
G36*
X315197Y14839D02*
X314118Y14697D01*
X313112Y14280D01*
X312249Y13618D01*
X311586Y12754D01*
X311169Y11748D01*
X311027Y10669D01*
X311169Y9590D01*
X311586Y8585D01*
X312249Y7721D01*
X313112Y7058D01*
X314118Y6642D01*
X315197Y6500D01*
X316276Y6642D01*
X317282Y7058D01*
X318145Y7721D01*
X318808Y8585D01*
X319224Y9590D01*
X319366Y10669D01*
X319224Y11748D01*
X318808Y12754D01*
X318145Y13618D01*
X317282Y14280D01*
X316276Y14697D01*
X315197Y14839D01*
D02*
G37*
G36*
X285197D02*
X284118Y14697D01*
X283112Y14280D01*
X282249Y13618D01*
X281586Y12754D01*
X281169Y11748D01*
X281027Y10669D01*
X281169Y9590D01*
X281586Y8585D01*
X282249Y7721D01*
X283112Y7058D01*
X284118Y6642D01*
X285197Y6500D01*
X286276Y6642D01*
X287282Y7058D01*
X288145Y7721D01*
X288808Y8585D01*
X289224Y9590D01*
X289366Y10669D01*
X289224Y11748D01*
X288808Y12754D01*
X288145Y13618D01*
X287282Y14280D01*
X286276Y14697D01*
X285197Y14839D01*
D02*
G37*
G36*
X279361Y184972D02*
X278864Y184906D01*
X279918Y180972D01*
X283852Y182026D01*
X283660Y182490D01*
X282871Y183518D01*
X281843Y184307D01*
X280646Y184803D01*
X279361Y184972D01*
D02*
G37*
G36*
X277343Y184499D02*
X276879Y184307D01*
X275851Y183518D01*
X275062Y182490D01*
X274567Y181293D01*
X274397Y180008D01*
X274463Y179511D01*
X278397Y180565D01*
X277343Y184499D01*
D02*
G37*
G36*
X245079Y187836D02*
X243845Y187674D01*
X242696Y187198D01*
X241709Y186440D01*
X240952Y185453D01*
X240476Y184304D01*
X240314Y183071D01*
X240476Y181838D01*
X240952Y180688D01*
X241709Y179701D01*
X242696Y178944D01*
X243845Y178468D01*
X245079Y178306D01*
X246312Y178468D01*
X247461Y178944D01*
X248448Y179701D01*
X249205Y180688D01*
X249682Y181838D01*
X249844Y183071D01*
X249682Y184304D01*
X249205Y185453D01*
X248448Y186440D01*
X247461Y187198D01*
X246312Y187674D01*
X245079Y187836D01*
D02*
G37*
G36*
X284260Y180505D02*
X280326Y179451D01*
X281380Y175517D01*
X281843Y175709D01*
X282871Y176498D01*
X283660Y177526D01*
X284156Y178723D01*
X284325Y180008D01*
X284260Y180505D01*
D02*
G37*
G36*
X278804Y179044D02*
X274871Y177989D01*
X275063Y177526D01*
X275851Y176498D01*
X276879Y175709D01*
X278077Y175213D01*
X279361Y175044D01*
X279859Y175110D01*
X278804Y179044D01*
D02*
G37*
G36*
X247509Y166929D02*
X242649D01*
X245079Y164499D01*
X247509Y166929D01*
D02*
G37*
G36*
X245079Y163386D02*
D01*
D01*
D01*
D02*
G37*
G36*
X248622Y165816D02*
X246192Y163386D01*
X248622Y160956D01*
Y165816D01*
D02*
G37*
G36*
X241535Y165816D02*
Y160956D01*
X243965Y163386D01*
X241535Y165816D01*
D02*
G37*
G36*
X245079Y162272D02*
X242649Y159843D01*
X247509D01*
X245079Y162272D01*
D02*
G37*
G36*
X279528Y168151D02*
X278294Y167989D01*
X277145Y167513D01*
X276158Y166755D01*
X275401Y165768D01*
X274925Y164619D01*
X274762Y163386D01*
X274925Y162153D01*
X275401Y161003D01*
X276158Y160016D01*
X277145Y159259D01*
X278294Y158783D01*
X279528Y158621D01*
X280761Y158783D01*
X281910Y159259D01*
X282897Y160016D01*
X283654Y161003D01*
X284130Y162153D01*
X284293Y163386D01*
X284130Y164619D01*
X283654Y165768D01*
X282897Y166755D01*
X281910Y167513D01*
X280761Y167989D01*
X279528Y168151D01*
D02*
G37*
G36*
X281957Y147244D02*
X277098D01*
X279528Y144814D01*
X281957Y147244D01*
D02*
G37*
G36*
X275984Y146131D02*
Y141271D01*
X278414Y143701D01*
X275984Y146131D01*
D02*
G37*
G36*
X283071Y146131D02*
X280641Y143701D01*
X283071Y141271D01*
Y146131D01*
D02*
G37*
G36*
X279528Y142587D02*
X277098Y140157D01*
X281957D01*
X279528Y142587D01*
D02*
G37*
G36*
X245079Y148466D02*
X243845Y148304D01*
X242696Y147827D01*
X241709Y147070D01*
X240952Y146083D01*
X240476Y144934D01*
X240314Y143701D01*
X240476Y142467D01*
X240952Y141318D01*
X241709Y140331D01*
X242696Y139574D01*
X243845Y139098D01*
X245079Y138936D01*
X246312Y139098D01*
X247461Y139574D01*
X248448Y140331D01*
X249205Y141318D01*
X249682Y142467D01*
X249844Y143701D01*
X249682Y144934D01*
X249205Y146083D01*
X248448Y147070D01*
X247461Y147827D01*
X246312Y148304D01*
X245079Y148466D01*
D02*
G37*
G36*
X247509Y127559D02*
X242649D01*
X245079Y125129D01*
X247509Y127559D01*
D02*
G37*
G36*
X248622Y126445D02*
X246192Y124016D01*
X248622Y121586D01*
Y126445D01*
D02*
G37*
G36*
X241535Y126445D02*
Y121586D01*
X243965Y124016D01*
X241535Y126445D01*
D02*
G37*
G36*
X245079Y122902D02*
X242649Y120473D01*
X247509D01*
X245079Y122902D01*
D02*
G37*
G36*
X279528Y128781D02*
X278294Y128619D01*
X277145Y128142D01*
X276158Y127385D01*
X275401Y126398D01*
X274925Y125249D01*
X274762Y124016D01*
X274925Y122782D01*
X275401Y121633D01*
X276158Y120646D01*
X277145Y119889D01*
X278294Y119413D01*
X279528Y119251D01*
X280761Y119413D01*
X281910Y119889D01*
X282897Y120646D01*
X283654Y121633D01*
X284130Y122782D01*
X284293Y124016D01*
X284130Y125249D01*
X283654Y126398D01*
X282897Y127385D01*
X281910Y128142D01*
X280761Y128619D01*
X279528Y128781D01*
D02*
G37*
G36*
X281957Y107874D02*
X277098D01*
X279528Y105444D01*
X281957Y107874D01*
D02*
G37*
G36*
X283071Y106760D02*
X280641Y104331D01*
X283071Y101901D01*
Y106760D01*
D02*
G37*
G36*
X275984Y106760D02*
Y101901D01*
X278414Y104331D01*
X275984Y106760D01*
D02*
G37*
G36*
X279528Y103217D02*
X277098Y100787D01*
X281957D01*
X279528Y103217D01*
D02*
G37*
G36*
X245079Y109096D02*
X243845Y108933D01*
X242696Y108458D01*
X241709Y107700D01*
X240952Y106713D01*
X240476Y105564D01*
X240314Y104331D01*
X240476Y103097D01*
X240952Y101948D01*
X241709Y100961D01*
X242696Y100204D01*
X243845Y99728D01*
X245079Y99566D01*
X246312Y99728D01*
X247461Y100204D01*
X248448Y100961D01*
X249205Y101948D01*
X249682Y103097D01*
X249844Y104331D01*
X249682Y105564D01*
X249205Y106713D01*
X248448Y107700D01*
X247461Y108458D01*
X246312Y108933D01*
X245079Y109096D01*
D02*
G37*
G36*
X247509Y88189D02*
X242649D01*
X245079Y85759D01*
X247509Y88189D01*
D02*
G37*
G36*
X248622Y87075D02*
X246192Y84646D01*
X248622Y82216D01*
Y87075D01*
D02*
G37*
G36*
X241535Y87076D02*
Y82216D01*
X243965Y84646D01*
X241535Y87076D01*
D02*
G37*
G36*
X245079Y83532D02*
X242649Y81102D01*
X247509D01*
X245079Y83532D01*
D02*
G37*
G36*
X279528Y89411D02*
X278294Y89249D01*
X277145Y88772D01*
X276158Y88015D01*
X275401Y87028D01*
X274925Y85879D01*
X274762Y84646D01*
X274925Y83412D01*
X275401Y82263D01*
X276158Y81276D01*
X277145Y80519D01*
X278294Y80043D01*
X279528Y79880D01*
X280761Y80043D01*
X281910Y80519D01*
X282897Y81276D01*
X283654Y82263D01*
X284130Y83412D01*
X284293Y84646D01*
X284130Y85879D01*
X283654Y87028D01*
X282897Y88015D01*
X281910Y88772D01*
X280761Y89249D01*
X279528Y89411D01*
D02*
G37*
G36*
X281957Y68504D02*
X277098D01*
X279528Y66074D01*
X281957Y68504D01*
D02*
G37*
G36*
X283071Y67390D02*
X280641Y64961D01*
X283071Y62531D01*
Y67390D01*
D02*
G37*
G36*
X275984Y67390D02*
Y62531D01*
X278414Y64961D01*
X275984Y67390D01*
D02*
G37*
G36*
X279528Y63847D02*
X277098Y61417D01*
X281957D01*
X279528Y63847D01*
D02*
G37*
%LPD*%
D44*
X91536Y231299D02*
X114764D01*
X123031Y239567D02*
Y242126D01*
X114764Y231299D02*
X123031Y239567D01*
X163779Y149606D02*
X183858D01*
X186221Y144882D02*
Y147244D01*
X183858Y149606D02*
X186221Y147244D01*
X159449Y153937D02*
X163779Y149606D01*
X103347Y240158D02*
Y253937D01*
X98425Y258858D02*
X103347Y253937D01*
D45*
X107087Y76378D02*
X112106D01*
X87008Y258682D02*
Y262205D01*
X89567Y264764D02*
X135197D01*
X87008Y262205D02*
X89567Y264764D01*
X87598Y268701D02*
X139134D01*
X83465Y264567D02*
X87598Y268701D01*
X83465Y260150D02*
Y264567D01*
X86131Y272244D02*
X140601D01*
X79921Y261617D02*
Y266035D01*
X86131Y272244D01*
X65945Y242126D02*
Y251732D01*
X60039Y236221D02*
X65945Y242126D01*
X67559Y253346D02*
X76661D01*
X65945Y251732D02*
X67559Y253346D01*
X68507Y256890D02*
X75194D01*
X53150Y255275D02*
X54764Y256890D01*
X68507D01*
X68507Y256890D01*
X53150Y235236D02*
Y255275D01*
X75194Y256890D02*
X79921Y261617D01*
X77008Y245315D02*
Y248682D01*
X76661Y253346D02*
X83465Y260150D01*
X77008Y248682D02*
X87008Y258682D01*
X146654Y258858D02*
Y266192D01*
Y258858D02*
X152010Y253502D01*
Y243742D02*
Y253502D01*
X140601Y272244D02*
X146654Y266192D01*
X153627Y242126D02*
X164370D01*
X152010Y243742D02*
X153627Y242126D01*
X57323Y231063D02*
X78504D01*
X53150Y235236D02*
X57323Y231063D01*
X78504D02*
X83661Y236221D01*
X164370Y242126D02*
X170276Y236221D01*
X140748Y240158D02*
Y267086D01*
X139134Y268701D02*
X140748Y267086D01*
X136811Y237205D02*
Y263149D01*
X135197Y264764D02*
X136811Y263149D01*
X146036Y236838D02*
X146654Y236221D01*
X144067Y236838D02*
X146036D01*
X140748Y240158D02*
X144067Y236838D01*
X152805Y230561D02*
X158465Y236221D01*
X143455Y230561D02*
X152805D01*
X136811Y237205D02*
X143455Y230561D01*
X71850Y236221D02*
X72165Y236535D01*
Y240472D02*
X77008Y245315D01*
X72165Y236535D02*
Y240472D01*
D46*
X204724Y102362D02*
Y110039D01*
Y102362D02*
X204724Y102362D01*
X196850D02*
X196850Y109843D01*
X212598Y102362D02*
X212598Y109843D01*
X130709Y163386D02*
X152362D01*
X126772Y167323D02*
X130709Y163386D01*
X152362D02*
X156693Y159055D01*
X183858D01*
X164173Y135827D02*
X169685D01*
X163386Y135039D02*
X164173Y135827D01*
X163386Y63589D02*
Y135039D01*
X169685Y135827D02*
X178740Y144882D01*
X186221D01*
X164770Y62205D02*
X168504D01*
X163386Y63589D02*
X164770Y62205D01*
D48*
X338071Y92795D02*
D03*
X308071D02*
D03*
Y152795D02*
D03*
X338071D02*
D03*
D50*
X279361Y180008D02*
D03*
D52*
X170276Y236221D02*
D03*
X158465D02*
D03*
X146654D02*
D03*
X83661Y236221D02*
D03*
X71850D02*
D03*
X60039D02*
D03*
D55*
X186614Y144882D02*
D03*
X196850Y104921D02*
D03*
Y110039D02*
D03*
X212598D02*
D03*
Y104921D02*
D03*
X204724Y110039D02*
D03*
Y107480D02*
D03*
Y104921D02*
D03*
X88582Y184252D02*
D03*
X112106Y82284D02*
D03*
X64961Y118898D02*
D03*
X83465Y56693D02*
D03*
X118110Y41339D02*
D03*
X100108Y56800D02*
D03*
X212598Y107480D02*
D03*
X196850D02*
D03*
Y102362D02*
D03*
X101181Y134252D02*
D03*
X147638Y112992D02*
D03*
X92520Y38583D02*
D03*
X15748Y213386D02*
D03*
X176969Y211417D02*
D03*
X162598Y135827D02*
D03*
X168504Y62205D02*
D03*
X127165Y63386D02*
D03*
X112106Y76378D02*
D03*
X116535Y117717D02*
D03*
X132677Y148425D02*
D03*
X120866Y134646D02*
D03*
X72835Y70866D02*
D03*
X159449Y153937D02*
D03*
X183858Y159055D02*
D03*
X126772Y167323D02*
D03*
X146063Y207087D02*
D03*
X84646Y213779D02*
D03*
Y197638D02*
D03*
X54331Y167323D02*
D03*
Y97638D02*
D03*
X72835Y37992D02*
D03*
X91536Y231299D02*
D03*
X123031Y242126D02*
D03*
X103347Y240158D02*
D03*
X98425Y258858D02*
D03*
X212598Y102362D02*
D03*
X204724D02*
D03*
D57*
X316929Y252953D02*
D03*
X228346D02*
D03*
D62*
X245079Y163386D02*
D03*
X279528Y104331D02*
D03*
Y64961D02*
D03*
X245079Y124016D02*
D03*
X279528Y143701D02*
D03*
X245079Y84646D02*
D03*
D63*
Y64961D02*
D03*
D66*
X176969Y212598D02*
Y213779D01*
X176969Y211417D02*
Y212598D01*
Y213779D02*
X182314D01*
X152756D02*
X176772D01*
X217323Y235433D02*
X228346Y246457D01*
Y252953D01*
X210039Y235394D02*
X210078Y235433D01*
X217323D01*
X188583Y227953D02*
X196024Y235394D01*
X210039D01*
X188583Y220048D02*
Y227953D01*
X182314Y213779D02*
X188583Y220048D01*
X150394Y211417D02*
X150394D01*
X152756Y213779D01*
X146063Y207087D02*
X150394Y211417D01*
M02*
