G04*
G04 #@! TF.GenerationSoftware,Altium Limited,Altium Designer,20.2.4 (192)*
G04*
G04 Layer_Physical_Order=3*
G04 Layer_Color=16440176*
%FSLAX25Y25*%
%MOIN*%
G70*
G04*
G04 #@! TF.SameCoordinates,632904D4-FBC6-4040-AE52-8F74E4E9F4E0*
G04*
G04*
G04 #@! TF.FilePolarity,Positive*
G04*
G01*
G75*
%ADD46C,0.02362*%
%ADD49C,0.31496*%
%ADD51C,0.05906*%
%ADD52C,0.05984*%
%ADD55C,0.02559*%
%ADD56C,0.05118*%
%ADD59O,0.11811X0.15748*%
%ADD60C,0.04724*%
%ADD63C,0.05512*%
G36*
X329457Y274131D02*
X328659Y273238D01*
X326855Y270696D01*
X325347Y267967D01*
X324154Y265087D01*
X323291Y262091D01*
X322769Y259018D01*
X322638Y256695D01*
X322409Y256579D01*
X322129Y256546D01*
X321405Y257429D01*
X320446Y258216D01*
X319351Y258801D01*
X318164Y259161D01*
X316929Y259282D01*
X315694Y259161D01*
X314507Y258801D01*
X313413Y258216D01*
X312453Y257429D01*
X311666Y256469D01*
X311081Y255375D01*
X310721Y254188D01*
X310599Y252953D01*
X310721Y251718D01*
X311081Y250531D01*
X311666Y249436D01*
X312453Y248477D01*
X313413Y247690D01*
X314507Y247105D01*
X315694Y246745D01*
X316929Y246623D01*
X318164Y246745D01*
X319351Y247105D01*
X320446Y247690D01*
X321405Y248477D01*
X322192Y249436D01*
X322678Y250345D01*
X323199Y250260D01*
X323291Y249720D01*
X324154Y246724D01*
X325347Y243844D01*
X326855Y241115D01*
X328659Y238573D01*
X330736Y236248D01*
X333061Y234171D01*
X335603Y232367D01*
X338332Y230859D01*
X341212Y229666D01*
X344208Y228803D01*
X345550Y228575D01*
X345565Y228386D01*
X345522Y228072D01*
X343644Y227146D01*
X341841Y225942D01*
X340805Y225033D01*
X351929Y213909D01*
X363053Y225033D01*
X362017Y225942D01*
X360215Y227146D01*
X358271Y228105D01*
X357211Y228464D01*
X357223Y228988D01*
X359575Y229666D01*
X362456Y230859D01*
X365184Y232367D01*
X367726Y234171D01*
X368619Y234968D01*
X369075Y234764D01*
Y40826D01*
X368619Y40622D01*
X367726Y41420D01*
X365184Y43224D01*
X362456Y44732D01*
X359575Y45925D01*
X357223Y46602D01*
X357211Y47126D01*
X358271Y47486D01*
X360215Y48445D01*
X362017Y49649D01*
X363053Y50558D01*
X351929Y61682D01*
X340805Y50558D01*
X341841Y49649D01*
X343644Y48445D01*
X345522Y47518D01*
X345565Y47205D01*
X345550Y47016D01*
X344208Y46788D01*
X341212Y45925D01*
X338332Y44732D01*
X335603Y43224D01*
X333061Y41420D01*
X330736Y39342D01*
X328659Y37018D01*
X326855Y34475D01*
X325347Y31747D01*
X324154Y28867D01*
X323291Y25871D01*
X322769Y22798D01*
X322594Y19685D01*
X322769Y16572D01*
X323291Y13499D01*
X324154Y10503D01*
X325347Y7623D01*
X326855Y4895D01*
X328659Y2352D01*
X329457Y1460D01*
X329252Y1003D01*
X40826D01*
X40622Y1460D01*
X41420Y2352D01*
X43224Y4895D01*
X44732Y7623D01*
X45925Y10503D01*
X46788Y13499D01*
X47310Y16572D01*
X47485Y19685D01*
X47310Y22798D01*
X46788Y25871D01*
X45925Y28867D01*
X44732Y31747D01*
X43224Y34475D01*
X41420Y37018D01*
X39342Y39342D01*
X37018Y41420D01*
X34475Y43224D01*
X31747Y44732D01*
X28867Y45925D01*
X25871Y46788D01*
X22798Y47310D01*
X19685Y47485D01*
X19003Y47446D01*
X18821Y47912D01*
X18929Y48000D01*
X19765Y49020D01*
X20387Y50182D01*
X20493Y50531D01*
X20526Y50540D01*
X21011Y50519D01*
X21314Y49788D01*
X21882Y49048D01*
X22623Y48480D01*
X23484Y48123D01*
X24409Y48001D01*
X25335Y48123D01*
X26196Y48480D01*
X26937Y49048D01*
X27244Y49448D01*
X27874D01*
X28182Y49048D01*
X28922Y48480D01*
X29784Y48123D01*
X30709Y48001D01*
X31634Y48123D01*
X32496Y48480D01*
X33236Y49048D01*
X33804Y49788D01*
X33821Y49829D01*
X34157Y49837D01*
X35894Y51575D01*
X34157Y53313D01*
X33821Y53321D01*
X33804Y53362D01*
X33236Y54102D01*
X32496Y54670D01*
X31634Y55027D01*
X30709Y55149D01*
X29784Y55027D01*
X28922Y54670D01*
X28182Y54102D01*
X27874Y53701D01*
X27244D01*
X26937Y54102D01*
X26196Y54670D01*
X25335Y55027D01*
X24409Y55149D01*
X23484Y55027D01*
X22623Y54670D01*
X21882Y54102D01*
X21399Y53471D01*
X20913Y53591D01*
X20899Y53599D01*
Y56693D01*
X20769Y58005D01*
X20387Y59267D01*
X19765Y60429D01*
X19431Y60837D01*
X14730Y56136D01*
X14173Y56693D01*
X13616Y56136D01*
X8916Y60837D01*
X8581Y60429D01*
X7960Y59267D01*
X7577Y58005D01*
X7448Y56693D01*
Y52756D01*
X7577Y51444D01*
X7960Y50182D01*
X8581Y49020D01*
X8916Y48612D01*
X13616Y53313D01*
X14730Y52199D01*
X10029Y47499D01*
X10437Y47164D01*
X11334Y46684D01*
X11278Y46148D01*
X10503Y45925D01*
X7623Y44732D01*
X4895Y43224D01*
X2352Y41420D01*
X1460Y40622D01*
X1003Y40826D01*
Y234764D01*
X1460Y234968D01*
X2352Y234171D01*
X4895Y232367D01*
X7623Y230859D01*
X10503Y229666D01*
X13499Y228803D01*
X16572Y228281D01*
X17485Y228229D01*
Y215715D01*
X17044Y215479D01*
X16708Y215704D01*
X15748Y215895D01*
X14788Y215704D01*
X13974Y215160D01*
X13430Y214346D01*
X13239Y213386D01*
X13430Y212426D01*
X13974Y211612D01*
X14788Y211068D01*
X15748Y210877D01*
X16708Y211068D01*
X17044Y211293D01*
X17485Y211057D01*
Y186024D01*
X17622Y184634D01*
X18027Y183299D01*
X18686Y182068D01*
X19571Y180988D01*
X20650Y180103D01*
X21881Y179445D01*
X23217Y179040D01*
X24606Y178903D01*
X68504D01*
X69893Y179040D01*
X71229Y179445D01*
X72460Y180103D01*
X73539Y180988D01*
X74425Y182068D01*
X75083Y183299D01*
X75488Y184634D01*
X75625Y186024D01*
Y215320D01*
X82185D01*
X82421Y214879D01*
X82328Y214740D01*
X82137Y213779D01*
X82328Y212819D01*
X82872Y212005D01*
X83686Y211462D01*
X84646Y211271D01*
X85606Y211462D01*
X86420Y212005D01*
X86964Y212819D01*
X87155Y213779D01*
X86964Y214740D01*
X86870Y214879D01*
X87106Y215320D01*
X180118D01*
X181507Y215457D01*
X182843Y215862D01*
X184074Y216520D01*
X185153Y217406D01*
X186039Y218485D01*
X186697Y219716D01*
X187102Y221052D01*
X187239Y222441D01*
Y256893D01*
X192043Y261697D01*
X192929Y262776D01*
X193587Y264007D01*
X193992Y265343D01*
X194129Y266732D01*
Y268667D01*
X194629Y268837D01*
X195088Y268238D01*
X195870Y267638D01*
X196780Y267262D01*
X197756Y267133D01*
X198732Y267262D01*
X199642Y267638D01*
X200423Y268238D01*
X201023Y269019D01*
X201400Y269929D01*
X201528Y270905D01*
X201400Y271882D01*
X201023Y272792D01*
X200423Y273573D01*
X199753Y274087D01*
X199879Y274584D01*
X199881Y274587D01*
X205631D01*
X205633Y274584D01*
X205758Y274087D01*
X205088Y273573D01*
X204489Y272792D01*
X204112Y271882D01*
X203983Y270905D01*
X204112Y269929D01*
X204489Y269019D01*
X205088Y268238D01*
X205870Y267638D01*
X206780Y267262D01*
X207756Y267133D01*
X208732Y267262D01*
X209642Y267638D01*
X210423Y268238D01*
X211023Y269019D01*
X211400Y269929D01*
X211528Y270905D01*
X211400Y271882D01*
X211023Y272792D01*
X210423Y273573D01*
X209753Y274087D01*
X209879Y274584D01*
X209881Y274587D01*
X329252Y274587D01*
X329457Y274131D01*
D02*
G37*
G36*
X180072Y274185D02*
X180024Y274027D01*
X179887Y272638D01*
Y269682D01*
X175083Y264878D01*
X174197Y263799D01*
X173539Y262568D01*
X173134Y261232D01*
X172997Y259842D01*
Y251769D01*
X172549Y251547D01*
X172380Y251677D01*
X171365Y252097D01*
X170276Y252241D01*
X169186Y252097D01*
X168171Y251677D01*
X167299Y251008D01*
X166630Y250136D01*
X166210Y249121D01*
X166066Y248031D01*
X166210Y246942D01*
X166630Y245927D01*
X167299Y245055D01*
X168171Y244386D01*
X169186Y243966D01*
X170276Y243822D01*
X171365Y243966D01*
X172380Y244386D01*
X172549Y244515D01*
X172997Y244294D01*
Y239958D01*
X172549Y239737D01*
X172380Y239866D01*
X171365Y240286D01*
X170276Y240430D01*
X169186Y240286D01*
X168171Y239866D01*
X167299Y239197D01*
X166630Y238325D01*
X166210Y237310D01*
X166066Y236221D01*
X166210Y235131D01*
X166630Y234116D01*
X167299Y233244D01*
X168171Y232575D01*
X169186Y232155D01*
X170276Y232011D01*
X171365Y232155D01*
X172380Y232575D01*
X172549Y232705D01*
X172997Y232483D01*
Y229562D01*
X93864D01*
X93629Y230003D01*
X93853Y230339D01*
X94044Y231299D01*
X93853Y232259D01*
X93309Y233073D01*
X92496Y233617D01*
X91536Y233808D01*
X90575Y233617D01*
X89761Y233073D01*
X89218Y232259D01*
X89027Y231299D01*
X89218Y230339D01*
X89442Y230003D01*
X89207Y229562D01*
X68504D01*
X67115Y229425D01*
X65779Y229020D01*
X64548Y228362D01*
X63469Y227476D01*
X62583Y226397D01*
X61925Y225166D01*
X61520Y223830D01*
X61383Y222441D01*
Y193145D01*
X55488D01*
X55336Y193644D01*
X55711Y193895D01*
X56255Y194709D01*
X56446Y195669D01*
X56255Y196629D01*
X55711Y197443D01*
X54897Y197987D01*
X53937Y198178D01*
X52977Y197987D01*
X52163Y197443D01*
X51619Y196629D01*
X51428Y195669D01*
X51619Y194709D01*
X52163Y193895D01*
X52538Y193644D01*
X52387Y193145D01*
X31727D01*
Y230851D01*
X31747Y230859D01*
X34475Y232367D01*
X37018Y234171D01*
X39342Y236248D01*
X41420Y238573D01*
X43224Y241115D01*
X44732Y243844D01*
X45925Y246724D01*
X46788Y249720D01*
X47310Y252793D01*
X47485Y255906D01*
X47310Y259018D01*
X46788Y262091D01*
X45925Y265087D01*
X44732Y267967D01*
X43224Y270696D01*
X41420Y273238D01*
X40622Y274131D01*
X40826Y274587D01*
X179774Y274587D01*
X180072Y274185D01*
D02*
G37*
%LPC*%
G36*
X228346Y260074D02*
X226957Y259937D01*
X225621Y259532D01*
X224390Y258874D01*
X223311Y257988D01*
X222426Y256909D01*
X221768Y255678D01*
X221362Y254342D01*
X221226Y252953D01*
X221362Y251564D01*
X221768Y250228D01*
X222426Y248997D01*
X223311Y247918D01*
X224390Y247032D01*
X225621Y246374D01*
X226957Y245969D01*
X228346Y245832D01*
X229736Y245969D01*
X231071Y246374D01*
X232303Y247032D01*
X233382Y247918D01*
X234267Y248997D01*
X234925Y250228D01*
X235331Y251564D01*
X235467Y252953D01*
X235331Y254342D01*
X234925Y255678D01*
X234267Y256909D01*
X233382Y257988D01*
X232303Y258874D01*
X231071Y259532D01*
X229736Y259937D01*
X228346Y260074D01*
D02*
G37*
G36*
X207756Y244281D02*
X206882Y244166D01*
X206068Y243829D01*
X205999Y243776D01*
X207756Y242019D01*
X209513Y243776D01*
X209444Y243829D01*
X208629Y244166D01*
X207756Y244281D01*
D02*
G37*
G36*
X210626Y242662D02*
X208870Y240905D01*
X210626Y239149D01*
X210679Y239218D01*
X211016Y240032D01*
X211131Y240905D01*
X211016Y241779D01*
X210679Y242593D01*
X210626Y242662D01*
D02*
G37*
G36*
X204886D02*
X204833Y242593D01*
X204496Y241779D01*
X204381Y240905D01*
X204496Y240032D01*
X204833Y239218D01*
X204886Y239149D01*
X206642Y240905D01*
X204886Y242662D01*
D02*
G37*
G36*
X207756Y239792D02*
X205999Y238035D01*
X206068Y237982D01*
X206882Y237645D01*
X207756Y237530D01*
X208629Y237645D01*
X209444Y237982D01*
X209513Y238035D01*
X207756Y239792D01*
D02*
G37*
G36*
X197756Y244678D02*
X196780Y244549D01*
X195870Y244173D01*
X195088Y243573D01*
X194489Y242792D01*
X194112Y241882D01*
X193983Y240905D01*
X194112Y239929D01*
X194489Y239019D01*
X195088Y238238D01*
X195870Y237638D01*
X196780Y237262D01*
X197756Y237133D01*
X198732Y237262D01*
X199642Y237638D01*
X200423Y238238D01*
X201023Y239019D01*
X201400Y239929D01*
X201528Y240905D01*
X201400Y241882D01*
X201023Y242792D01*
X200423Y243573D01*
X199642Y244173D01*
X198732Y244549D01*
X197756Y244678D01*
D02*
G37*
G36*
X249765Y231623D02*
X248579Y231427D01*
X247454Y231003D01*
X246433Y230369D01*
X245556Y229547D01*
X244856Y228570D01*
X244360Y227475D01*
X244087Y226304D01*
X244048Y225103D01*
X244243Y223917D01*
X244667Y222792D01*
X245302Y221771D01*
X246123Y220894D01*
X247100Y220194D01*
X248195Y219697D01*
X249366Y219424D01*
X250567Y219385D01*
X251753Y219581D01*
X252878Y220004D01*
X253899Y220639D01*
X254777Y221461D01*
X255477Y222438D01*
X255973Y223533D01*
X256246Y224704D01*
X256285Y225905D01*
X256089Y227091D01*
X255666Y228216D01*
X255031Y229237D01*
X254209Y230114D01*
X253232Y230814D01*
X252137Y231310D01*
X250967Y231583D01*
X249765Y231623D01*
D02*
G37*
G36*
X280512Y232515D02*
X272638D01*
X271249Y232378D01*
X269913Y231973D01*
X268682Y231314D01*
X267603Y230429D01*
X266717Y229350D01*
X266059Y228119D01*
X265654Y226783D01*
X265517Y225394D01*
X265654Y224005D01*
X266059Y222669D01*
X266717Y221438D01*
X267603Y220358D01*
X268682Y219473D01*
X269913Y218815D01*
X271249Y218410D01*
X272638Y218273D01*
X280512D01*
X281901Y218410D01*
X283237Y218815D01*
X284468Y219473D01*
X285547Y220358D01*
X286433Y221438D01*
X287091Y222669D01*
X287496Y224005D01*
X287633Y225394D01*
X287496Y226783D01*
X287091Y228119D01*
X286433Y229350D01*
X285547Y230429D01*
X284468Y231314D01*
X283237Y231973D01*
X281901Y232378D01*
X280512Y232515D01*
D02*
G37*
G36*
X7874Y225635D02*
X6538Y225459D01*
X5293Y224943D01*
X4224Y224123D01*
X3403Y223054D01*
X2888Y221809D01*
X2712Y220472D01*
X2888Y219136D01*
X3403Y217891D01*
X4224Y216822D01*
X5293Y216002D01*
X6538Y215486D01*
X7874Y215310D01*
X9210Y215486D01*
X10455Y216002D01*
X11524Y216822D01*
X12345Y217891D01*
X12860Y219136D01*
X13036Y220472D01*
X12860Y221809D01*
X12345Y223054D01*
X11524Y224123D01*
X10455Y224943D01*
X9210Y225459D01*
X7874Y225635D01*
D02*
G37*
G36*
X208661Y229769D02*
X206848Y229591D01*
X205104Y229062D01*
X203496Y228202D01*
X202088Y227046D01*
X200932Y225637D01*
X200072Y224030D01*
X199543Y222286D01*
X199365Y220472D01*
X199543Y218659D01*
X200072Y216915D01*
X200932Y215307D01*
X202088Y213899D01*
X203496Y212742D01*
X205104Y211883D01*
X206848Y211354D01*
X208661Y211176D01*
X210475Y211354D01*
X212219Y211883D01*
X213826Y212742D01*
X215235Y213899D01*
X216391Y215307D01*
X217250Y216915D01*
X217779Y218659D01*
X217958Y220472D01*
X217779Y222286D01*
X217250Y224030D01*
X216391Y225637D01*
X215235Y227046D01*
X213826Y228202D01*
X212219Y229062D01*
X210475Y229591D01*
X208661Y229769D01*
D02*
G37*
G36*
X176969Y214693D02*
X176121Y214582D01*
X175330Y214254D01*
X174652Y213734D01*
X174131Y213055D01*
X173804Y212265D01*
X173693Y211417D01*
X173804Y210569D01*
X174131Y209779D01*
X174652Y209101D01*
X175330Y208580D01*
X176121Y208253D01*
X176969Y208141D01*
X177816Y208253D01*
X178606Y208580D01*
X179285Y209101D01*
X179806Y209779D01*
X180133Y210569D01*
X180245Y211417D01*
X180133Y212265D01*
X179806Y213055D01*
X179285Y213734D01*
X178606Y214254D01*
X177816Y214582D01*
X176969Y214693D01*
D02*
G37*
G36*
X146063Y210363D02*
X145215Y210251D01*
X144425Y209924D01*
X143746Y209403D01*
X143226Y208725D01*
X142899Y207934D01*
X142787Y207087D01*
X142899Y206239D01*
X143226Y205449D01*
X143746Y204770D01*
X144425Y204250D01*
X145215Y203922D01*
X146063Y203811D01*
X146911Y203922D01*
X147701Y204250D01*
X148380Y204770D01*
X148900Y205449D01*
X149227Y206239D01*
X149339Y207087D01*
X149227Y207934D01*
X148900Y208725D01*
X148380Y209403D01*
X147701Y209924D01*
X146911Y210251D01*
X146063Y210363D01*
D02*
G37*
G36*
X364167Y223919D02*
X353043Y212795D01*
X364167Y201671D01*
X365076Y202708D01*
X366280Y204510D01*
X367239Y206454D01*
X367935Y208506D01*
X368358Y210632D01*
X368500Y212795D01*
X368358Y214958D01*
X367935Y217084D01*
X367239Y219137D01*
X366280Y221081D01*
X365076Y222883D01*
X364167Y223919D01*
D02*
G37*
G36*
X339691Y223919D02*
X338783Y222883D01*
X337578Y221081D01*
X336620Y219137D01*
X335923Y217084D01*
X335500Y214958D01*
X335358Y212795D01*
X335500Y210632D01*
X335923Y208506D01*
X336620Y206454D01*
X337578Y204510D01*
X338783Y202708D01*
X339691Y201671D01*
X350816Y212795D01*
X339691Y223919D01*
D02*
G37*
G36*
X183071Y201721D02*
X182111Y201531D01*
X181297Y200987D01*
X180753Y200173D01*
X180562Y199213D01*
X180753Y198252D01*
X181297Y197439D01*
X182111Y196895D01*
X183071Y196704D01*
X184031Y196895D01*
X184845Y197439D01*
X185389Y198252D01*
X185580Y199213D01*
X185389Y200173D01*
X184845Y200987D01*
X184031Y201531D01*
X183071Y201721D01*
D02*
G37*
G36*
X351929Y211682D02*
X340805Y200558D01*
X341841Y199649D01*
X343644Y198444D01*
X345588Y197486D01*
X347640Y196789D01*
X349766Y196366D01*
X351929Y196224D01*
X354092Y196366D01*
X356218Y196789D01*
X358271Y197486D01*
X360215Y198444D01*
X362017Y199649D01*
X363053Y200558D01*
X351929Y211682D01*
D02*
G37*
G36*
X84646Y200147D02*
X83686Y199956D01*
X82872Y199412D01*
X82328Y198598D01*
X82137Y197638D01*
X82328Y196678D01*
X82872Y195864D01*
X83686Y195320D01*
X84646Y195129D01*
X85606Y195320D01*
X86420Y195864D01*
X86964Y196678D01*
X87155Y197638D01*
X86964Y198598D01*
X86420Y199412D01*
X85606Y199956D01*
X84646Y200147D01*
D02*
G37*
G36*
X165748Y203296D02*
X164788Y203105D01*
X163974Y202561D01*
X163430Y201747D01*
X163239Y200787D01*
X163358Y200190D01*
X162992Y199753D01*
X162032Y199562D01*
X161218Y199018D01*
X160674Y198204D01*
X160483Y197244D01*
X160674Y196284D01*
X161218Y195470D01*
X162032Y194926D01*
X162992Y194735D01*
X163952Y194926D01*
X164766Y195470D01*
X165310Y196284D01*
X165501Y197244D01*
X165382Y197842D01*
X165748Y198279D01*
X166708Y198469D01*
X167522Y199013D01*
X168066Y199827D01*
X168257Y200787D01*
X168066Y201747D01*
X167522Y202561D01*
X166708Y203105D01*
X165748Y203296D01*
D02*
G37*
G36*
X100000Y189312D02*
X99194Y189152D01*
X98510Y188695D01*
X98332Y188429D01*
X97731D01*
X97553Y188695D01*
X96869Y189152D01*
X96063Y189312D01*
X95257Y189152D01*
X95240Y189141D01*
X96620Y187761D01*
X96063Y187205D01*
X96620Y186648D01*
X95240Y185268D01*
X95257Y185258D01*
X95638Y185182D01*
X96059Y185066D01*
X96001Y184639D01*
X95924Y184252D01*
X96001Y183865D01*
X96059Y183438D01*
X95638Y183322D01*
X95257Y183246D01*
X95240Y183235D01*
X96620Y181856D01*
X96063Y181299D01*
X96620Y180742D01*
X95240Y179363D01*
X95257Y179352D01*
X96063Y179192D01*
X96869Y179352D01*
X97553Y179809D01*
X97731Y180075D01*
X98332D01*
X98510Y179809D01*
X99194Y179352D01*
X100000Y179192D01*
X100806Y179352D01*
X100823Y179363D01*
X99443Y180742D01*
X100000Y181299D01*
X99443Y181856D01*
X100823Y183235D01*
X100806Y183246D01*
X100425Y183322D01*
X100004Y183438D01*
X100062Y183865D01*
X100139Y184252D01*
X100062Y184639D01*
X100004Y185066D01*
X100425Y185182D01*
X100806Y185258D01*
X100823Y185268D01*
X99443Y186648D01*
X100000Y187205D01*
X99443Y187761D01*
X100823Y189141D01*
X100806Y189152D01*
X100000Y189312D01*
D02*
G37*
G36*
X7874Y198076D02*
X6538Y197900D01*
X5293Y197384D01*
X4224Y196564D01*
X3403Y195494D01*
X2888Y194249D01*
X2712Y192913D01*
X2888Y191577D01*
X3403Y190332D01*
X4224Y189263D01*
X5293Y188443D01*
X6538Y187927D01*
X7874Y187751D01*
X9210Y187927D01*
X10455Y188443D01*
X11524Y189263D01*
X12345Y190332D01*
X12860Y191577D01*
X13036Y192913D01*
X12860Y194249D01*
X12345Y195494D01*
X11524Y196564D01*
X10455Y197384D01*
X9210Y197900D01*
X7874Y198076D01*
D02*
G37*
G36*
X107874Y191485D02*
X106914Y191294D01*
X106100Y190750D01*
X105556Y189936D01*
X105365Y188976D01*
X105556Y188016D01*
X106100Y187202D01*
X106914Y186659D01*
X107874Y186468D01*
X108834Y186659D01*
X109648Y187202D01*
X110192Y188016D01*
X110383Y188976D01*
X110192Y189936D01*
X109648Y190750D01*
X108834Y191294D01*
X107874Y191485D01*
D02*
G37*
G36*
X101936Y188027D02*
X101114Y187205D01*
X101936Y186382D01*
X101947Y186398D01*
X102107Y187205D01*
X101947Y188011D01*
X101936Y188027D01*
D02*
G37*
G36*
X94127Y188027D02*
X94116Y188011D01*
X93956Y187205D01*
X94116Y186398D01*
X94127Y186382D01*
X94950Y187205D01*
X94127Y188027D01*
D02*
G37*
G36*
X245079Y186645D02*
X244154Y186523D01*
X243292Y186166D01*
X243182Y186082D01*
X245079Y184185D01*
X246976Y186082D01*
X246866Y186166D01*
X246004Y186523D01*
X245079Y186645D01*
D02*
G37*
G36*
X88582Y186761D02*
X87622Y186570D01*
X86808Y186026D01*
X86264Y185212D01*
X86073Y184252D01*
X86264Y183292D01*
X86808Y182478D01*
X87622Y181934D01*
X88582Y181743D01*
X89542Y181934D01*
X90356Y182478D01*
X90900Y183292D01*
X91091Y184252D01*
X90900Y185212D01*
X90356Y186026D01*
X89542Y186570D01*
X88582Y186761D01*
D02*
G37*
G36*
X248089Y184968D02*
X246192Y183071D01*
X248089Y181174D01*
X248174Y181284D01*
X248531Y182146D01*
X248653Y183071D01*
X248531Y183996D01*
X248174Y184858D01*
X248089Y184968D01*
D02*
G37*
G36*
X242068D02*
X241984Y184858D01*
X241627Y183996D01*
X241505Y183071D01*
X241627Y182146D01*
X241984Y181284D01*
X242068Y181174D01*
X243965Y183071D01*
X242068Y184968D01*
D02*
G37*
G36*
X101936Y182122D02*
X101114Y181299D01*
X101936Y180477D01*
X101947Y180493D01*
X102107Y181299D01*
X101947Y182106D01*
X101936Y182122D01*
D02*
G37*
G36*
X94127Y182122D02*
X94116Y182106D01*
X93956Y181299D01*
X94116Y180493D01*
X94127Y180477D01*
X94950Y181299D01*
X94127Y182122D01*
D02*
G37*
G36*
X245079Y181957D02*
X243182Y180060D01*
X243292Y179976D01*
X244154Y179619D01*
X245079Y179497D01*
X246004Y179619D01*
X246866Y179976D01*
X246976Y180060D01*
X245079Y181957D01*
D02*
G37*
G36*
X144488Y184596D02*
X143528Y184405D01*
X142714Y183861D01*
X142170Y183047D01*
X141979Y182087D01*
X142170Y181126D01*
X142714Y180313D01*
X143528Y179769D01*
X144488Y179578D01*
X145448Y179769D01*
X146262Y180313D01*
X146349Y180442D01*
X146849D01*
X147045Y180148D01*
X147859Y179604D01*
X148819Y179413D01*
X149779Y179604D01*
X150593Y180148D01*
X151137Y180962D01*
X151328Y181922D01*
X151137Y182882D01*
X150593Y183696D01*
X149779Y184240D01*
X148819Y184431D01*
X147859Y184240D01*
X147045Y183696D01*
X146958Y183567D01*
X146458D01*
X146262Y183861D01*
X145448Y184405D01*
X144488Y184596D01*
D02*
G37*
G36*
X338071Y191103D02*
X336450Y190943D01*
X334892Y190471D01*
X333455Y189703D01*
X332196Y188670D01*
X331163Y187411D01*
X330396Y185975D01*
X329923Y184416D01*
X329763Y182795D01*
X329923Y181175D01*
X330396Y179616D01*
X331163Y178180D01*
X332196Y176921D01*
X333455Y175888D01*
X334892Y175120D01*
X336450Y174647D01*
X338071Y174488D01*
X339692Y174647D01*
X341250Y175120D01*
X342686Y175888D01*
X343945Y176921D01*
X344978Y178180D01*
X345746Y179616D01*
X346219Y181175D01*
X346379Y182795D01*
X346219Y184416D01*
X345746Y185975D01*
X344978Y187411D01*
X343945Y188670D01*
X342686Y189703D01*
X341250Y190471D01*
X339692Y190943D01*
X338071Y191103D01*
D02*
G37*
G36*
X308071D02*
X306450Y190943D01*
X304892Y190471D01*
X303455Y189703D01*
X302197Y188670D01*
X301163Y187411D01*
X300396Y185975D01*
X299923Y184416D01*
X299763Y182795D01*
X299923Y181175D01*
X300396Y179616D01*
X301163Y178180D01*
X302197Y176921D01*
X303455Y175888D01*
X304892Y175120D01*
X306450Y174647D01*
X308071Y174488D01*
X309692Y174647D01*
X311250Y175120D01*
X312686Y175888D01*
X313945Y176921D01*
X314979Y178180D01*
X315746Y179616D01*
X316219Y181175D01*
X316379Y182795D01*
X316219Y184416D01*
X315746Y185975D01*
X314979Y187411D01*
X313945Y188670D01*
X312686Y189703D01*
X311250Y190471D01*
X309692Y190943D01*
X308071Y191103D01*
D02*
G37*
G36*
X278960Y186127D02*
X277774Y185931D01*
X276649Y185508D01*
X275628Y184873D01*
X274751Y184051D01*
X274051Y183074D01*
X273555Y181979D01*
X273282Y180808D01*
X273242Y179607D01*
X273438Y178421D01*
X273862Y177296D01*
X274497Y176275D01*
X275318Y175398D01*
X276295Y174698D01*
X277390Y174202D01*
X278561Y173928D01*
X279762Y173889D01*
X280948Y174085D01*
X282073Y174508D01*
X283094Y175143D01*
X283972Y175965D01*
X284672Y176942D01*
X285168Y178037D01*
X285441Y179208D01*
X285480Y180409D01*
X285284Y181595D01*
X284861Y182720D01*
X284226Y183741D01*
X283404Y184618D01*
X282427Y185318D01*
X281332Y185814D01*
X280162Y186087D01*
X278960Y186127D01*
D02*
G37*
G36*
X107480Y178887D02*
X106520Y178696D01*
X105706Y178152D01*
X105163Y177338D01*
X104972Y176378D01*
X105163Y175418D01*
X105706Y174604D01*
X106520Y174060D01*
X107480Y173869D01*
X108440Y174060D01*
X109254Y174604D01*
X109798Y175418D01*
X109989Y176378D01*
X109798Y177338D01*
X109254Y178152D01*
X108440Y178696D01*
X107480Y178887D01*
D02*
G37*
G36*
X126772Y169832D02*
X125812Y169641D01*
X124998Y169097D01*
X124454Y168283D01*
X124263Y167323D01*
X124454Y166363D01*
X124998Y165549D01*
X125812Y165005D01*
X126772Y164814D01*
X127732Y165005D01*
X128546Y165549D01*
X129089Y166363D01*
X129280Y167323D01*
X129089Y168283D01*
X128546Y169097D01*
X127732Y169641D01*
X126772Y169832D01*
D02*
G37*
G36*
X54331D02*
X53371Y169641D01*
X52557Y169097D01*
X52013Y168283D01*
X51822Y167323D01*
X52013Y166363D01*
X52557Y165549D01*
X53371Y165005D01*
X54331Y164814D01*
X55291Y165005D01*
X56105Y165549D01*
X56649Y166363D01*
X56840Y167323D01*
X56649Y168283D01*
X56105Y169097D01*
X55291Y169641D01*
X54331Y169832D01*
D02*
G37*
G36*
X279528Y166960D02*
X278603Y166838D01*
X277741Y166481D01*
X277630Y166396D01*
X279528Y164499D01*
X281425Y166396D01*
X281314Y166481D01*
X280453Y166838D01*
X279528Y166960D01*
D02*
G37*
G36*
X91339Y169044D02*
X90378Y168853D01*
X89565Y168309D01*
X89021Y167496D01*
X88830Y166535D01*
X89021Y165575D01*
X89565Y164761D01*
X90378Y164218D01*
X91339Y164027D01*
X92299Y164218D01*
X93113Y164761D01*
X93656Y165575D01*
X93847Y166535D01*
X93656Y167496D01*
X93113Y168309D01*
X92299Y168853D01*
X91339Y169044D01*
D02*
G37*
G36*
X276517Y165283D02*
X276432Y165173D01*
X276076Y164311D01*
X275954Y163386D01*
X276076Y162461D01*
X276432Y161599D01*
X276517Y161489D01*
X278414Y163386D01*
X276517Y165283D01*
D02*
G37*
G36*
X282538Y165283D02*
X280641Y163386D01*
X282538Y161489D01*
X282623Y161599D01*
X282980Y162461D01*
X283102Y163386D01*
X282980Y164311D01*
X282623Y165173D01*
X282538Y165283D01*
D02*
G37*
G36*
X112598Y166288D02*
X111638Y166097D01*
X110824Y165553D01*
X110281Y164740D01*
X110090Y163779D01*
X110281Y162819D01*
X110824Y162005D01*
X111638Y161462D01*
X112598Y161271D01*
X113558Y161462D01*
X114373Y162005D01*
X114916Y162819D01*
X115107Y163779D01*
X114916Y164740D01*
X114373Y165553D01*
X113558Y166097D01*
X112598Y166288D01*
D02*
G37*
G36*
X7874Y170517D02*
X6538Y170341D01*
X5293Y169825D01*
X4224Y169005D01*
X3403Y167936D01*
X2888Y166690D01*
X2712Y165354D01*
X2888Y164018D01*
X3403Y162773D01*
X4224Y161704D01*
X5293Y160884D01*
X6538Y160368D01*
X7874Y160192D01*
X9210Y160368D01*
X10455Y160884D01*
X11524Y161704D01*
X12345Y162773D01*
X12860Y164018D01*
X13036Y165354D01*
X12860Y166690D01*
X12345Y167936D01*
X11524Y169005D01*
X10455Y169825D01*
X9210Y170341D01*
X7874Y170517D01*
D02*
G37*
G36*
X279528Y162272D02*
X277630Y160375D01*
X277741Y160291D01*
X278603Y159934D01*
X279528Y159812D01*
X280453Y159934D01*
X281314Y160291D01*
X281425Y160375D01*
X279528Y162272D01*
D02*
G37*
G36*
X249803Y168110D02*
X240354D01*
Y158661D01*
X249803D01*
Y168110D01*
D02*
G37*
G36*
X88189Y162351D02*
X87229Y162160D01*
X86415Y161617D01*
X85871Y160803D01*
X85680Y159843D01*
X85871Y158882D01*
X86415Y158069D01*
X87229Y157525D01*
X88189Y157334D01*
X89149Y157525D01*
X89963Y158069D01*
X90507Y158882D01*
X90698Y159843D01*
X90507Y160803D01*
X89963Y161617D01*
X89149Y162160D01*
X88189Y162351D01*
D02*
G37*
G36*
X66535D02*
X65575Y162160D01*
X64761Y161617D01*
X64218Y160803D01*
X64027Y159843D01*
X64218Y158882D01*
X64761Y158069D01*
X65575Y157525D01*
X66535Y157334D01*
X67496Y157525D01*
X68309Y158069D01*
X68853Y158882D01*
X69044Y159843D01*
X68853Y160803D01*
X68309Y161617D01*
X67496Y162160D01*
X66535Y162351D01*
D02*
G37*
G36*
X183858Y161564D02*
X182898Y161373D01*
X182084Y160829D01*
X181540Y160015D01*
X181349Y159055D01*
X181540Y158095D01*
X182084Y157281D01*
X182898Y156737D01*
X183858Y156546D01*
X184818Y156737D01*
X185632Y157281D01*
X186176Y158095D01*
X186367Y159055D01*
X186176Y160015D01*
X185632Y160829D01*
X184818Y161373D01*
X183858Y161564D01*
D02*
G37*
G36*
X167717Y157233D02*
X166756Y157042D01*
X165943Y156498D01*
X165399Y155684D01*
X165208Y154724D01*
X165399Y153764D01*
X165943Y152950D01*
X166756Y152407D01*
X167717Y152216D01*
X168677Y152407D01*
X169491Y152950D01*
X170034Y153764D01*
X170225Y154724D01*
X170034Y155684D01*
X169491Y156498D01*
X168677Y157042D01*
X167717Y157233D01*
D02*
G37*
G36*
X159449Y156446D02*
X158489Y156255D01*
X157675Y155711D01*
X157131Y154897D01*
X156940Y153937D01*
X157131Y152977D01*
X157675Y152163D01*
X158489Y151619D01*
X159449Y151428D01*
X160409Y151619D01*
X161223Y152163D01*
X161767Y152977D01*
X161958Y153937D01*
X161767Y154897D01*
X161223Y155711D01*
X160409Y156255D01*
X159449Y156446D01*
D02*
G37*
G36*
X132677Y150934D02*
X131717Y150743D01*
X130903Y150199D01*
X130359Y149385D01*
X130168Y148425D01*
X130359Y147465D01*
X130903Y146651D01*
X131717Y146107D01*
X132677Y145916D01*
X133637Y146107D01*
X134451Y146651D01*
X134995Y147465D01*
X135186Y148425D01*
X134995Y149385D01*
X134451Y150199D01*
X133637Y150743D01*
X132677Y150934D01*
D02*
G37*
G36*
X245079Y147275D02*
X244154Y147153D01*
X243292Y146796D01*
X243182Y146711D01*
X245079Y144814D01*
X246976Y146711D01*
X246866Y146796D01*
X246004Y147153D01*
X245079Y147275D01*
D02*
G37*
G36*
X338071Y161103D02*
X336450Y160943D01*
X334892Y160471D01*
X333455Y159703D01*
X332196Y158670D01*
X331163Y157411D01*
X330396Y155974D01*
X329923Y154416D01*
X329763Y152795D01*
X329923Y151174D01*
X330396Y149616D01*
X331163Y148180D01*
X332196Y146921D01*
X333455Y145888D01*
X334892Y145120D01*
X336450Y144647D01*
X338071Y144488D01*
X339692Y144647D01*
X341250Y145120D01*
X342686Y145888D01*
X343945Y146921D01*
X344978Y148180D01*
X345746Y149616D01*
X346219Y151174D01*
X346379Y152795D01*
X346219Y154416D01*
X345746Y155974D01*
X344978Y157411D01*
X343945Y158670D01*
X342686Y159703D01*
X341250Y160471D01*
X339692Y160943D01*
X338071Y161103D01*
D02*
G37*
G36*
X308071D02*
X306450Y160943D01*
X304892Y160471D01*
X303455Y159703D01*
X302197Y158670D01*
X301163Y157411D01*
X300396Y155974D01*
X299923Y154416D01*
X299763Y152795D01*
X299923Y151174D01*
X300396Y149616D01*
X301163Y148180D01*
X302197Y146921D01*
X303455Y145888D01*
X304892Y145120D01*
X306450Y144647D01*
X308071Y144488D01*
X309692Y144647D01*
X311250Y145120D01*
X312686Y145888D01*
X313945Y146921D01*
X314979Y148180D01*
X315746Y149616D01*
X316219Y151174D01*
X316379Y152795D01*
X316219Y154416D01*
X315746Y155974D01*
X314979Y157411D01*
X313945Y158670D01*
X312686Y159703D01*
X311250Y160471D01*
X309692Y160943D01*
X308071Y161103D01*
D02*
G37*
G36*
X169685Y147410D02*
X168725Y147219D01*
X167911Y146676D01*
X167367Y145862D01*
X167176Y144902D01*
X167367Y143941D01*
X167911Y143128D01*
X168725Y142584D01*
X169685Y142393D01*
X170645Y142584D01*
X171459Y143128D01*
X172003Y143941D01*
X172194Y144902D01*
X172003Y145862D01*
X171459Y146676D01*
X170645Y147219D01*
X169685Y147410D01*
D02*
G37*
G36*
X186614Y147391D02*
X185654Y147200D01*
X184840Y146656D01*
X184296Y145842D01*
X184105Y144882D01*
X184296Y143922D01*
X184840Y143108D01*
X185654Y142564D01*
X186614Y142373D01*
X187574Y142564D01*
X188388Y143108D01*
X188932Y143922D01*
X189123Y144882D01*
X188932Y145842D01*
X188388Y146656D01*
X187574Y147200D01*
X186614Y147391D01*
D02*
G37*
G36*
X248089Y145598D02*
X246192Y143701D01*
X248089Y141804D01*
X248174Y141914D01*
X248531Y142776D01*
X248653Y143701D01*
X248531Y144626D01*
X248174Y145488D01*
X248089Y145598D01*
D02*
G37*
G36*
X242068D02*
X241984Y145488D01*
X241627Y144626D01*
X241505Y143701D01*
X241627Y142776D01*
X241984Y141914D01*
X242068Y141804D01*
X243965Y143701D01*
X242068Y145598D01*
D02*
G37*
G36*
X245079Y142587D02*
X243182Y140690D01*
X243292Y140606D01*
X244154Y140249D01*
X245079Y140127D01*
X246004Y140249D01*
X246866Y140606D01*
X246976Y140690D01*
X245079Y142587D01*
D02*
G37*
G36*
X284252Y148425D02*
X274803D01*
Y138976D01*
X284252D01*
Y148425D01*
D02*
G37*
G36*
X162598Y138336D02*
X161638Y138145D01*
X160824Y137601D01*
X160281Y136787D01*
X160090Y135827D01*
X160281Y134867D01*
X160824Y134053D01*
X161638Y133509D01*
X162598Y133318D01*
X163558Y133509D01*
X164373Y134053D01*
X164916Y134867D01*
X165107Y135827D01*
X164916Y136787D01*
X164373Y137601D01*
X163558Y138145D01*
X162598Y138336D01*
D02*
G37*
G36*
X7874Y142957D02*
X6538Y142782D01*
X5293Y142266D01*
X4224Y141446D01*
X3403Y140376D01*
X2888Y139131D01*
X2712Y137795D01*
X2888Y136459D01*
X3403Y135214D01*
X4224Y134145D01*
X5293Y133325D01*
X6538Y132809D01*
X7874Y132633D01*
X9210Y132809D01*
X10455Y133325D01*
X11524Y134145D01*
X12345Y135214D01*
X12860Y136459D01*
X13036Y137795D01*
X12860Y139131D01*
X12345Y140376D01*
X11524Y141446D01*
X10455Y142266D01*
X9210Y142782D01*
X7874Y142957D01*
D02*
G37*
G36*
X120866Y137154D02*
X119906Y136963D01*
X119092Y136420D01*
X118548Y135606D01*
X118357Y134646D01*
X118548Y133686D01*
X119092Y132872D01*
X119906Y132328D01*
X120866Y132137D01*
X121826Y132328D01*
X122640Y132872D01*
X123184Y133686D01*
X123375Y134646D01*
X123184Y135606D01*
X122640Y136420D01*
X121826Y136963D01*
X120866Y137154D01*
D02*
G37*
G36*
X101181Y136761D02*
X100221Y136570D01*
X99407Y136026D01*
X98863Y135212D01*
X98672Y134252D01*
X98863Y133292D01*
X99407Y132478D01*
X100221Y131934D01*
X101181Y131743D01*
X102141Y131934D01*
X102955Y132478D01*
X103499Y133292D01*
X103690Y134252D01*
X103499Y135212D01*
X102955Y136026D01*
X102141Y136570D01*
X101181Y136761D01*
D02*
G37*
G36*
X279528Y127590D02*
X278603Y127468D01*
X277741Y127111D01*
X277630Y127026D01*
X279528Y125129D01*
X281425Y127026D01*
X281314Y127111D01*
X280453Y127468D01*
X279528Y127590D01*
D02*
G37*
G36*
X105905Y128099D02*
X104945Y127908D01*
X104131Y127365D01*
X103588Y126551D01*
X103397Y125591D01*
X103588Y124630D01*
X104131Y123817D01*
X104945Y123273D01*
X105905Y123082D01*
X106866Y123273D01*
X107679Y123817D01*
X108223Y124630D01*
X108414Y125591D01*
X108223Y126551D01*
X107679Y127365D01*
X106866Y127908D01*
X105905Y128099D01*
D02*
G37*
G36*
X282538Y125913D02*
X280641Y124016D01*
X282538Y122119D01*
X282623Y122229D01*
X282980Y123091D01*
X283102Y124016D01*
X282980Y124941D01*
X282623Y125803D01*
X282538Y125913D01*
D02*
G37*
G36*
X276517Y125913D02*
X276432Y125803D01*
X276076Y124941D01*
X275954Y124016D01*
X276076Y123091D01*
X276432Y122229D01*
X276517Y122119D01*
X278414Y124016D01*
X276517Y125913D01*
D02*
G37*
G36*
X279528Y122902D02*
X277631Y121005D01*
X277741Y120921D01*
X278603Y120564D01*
X279528Y120442D01*
X280453Y120564D01*
X281314Y120921D01*
X281425Y121005D01*
X279528Y122902D01*
D02*
G37*
G36*
X249803Y128740D02*
X240354D01*
Y119291D01*
X249803D01*
Y128740D01*
D02*
G37*
G36*
X90533Y121603D02*
X89573Y121412D01*
X88759Y120869D01*
X88215Y120055D01*
X88024Y119095D01*
X88215Y118134D01*
X88759Y117321D01*
X89573Y116777D01*
X90533Y116586D01*
X91493Y116777D01*
X92307Y117321D01*
X92851Y118134D01*
X93042Y119095D01*
X92851Y120055D01*
X92307Y120869D01*
X91493Y121412D01*
X90533Y121603D01*
D02*
G37*
G36*
X64961Y121406D02*
X64001Y121215D01*
X63187Y120672D01*
X62643Y119858D01*
X62452Y118898D01*
X62643Y117938D01*
X63187Y117124D01*
X64001Y116580D01*
X64961Y116389D01*
X65921Y116580D01*
X66735Y117124D01*
X67278Y117938D01*
X67470Y118898D01*
X67278Y119858D01*
X66735Y120672D01*
X65921Y121215D01*
X64961Y121406D01*
D02*
G37*
G36*
X35433Y120619D02*
X34473Y120428D01*
X33659Y119884D01*
X33115Y119070D01*
X32924Y118110D01*
X33115Y117150D01*
X33659Y116336D01*
X34473Y115792D01*
X35433Y115601D01*
X36393Y115792D01*
X37207Y116336D01*
X37751Y117150D01*
X37942Y118110D01*
X37751Y119070D01*
X37207Y119884D01*
X36393Y120428D01*
X35433Y120619D01*
D02*
G37*
G36*
X116535Y120225D02*
X115575Y120034D01*
X114761Y119491D01*
X114218Y118677D01*
X114027Y117717D01*
X114218Y116756D01*
X114761Y115943D01*
X115575Y115399D01*
X116535Y115208D01*
X117496Y115399D01*
X118309Y115943D01*
X118853Y116756D01*
X119044Y117717D01*
X118853Y118677D01*
X118309Y119491D01*
X117496Y120034D01*
X116535Y120225D01*
D02*
G37*
G36*
X338071Y131894D02*
X336296Y131719D01*
X334589Y131202D01*
X333016Y130361D01*
X331637Y129229D01*
X330505Y127850D01*
X329665Y126277D01*
X329147Y124570D01*
X328972Y122795D01*
X329147Y121020D01*
X329665Y119313D01*
X330505Y117740D01*
X331637Y116361D01*
X333016Y115230D01*
X334589Y114389D01*
X336296Y113871D01*
X338071Y113696D01*
X339846Y113871D01*
X341553Y114389D01*
X343126Y115230D01*
X344505Y116361D01*
X345636Y117740D01*
X346477Y119313D01*
X346995Y121020D01*
X347170Y122795D01*
X346995Y124570D01*
X346477Y126277D01*
X345636Y127850D01*
X344505Y129229D01*
X343126Y130361D01*
X341553Y131202D01*
X339846Y131719D01*
X338071Y131894D01*
D02*
G37*
G36*
X308071D02*
X306296Y131719D01*
X304589Y131202D01*
X303016Y130361D01*
X301637Y129229D01*
X300505Y127850D01*
X299665Y126277D01*
X299147Y124570D01*
X298972Y122795D01*
X299147Y121020D01*
X299665Y119313D01*
X300505Y117740D01*
X301637Y116361D01*
X303016Y115230D01*
X304589Y114389D01*
X306296Y113871D01*
X308071Y113696D01*
X309846Y113871D01*
X311553Y114389D01*
X313126Y115230D01*
X314505Y116361D01*
X315636Y117740D01*
X316477Y119313D01*
X316995Y121020D01*
X317170Y122795D01*
X316995Y124570D01*
X316477Y126277D01*
X315636Y127850D01*
X314505Y129229D01*
X313126Y130361D01*
X311553Y131202D01*
X309846Y131719D01*
X308071Y131894D01*
D02*
G37*
G36*
X82284Y117863D02*
X81323Y117672D01*
X80510Y117128D01*
X79966Y116314D01*
X79775Y115354D01*
X79966Y114394D01*
X80510Y113580D01*
X81323Y113037D01*
X82284Y112846D01*
X83244Y113037D01*
X84057Y113580D01*
X84601Y114394D01*
X84792Y115354D01*
X84601Y116314D01*
X84057Y117128D01*
X83244Y117672D01*
X82284Y117863D01*
D02*
G37*
G36*
X40551D02*
X39591Y117672D01*
X38777Y117128D01*
X38233Y116314D01*
X38042Y115354D01*
X38233Y114394D01*
X38777Y113580D01*
X39591Y113037D01*
X40551Y112846D01*
X41511Y113037D01*
X42325Y113580D01*
X42869Y114394D01*
X43060Y115354D01*
X42869Y116314D01*
X42325Y117128D01*
X41511Y117672D01*
X40551Y117863D01*
D02*
G37*
G36*
X147638Y115501D02*
X146678Y115310D01*
X145864Y114766D01*
X145320Y113952D01*
X145129Y112992D01*
X145320Y112032D01*
X145864Y111218D01*
X146678Y110674D01*
X147638Y110483D01*
X148598Y110674D01*
X149412Y111218D01*
X149956Y112032D01*
X150147Y112992D01*
X149956Y113952D01*
X149412Y114766D01*
X148598Y115310D01*
X147638Y115501D01*
D02*
G37*
G36*
X35433Y115107D02*
X34473Y114916D01*
X33659Y114373D01*
X33115Y113558D01*
X32924Y112598D01*
X33115Y111638D01*
X33659Y110824D01*
X34473Y110281D01*
X35433Y110090D01*
X36393Y110281D01*
X37207Y110824D01*
X37751Y111638D01*
X37942Y112598D01*
X37751Y113558D01*
X37207Y114373D01*
X36393Y114916D01*
X35433Y115107D01*
D02*
G37*
G36*
X77559Y113926D02*
X76599Y113735D01*
X75785Y113191D01*
X75241Y112377D01*
X75050Y111417D01*
X75241Y110457D01*
X75785Y109643D01*
X76599Y109099D01*
X77559Y108908D01*
X78519Y109099D01*
X79333Y109643D01*
X79877Y110457D01*
X80068Y111417D01*
X79877Y112377D01*
X79333Y113191D01*
X78519Y113735D01*
X77559Y113926D01*
D02*
G37*
G36*
X71260D02*
X70300Y113735D01*
X69486Y113191D01*
X68942Y112377D01*
X68751Y111417D01*
X68942Y110457D01*
X69486Y109643D01*
X70300Y109099D01*
X71260Y108908D01*
X72220Y109099D01*
X73034Y109643D01*
X73578Y110457D01*
X73769Y111417D01*
X73578Y112377D01*
X73034Y113191D01*
X72220Y113735D01*
X71260Y113926D01*
D02*
G37*
G36*
X93307Y113532D02*
X92347Y113342D01*
X91533Y112798D01*
X90989Y111984D01*
X90798Y111024D01*
X90989Y110064D01*
X91533Y109250D01*
X92347Y108706D01*
X93307Y108515D01*
X94267Y108706D01*
X95081Y109250D01*
X95625Y110064D01*
X95815Y111024D01*
X95625Y111984D01*
X95081Y112798D01*
X94267Y113342D01*
X93307Y113532D01*
D02*
G37*
G36*
X40551Y112351D02*
X39591Y112160D01*
X38777Y111617D01*
X38233Y110803D01*
X38042Y109843D01*
X38233Y108882D01*
X38777Y108069D01*
X39591Y107525D01*
X40551Y107334D01*
X41511Y107525D01*
X42325Y108069D01*
X42869Y108882D01*
X43060Y109843D01*
X42869Y110803D01*
X42325Y111617D01*
X41511Y112160D01*
X40551Y112351D01*
D02*
G37*
G36*
X245079Y107905D02*
X244154Y107783D01*
X243292Y107426D01*
X243182Y107341D01*
X245079Y105444D01*
X246976Y107341D01*
X246866Y107426D01*
X246004Y107783D01*
X245079Y107905D01*
D02*
G37*
G36*
X7874Y115399D02*
X6538Y115223D01*
X5293Y114707D01*
X4224Y113886D01*
X3403Y112817D01*
X2888Y111572D01*
X2712Y110236D01*
X2888Y108900D01*
X3403Y107655D01*
X4224Y106586D01*
X5293Y105766D01*
X6538Y105250D01*
X7874Y105074D01*
X9210Y105250D01*
X10455Y105766D01*
X11524Y106586D01*
X12345Y107655D01*
X12860Y108900D01*
X13036Y110236D01*
X12860Y111572D01*
X12345Y112817D01*
X11524Y113886D01*
X10455Y114707D01*
X9210Y115223D01*
X7874Y115399D01*
D02*
G37*
G36*
X248089Y106228D02*
X246192Y104331D01*
X248089Y102434D01*
X248174Y102544D01*
X248531Y103406D01*
X248653Y104331D01*
X248531Y105256D01*
X248174Y106118D01*
X248089Y106228D01*
D02*
G37*
G36*
X242068Y106228D02*
X241984Y106118D01*
X241627Y105256D01*
X241505Y104331D01*
X241627Y103406D01*
X241984Y102544D01*
X242068Y102434D01*
X243965Y104331D01*
X242068Y106228D01*
D02*
G37*
G36*
X70894Y106889D02*
X69934Y106698D01*
X69120Y106154D01*
X68576Y105341D01*
X68385Y104380D01*
X68576Y103420D01*
X69120Y102606D01*
X69934Y102063D01*
X70894Y101872D01*
X71854Y102063D01*
X72668Y102606D01*
X73212Y103420D01*
X73403Y104380D01*
X73212Y105341D01*
X72668Y106154D01*
X71854Y106698D01*
X70894Y106889D01*
D02*
G37*
G36*
X245079Y103217D02*
X243182Y101320D01*
X243292Y101236D01*
X244154Y100879D01*
X245079Y100757D01*
X246004Y100879D01*
X246866Y101236D01*
X246976Y101320D01*
X245079Y103217D01*
D02*
G37*
G36*
X284252Y109055D02*
X274803D01*
Y99606D01*
X284252D01*
Y109055D01*
D02*
G37*
G36*
X212598Y113315D02*
X211751Y113204D01*
X210960Y112876D01*
X210282Y112356D01*
X209761Y111677D01*
X209434Y110887D01*
X209322Y110039D01*
X209422Y109285D01*
Y108234D01*
X209322Y107480D01*
X209422Y106726D01*
Y105675D01*
X209322Y104921D01*
X209422Y104167D01*
Y103116D01*
X209322Y102362D01*
X209434Y101514D01*
X209761Y100724D01*
X210282Y100046D01*
X210960Y99525D01*
X211751Y99198D01*
X212598Y99086D01*
X213446Y99198D01*
X214236Y99525D01*
X214915Y100046D01*
X215436Y100724D01*
X215763Y101514D01*
X215875Y102362D01*
X215775Y103116D01*
Y104167D01*
X215875Y104921D01*
X215775Y105675D01*
Y106726D01*
X215875Y107480D01*
X215775Y108234D01*
Y109285D01*
X215875Y110039D01*
X215763Y110887D01*
X215436Y111677D01*
X214915Y112356D01*
X214236Y112876D01*
X213446Y113204D01*
X212598Y113315D01*
D02*
G37*
G36*
X204724D02*
X203876Y113204D01*
X203086Y112876D01*
X202408Y112356D01*
X201887Y111677D01*
X201560Y110887D01*
X201448Y110039D01*
X201548Y109285D01*
Y108235D01*
X201448Y107480D01*
X201548Y106726D01*
Y105675D01*
X201448Y104921D01*
X201548Y104167D01*
Y103116D01*
X201448Y102362D01*
X201560Y101514D01*
X201887Y100724D01*
X202408Y100046D01*
X203086Y99525D01*
X203876Y99198D01*
X204724Y99086D01*
X205572Y99198D01*
X206362Y99525D01*
X207041Y100046D01*
X207562Y100724D01*
X207889Y101514D01*
X208000Y102362D01*
X207901Y103116D01*
Y104167D01*
X208000Y104921D01*
X207901Y105675D01*
Y106726D01*
X208000Y107480D01*
X207901Y108234D01*
Y109285D01*
X208000Y110039D01*
X207889Y110887D01*
X207562Y111677D01*
X207041Y112356D01*
X206362Y112876D01*
X205572Y113204D01*
X204724Y113315D01*
D02*
G37*
G36*
X171260Y131928D02*
X170492Y131775D01*
X169841Y131341D01*
X168266Y129766D01*
X167831Y129114D01*
X167678Y128347D01*
X167678Y104724D01*
X167831Y103956D01*
X168266Y103305D01*
X171022Y100549D01*
X171673Y100114D01*
X172441Y99961D01*
X194644D01*
X195212Y99525D01*
X196002Y99198D01*
X196850Y99086D01*
X197698Y99198D01*
X198488Y99525D01*
X199167Y100046D01*
X199688Y100724D01*
X200015Y101514D01*
X200127Y102362D01*
X200039Y103030D01*
Y104254D01*
X200126Y104921D01*
X200039Y105589D01*
Y106813D01*
X200127Y107480D01*
X200039Y108148D01*
Y109372D01*
X200126Y110039D01*
X200039Y110707D01*
Y112599D01*
X199886Y113366D01*
X199451Y114018D01*
X189775Y123694D01*
X189872Y124184D01*
X190221Y124328D01*
X190899Y124849D01*
X191420Y125527D01*
X191747Y126318D01*
X191859Y127165D01*
X191747Y128013D01*
X191420Y128803D01*
X190899Y129482D01*
X190221Y130002D01*
X189431Y130330D01*
X188583Y130441D01*
X188136Y130383D01*
X188075Y130689D01*
X187640Y131341D01*
X186989Y131775D01*
X186221Y131928D01*
X171260Y131928D01*
D02*
G37*
G36*
X367126Y128543D02*
X355315D01*
Y113976D01*
X354134D01*
Y103740D01*
X355315D01*
Y97047D01*
X367126D01*
Y103740D01*
X368307D01*
Y113976D01*
X367126D01*
Y128543D01*
D02*
G37*
G36*
X68898Y101328D02*
X67938Y101137D01*
X67124Y100593D01*
X66580Y99779D01*
X66389Y98819D01*
X66580Y97859D01*
X67124Y97045D01*
X67938Y96501D01*
X68898Y96310D01*
X69858Y96501D01*
X70672Y97045D01*
X71215Y97859D01*
X71407Y98819D01*
X71215Y99779D01*
X70672Y100593D01*
X69858Y101137D01*
X68898Y101328D01*
D02*
G37*
G36*
X54331Y100147D02*
X53371Y99956D01*
X52557Y99412D01*
X52013Y98598D01*
X51822Y97638D01*
X52013Y96678D01*
X52557Y95864D01*
X53371Y95320D01*
X54331Y95129D01*
X55291Y95320D01*
X56105Y95864D01*
X56649Y96678D01*
X56840Y97638D01*
X56649Y98598D01*
X56105Y99412D01*
X55291Y99956D01*
X54331Y100147D01*
D02*
G37*
G36*
X7087Y98572D02*
X6126Y98381D01*
X5313Y97837D01*
X4769Y97023D01*
X4578Y96063D01*
X4769Y95103D01*
X5313Y94289D01*
X6126Y93745D01*
X7087Y93554D01*
X8047Y93745D01*
X8861Y94289D01*
X9404Y95103D01*
X9595Y96063D01*
X9404Y97023D01*
X8861Y97837D01*
X8047Y98381D01*
X7087Y98572D01*
D02*
G37*
G36*
X45669Y96210D02*
X44709Y96019D01*
X43895Y95475D01*
X43351Y94661D01*
X43161Y93701D01*
X43351Y92741D01*
X43895Y91927D01*
X44709Y91383D01*
X45669Y91192D01*
X46629Y91383D01*
X47443Y91927D01*
X47987Y92741D01*
X48178Y93701D01*
X47987Y94661D01*
X47443Y95475D01*
X46629Y96019D01*
X45669Y96210D01*
D02*
G37*
G36*
X108661Y106446D02*
X107701Y106255D01*
X106887Y105711D01*
X106343Y104897D01*
X106152Y103937D01*
X106343Y102977D01*
X106887Y102163D01*
X107701Y101619D01*
X108549Y101451D01*
X108662Y101426D01*
X108924Y100971D01*
X108810Y100394D01*
X109001Y99434D01*
X109544Y98620D01*
X110037Y98290D01*
Y98231D01*
X109493Y97417D01*
X109302Y96457D01*
X109457Y95680D01*
X109178Y95625D01*
X108364Y95081D01*
X107820Y94267D01*
X107629Y93307D01*
X107820Y92347D01*
X108364Y91533D01*
X109178Y90989D01*
X110138Y90798D01*
X111098Y90989D01*
X111912Y91533D01*
X112456Y92347D01*
X112647Y93307D01*
X112492Y94083D01*
X112771Y94139D01*
X113585Y94683D01*
X114129Y95497D01*
X114320Y96457D01*
X114129Y97417D01*
X113585Y98231D01*
X113093Y98560D01*
Y98620D01*
X113636Y99434D01*
X113827Y100394D01*
X113636Y101354D01*
X113093Y102168D01*
X112278Y102712D01*
X111431Y102880D01*
X111317Y102904D01*
X111055Y103360D01*
X111170Y103937D01*
X110979Y104897D01*
X110435Y105711D01*
X109621Y106255D01*
X108661Y106446D01*
D02*
G37*
G36*
X62598Y91879D02*
X61638Y91688D01*
X60824Y91144D01*
X60281Y90330D01*
X60090Y89370D01*
X60281Y88410D01*
X60824Y87596D01*
X61638Y87052D01*
X62598Y86861D01*
X63559Y87052D01*
X64372Y87596D01*
X64916Y88410D01*
X65107Y89370D01*
X64916Y90330D01*
X64372Y91144D01*
X63559Y91688D01*
X62598Y91879D01*
D02*
G37*
G36*
X279528Y88219D02*
X278603Y88098D01*
X277741Y87741D01*
X277630Y87656D01*
X279528Y85759D01*
X281425Y87656D01*
X281314Y87741D01*
X280453Y88098D01*
X279528Y88219D01*
D02*
G37*
G36*
X56299Y90009D02*
X55339Y89818D01*
X54525Y89274D01*
X53981Y88460D01*
X53790Y87500D01*
X53981Y86540D01*
X54525Y85726D01*
X55339Y85182D01*
X56299Y84991D01*
X57259Y85182D01*
X58073Y85726D01*
X58617Y86540D01*
X58808Y87500D01*
X58617Y88460D01*
X58073Y89274D01*
X57259Y89818D01*
X56299Y90009D01*
D02*
G37*
G36*
X45669Y89910D02*
X44709Y89719D01*
X43895Y89176D01*
X43351Y88362D01*
X43161Y87402D01*
X43351Y86441D01*
X43895Y85628D01*
X44709Y85084D01*
X45669Y84893D01*
X46629Y85084D01*
X47443Y85628D01*
X47987Y86441D01*
X48178Y87402D01*
X47987Y88362D01*
X47443Y89176D01*
X46629Y89719D01*
X45669Y89910D01*
D02*
G37*
G36*
X338071Y101103D02*
X336450Y100943D01*
X334892Y100471D01*
X333455Y99703D01*
X332196Y98670D01*
X331163Y97411D01*
X330396Y95974D01*
X329923Y94416D01*
X329763Y92795D01*
X329923Y91175D01*
X330396Y89616D01*
X331163Y88180D01*
X332196Y86921D01*
X333455Y85888D01*
X334892Y85120D01*
X336450Y84647D01*
X338071Y84488D01*
X339692Y84647D01*
X341250Y85120D01*
X342686Y85888D01*
X343945Y86921D01*
X344978Y88180D01*
X345746Y89616D01*
X346219Y91175D01*
X346379Y92795D01*
X346219Y94416D01*
X345746Y95974D01*
X344978Y97411D01*
X343945Y98670D01*
X342686Y99703D01*
X341250Y100471D01*
X339692Y100943D01*
X338071Y101103D01*
D02*
G37*
G36*
X308071D02*
X306450Y100943D01*
X304892Y100471D01*
X303455Y99703D01*
X302197Y98670D01*
X301163Y97411D01*
X300396Y95974D01*
X299923Y94416D01*
X299763Y92795D01*
X299923Y91175D01*
X300396Y89616D01*
X301163Y88180D01*
X302197Y86921D01*
X303455Y85888D01*
X304892Y85120D01*
X306450Y84647D01*
X308071Y84488D01*
X309692Y84647D01*
X311250Y85120D01*
X312686Y85888D01*
X313945Y86921D01*
X314979Y88180D01*
X315746Y89616D01*
X316219Y91175D01*
X316379Y92795D01*
X316219Y94416D01*
X315746Y95974D01*
X314979Y97411D01*
X313945Y98670D01*
X312686Y99703D01*
X311250Y100471D01*
X309692Y100943D01*
X308071Y101103D01*
D02*
G37*
G36*
X282538Y86543D02*
X280641Y84646D01*
X282538Y82749D01*
X282623Y82859D01*
X282980Y83721D01*
X283102Y84646D01*
X282980Y85571D01*
X282623Y86433D01*
X282538Y86543D01*
D02*
G37*
G36*
X276517Y86543D02*
X276432Y86433D01*
X276076Y85571D01*
X275954Y84646D01*
X276076Y83721D01*
X276432Y82859D01*
X276517Y82749D01*
X278414Y84646D01*
X276517Y86543D01*
D02*
G37*
G36*
X21654Y87450D02*
X20694Y87259D01*
X19880Y86715D01*
X19336Y85901D01*
X19145Y84941D01*
X19336Y83981D01*
X19880Y83167D01*
X20694Y82623D01*
X21654Y82432D01*
X22614Y82623D01*
X23428Y83167D01*
X23971Y83981D01*
X24162Y84941D01*
X23971Y85901D01*
X23428Y86715D01*
X22614Y87259D01*
X21654Y87450D01*
D02*
G37*
G36*
X279528Y83532D02*
X277631Y81635D01*
X277741Y81551D01*
X278603Y81194D01*
X279528Y81072D01*
X280453Y81194D01*
X281314Y81551D01*
X281425Y81635D01*
X279528Y83532D01*
D02*
G37*
G36*
X249803Y89370D02*
X240354D01*
Y79921D01*
X249803D01*
Y89370D01*
D02*
G37*
G36*
X112106Y84792D02*
X111146Y84601D01*
X110332Y84057D01*
X109788Y83244D01*
X109598Y82284D01*
X109788Y81323D01*
X110332Y80510D01*
X111146Y79966D01*
X112106Y79775D01*
X113066Y79966D01*
X113880Y80510D01*
X114424Y81323D01*
X114615Y82284D01*
X114424Y83244D01*
X113880Y84057D01*
X113066Y84601D01*
X112106Y84792D01*
D02*
G37*
G36*
X69135Y84340D02*
X68175Y84149D01*
X67361Y83605D01*
X66817Y82792D01*
X66626Y81832D01*
X66817Y80871D01*
X67361Y80058D01*
X68175Y79514D01*
X69135Y79323D01*
X70095Y79514D01*
X70909Y80058D01*
X71452Y80871D01*
X71644Y81832D01*
X71452Y82792D01*
X70909Y83605D01*
X70095Y84149D01*
X69135Y84340D01*
D02*
G37*
G36*
X59448Y77706D02*
X58488Y77515D01*
X57674Y76971D01*
X57131Y76157D01*
X57025Y75624D01*
X56196Y75789D01*
X55236Y75598D01*
X54422Y75054D01*
X53879Y74240D01*
X53688Y73280D01*
X53879Y72320D01*
X54422Y71506D01*
X55236Y70962D01*
X56196Y70771D01*
X57157Y70962D01*
X57970Y71506D01*
X58514Y72320D01*
X58620Y72853D01*
X59448Y72688D01*
X60409Y72879D01*
X61222Y73423D01*
X61766Y74237D01*
X61957Y75197D01*
X61766Y76157D01*
X61222Y76971D01*
X60409Y77515D01*
X59448Y77706D01*
D02*
G37*
G36*
X21654Y80462D02*
X20694Y80271D01*
X19880Y79727D01*
X19336Y78913D01*
X19145Y77953D01*
X19336Y76993D01*
X19880Y76179D01*
X20694Y75635D01*
X21654Y75444D01*
X22614Y75635D01*
X23428Y76179D01*
X23971Y76993D01*
X24162Y77953D01*
X23971Y78913D01*
X23428Y79727D01*
X22614Y80271D01*
X21654Y80462D01*
D02*
G37*
G36*
X112106Y78887D02*
X111146Y78696D01*
X110332Y78152D01*
X109788Y77338D01*
X109598Y76378D01*
X109788Y75418D01*
X110332Y74604D01*
X111146Y74060D01*
X112106Y73869D01*
X113066Y74060D01*
X113880Y74604D01*
X114424Y75418D01*
X114615Y76378D01*
X114424Y77338D01*
X113880Y78152D01*
X113066Y78696D01*
X112106Y78887D01*
D02*
G37*
G36*
X129528Y87548D02*
X128568Y87357D01*
X127754Y86813D01*
X127210Y86000D01*
X127019Y85039D01*
X127210Y84079D01*
X127754Y83265D01*
X128568Y82722D01*
X128786Y82678D01*
X128795Y82657D01*
X128839Y82158D01*
X128147Y81695D01*
X127603Y80881D01*
X127412Y79921D01*
X127603Y78961D01*
X128147Y78147D01*
X128961Y77603D01*
X129029Y77590D01*
X129127Y77100D01*
X128934Y76971D01*
X128390Y76157D01*
X128199Y75197D01*
X128390Y74237D01*
X128934Y73423D01*
X129748Y72879D01*
X130708Y72688D01*
X131668Y72879D01*
X132482Y73423D01*
X133026Y74237D01*
X133217Y75197D01*
X133026Y76157D01*
X132482Y76971D01*
X131668Y77515D01*
X131600Y77528D01*
X131503Y78019D01*
X131695Y78147D01*
X132239Y78961D01*
X132430Y79921D01*
X132239Y80881D01*
X131695Y81695D01*
X130881Y82239D01*
X130662Y82283D01*
X130654Y82303D01*
X130610Y82803D01*
X131302Y83265D01*
X131845Y84079D01*
X132036Y85039D01*
X131845Y86000D01*
X131302Y86813D01*
X130488Y87357D01*
X129528Y87548D01*
D02*
G37*
G36*
X88976Y74950D02*
X88016Y74759D01*
X87202Y74215D01*
X86659Y73401D01*
X86468Y72441D01*
X86659Y71481D01*
X87202Y70667D01*
X88016Y70123D01*
X88976Y69932D01*
X89937Y70123D01*
X90750Y70667D01*
X91294Y71481D01*
X91485Y72441D01*
X91294Y73401D01*
X90750Y74215D01*
X89937Y74759D01*
X88976Y74950D01*
D02*
G37*
G36*
X100394Y73769D02*
X99434Y73578D01*
X98620Y73034D01*
X98076Y72220D01*
X97885Y71260D01*
X98076Y70300D01*
X98620Y69486D01*
X99434Y68942D01*
X100394Y68751D01*
X101354Y68942D01*
X102168Y69486D01*
X102712Y70300D01*
X102903Y71260D01*
X102712Y72220D01*
X102168Y73034D01*
X101354Y73578D01*
X100394Y73769D01*
D02*
G37*
G36*
X72835Y73375D02*
X71875Y73184D01*
X71061Y72640D01*
X70517Y71826D01*
X70326Y70866D01*
X70517Y69906D01*
X71061Y69092D01*
X71875Y68548D01*
X72835Y68357D01*
X73795Y68548D01*
X74609Y69092D01*
X75152Y69906D01*
X75344Y70866D01*
X75152Y71826D01*
X74609Y72640D01*
X73795Y73184D01*
X72835Y73375D01*
D02*
G37*
G36*
X37008Y71800D02*
X36048Y71609D01*
X35234Y71065D01*
X34690Y70251D01*
X34499Y69291D01*
X34690Y68331D01*
X35234Y67517D01*
X36048Y66974D01*
X37008Y66782D01*
X37968Y66974D01*
X38782Y67517D01*
X39326Y68331D01*
X39517Y69291D01*
X39326Y70251D01*
X38782Y71065D01*
X37968Y71609D01*
X37008Y71800D01*
D02*
G37*
G36*
X29921D02*
X28961Y71609D01*
X28147Y71065D01*
X27603Y70251D01*
X27412Y69291D01*
X27603Y68331D01*
X28147Y67517D01*
X28961Y66974D01*
X29921Y66782D01*
X30881Y66974D01*
X31695Y67517D01*
X32239Y68331D01*
X32430Y69291D01*
X32239Y70251D01*
X31695Y71065D01*
X30881Y71609D01*
X29921Y71800D01*
D02*
G37*
G36*
X351929Y79366D02*
X349766Y79224D01*
X347640Y78802D01*
X345588Y78105D01*
X343644Y77146D01*
X341841Y75942D01*
X340805Y75033D01*
X351929Y63909D01*
X363053Y75033D01*
X362017Y75942D01*
X360215Y77146D01*
X358271Y78105D01*
X356218Y78802D01*
X354092Y79224D01*
X351929Y79366D01*
D02*
G37*
G36*
X245079Y68932D02*
X244051Y68796D01*
X243093Y68400D01*
X242271Y67769D01*
X241640Y66946D01*
X241243Y65988D01*
X241108Y64961D01*
X241243Y63933D01*
X241640Y62975D01*
X242271Y62153D01*
X243093Y61522D01*
X244051Y61125D01*
X245079Y60990D01*
X246107Y61125D01*
X247064Y61522D01*
X247887Y62153D01*
X248518Y62975D01*
X248914Y63933D01*
X249050Y64961D01*
X248914Y65988D01*
X248518Y66946D01*
X247887Y67769D01*
X247064Y68400D01*
X246107Y68796D01*
X245079Y68932D01*
D02*
G37*
G36*
X127165Y65895D02*
X126205Y65704D01*
X125391Y65160D01*
X124847Y64346D01*
X124656Y63386D01*
X124847Y62426D01*
X125391Y61612D01*
X126205Y61068D01*
X127165Y60877D01*
X128126Y61068D01*
X128939Y61612D01*
X129483Y62426D01*
X129674Y63386D01*
X129483Y64346D01*
X128939Y65160D01*
X128126Y65704D01*
X127165Y65895D01*
D02*
G37*
G36*
X33858Y62235D02*
X32933Y62113D01*
X32071Y61756D01*
X31331Y61189D01*
X31024Y60788D01*
X30394D01*
X30086Y61189D01*
X29346Y61756D01*
X28484Y62113D01*
X27559Y62235D01*
X26634Y62113D01*
X25772Y61756D01*
X25032Y61189D01*
X24464Y60448D01*
X24107Y59586D01*
X23985Y58661D01*
X24107Y57736D01*
X24464Y56875D01*
X25032Y56134D01*
X25772Y55566D01*
X26634Y55209D01*
X27559Y55088D01*
X28484Y55209D01*
X29346Y55566D01*
X30086Y56134D01*
X30394Y56535D01*
X31024D01*
X31331Y56134D01*
X32071Y55566D01*
X32933Y55209D01*
X33858Y55088D01*
X34783Y55209D01*
X35645Y55566D01*
X36385Y56134D01*
X36953Y56875D01*
X37310Y57736D01*
X37432Y58661D01*
X37310Y59586D01*
X36953Y60448D01*
X36385Y61189D01*
X35645Y61756D01*
X34783Y62113D01*
X33858Y62235D01*
D02*
G37*
G36*
X284252Y69685D02*
X274803D01*
Y60236D01*
X284252D01*
Y69685D01*
D02*
G37*
G36*
X168504Y64714D02*
X167544Y64523D01*
X166730Y63979D01*
X166186Y63165D01*
X165995Y62205D01*
X166186Y61245D01*
X166730Y60431D01*
X167544Y59887D01*
X168504Y59696D01*
X169464Y59887D01*
X170278Y60431D01*
X170822Y61245D01*
X171013Y62205D01*
X170822Y63165D01*
X170278Y63979D01*
X169464Y64523D01*
X168504Y64714D01*
D02*
G37*
G36*
X47244Y63418D02*
X45932Y63289D01*
X44671Y62906D01*
X43508Y62285D01*
X43100Y61950D01*
X47244Y57806D01*
X51388Y61950D01*
X50981Y62285D01*
X49818Y62906D01*
X48556Y63289D01*
X47244Y63418D01*
D02*
G37*
G36*
X14173D02*
X12861Y63289D01*
X11600Y62906D01*
X10437Y62285D01*
X10029Y61950D01*
X14173Y57806D01*
X18317Y61950D01*
X17910Y62285D01*
X16747Y62906D01*
X15485Y63289D01*
X14173Y63418D01*
D02*
G37*
G36*
X52502Y60837D02*
X47801Y56136D01*
X47244Y56693D01*
X46687Y56136D01*
X41987Y60837D01*
X41652Y60429D01*
X41031Y59267D01*
X40648Y58005D01*
X40519Y56693D01*
Y52756D01*
X40534Y52598D01*
X40044Y52475D01*
X39759Y53163D01*
X39738Y53191D01*
X38122Y51575D01*
X39738Y49959D01*
X39759Y49986D01*
X40076Y50753D01*
X40159Y51379D01*
X40648Y51444D01*
X41031Y50182D01*
X41652Y49020D01*
X41987Y48612D01*
X46687Y53313D01*
X47244Y52756D01*
X47801Y53313D01*
X52502Y48612D01*
X52836Y49020D01*
X53457Y50182D01*
X53840Y51444D01*
X53969Y52756D01*
Y56693D01*
X53840Y58005D01*
X53457Y59267D01*
X52836Y60429D01*
X52502Y60837D01*
D02*
G37*
G36*
X100108Y59309D02*
X99147Y59118D01*
X98334Y58574D01*
X97790Y57761D01*
X97599Y56800D01*
X97790Y55840D01*
X98334Y55026D01*
X99147Y54483D01*
X100108Y54291D01*
X101068Y54483D01*
X101882Y55026D01*
X102425Y55840D01*
X102616Y56800D01*
X102425Y57761D01*
X101882Y58574D01*
X101068Y59118D01*
X100108Y59309D01*
D02*
G37*
G36*
X83465Y59202D02*
X82504Y59011D01*
X81691Y58467D01*
X81147Y57653D01*
X80956Y56693D01*
X81147Y55733D01*
X81691Y54919D01*
X82504Y54375D01*
X83465Y54184D01*
X84425Y54375D01*
X85239Y54919D01*
X85782Y55733D01*
X85973Y56693D01*
X85782Y57653D01*
X85239Y58467D01*
X84425Y59011D01*
X83465Y59202D01*
D02*
G37*
G36*
X37008Y54752D02*
X36186Y54643D01*
X35419Y54326D01*
X35392Y54305D01*
X37008Y52688D01*
X38624Y54305D01*
X38596Y54326D01*
X37830Y54643D01*
X37008Y54752D01*
D02*
G37*
G36*
X107874Y56840D02*
X106913Y56649D01*
X106100Y56105D01*
X105556Y55291D01*
X105365Y54331D01*
X105556Y53371D01*
X105801Y53004D01*
X105440Y52644D01*
X104897Y53007D01*
X103937Y53198D01*
X102977Y53007D01*
X102163Y52463D01*
X101619Y51649D01*
X101428Y50689D01*
X101619Y49729D01*
X102163Y48915D01*
X102977Y48371D01*
X103937Y48180D01*
X104897Y48371D01*
X105711Y48915D01*
X106254Y49729D01*
X106445Y50689D01*
X106254Y51649D01*
X106009Y52016D01*
X106370Y52376D01*
X106913Y52013D01*
X107459Y51904D01*
X107524Y51748D01*
X107333Y50788D01*
X107524Y49828D01*
X108068Y49014D01*
X108882Y48470D01*
X109842Y48279D01*
X110802Y48470D01*
X111616Y49014D01*
X112160Y49828D01*
X112351Y50788D01*
X112232Y51385D01*
X112599Y51822D01*
X113558Y52013D01*
X114373Y52557D01*
X114916Y53371D01*
X115107Y54331D01*
X114916Y55291D01*
X114373Y56105D01*
X113558Y56649D01*
X112598Y56840D01*
X111638Y56649D01*
X110824Y56105D01*
X110537Y55674D01*
X109935D01*
X109648Y56105D01*
X108834Y56649D01*
X107874Y56840D01*
D02*
G37*
G36*
X118110Y56840D02*
X117150Y56649D01*
X116336Y56105D01*
X115792Y55291D01*
X115601Y54331D01*
X115792Y53371D01*
X116336Y52557D01*
X117150Y52013D01*
X118110Y51822D01*
X119070Y52013D01*
X119884Y52557D01*
X120428Y53371D01*
X120619Y54331D01*
X120428Y55291D01*
X119884Y56105D01*
X119070Y56649D01*
X118110Y56840D01*
D02*
G37*
G36*
X364167Y73919D02*
X353043Y62795D01*
X364167Y51671D01*
X365076Y52708D01*
X366280Y54510D01*
X367239Y56454D01*
X367935Y58506D01*
X368358Y60632D01*
X368500Y62795D01*
X368358Y64958D01*
X367935Y67084D01*
X367239Y69137D01*
X366280Y71081D01*
X365076Y72883D01*
X364167Y73919D01*
D02*
G37*
G36*
X339691Y73919D02*
X338783Y72883D01*
X337578Y71081D01*
X336620Y69137D01*
X335923Y67084D01*
X335500Y64958D01*
X335358Y62795D01*
X335500Y60632D01*
X335923Y58506D01*
X336620Y56454D01*
X337578Y54510D01*
X338783Y52708D01*
X339691Y51671D01*
X350816Y62795D01*
X339691Y73919D01*
D02*
G37*
G36*
X37008Y50461D02*
X35392Y48845D01*
X35419Y48824D01*
X36186Y48506D01*
X37008Y48398D01*
X37830Y48506D01*
X38596Y48824D01*
X38624Y48845D01*
X37008Y50461D01*
D02*
G37*
G36*
X47244Y51642D02*
X43100Y47499D01*
X43508Y47164D01*
X44671Y46543D01*
X45932Y46160D01*
X47244Y46031D01*
X48556Y46160D01*
X49818Y46543D01*
X50981Y47164D01*
X51388Y47499D01*
X47244Y51642D01*
D02*
G37*
G36*
X69291Y50934D02*
X68331Y50743D01*
X67517Y50199D01*
X66974Y49385D01*
X66782Y48425D01*
X66974Y47465D01*
X67517Y46651D01*
X68331Y46107D01*
X69291Y45916D01*
X70251Y46107D01*
X71065Y46651D01*
X71609Y47465D01*
X71800Y48425D01*
X71609Y49385D01*
X71065Y50199D01*
X70251Y50743D01*
X69291Y50934D01*
D02*
G37*
G36*
X208661Y64415D02*
X206848Y64236D01*
X205104Y63707D01*
X203496Y62848D01*
X202088Y61692D01*
X200932Y60283D01*
X200072Y58676D01*
X199543Y56932D01*
X199365Y55118D01*
X199543Y53304D01*
X200072Y51560D01*
X200932Y49953D01*
X202088Y48544D01*
X203496Y47388D01*
X205104Y46529D01*
X206848Y46000D01*
X208661Y45821D01*
X210475Y46000D01*
X212219Y46529D01*
X213826Y47388D01*
X215235Y48544D01*
X216391Y49953D01*
X217250Y51560D01*
X217779Y53304D01*
X217958Y55118D01*
X217779Y56932D01*
X217250Y58676D01*
X216391Y60283D01*
X215235Y61692D01*
X213826Y62848D01*
X212219Y63707D01*
X210475Y64236D01*
X208661Y64415D01*
D02*
G37*
G36*
X86221Y50934D02*
X85260Y50743D01*
X84447Y50199D01*
X83903Y49385D01*
X83712Y48425D01*
X83903Y47465D01*
X83802Y47223D01*
X83686Y47200D01*
X82872Y46656D01*
X82328Y45842D01*
X82137Y44882D01*
X82328Y43922D01*
X82872Y43108D01*
X83686Y42564D01*
X84646Y42373D01*
X85606Y42564D01*
X86420Y43108D01*
X86964Y43922D01*
X87155Y44882D01*
X86964Y45842D01*
X87064Y46084D01*
X87181Y46107D01*
X87994Y46651D01*
X88538Y47465D01*
X88729Y48425D01*
X88538Y49385D01*
X87994Y50199D01*
X87181Y50743D01*
X86221Y50934D01*
D02*
G37*
G36*
X249803Y50000D02*
X240354D01*
Y40551D01*
X249803D01*
Y50000D01*
D02*
G37*
G36*
X118110Y43847D02*
X117150Y43657D01*
X116336Y43113D01*
X115792Y42299D01*
X115601Y41339D01*
X115792Y40378D01*
X116336Y39565D01*
X117150Y39021D01*
X118110Y38830D01*
X119070Y39021D01*
X119884Y39565D01*
X120428Y40378D01*
X120619Y41339D01*
X120428Y42299D01*
X119884Y43113D01*
X119070Y43657D01*
X118110Y43847D01*
D02*
G37*
G36*
X92520Y41091D02*
X91560Y40900D01*
X90746Y40357D01*
X90202Y39543D01*
X90011Y38583D01*
X90202Y37623D01*
X90746Y36809D01*
X91560Y36265D01*
X92520Y36074D01*
X93480Y36265D01*
X94294Y36809D01*
X94838Y37623D01*
X95029Y38583D01*
X94838Y39543D01*
X94294Y40357D01*
X93480Y40900D01*
X92520Y41091D01*
D02*
G37*
G36*
X64961Y40698D02*
X64001Y40507D01*
X63187Y39963D01*
X62643Y39149D01*
X62452Y38189D01*
X62643Y37229D01*
X63187Y36415D01*
X64001Y35871D01*
X64961Y35680D01*
X65921Y35871D01*
X66735Y36415D01*
X67278Y37229D01*
X67470Y38189D01*
X67278Y39149D01*
X66735Y39963D01*
X65921Y40507D01*
X64961Y40698D01*
D02*
G37*
G36*
X54961Y39716D02*
X54138Y39608D01*
X53372Y39291D01*
X52714Y38786D01*
X52210Y38128D01*
X51892Y37362D01*
X51784Y36539D01*
X51892Y35717D01*
X52210Y34951D01*
X52714Y34293D01*
X53372Y33788D01*
X54138Y33471D01*
X54961Y33363D01*
X55783Y33471D01*
X56549Y33788D01*
X57207Y34293D01*
X57712Y34951D01*
X58029Y35717D01*
X58137Y36539D01*
X58029Y37362D01*
X57712Y38128D01*
X57207Y38786D01*
X56549Y39291D01*
X55783Y39608D01*
X54961Y39716D01*
D02*
G37*
G36*
X72835Y40501D02*
X71875Y40310D01*
X71061Y39766D01*
X70517Y38952D01*
X70326Y37992D01*
X70517Y37032D01*
X71061Y36218D01*
X71875Y35674D01*
X72809Y35488D01*
X72866Y35395D01*
X73003Y35007D01*
X72714Y34786D01*
X72210Y34128D01*
X71892Y33362D01*
X71784Y32539D01*
X71892Y31717D01*
X72210Y30951D01*
X72714Y30293D01*
X72892Y30157D01*
X72872Y29986D01*
X72727Y29653D01*
X71875Y29483D01*
X71061Y28939D01*
X70517Y28126D01*
X70326Y27165D01*
X70517Y26205D01*
X71061Y25391D01*
X71875Y24848D01*
X72835Y24656D01*
X73795Y24848D01*
X74609Y25391D01*
X75152Y26205D01*
X75344Y27165D01*
X75152Y28126D01*
X74634Y28901D01*
X74680Y29066D01*
X74854Y29377D01*
X74961Y29363D01*
X75783Y29471D01*
X76549Y29788D01*
X77207Y30293D01*
X77712Y30951D01*
X78029Y31717D01*
X78137Y32539D01*
X78029Y33362D01*
X77712Y34128D01*
X77207Y34786D01*
X76549Y35291D01*
X75783Y35608D01*
X74961Y35716D01*
X74708Y35683D01*
X74527Y36163D01*
X74609Y36218D01*
X75152Y37032D01*
X75344Y37992D01*
X75152Y38952D01*
X74609Y39766D01*
X73795Y40310D01*
X72835Y40501D01*
D02*
G37*
G36*
X315197Y34839D02*
X314118Y34697D01*
X313112Y34280D01*
X312249Y33618D01*
X311586Y32754D01*
X311169Y31749D01*
X311027Y30669D01*
X311169Y29590D01*
X311586Y28585D01*
X312249Y27721D01*
X313112Y27058D01*
X314118Y26642D01*
X315197Y26500D01*
X316276Y26642D01*
X317282Y27058D01*
X318145Y27721D01*
X318808Y28585D01*
X319224Y29590D01*
X319366Y30669D01*
X319224Y31749D01*
X318808Y32754D01*
X318145Y33618D01*
X317282Y34280D01*
X316276Y34697D01*
X315197Y34839D01*
D02*
G37*
G36*
X285197D02*
X284118Y34697D01*
X283112Y34280D01*
X282249Y33618D01*
X281586Y32754D01*
X281169Y31749D01*
X281027Y30669D01*
X281169Y29590D01*
X281586Y28585D01*
X282249Y27721D01*
X283112Y27058D01*
X284118Y26642D01*
X285197Y26500D01*
X286276Y26642D01*
X287282Y27058D01*
X288145Y27721D01*
X288808Y28585D01*
X289224Y29590D01*
X289366Y30669D01*
X289224Y31749D01*
X288808Y32754D01*
X288145Y33618D01*
X287282Y34280D01*
X286276Y34697D01*
X285197Y34839D01*
D02*
G37*
G36*
X64961Y28887D02*
X64001Y28696D01*
X63187Y28152D01*
X62643Y27338D01*
X62452Y26378D01*
X62643Y25418D01*
X63187Y24604D01*
X64001Y24060D01*
X64961Y23869D01*
X65921Y24060D01*
X66735Y24604D01*
X67278Y25418D01*
X67470Y26378D01*
X67278Y27338D01*
X66735Y28152D01*
X65921Y28696D01*
X64961Y28887D01*
D02*
G37*
G36*
X54961Y31716D02*
X54138Y31608D01*
X53372Y31291D01*
X52714Y30786D01*
X52210Y30128D01*
X51892Y29362D01*
X51784Y28539D01*
X51892Y27717D01*
X52210Y26951D01*
X52714Y26293D01*
X53372Y25788D01*
X54138Y25471D01*
X54961Y25363D01*
X55783Y25471D01*
X56148Y25622D01*
X56718Y25317D01*
X56737Y25221D01*
X57281Y24407D01*
X58095Y23863D01*
X59055Y23672D01*
X60015Y23863D01*
X60829Y24407D01*
X61373Y25221D01*
X61564Y26181D01*
X61373Y27141D01*
X60829Y27955D01*
X60015Y28499D01*
X59055Y28690D01*
X58633Y28606D01*
X58076Y29005D01*
X58029Y29362D01*
X57712Y30128D01*
X57207Y30786D01*
X56549Y31291D01*
X55783Y31608D01*
X54961Y31716D01*
D02*
G37*
G36*
X113348Y27274D02*
X112388Y27083D01*
X111574Y26539D01*
X111030Y25725D01*
X110839Y24765D01*
X111030Y23805D01*
X111574Y22991D01*
X112388Y22447D01*
X113348Y22256D01*
X114308Y22447D01*
X115122Y22991D01*
X115666Y23805D01*
X115857Y24765D01*
X115666Y25725D01*
X115122Y26539D01*
X114308Y27083D01*
X113348Y27274D01*
D02*
G37*
G36*
X315197Y24442D02*
X314220Y24313D01*
X313311Y23936D01*
X313159Y23820D01*
X315197Y21783D01*
X317234Y23820D01*
X317083Y23936D01*
X316173Y24313D01*
X315197Y24442D01*
D02*
G37*
G36*
X285197D02*
X284221Y24313D01*
X283311Y23936D01*
X283159Y23820D01*
X285197Y21783D01*
X287234Y23820D01*
X287083Y23936D01*
X286173Y24313D01*
X285197Y24442D01*
D02*
G37*
G36*
X312046Y22707D02*
X311930Y22556D01*
X311553Y21646D01*
X311424Y20669D01*
X311553Y19693D01*
X311930Y18783D01*
X312046Y18632D01*
X314083Y20669D01*
X312046Y22707D01*
D02*
G37*
G36*
X282046D02*
X281930Y22556D01*
X281553Y21646D01*
X281424Y20669D01*
X281553Y19693D01*
X281930Y18783D01*
X282046Y18632D01*
X284083Y20669D01*
X282046Y22707D01*
D02*
G37*
G36*
X318348Y22707D02*
X316310Y20669D01*
X318348Y18632D01*
X318464Y18783D01*
X318841Y19693D01*
X318969Y20669D01*
X318841Y21646D01*
X318464Y22556D01*
X318348Y22707D01*
D02*
G37*
G36*
X288348D02*
X286310Y20669D01*
X288348Y18632D01*
X288464Y18783D01*
X288841Y19693D01*
X288969Y20669D01*
X288841Y21646D01*
X288464Y22556D01*
X288348Y22707D01*
D02*
G37*
G36*
X315197Y19556D02*
X313159Y17518D01*
X313311Y17402D01*
X314220Y17025D01*
X315197Y16897D01*
X316173Y17025D01*
X317083Y17402D01*
X317234Y17518D01*
X315197Y19556D01*
D02*
G37*
G36*
X285197D02*
X283159Y17518D01*
X283311Y17402D01*
X284221Y17025D01*
X285197Y16897D01*
X286173Y17025D01*
X287083Y17402D01*
X287234Y17518D01*
X285197Y19556D01*
D02*
G37*
G36*
X243110Y35664D02*
X241721Y35527D01*
X240385Y35122D01*
X239154Y34464D01*
X238075Y33579D01*
X237189Y32500D01*
X236531Y31268D01*
X236126Y29932D01*
X235989Y28543D01*
Y20669D01*
X236126Y19280D01*
X236531Y17944D01*
X237189Y16713D01*
X238075Y15634D01*
X239154Y14749D01*
X240385Y14090D01*
X241721Y13685D01*
X243110Y13548D01*
X244499Y13685D01*
X245835Y14090D01*
X247066Y14749D01*
X248146Y15634D01*
X249031Y16713D01*
X249689Y17944D01*
X250094Y19280D01*
X250231Y20669D01*
Y28543D01*
X250094Y29932D01*
X249689Y31268D01*
X249031Y32500D01*
X248146Y33579D01*
X247066Y34464D01*
X245835Y35122D01*
X244499Y35527D01*
X243110Y35664D01*
D02*
G37*
G36*
X91339Y35467D02*
X89949Y35331D01*
X88613Y34925D01*
X87382Y34267D01*
X86303Y33382D01*
X85418Y32303D01*
X84760Y31071D01*
X84355Y29736D01*
X84218Y28346D01*
Y20472D01*
X84355Y19083D01*
X84760Y17747D01*
X85418Y16516D01*
X86303Y15437D01*
X87382Y14552D01*
X88613Y13894D01*
X89949Y13488D01*
X91339Y13352D01*
X92728Y13488D01*
X94064Y13894D01*
X95295Y14552D01*
X96374Y15437D01*
X97259Y16516D01*
X97917Y17747D01*
X98323Y19083D01*
X98460Y20472D01*
Y28346D01*
X98323Y29736D01*
X97917Y31071D01*
X97259Y32303D01*
X96374Y33382D01*
X95295Y34267D01*
X94064Y34925D01*
X92728Y35331D01*
X91339Y35467D01*
D02*
G37*
G36*
X315197Y14839D02*
X314118Y14697D01*
X313112Y14280D01*
X312249Y13618D01*
X311586Y12754D01*
X311169Y11748D01*
X311027Y10669D01*
X311169Y9590D01*
X311586Y8585D01*
X312249Y7721D01*
X313112Y7058D01*
X314118Y6642D01*
X315197Y6500D01*
X316276Y6642D01*
X317282Y7058D01*
X318145Y7721D01*
X318808Y8585D01*
X319224Y9590D01*
X319366Y10669D01*
X319224Y11748D01*
X318808Y12754D01*
X318145Y13618D01*
X317282Y14280D01*
X316276Y14697D01*
X315197Y14839D01*
D02*
G37*
G36*
X285197D02*
X284118Y14697D01*
X283112Y14280D01*
X282249Y13618D01*
X281586Y12754D01*
X281169Y11748D01*
X281027Y10669D01*
X281169Y9590D01*
X281586Y8585D01*
X282249Y7721D01*
X283112Y7058D01*
X284118Y6642D01*
X285197Y6500D01*
X286276Y6642D01*
X287282Y7058D01*
X288145Y7721D01*
X288808Y8585D01*
X289224Y9590D01*
X289366Y10669D01*
X289224Y11748D01*
X288808Y12754D01*
X288145Y13618D01*
X287282Y14280D01*
X286276Y14697D01*
X285197Y14839D01*
D02*
G37*
%LPD*%
G36*
X186221Y129921D02*
X186221Y124409D01*
X198031Y112599D01*
Y102362D01*
X197638Y101969D01*
X172441D01*
X169685Y104724D01*
X169685Y128347D01*
X171260Y129921D01*
X186221Y129921D01*
D02*
G37*
G36*
X363131Y111312D02*
X363295Y111277D01*
X363449Y111235D01*
X363595Y111183D01*
X363732Y111123D01*
X363861Y111060D01*
X363976Y110994D01*
X364081Y110928D01*
X364175Y110865D01*
X364259Y110802D01*
X364328Y110743D01*
X364388Y110694D01*
X364433Y110649D01*
X364468Y110617D01*
X364489Y110596D01*
X364492Y110593D01*
X364496Y110589D01*
X364600Y110460D01*
X364691Y110327D01*
X364768Y110191D01*
X364838Y110052D01*
X364894Y109912D01*
X364943Y109776D01*
X364981Y109640D01*
X365012Y109514D01*
X365037Y109392D01*
X365054Y109281D01*
X365068Y109183D01*
X365072Y109137D01*
X365075Y109099D01*
X365079Y109061D01*
X365082Y109029D01*
Y108998D01*
X365086Y108977D01*
Y108932D01*
X365082Y108830D01*
X365079Y108729D01*
X365068Y108631D01*
X365058Y108537D01*
X365023Y108352D01*
X364978Y108181D01*
X364925Y108021D01*
X364869Y107871D01*
X364806Y107731D01*
X364740Y107605D01*
X364677Y107494D01*
X364615Y107392D01*
X364587Y107347D01*
X364559Y107309D01*
X364531Y107270D01*
X364506Y107235D01*
X364482Y107208D01*
X364461Y107179D01*
X364443Y107159D01*
X364426Y107138D01*
X364416Y107124D01*
X364405Y107113D01*
X364402Y107110D01*
X364398Y107106D01*
X364332Y107040D01*
X364265Y106977D01*
X364199Y106921D01*
X364129Y106866D01*
X364060Y106817D01*
X363986Y106771D01*
X363847Y106687D01*
X363704Y106618D01*
X363564Y106558D01*
X363431Y106509D01*
X363302Y106471D01*
X363180Y106440D01*
X363068Y106419D01*
X362971Y106401D01*
X362925Y106398D01*
X362883Y106391D01*
X362849Y106387D01*
X362814Y106384D01*
X362786D01*
X362765Y106380D01*
X362744D01*
X362730D01*
X362723D01*
X362719D01*
X362583Y106384D01*
X362458Y106398D01*
X362335Y106415D01*
X362220Y106440D01*
X362112Y106468D01*
X362011Y106499D01*
X361920Y106530D01*
X361837Y106565D01*
X361760Y106600D01*
X361693Y106635D01*
X361637Y106667D01*
X361589Y106694D01*
X361550Y106719D01*
X361522Y106736D01*
X361508Y106750D01*
X361501Y106754D01*
X361414Y106827D01*
X361334Y106904D01*
X361261Y106988D01*
X361194Y107071D01*
X361135Y107159D01*
X361083Y107246D01*
X361037Y107333D01*
X360995Y107413D01*
X360961Y107494D01*
X360932Y107563D01*
X360908Y107630D01*
X360887Y107686D01*
X360873Y107731D01*
X360863Y107766D01*
X360859Y107780D01*
Y107790D01*
X360856Y107794D01*
Y107797D01*
X360810Y107703D01*
X360761Y107616D01*
X360709Y107532D01*
X360657Y107459D01*
X360601Y107389D01*
X360549Y107323D01*
X360496Y107267D01*
X360447Y107214D01*
X360399Y107169D01*
X360357Y107131D01*
X360318Y107096D01*
X360283Y107068D01*
X360256Y107047D01*
X360234Y107029D01*
X360221Y107023D01*
X360217Y107019D01*
X360140Y106974D01*
X360064Y106932D01*
X359983Y106897D01*
X359907Y106866D01*
X359830Y106841D01*
X359756Y106820D01*
X359687Y106799D01*
X359617Y106785D01*
X359558Y106775D01*
X359498Y106768D01*
X359449Y106761D01*
X359407Y106757D01*
X359372Y106754D01*
X359345D01*
X359331D01*
X359324D01*
X359226Y106757D01*
X359132Y106764D01*
X359041Y106778D01*
X358954Y106796D01*
X358870Y106817D01*
X358790Y106841D01*
X358713Y106866D01*
X358643Y106890D01*
X358580Y106918D01*
X358521Y106942D01*
X358472Y106967D01*
X358430Y106988D01*
X358395Y107005D01*
X358371Y107019D01*
X358353Y107026D01*
X358350Y107029D01*
X358266Y107085D01*
X358186Y107141D01*
X358113Y107204D01*
X358043Y107270D01*
X357977Y107337D01*
X357917Y107403D01*
X357865Y107469D01*
X357812Y107532D01*
X357771Y107591D01*
X357732Y107647D01*
X357701Y107700D01*
X357673Y107741D01*
X357652Y107780D01*
X357634Y107804D01*
X357628Y107822D01*
X357624Y107829D01*
X357575Y107926D01*
X357537Y108028D01*
X357498Y108125D01*
X357467Y108227D01*
X357442Y108324D01*
X357422Y108419D01*
X357404Y108506D01*
X357390Y108593D01*
X357376Y108670D01*
X357369Y108743D01*
X357362Y108806D01*
X357359Y108862D01*
X357355Y108907D01*
Y108966D01*
X357362Y109131D01*
X357376Y109291D01*
X357404Y109441D01*
X357436Y109581D01*
X357474Y109713D01*
X357519Y109839D01*
X357565Y109951D01*
X357614Y110055D01*
X357662Y110150D01*
X357708Y110233D01*
X357753Y110303D01*
X357792Y110362D01*
X357823Y110408D01*
X357851Y110443D01*
X357865Y110464D01*
X357872Y110467D01*
Y110471D01*
X357973Y110579D01*
X358081Y110677D01*
X358196Y110767D01*
X358315Y110847D01*
X358434Y110917D01*
X358556Y110980D01*
X358671Y111036D01*
X358786Y111085D01*
X358894Y111127D01*
X358996Y111158D01*
X359086Y111186D01*
X359163Y111211D01*
X359198Y111217D01*
X359226Y111224D01*
X359254Y111231D01*
X359275Y111238D01*
X359292Y111242D01*
X359306D01*
X359313Y111245D01*
X359317D01*
X359484Y110314D01*
X359362Y110293D01*
X359243Y110265D01*
X359139Y110233D01*
X359037Y110198D01*
X358947Y110163D01*
X358863Y110122D01*
X358786Y110083D01*
X358716Y110045D01*
X358657Y110006D01*
X358605Y109972D01*
X358563Y109940D01*
X358524Y109912D01*
X358496Y109888D01*
X358479Y109867D01*
X358465Y109856D01*
X358462Y109853D01*
X358402Y109783D01*
X358350Y109710D01*
X358305Y109633D01*
X358263Y109560D01*
X358231Y109483D01*
X358203Y109406D01*
X358179Y109333D01*
X358161Y109263D01*
X358148Y109200D01*
X358137Y109137D01*
X358130Y109085D01*
X358123Y109040D01*
Y109001D01*
X358120Y108973D01*
Y108949D01*
X358123Y108848D01*
X358134Y108754D01*
X358151Y108663D01*
X358172Y108579D01*
X358196Y108499D01*
X358228Y108425D01*
X358256Y108359D01*
X358287Y108296D01*
X358322Y108240D01*
X358350Y108195D01*
X358378Y108153D01*
X358406Y108118D01*
X358427Y108090D01*
X358444Y108073D01*
X358455Y108059D01*
X358458Y108055D01*
X358524Y107996D01*
X358591Y107940D01*
X358661Y107895D01*
X358730Y107857D01*
X358804Y107822D01*
X358874Y107794D01*
X358940Y107773D01*
X359006Y107752D01*
X359069Y107738D01*
X359125Y107728D01*
X359174Y107720D01*
X359219Y107717D01*
X359254Y107713D01*
X359282Y107710D01*
X359296D01*
X359303D01*
X359421Y107713D01*
X359530Y107731D01*
X359631Y107755D01*
X359725Y107783D01*
X359809Y107822D01*
X359889Y107860D01*
X359959Y107902D01*
X360022Y107947D01*
X360078Y107993D01*
X360126Y108035D01*
X360168Y108073D01*
X360200Y108111D01*
X360228Y108139D01*
X360245Y108164D01*
X360256Y108178D01*
X360259Y108185D01*
X360311Y108275D01*
X360360Y108366D01*
X360402Y108460D01*
X360437Y108551D01*
X360465Y108642D01*
X360489Y108733D01*
X360510Y108816D01*
X360528Y108897D01*
X360542Y108970D01*
X360549Y109040D01*
X360556Y109099D01*
X360563Y109151D01*
Y109193D01*
X360566Y109225D01*
Y109274D01*
X360563Y109298D01*
X360559Y109347D01*
Y109371D01*
X360556Y109385D01*
Y109403D01*
X361372Y109504D01*
X361337Y109364D01*
X361323Y109298D01*
X361313Y109235D01*
X361302Y109179D01*
X361292Y109124D01*
X361285Y109075D01*
X361282Y109029D01*
X361275Y108987D01*
Y108952D01*
X361271Y108921D01*
X361268Y108897D01*
Y108848D01*
X361271Y108729D01*
X361285Y108617D01*
X361306Y108513D01*
X361334Y108412D01*
X361365Y108317D01*
X361400Y108230D01*
X361439Y108150D01*
X361477Y108077D01*
X361515Y108010D01*
X361554Y107954D01*
X361589Y107902D01*
X361620Y107864D01*
X361648Y107829D01*
X361669Y107804D01*
X361683Y107790D01*
X361686Y107787D01*
X361767Y107713D01*
X361850Y107647D01*
X361938Y107591D01*
X362025Y107546D01*
X362116Y107504D01*
X362203Y107469D01*
X362287Y107441D01*
X362370Y107420D01*
X362447Y107403D01*
X362517Y107389D01*
X362580Y107382D01*
X362636Y107375D01*
X362678Y107371D01*
X362712Y107368D01*
X362733D01*
X362737D01*
X362740D01*
X362862Y107371D01*
X362981Y107389D01*
X363093Y107410D01*
X363198Y107438D01*
X363299Y107473D01*
X363393Y107511D01*
X363477Y107553D01*
X363554Y107595D01*
X363627Y107637D01*
X363686Y107679D01*
X363742Y107717D01*
X363784Y107752D01*
X363822Y107780D01*
X363847Y107801D01*
X363861Y107818D01*
X363868Y107822D01*
X363948Y107909D01*
X364018Y108000D01*
X364077Y108090D01*
X364129Y108185D01*
X364175Y108279D01*
X364210Y108370D01*
X364241Y108457D01*
X364265Y108544D01*
X364283Y108624D01*
X364297Y108698D01*
X364307Y108760D01*
X364314Y108820D01*
X364318Y108865D01*
X364321Y108900D01*
Y108928D01*
X364318Y109029D01*
X364307Y109127D01*
X364290Y109218D01*
X364265Y109305D01*
X364241Y109389D01*
X364210Y109466D01*
X364178Y109539D01*
X364147Y109602D01*
X364115Y109661D01*
X364084Y109713D01*
X364053Y109759D01*
X364028Y109794D01*
X364004Y109825D01*
X363986Y109846D01*
X363976Y109860D01*
X363972Y109863D01*
X363902Y109933D01*
X363822Y109996D01*
X363738Y110055D01*
X363648Y110111D01*
X363554Y110160D01*
X363459Y110205D01*
X363365Y110244D01*
X363271Y110279D01*
X363184Y110310D01*
X363103Y110338D01*
X363026Y110359D01*
X362964Y110376D01*
X362908Y110390D01*
X362887Y110397D01*
X362870Y110401D01*
X362856Y110404D01*
X362845D01*
X362838Y110408D01*
X362835D01*
X362957Y111336D01*
X363131Y111312D01*
D02*
G37*
%LPC*%
G36*
X158465Y272081D02*
X157075Y271945D01*
X155739Y271539D01*
X154508Y270881D01*
X153429Y269996D01*
X152544Y268917D01*
X151886Y267686D01*
X151480Y266350D01*
X151344Y264961D01*
X151480Y263571D01*
X151886Y262235D01*
X152544Y261004D01*
X153429Y259925D01*
X154508Y259040D01*
X155739Y258382D01*
X157075Y257976D01*
X158465Y257840D01*
X159854Y257976D01*
X161190Y258382D01*
X162421Y259040D01*
X163500Y259925D01*
X164385Y261004D01*
X165043Y262235D01*
X165449Y263571D01*
X165585Y264961D01*
X165449Y266350D01*
X165043Y267686D01*
X164385Y268917D01*
X163500Y269996D01*
X162421Y270881D01*
X161190Y271539D01*
X159854Y271945D01*
X158465Y272081D01*
D02*
G37*
G36*
X71850Y272081D02*
X70461Y271944D01*
X69125Y271539D01*
X67894Y270881D01*
X66815Y269996D01*
X65930Y268917D01*
X65272Y267686D01*
X64866Y266350D01*
X64729Y264961D01*
X64866Y263571D01*
X65272Y262235D01*
X65930Y261004D01*
X66815Y259925D01*
X67894Y259040D01*
X69125Y258382D01*
X70461Y257976D01*
X71850Y257840D01*
X73240Y257976D01*
X74576Y258382D01*
X75807Y259040D01*
X76886Y259925D01*
X77771Y261004D01*
X78429Y262235D01*
X78834Y263571D01*
X78971Y264961D01*
X78834Y266350D01*
X78429Y267686D01*
X77771Y268917D01*
X76886Y269996D01*
X75807Y270881D01*
X74576Y271539D01*
X73240Y271944D01*
X71850Y272081D01*
D02*
G37*
G36*
X98425Y261367D02*
X97465Y261176D01*
X96651Y260632D01*
X96107Y259818D01*
X95916Y258858D01*
X96107Y257898D01*
X96651Y257084D01*
X97465Y256540D01*
X98425Y256349D01*
X99385Y256540D01*
X100199Y257084D01*
X100743Y257898D01*
X100934Y258858D01*
X100743Y259818D01*
X100199Y260632D01*
X99385Y261176D01*
X98425Y261367D01*
D02*
G37*
G36*
X71850Y251844D02*
X70864Y251714D01*
X69944Y251333D01*
X69785Y251211D01*
X71850Y249145D01*
X73916Y251210D01*
X73756Y251333D01*
X72837Y251714D01*
X71850Y251844D01*
D02*
G37*
G36*
X158465Y251844D02*
X157478Y251714D01*
X156559Y251333D01*
X156399Y251211D01*
X158465Y249145D01*
X160530Y251211D01*
X160371Y251333D01*
X159451Y251714D01*
X158465Y251844D01*
D02*
G37*
G36*
X75029Y250097D02*
X72964Y248031D01*
X75029Y245966D01*
X75152Y246125D01*
X75533Y247045D01*
X75662Y248031D01*
X75533Y249018D01*
X75152Y249938D01*
X75029Y250097D01*
D02*
G37*
G36*
X155286Y250097D02*
X155163Y249938D01*
X154782Y249018D01*
X154652Y248031D01*
X154782Y247045D01*
X155163Y246125D01*
X155286Y245966D01*
X157351Y248031D01*
X155286Y250097D01*
D02*
G37*
G36*
X161644D02*
X159578Y248031D01*
X161644Y245966D01*
X161766Y246125D01*
X162147Y247045D01*
X162277Y248031D01*
X162147Y249018D01*
X161766Y249938D01*
X161644Y250097D01*
D02*
G37*
G36*
X68671Y250097D02*
X68549Y249938D01*
X68168Y249018D01*
X68038Y248031D01*
X68168Y247045D01*
X68549Y246125D01*
X68671Y245966D01*
X70737Y248031D01*
X68671Y250097D01*
D02*
G37*
G36*
X115157Y245218D02*
X114351Y245057D01*
X113667Y244600D01*
X113490Y244335D01*
X112888D01*
X112711Y244600D01*
X112027Y245057D01*
X111221Y245218D01*
X110414Y245057D01*
X110398Y245046D01*
X111777Y243667D01*
X111221Y243110D01*
X111777Y242553D01*
X110398Y241174D01*
X110414Y241163D01*
X110795Y241087D01*
X111216Y240971D01*
X111159Y240544D01*
X111082Y240158D01*
X111159Y239771D01*
X111216Y239344D01*
X110795Y239228D01*
X110414Y239152D01*
X110398Y239141D01*
X111777Y237761D01*
X111221Y237205D01*
X111777Y236648D01*
X110398Y235268D01*
X110414Y235258D01*
X111221Y235097D01*
X112027Y235258D01*
X112711Y235715D01*
X112888Y235980D01*
X113490D01*
X113667Y235715D01*
X114351Y235258D01*
X115157Y235097D01*
X115964Y235258D01*
X115980Y235268D01*
X114601Y236648D01*
X115157Y237205D01*
X114601Y237761D01*
X115980Y239141D01*
X115964Y239152D01*
X115582Y239228D01*
X115162Y239344D01*
X115219Y239771D01*
X115296Y240158D01*
X115219Y240544D01*
X115162Y240971D01*
X115582Y241087D01*
X115964Y241163D01*
X115980Y241174D01*
X114601Y242553D01*
X115157Y243110D01*
X114601Y243667D01*
X115980Y245046D01*
X115964Y245057D01*
X115157Y245218D01*
D02*
G37*
G36*
X158465Y246918D02*
X156399Y244852D01*
X156559Y244730D01*
X157478Y244349D01*
X158465Y244219D01*
X159451Y244349D01*
X160371Y244730D01*
X160530Y244852D01*
X158465Y246918D01*
D02*
G37*
G36*
X71850Y246918D02*
X69785Y244852D01*
X69944Y244730D01*
X70864Y244349D01*
X71850Y244219D01*
X72837Y244349D01*
X73756Y244730D01*
X73916Y244852D01*
X71850Y246918D01*
D02*
G37*
G36*
X150827Y252205D02*
X142480D01*
Y243858D01*
X150827D01*
Y252205D01*
D02*
G37*
G36*
X64213Y252205D02*
X55866D01*
Y243858D01*
X64213D01*
Y252205D01*
D02*
G37*
G36*
X83661Y252241D02*
X82572Y252097D01*
X81557Y251677D01*
X80685Y251008D01*
X80016Y250136D01*
X79596Y249121D01*
X79452Y248031D01*
X79596Y246942D01*
X80016Y245927D01*
X80685Y245055D01*
X81557Y244386D01*
X82572Y243966D01*
X83661Y243822D01*
X84751Y243966D01*
X85766Y244386D01*
X86638Y245055D01*
X87307Y245927D01*
X87727Y246942D01*
X87871Y248031D01*
X87727Y249121D01*
X87307Y250136D01*
X86638Y251008D01*
X85766Y251677D01*
X84751Y252097D01*
X83661Y252241D01*
D02*
G37*
G36*
X117094Y243933D02*
X116271Y243110D01*
X117094Y242288D01*
X117104Y242304D01*
X117265Y243110D01*
X117104Y243917D01*
X117094Y243933D01*
D02*
G37*
G36*
X109284Y243933D02*
X109274Y243917D01*
X109113Y243110D01*
X109274Y242304D01*
X109284Y242288D01*
X110107Y243110D01*
X109284Y243933D01*
D02*
G37*
G36*
X123031Y244635D02*
X122071Y244444D01*
X121257Y243900D01*
X120714Y243086D01*
X120523Y242126D01*
X120714Y241166D01*
X121257Y240352D01*
X122071Y239808D01*
X123031Y239617D01*
X123992Y239808D01*
X124805Y240352D01*
X125349Y241166D01*
X125540Y242126D01*
X125349Y243086D01*
X124805Y243900D01*
X123992Y244444D01*
X123031Y244635D01*
D02*
G37*
G36*
X103347Y242666D02*
X102386Y242475D01*
X101573Y241932D01*
X101029Y241118D01*
X100838Y240158D01*
X101029Y239197D01*
X101573Y238384D01*
X102386Y237840D01*
X103347Y237649D01*
X104307Y237840D01*
X105121Y238384D01*
X105664Y239197D01*
X105855Y240158D01*
X105664Y241118D01*
X105121Y241932D01*
X104307Y242475D01*
X103347Y242666D01*
D02*
G37*
G36*
X117094Y238027D02*
X116271Y237205D01*
X117094Y236382D01*
X117104Y236398D01*
X117265Y237205D01*
X117104Y238011D01*
X117094Y238027D01*
D02*
G37*
G36*
X109284D02*
X109274Y238011D01*
X109113Y237205D01*
X109274Y236398D01*
X109284Y236382D01*
X110107Y237205D01*
X109284Y238027D01*
D02*
G37*
G36*
X158465Y240430D02*
X157375Y240286D01*
X156360Y239866D01*
X155488Y239197D01*
X154819Y238325D01*
X154399Y237310D01*
X154255Y236221D01*
X154399Y235131D01*
X154819Y234116D01*
X155488Y233244D01*
X156360Y232575D01*
X157375Y232155D01*
X158465Y232011D01*
X159554Y232155D01*
X160569Y232575D01*
X161441Y233244D01*
X162110Y234116D01*
X162530Y235131D01*
X162674Y236221D01*
X162530Y237310D01*
X162110Y238325D01*
X161441Y239197D01*
X160569Y239866D01*
X159554Y240286D01*
X158465Y240430D01*
D02*
G37*
G36*
X146654D02*
X145564Y240286D01*
X144549Y239866D01*
X143677Y239197D01*
X143008Y238325D01*
X142588Y237310D01*
X142444Y236221D01*
X142588Y235131D01*
X143008Y234116D01*
X143677Y233244D01*
X144549Y232575D01*
X145564Y232155D01*
X146654Y232011D01*
X147743Y232155D01*
X148758Y232575D01*
X149630Y233244D01*
X150299Y234116D01*
X150719Y235131D01*
X150863Y236221D01*
X150719Y237310D01*
X150299Y238325D01*
X149630Y239197D01*
X148758Y239866D01*
X147743Y240286D01*
X146654Y240430D01*
D02*
G37*
G36*
X83661Y240430D02*
X82572Y240286D01*
X81557Y239866D01*
X80685Y239197D01*
X80016Y238325D01*
X79596Y237310D01*
X79452Y236221D01*
X79596Y235131D01*
X80016Y234116D01*
X80685Y233244D01*
X81557Y232575D01*
X82572Y232155D01*
X83661Y232011D01*
X84751Y232155D01*
X85766Y232575D01*
X86638Y233244D01*
X87307Y234116D01*
X87727Y235131D01*
X87871Y236221D01*
X87727Y237310D01*
X87307Y238325D01*
X86638Y239197D01*
X85766Y239866D01*
X84751Y240286D01*
X83661Y240430D01*
D02*
G37*
G36*
X71850D02*
X70761Y240286D01*
X69746Y239866D01*
X68874Y239197D01*
X68205Y238325D01*
X67785Y237310D01*
X67641Y236221D01*
X67785Y235131D01*
X68205Y234116D01*
X68874Y233244D01*
X69746Y232575D01*
X70761Y232155D01*
X71850Y232011D01*
X72940Y232155D01*
X73955Y232575D01*
X74827Y233244D01*
X75496Y234116D01*
X75916Y235131D01*
X76060Y236221D01*
X75916Y237310D01*
X75496Y238325D01*
X74827Y239197D01*
X73955Y239866D01*
X72940Y240286D01*
X71850Y240430D01*
D02*
G37*
G36*
X60039D02*
X58950Y240286D01*
X57935Y239866D01*
X57063Y239197D01*
X56394Y238325D01*
X55974Y237310D01*
X55830Y236221D01*
X55974Y235131D01*
X56394Y234116D01*
X57063Y233244D01*
X57935Y232575D01*
X58950Y232155D01*
X60039Y232011D01*
X61129Y232155D01*
X62144Y232575D01*
X63016Y233244D01*
X63685Y234116D01*
X64105Y235131D01*
X64249Y236221D01*
X64105Y237310D01*
X63685Y238325D01*
X63016Y239197D01*
X62144Y239866D01*
X61129Y240286D01*
X60039Y240430D01*
D02*
G37*
%LPD*%
D46*
X196850Y102362D02*
Y109843D01*
X212598Y102362D02*
Y109843D01*
X204724Y102362D02*
Y109843D01*
D49*
X351929Y62795D02*
D03*
Y212795D02*
D03*
D51*
X285197Y20669D02*
D03*
X315197D02*
D03*
D52*
X158465Y248031D02*
D03*
X71850Y248031D02*
D03*
D55*
X111221Y237205D02*
D03*
X115157D02*
D03*
Y243110D02*
D03*
X111221D02*
D03*
X96063Y187205D02*
D03*
X100000D02*
D03*
Y181299D02*
D03*
X96063D02*
D03*
X123031Y235236D02*
D03*
X196850Y104921D02*
D03*
Y110039D02*
D03*
X212598D02*
D03*
Y104921D02*
D03*
X204724Y110039D02*
D03*
Y107480D02*
D03*
Y104921D02*
D03*
X83268Y87402D02*
D03*
X95079D02*
D03*
Y99213D02*
D03*
X83268D02*
D03*
X54841Y108957D02*
D03*
X58268Y119291D02*
D03*
X54331Y103543D02*
D03*
X67323Y70866D02*
D03*
X115354Y51772D02*
D03*
X96555Y52255D02*
D03*
X212598Y107480D02*
D03*
X196850D02*
D03*
Y102362D02*
D03*
X168898Y196850D02*
D03*
X157087Y166929D02*
D03*
X150787D02*
D03*
X144095D02*
D03*
X142913Y159449D02*
D03*
X122047Y176378D02*
D03*
X95276Y134252D02*
D03*
X126772Y88189D02*
D03*
Y94095D02*
D03*
X191339Y38976D02*
D03*
X142520Y107480D02*
D03*
X7874Y182677D02*
D03*
Y155118D02*
D03*
X14567Y101575D02*
D03*
X7874Y127559D02*
D03*
X25197Y104331D02*
D03*
X186221Y211024D02*
D03*
X137402Y187402D02*
D03*
Y179528D02*
D03*
Y171653D02*
D03*
X54331Y161024D02*
D03*
X64173Y143307D02*
D03*
X277165Y259842D02*
D03*
Y256693D02*
D03*
X274016D02*
D03*
Y250394D02*
D03*
Y253543D02*
D03*
X277165Y250394D02*
D03*
Y253543D02*
D03*
X274016Y247244D02*
D03*
X277165Y244094D02*
D03*
Y247244D02*
D03*
X283465Y259842D02*
D03*
Y256693D02*
D03*
X280315Y259842D02*
D03*
Y256693D02*
D03*
Y250394D02*
D03*
Y253543D02*
D03*
X283465Y250394D02*
D03*
Y253543D02*
D03*
X280315Y244094D02*
D03*
Y247244D02*
D03*
X283465Y244094D02*
D03*
Y247244D02*
D03*
X289764Y247244D02*
D03*
Y244094D02*
D03*
X286614Y247244D02*
D03*
Y244094D02*
D03*
X289764Y253543D02*
D03*
Y250394D02*
D03*
X286614Y253543D02*
D03*
Y250394D02*
D03*
Y256693D02*
D03*
Y259842D02*
D03*
X289764Y256693D02*
D03*
X226378Y208268D02*
D03*
X104278Y158870D02*
D03*
X235039Y99606D02*
D03*
X179921Y164173D02*
D03*
X174016Y162598D02*
D03*
X260630Y13386D02*
D03*
X171654Y90945D02*
D03*
Y87795D02*
D03*
X126772Y76378D02*
D03*
X123622Y64173D02*
D03*
X112205Y104724D02*
D03*
X71260Y53150D02*
D03*
X72835Y56693D02*
D03*
X88976Y56693D02*
D03*
X94291D02*
D03*
X118504Y36614D02*
D03*
X116732Y134627D02*
D03*
X81102Y23228D02*
D03*
X49606Y11024D02*
D03*
Y23622D02*
D03*
X62992Y23228D02*
D03*
X67716D02*
D03*
X81102Y11417D02*
D03*
X226378Y163386D02*
D03*
Y159449D02*
D03*
Y155512D02*
D03*
X230315Y163386D02*
D03*
Y159449D02*
D03*
Y155512D02*
D03*
Y167323D02*
D03*
X226378D02*
D03*
X164961Y55905D02*
D03*
X177953D02*
D03*
X178347Y110630D02*
D03*
X179528Y124016D02*
D03*
X186221Y155118D02*
D03*
X152559Y194095D02*
D03*
X199213Y261024D02*
D03*
X156693Y207087D02*
D03*
X159646D02*
D03*
X138976Y148819D02*
D03*
X105512Y113779D02*
D03*
X77559Y197638D02*
D03*
Y192126D02*
D03*
X35827Y170079D02*
D03*
X7087Y78347D02*
D03*
Y84252D02*
D03*
Y90158D02*
D03*
X31496Y87008D02*
D03*
X35433Y91732D02*
D03*
X7874Y209842D02*
D03*
X133071Y113779D02*
D03*
X122047Y183071D02*
D03*
Y188976D02*
D03*
X37795Y77165D02*
D03*
X53543Y79528D02*
D03*
X50787Y75591D02*
D03*
X126772Y82284D02*
D03*
X58651Y38572D02*
D03*
X91285Y257928D02*
D03*
X57874Y206693D02*
D03*
X78347Y213779D02*
D03*
X131496Y37008D02*
D03*
X70079Y123622D02*
D03*
X126772Y100000D02*
D03*
X47244Y202756D02*
D03*
X132874Y239173D02*
D03*
X128937Y260827D02*
D03*
X168307Y265748D02*
D03*
X144685Y194095D02*
D03*
X137402Y183465D02*
D03*
Y175591D02*
D03*
X190945Y167323D02*
D03*
X194882D02*
D03*
X198819D02*
D03*
X202756D02*
D03*
X206693D02*
D03*
X210630D02*
D03*
X214567D02*
D03*
X218504D02*
D03*
X222441D02*
D03*
X204724Y82677D02*
D03*
X200787D02*
D03*
X196850D02*
D03*
Y78740D02*
D03*
Y74803D02*
D03*
Y70866D02*
D03*
X222441Y155512D02*
D03*
Y159449D02*
D03*
Y163386D02*
D03*
X218504Y155512D02*
D03*
Y159449D02*
D03*
Y163386D02*
D03*
X214567Y155512D02*
D03*
Y159449D02*
D03*
Y163386D02*
D03*
X210630Y155512D02*
D03*
Y159449D02*
D03*
Y163386D02*
D03*
X206693Y155512D02*
D03*
Y159449D02*
D03*
Y163386D02*
D03*
X202756Y155512D02*
D03*
Y159449D02*
D03*
Y163386D02*
D03*
X198819Y155512D02*
D03*
Y159449D02*
D03*
Y163386D02*
D03*
X194882Y155512D02*
D03*
Y159449D02*
D03*
Y163386D02*
D03*
X190945Y155512D02*
D03*
Y159449D02*
D03*
Y163386D02*
D03*
X212598Y102362D02*
D03*
X204724D02*
D03*
X200787Y78740D02*
D03*
Y70866D02*
D03*
Y74803D02*
D03*
X220473Y66929D02*
D03*
Y70866D02*
D03*
Y74803D02*
D03*
X216535Y70866D02*
D03*
Y74803D02*
D03*
Y78740D02*
D03*
X204724Y70866D02*
D03*
Y74803D02*
D03*
Y78740D02*
D03*
X212598Y70866D02*
D03*
Y74803D02*
D03*
Y78740D02*
D03*
X208661D02*
D03*
Y74803D02*
D03*
Y70866D02*
D03*
D56*
X207756Y240905D02*
D03*
D59*
X14173Y54724D02*
D03*
X47244D02*
D03*
D60*
X37008Y51575D02*
D03*
D63*
X245079Y183071D02*
D03*
X279528Y124016D02*
D03*
Y84646D02*
D03*
X245079Y143701D02*
D03*
X279528Y163386D02*
D03*
X245079Y104331D02*
D03*
M02*
