G04*
G04 #@! TF.GenerationSoftware,Altium Limited,Altium Designer,20.2.4 (192)*
G04*
G04 Layer_Color=65535*
%FSLAX25Y25*%
%MOIN*%
G70*
G04*
G04 #@! TF.SameCoordinates,632904D4-FBC6-4040-AE52-8F74E4E9F4E0*
G04*
G04*
G04 #@! TF.FilePolarity,Positive*
G04*
G01*
G75*
%ADD10C,0.00984*%
%ADD11C,0.00787*%
%ADD12C,0.00500*%
%ADD13C,0.01000*%
%ADD14C,0.00394*%
%ADD15C,0.00600*%
G36*
X357452Y132727D02*
X360779D01*
Y132228D01*
X357452D01*
Y130986D01*
X357007D01*
Y133975D01*
X357452D01*
Y132727D01*
D02*
G37*
G36*
X363546Y134282D02*
X363566D01*
X363588Y134280D01*
X363611Y134279D01*
X363637Y134277D01*
X363667Y134275D01*
X363696Y134272D01*
X363729Y134268D01*
X363762Y134265D01*
X363835Y134254D01*
X363912Y134242D01*
X363994Y134228D01*
X364079Y134209D01*
X364168Y134186D01*
X364256Y134160D01*
X364345Y134129D01*
X364432Y134092D01*
X364519Y134052D01*
X364521D01*
X364524Y134049D01*
X364531Y134047D01*
X364538Y134042D01*
X364550Y134035D01*
X364563Y134028D01*
X364577Y134019D01*
X364594Y134009D01*
X364631Y133986D01*
X364674Y133957D01*
X364723Y133924D01*
X364775Y133884D01*
X364829Y133840D01*
X364884Y133791D01*
X364942Y133737D01*
X364998Y133678D01*
X365053Y133614D01*
X365107Y133546D01*
X365158Y133473D01*
X365203Y133396D01*
Y133395D01*
X365205Y133391D01*
X365208Y133386D01*
X365213Y133377D01*
X365219Y133367D01*
X365224Y133355D01*
X365231Y133339D01*
X365240Y133323D01*
X365248Y133304D01*
X365257Y133283D01*
X365266Y133261D01*
X365276Y133236D01*
X365297Y133182D01*
X365318Y133123D01*
X365340Y133057D01*
X365361Y132986D01*
X365380Y132911D01*
X365398Y132831D01*
X365413Y132747D01*
X365424Y132662D01*
X365431Y132572D01*
X365434Y132481D01*
Y132457D01*
X365433Y132445D01*
Y132429D01*
X365431Y132412D01*
Y132391D01*
X365429Y132370D01*
X365426Y132345D01*
X365424Y132319D01*
X365421Y132290D01*
X365413Y132229D01*
X365403Y132163D01*
X365389Y132090D01*
X365372Y132015D01*
X365351Y131935D01*
X365326Y131855D01*
X365297Y131771D01*
X365262Y131690D01*
X365224Y131608D01*
X365179Y131528D01*
Y131526D01*
X365175Y131522D01*
X365172Y131517D01*
X365166Y131509D01*
X365160Y131500D01*
X365153Y131488D01*
X365142Y131474D01*
X365132Y131458D01*
X365106Y131423D01*
X365074Y131383D01*
X365038Y131340D01*
X364994Y131291D01*
X364947Y131240D01*
X364895Y131188D01*
X364838Y131136D01*
X364775Y131082D01*
X364707Y131032D01*
X364636Y130981D01*
X364559Y130936D01*
X364477Y130893D01*
X364476D01*
X364472Y130891D01*
X364465Y130887D01*
X364457Y130884D01*
X364446Y130879D01*
X364432Y130873D01*
X364418Y130866D01*
X364399Y130859D01*
X364380Y130851D01*
X364359Y130842D01*
X364335Y130833D01*
X364310Y130825D01*
X364282Y130814D01*
X364255Y130806D01*
X364192Y130785D01*
X364124Y130764D01*
X364051Y130745D01*
X363973Y130727D01*
X363891Y130710D01*
X363806Y130696D01*
X363717Y130685D01*
X363627Y130678D01*
X363534Y130677D01*
X363531D01*
X363524D01*
X363510D01*
X363492Y130678D01*
X363470D01*
X363444Y130680D01*
X363414Y130682D01*
X363379Y130685D01*
X363341Y130687D01*
X363301Y130692D01*
X363256Y130698D01*
X363209Y130703D01*
X363160Y130710D01*
X363108Y130719D01*
X363054Y130729D01*
X362998Y130739D01*
X362883Y130767D01*
X362824Y130783D01*
X362764Y130800D01*
X362703Y130819D01*
X362642Y130840D01*
X362581Y130865D01*
X362520Y130889D01*
X362459Y130917D01*
X362398Y130948D01*
X362339Y130980D01*
X362281Y131014D01*
X362224Y131053D01*
X362170Y131093D01*
X362116Y131136D01*
X362066Y131181D01*
X362064Y131183D01*
X362060Y131187D01*
X362052Y131195D01*
X362043Y131204D01*
X362031Y131218D01*
X362017Y131234D01*
X362000Y131251D01*
X361982Y131274D01*
X361963Y131296D01*
X361942Y131322D01*
X361920Y131352D01*
X361897Y131383D01*
X361873Y131416D01*
X361850Y131453D01*
X361824Y131493D01*
X361800Y131533D01*
X361775Y131576D01*
X361749Y131623D01*
X361725Y131670D01*
X361702Y131721D01*
X361680Y131773D01*
X361657Y131829D01*
X361636Y131884D01*
X361617Y131944D01*
X361598Y132004D01*
X361582Y132067D01*
X361568Y132131D01*
X361556Y132197D01*
X361547Y132267D01*
X361539Y132337D01*
X361535Y132410D01*
X361533Y132483D01*
Y132506D01*
X361535Y132519D01*
Y132551D01*
X361537Y132572D01*
X361539Y132592D01*
X361540Y132617D01*
X361544Y132643D01*
X361547Y132671D01*
X361554Y132730D01*
X361565Y132796D01*
X361578Y132867D01*
X361594Y132942D01*
X361615Y133021D01*
X361639Y133101D01*
X361667Y133182D01*
X361700Y133264D01*
X361740Y133344D01*
X361784Y133424D01*
Y133426D01*
X361787Y133430D01*
X361791Y133435D01*
X361796Y133443D01*
X361801Y133452D01*
X361810Y133464D01*
X361819Y133478D01*
X361829Y133494D01*
X361855Y133529D01*
X361887Y133569D01*
X361923Y133614D01*
X361965Y133663D01*
X362012Y133713D01*
X362062Y133765D01*
X362120Y133819D01*
X362182Y133871D01*
X362250Y133924D01*
X362321Y133974D01*
X362398Y134021D01*
X362480Y134065D01*
X362482D01*
X362485Y134066D01*
X362492Y134070D01*
X362501Y134073D01*
X362511Y134079D01*
X362525Y134085D01*
X362541Y134091D01*
X362558Y134099D01*
X362579Y134106D01*
X362600Y134115D01*
X362624Y134124D01*
X362650Y134134D01*
X362678Y134145D01*
X362708Y134153D01*
X362739Y134164D01*
X362774Y134174D01*
X362845Y134195D01*
X362922Y134214D01*
X363005Y134233D01*
X363094Y134249D01*
X363188Y134263D01*
X363285Y134275D01*
X363386Y134282D01*
X363491Y134284D01*
X363492D01*
X363498D01*
X363505D01*
X363517D01*
X363531D01*
X363546Y134282D01*
D02*
G37*
G36*
X23332Y196794D02*
X23363D01*
X23402Y196791D01*
X23444Y196787D01*
X23493Y196783D01*
X23541Y196780D01*
X23597Y196773D01*
X23657Y196766D01*
X23782Y196749D01*
X23918Y196724D01*
X24065Y196693D01*
X24218Y196658D01*
X24379Y196609D01*
X24540Y196553D01*
X24700Y196487D01*
X24861Y196410D01*
X25014Y196319D01*
X25164Y196218D01*
X25168D01*
X25175Y196211D01*
X25185Y196204D01*
X25199Y196190D01*
X25217Y196176D01*
X25238Y196159D01*
X25290Y196110D01*
X25353Y196051D01*
X25426Y195981D01*
X25506Y195894D01*
X25590Y195799D01*
X25677Y195688D01*
X25768Y195565D01*
X25859Y195433D01*
X25946Y195286D01*
X26030Y195129D01*
X26110Y194962D01*
X26180Y194784D01*
X26243Y194592D01*
X25259Y194361D01*
Y194365D01*
X25255Y194372D01*
X25252Y194382D01*
X25245Y194396D01*
X25238Y194417D01*
X25231Y194442D01*
X25210Y194498D01*
X25182Y194564D01*
X25147Y194641D01*
X25109Y194728D01*
X25063Y194822D01*
X25011Y194916D01*
X24955Y195018D01*
X24892Y195115D01*
X24822Y195217D01*
X24749Y195311D01*
X24669Y195402D01*
X24581Y195485D01*
X24491Y195562D01*
X24484Y195565D01*
X24466Y195580D01*
X24438Y195597D01*
X24400Y195621D01*
X24351Y195649D01*
X24292Y195681D01*
X24226Y195716D01*
X24145Y195750D01*
X24061Y195785D01*
X23964Y195820D01*
X23863Y195852D01*
X23751Y195880D01*
X23632Y195904D01*
X23507Y195922D01*
X23374Y195935D01*
X23234Y195939D01*
X23175D01*
X23151Y195935D01*
X23123D01*
X23088Y195932D01*
X23015Y195925D01*
X22927Y195918D01*
X22829Y195904D01*
X22725Y195887D01*
X22613Y195866D01*
X22494Y195838D01*
X22372Y195803D01*
X22250Y195761D01*
X22128Y195716D01*
X22006Y195660D01*
X21887Y195593D01*
X21776Y195520D01*
X21769Y195517D01*
X21751Y195503D01*
X21720Y195478D01*
X21681Y195443D01*
X21632Y195402D01*
X21577Y195353D01*
X21517Y195293D01*
X21454Y195223D01*
X21385Y195147D01*
X21318Y195063D01*
X21249Y194972D01*
X21182Y194871D01*
X21116Y194766D01*
X21057Y194651D01*
X21001Y194529D01*
X20952Y194400D01*
Y194396D01*
X20948Y194393D01*
X20945Y194382D01*
X20941Y194368D01*
X20938Y194351D01*
X20931Y194330D01*
X20913Y194278D01*
X20896Y194215D01*
X20879Y194138D01*
X20854Y194051D01*
X20833Y193953D01*
X20812Y193848D01*
X20791Y193733D01*
X20770Y193615D01*
X20753Y193489D01*
X20735Y193356D01*
X20725Y193224D01*
X20718Y193084D01*
X20715Y192945D01*
Y192941D01*
Y192934D01*
Y192920D01*
Y192903D01*
Y192878D01*
X20718Y192850D01*
Y192819D01*
Y192784D01*
X20722Y192742D01*
Y192700D01*
X20729Y192603D01*
X20739Y192491D01*
X20750Y192372D01*
X20764Y192243D01*
X20784Y192110D01*
X20805Y191971D01*
X20833Y191828D01*
X20865Y191681D01*
X20903Y191538D01*
X20945Y191398D01*
X20994Y191259D01*
Y191255D01*
X20997Y191252D01*
X21001Y191241D01*
X21008Y191227D01*
X21025Y191189D01*
X21046Y191140D01*
X21078Y191081D01*
X21116Y191011D01*
X21158Y190938D01*
X21210Y190854D01*
X21266Y190770D01*
X21332Y190680D01*
X21402Y190592D01*
X21482Y190501D01*
X21570Y190414D01*
X21660Y190334D01*
X21762Y190254D01*
X21870Y190184D01*
X21873D01*
X21877Y190180D01*
X21898Y190170D01*
X21929Y190153D01*
X21974Y190128D01*
X22030Y190100D01*
X22097Y190072D01*
X22170Y190041D01*
X22254Y190006D01*
X22348Y189974D01*
X22446Y189940D01*
X22554Y189912D01*
X22666Y189884D01*
X22781Y189859D01*
X22903Y189842D01*
X23029Y189831D01*
X23158Y189828D01*
X23196D01*
X23213Y189831D01*
X23266D01*
X23297Y189835D01*
X23370Y189842D01*
X23454Y189852D01*
X23549Y189870D01*
X23650Y189887D01*
X23761Y189915D01*
X23877Y189947D01*
X23992Y189985D01*
X24114Y190034D01*
X24232Y190090D01*
X24355Y190153D01*
X24470Y190229D01*
X24581Y190313D01*
X24588Y190320D01*
X24606Y190338D01*
X24637Y190365D01*
X24676Y190404D01*
X24725Y190456D01*
X24777Y190515D01*
X24836Y190592D01*
X24899Y190676D01*
X24965Y190770D01*
X25032Y190878D01*
X25095Y190997D01*
X25161Y191126D01*
X25220Y191266D01*
X25276Y191419D01*
X25328Y191580D01*
X25370Y191754D01*
X26372Y191500D01*
Y191496D01*
X26368Y191486D01*
X26365Y191468D01*
X26358Y191447D01*
X26347Y191416D01*
X26337Y191381D01*
X26327Y191343D01*
X26309Y191297D01*
X26292Y191248D01*
X26274Y191196D01*
X26253Y191137D01*
X26229Y191077D01*
X26176Y190945D01*
X26114Y190802D01*
X26040Y190655D01*
X25957Y190501D01*
X25866Y190345D01*
X25761Y190187D01*
X25646Y190034D01*
X25520Y189887D01*
X25384Y189751D01*
X25238Y189622D01*
X25234D01*
X25227Y189615D01*
X25217Y189605D01*
X25199Y189594D01*
X25178Y189580D01*
X25154Y189563D01*
X25126Y189542D01*
X25091Y189521D01*
X25053Y189496D01*
X25011Y189472D01*
X24965Y189444D01*
X24917Y189416D01*
X24864Y189388D01*
X24805Y189360D01*
X24746Y189329D01*
X24683Y189301D01*
X24543Y189238D01*
X24390Y189182D01*
X24226Y189126D01*
X24051Y189078D01*
X23863Y189036D01*
X23664Y189004D01*
X23454Y188983D01*
X23349Y188980D01*
X23238Y188976D01*
X23186D01*
X23154Y188980D01*
X23119D01*
X23081Y188983D01*
X23035D01*
X22987Y188987D01*
X22931Y188990D01*
X22871Y188997D01*
X22812Y189004D01*
X22676Y189018D01*
X22533Y189039D01*
X22376Y189064D01*
X22215Y189099D01*
X22051Y189137D01*
X21884Y189186D01*
X21716Y189242D01*
X21556Y189308D01*
X21399Y189385D01*
X21249Y189472D01*
X21245D01*
X21242Y189479D01*
X21231Y189486D01*
X21214Y189496D01*
X21196Y189507D01*
X21175Y189524D01*
X21123Y189563D01*
X21060Y189615D01*
X20987Y189678D01*
X20903Y189751D01*
X20816Y189838D01*
X20725Y189933D01*
X20627Y190041D01*
X20530Y190159D01*
X20435Y190289D01*
X20341Y190428D01*
X20247Y190578D01*
X20163Y190739D01*
X20083Y190910D01*
Y190913D01*
X20079Y190920D01*
X20072Y190934D01*
X20065Y190952D01*
X20055Y190976D01*
X20044Y191004D01*
X20034Y191039D01*
X20020Y191074D01*
X20006Y191116D01*
X19989Y191161D01*
X19975Y191214D01*
X19957Y191266D01*
X19940Y191325D01*
X19919Y191384D01*
X19884Y191517D01*
X19846Y191664D01*
X19807Y191821D01*
X19776Y191988D01*
X19744Y192166D01*
X19720Y192351D01*
X19699Y192543D01*
X19685Y192739D01*
X19681Y192941D01*
Y192945D01*
Y192955D01*
Y192972D01*
Y192993D01*
X19685Y193021D01*
Y193056D01*
Y193095D01*
X19689Y193140D01*
X19692Y193189D01*
X19695Y193241D01*
X19699Y193300D01*
X19706Y193363D01*
X19713Y193426D01*
X19720Y193496D01*
X19737Y193642D01*
X19762Y193800D01*
X19793Y193964D01*
X19828Y194135D01*
X19870Y194309D01*
X19922Y194487D01*
X19982Y194662D01*
X20052Y194836D01*
X20132Y195004D01*
Y195007D01*
X20139Y195014D01*
X20142Y195025D01*
X20153Y195042D01*
X20163Y195063D01*
X20181Y195087D01*
X20195Y195115D01*
X20215Y195147D01*
X20261Y195220D01*
X20320Y195307D01*
X20387Y195398D01*
X20463Y195499D01*
X20551Y195607D01*
X20645Y195716D01*
X20753Y195827D01*
X20868Y195939D01*
X20990Y196047D01*
X21126Y196152D01*
X21270Y196249D01*
X21420Y196340D01*
X21423D01*
X21430Y196347D01*
X21441Y196351D01*
X21458Y196361D01*
X21479Y196372D01*
X21503Y196382D01*
X21531Y196396D01*
X21566Y196414D01*
X21601Y196428D01*
X21643Y196445D01*
X21688Y196466D01*
X21737Y196483D01*
X21842Y196525D01*
X21960Y196571D01*
X22093Y196613D01*
X22233Y196654D01*
X22386Y196693D01*
X22547Y196728D01*
X22714Y196756D01*
X22889Y196776D01*
X23070Y196794D01*
X23255Y196798D01*
X23304D01*
X23332Y196794D01*
D02*
G37*
G36*
X40604Y189102D02*
X39578D01*
X35603Y195045D01*
Y189102D01*
X34643D01*
Y196668D01*
X35673D01*
X39644Y190725D01*
Y196668D01*
X40604D01*
Y189102D01*
D02*
G37*
G36*
X33854D02*
X32713D01*
X31830Y191392D01*
X28668D01*
X27838Y189102D01*
X26777D01*
X29680Y196668D01*
X30759D01*
X33854Y189102D01*
D02*
G37*
G36*
X103519Y152196D02*
X96721D01*
Y149401D01*
X103043D01*
Y147281D01*
X96721D01*
Y143853D01*
X103757D01*
Y141732D01*
X94177D01*
Y154328D01*
X103519D01*
Y152196D01*
D02*
G37*
G36*
X91783D02*
X84985D01*
Y149401D01*
X91306D01*
Y147281D01*
X84985D01*
Y143853D01*
X92021D01*
Y141732D01*
X82440D01*
Y154328D01*
X91783D01*
Y152196D01*
D02*
G37*
G36*
X75248Y154323D02*
X75445D01*
X75555Y154317D01*
X75788Y154311D01*
X76032Y154305D01*
X76288Y154294D01*
X76543Y154282D01*
X76799Y154264D01*
X77043Y154247D01*
X77270Y154224D01*
X77374Y154212D01*
X77479Y154200D01*
X77572Y154183D01*
X77659Y154172D01*
X77740Y154154D01*
X77810Y154137D01*
X77816D01*
X77821Y154131D01*
X77839D01*
X77856Y154125D01*
X77914Y154102D01*
X77990Y154078D01*
X78083Y154044D01*
X78193Y153997D01*
X78310Y153939D01*
X78443Y153875D01*
X78583Y153800D01*
X78728Y153712D01*
X78879Y153608D01*
X79030Y153498D01*
X79181Y153370D01*
X79332Y153230D01*
X79483Y153073D01*
X79623Y152905D01*
X79628Y152893D01*
X79652Y152864D01*
X79692Y152806D01*
X79739Y152736D01*
X79791Y152638D01*
X79855Y152527D01*
X79919Y152394D01*
X79988Y152243D01*
X80058Y152074D01*
X80122Y151888D01*
X80186Y151691D01*
X80238Y151470D01*
X80285Y151237D01*
X80326Y150993D01*
X80349Y150726D01*
X80355Y150453D01*
Y150447D01*
Y150442D01*
Y150424D01*
Y150401D01*
Y150343D01*
X80349Y150261D01*
X80343Y150157D01*
X80331Y150046D01*
X80320Y149913D01*
X80302Y149773D01*
X80279Y149622D01*
X80250Y149465D01*
X80215Y149303D01*
X80174Y149140D01*
X80128Y148977D01*
X80070Y148815D01*
X80006Y148652D01*
X79930Y148501D01*
X79925Y148489D01*
X79913Y148466D01*
X79890Y148425D01*
X79855Y148373D01*
X79814Y148303D01*
X79762Y148228D01*
X79704Y148141D01*
X79640Y148048D01*
X79564Y147949D01*
X79483Y147850D01*
X79396Y147746D01*
X79303Y147641D01*
X79204Y147542D01*
X79094Y147443D01*
X78983Y147345D01*
X78861Y147258D01*
X78856Y147252D01*
X78832Y147240D01*
X78798Y147217D01*
X78751Y147188D01*
X78693Y147147D01*
X78623Y147107D01*
X78542Y147066D01*
X78455Y147014D01*
X78362Y146967D01*
X78257Y146915D01*
X78147Y146862D01*
X78031Y146816D01*
X77792Y146729D01*
X77670Y146688D01*
X77543Y146659D01*
X77531D01*
X77502Y146653D01*
X77450Y146642D01*
X77374Y146630D01*
X77281Y146618D01*
X77165Y146601D01*
X77026Y146584D01*
X76869Y146572D01*
X76694Y146555D01*
X76497Y146537D01*
X76282Y146520D01*
X76044Y146508D01*
X75788Y146496D01*
X75515Y146485D01*
X75218Y146479D01*
X73249D01*
Y141732D01*
X70704D01*
Y154328D01*
X75155D01*
X75248Y154323D01*
D02*
G37*
G36*
X69066Y152196D02*
X65336D01*
Y141732D01*
X62791D01*
Y152196D01*
X59055D01*
Y154328D01*
X69066D01*
Y152196D01*
D02*
G37*
G36*
X201124Y209471D02*
X201264Y209453D01*
X201421Y209436D01*
X201613Y209401D01*
X201822Y209349D01*
X202259Y209209D01*
X202503Y209122D01*
X202747Y209017D01*
X202992Y208877D01*
X203236Y208720D01*
X203480Y208546D01*
X203707Y208354D01*
X203724Y208336D01*
X203759Y208302D01*
X203864Y208197D01*
X204004Y208040D01*
X204126Y207900D01*
Y207883D01*
X204161Y207865D01*
X204230Y207761D01*
X204353Y207586D01*
X204492Y207394D01*
X220965Y178829D01*
X220982Y178811D01*
X221000Y178759D01*
X221035Y178689D01*
X221087Y178584D01*
X221157Y178445D01*
X221209Y178288D01*
X221279Y178113D01*
X221349Y177904D01*
X221419Y177694D01*
X221471Y177450D01*
X221541Y176927D01*
X221558Y176647D01*
Y176368D01*
X221523Y176054D01*
X221471Y175757D01*
Y175740D01*
X221454Y175705D01*
Y175653D01*
X221436Y175583D01*
X221384Y175391D01*
X221297Y175147D01*
X221279Y175112D01*
X221262Y175059D01*
X221227Y175007D01*
X221192Y174920D01*
X221140Y174815D01*
X221087Y174710D01*
X221017Y174571D01*
X221000Y174553D01*
X220982Y174501D01*
X220930Y174431D01*
X220860Y174344D01*
X220773Y174222D01*
X220668Y174100D01*
X220546Y173942D01*
X220407Y173803D01*
X220250Y173628D01*
X220075Y173471D01*
X219883Y173314D01*
X219656Y173157D01*
X219185Y172878D01*
X218923Y172756D01*
X218644Y172651D01*
X218627D01*
X218574Y172634D01*
X218505Y172616D01*
X218417Y172599D01*
X218225Y172547D01*
X218138Y172529D01*
X218051Y172512D01*
X218016D01*
X217964Y172494D01*
X217894D01*
X217807Y172477D01*
X217702D01*
X217580Y172459D01*
X217440Y172442D01*
X184233Y172442D01*
X184111Y172459D01*
X183971Y172477D01*
X183797Y172494D01*
X183605Y172529D01*
X183395Y172581D01*
X182941Y172704D01*
X182697Y172808D01*
X182453Y172913D01*
X182209Y173053D01*
X181964Y173192D01*
X181720Y173367D01*
X181476Y173576D01*
X181458Y173593D01*
X181423Y173611D01*
X181319Y173716D01*
X181179Y173855D01*
X181039Y174030D01*
X181022Y174047D01*
X181005Y174082D01*
X180970Y174135D01*
X180917Y174187D01*
X180795Y174361D01*
X180690Y174553D01*
X180673D01*
Y174571D01*
Y174588D01*
X180638Y174641D01*
X180603Y174710D01*
X180551Y174815D01*
X180498Y174937D01*
X180429Y175094D01*
X180376Y175251D01*
X180306Y175443D01*
X180254Y175670D01*
X180202Y175897D01*
X180132Y176385D01*
X180114Y176665D01*
X180132Y176944D01*
X180149Y177223D01*
X180202Y177520D01*
Y177537D01*
X180219Y177590D01*
X180237Y177677D01*
X180272Y177764D01*
X180324Y177956D01*
X180359Y178043D01*
X180376Y178096D01*
Y178113D01*
X180394Y178130D01*
X180411Y178183D01*
X180429Y178253D01*
X180516Y178427D01*
X180621Y178672D01*
X180638Y178689D01*
X180656Y178724D01*
X180673Y178741D01*
Y178759D01*
X197181Y207324D01*
Y207342D01*
X197198Y207359D01*
X197268Y207464D01*
X197373Y207621D01*
X197512Y207813D01*
X197687Y208022D01*
X197896Y208267D01*
X198140Y208493D01*
X198420Y208703D01*
X198402D01*
X198420Y208720D01*
X198489Y208755D01*
X198577Y208825D01*
X198716Y208912D01*
X198734D01*
X198769Y208930D01*
X198821Y208965D01*
X198891Y209000D01*
X198978Y209052D01*
X199083Y209087D01*
X199344Y209209D01*
X199659Y209314D01*
X200025Y209401D01*
X200426Y209471D01*
X200845Y209488D01*
X201002D01*
X201124Y209471D01*
D02*
G37*
G36*
X48066Y222259D02*
X48101D01*
X48146Y222252D01*
X48195Y222245D01*
X48254Y222238D01*
X48317Y222224D01*
X48387Y222210D01*
X48460Y222189D01*
X48540Y222165D01*
X48624Y222137D01*
X48708Y222102D01*
X48795Y222060D01*
X48886Y222015D01*
X48977Y221962D01*
X48656Y221100D01*
X48652Y221104D01*
X48642Y221111D01*
X48621Y221118D01*
X48596Y221132D01*
X48565Y221146D01*
X48530Y221163D01*
X48488Y221184D01*
X48443Y221202D01*
X48394Y221219D01*
X48338Y221240D01*
X48223Y221271D01*
X48163Y221285D01*
X48101Y221296D01*
X48038Y221299D01*
X47975Y221303D01*
X47944D01*
X47923Y221299D01*
X47895Y221296D01*
X47863Y221292D01*
X47828Y221289D01*
X47790Y221278D01*
X47706Y221257D01*
X47612Y221226D01*
X47567Y221205D01*
X47518Y221181D01*
X47469Y221149D01*
X47424Y221118D01*
X47420Y221114D01*
X47413Y221111D01*
X47399Y221100D01*
X47385Y221083D01*
X47364Y221065D01*
X47343Y221044D01*
X47319Y221017D01*
X47291Y220985D01*
X47263Y220950D01*
X47235Y220915D01*
X47207Y220873D01*
X47179Y220828D01*
X47151Y220776D01*
X47127Y220723D01*
X47102Y220668D01*
X47082Y220608D01*
Y220601D01*
X47075Y220587D01*
X47068Y220559D01*
X47057Y220521D01*
X47047Y220476D01*
X47033Y220420D01*
X47019Y220357D01*
X47005Y220287D01*
X46987Y220210D01*
X46973Y220127D01*
X46959Y220036D01*
X46949Y219942D01*
X46938Y219844D01*
X46931Y219743D01*
X46928Y219635D01*
X46924Y219526D01*
Y216658D01*
X45996D01*
Y222137D01*
X46834D01*
Y221306D01*
X46837Y221313D01*
X46848Y221331D01*
X46865Y221362D01*
X46890Y221400D01*
X46918Y221446D01*
X46949Y221502D01*
X46987Y221557D01*
X47029Y221620D01*
X47120Y221749D01*
X47169Y221816D01*
X47218Y221875D01*
X47270Y221935D01*
X47322Y221987D01*
X47371Y222036D01*
X47424Y222074D01*
X47427Y222078D01*
X47438Y222081D01*
X47451Y222092D01*
X47472Y222102D01*
X47497Y222119D01*
X47528Y222133D01*
X47563Y222151D01*
X47602Y222168D01*
X47643Y222186D01*
X47689Y222203D01*
X47790Y222235D01*
X47902Y222255D01*
X47961Y222259D01*
X48020Y222263D01*
X48041D01*
X48066Y222259D01*
D02*
G37*
G36*
X37634Y216658D02*
X36671D01*
X35798Y219938D01*
X35585Y220873D01*
X34476Y216658D01*
X33505D01*
X31827Y222137D01*
X32787D01*
X33659Y218975D01*
X33987Y217795D01*
Y217802D01*
X33991Y217809D01*
X33994Y217827D01*
X34001Y217848D01*
X34008Y217879D01*
X34018Y217921D01*
X34029Y217970D01*
X34046Y218033D01*
X34057Y218071D01*
X34064Y218113D01*
X34078Y218155D01*
X34088Y218204D01*
X34102Y218256D01*
X34116Y218312D01*
X34130Y218371D01*
X34148Y218434D01*
X34165Y218504D01*
X34183Y218581D01*
X34203Y218657D01*
X34224Y218741D01*
X34245Y218832D01*
X34270Y218926D01*
X35142Y222137D01*
X36099D01*
X36919Y218957D01*
X37191Y217911D01*
X37505Y218968D01*
X38444Y222137D01*
X39348D01*
X37634Y216658D01*
D02*
G37*
G36*
X22725Y224220D02*
X22795D01*
X22875Y224217D01*
X22962Y224213D01*
X23053Y224210D01*
X23151Y224206D01*
X23339Y224193D01*
X23433Y224185D01*
X23524Y224175D01*
X23611Y224165D01*
X23688Y224151D01*
X23695D01*
X23712Y224147D01*
X23744Y224140D01*
X23782Y224133D01*
X23828Y224119D01*
X23884Y224109D01*
X23946Y224091D01*
X24016Y224070D01*
X24086Y224049D01*
X24163Y224022D01*
X24239Y223994D01*
X24320Y223962D01*
X24396Y223924D01*
X24477Y223885D01*
X24550Y223844D01*
X24623Y223795D01*
X24627Y223791D01*
X24641Y223784D01*
X24658Y223767D01*
X24686Y223746D01*
X24718Y223721D01*
X24756Y223686D01*
X24794Y223652D01*
X24840Y223606D01*
X24889Y223557D01*
X24938Y223501D01*
X24986Y223442D01*
X25039Y223379D01*
X25088Y223306D01*
X25136Y223233D01*
X25182Y223152D01*
X25227Y223065D01*
X25231Y223058D01*
X25238Y223044D01*
X25248Y223020D01*
X25262Y222985D01*
X25280Y222940D01*
X25300Y222887D01*
X25321Y222828D01*
X25342Y222762D01*
X25363Y222688D01*
X25384Y222608D01*
X25405Y222524D01*
X25423Y222433D01*
X25437Y222339D01*
X25447Y222242D01*
X25454Y222140D01*
X25458Y222036D01*
Y222032D01*
Y222025D01*
Y222011D01*
Y221994D01*
X25454Y221969D01*
Y221941D01*
X25451Y221910D01*
X25447Y221875D01*
X25444Y221833D01*
X25440Y221791D01*
X25426Y221694D01*
X25405Y221585D01*
X25381Y221470D01*
X25349Y221345D01*
X25307Y221212D01*
X25259Y221076D01*
X25199Y220936D01*
X25129Y220800D01*
X25046Y220661D01*
X24951Y220528D01*
X24899Y220462D01*
X24843Y220399D01*
Y220395D01*
X24836Y220392D01*
X24826Y220381D01*
X24815Y220371D01*
X24798Y220354D01*
X24777Y220336D01*
X24753Y220319D01*
X24721Y220294D01*
X24690Y220270D01*
X24651Y220245D01*
X24609Y220217D01*
X24564Y220189D01*
X24515Y220158D01*
X24459Y220127D01*
X24400Y220095D01*
X24337Y220067D01*
X24267Y220036D01*
X24194Y220005D01*
X24114Y219973D01*
X24030Y219942D01*
X23943Y219914D01*
X23849Y219886D01*
X23751Y219861D01*
X23646Y219837D01*
X23538Y219812D01*
X23426Y219795D01*
X23304Y219778D01*
X23178Y219760D01*
X23049Y219750D01*
X22913Y219739D01*
X22770Y219736D01*
X22624Y219732D01*
X20683D01*
Y216658D01*
X19681D01*
Y224224D01*
X22662D01*
X22725Y224220D01*
D02*
G37*
G36*
X42450Y222259D02*
X42482D01*
X42520Y222255D01*
X42559Y222252D01*
X42604Y222245D01*
X42653Y222238D01*
X42705Y222231D01*
X42761Y222224D01*
X42883Y222200D01*
X43012Y222168D01*
X43152Y222130D01*
X43298Y222081D01*
X43448Y222018D01*
X43598Y221945D01*
X43672Y221906D01*
X43749Y221861D01*
X43822Y221812D01*
X43895Y221760D01*
X43965Y221704D01*
X44035Y221645D01*
X44105Y221582D01*
X44171Y221512D01*
X44174Y221509D01*
X44178Y221505D01*
X44188Y221491D01*
X44202Y221477D01*
X44216Y221460D01*
X44234Y221435D01*
X44258Y221408D01*
X44279Y221376D01*
X44307Y221338D01*
X44331Y221299D01*
X44363Y221254D01*
X44391Y221205D01*
X44422Y221153D01*
X44454Y221093D01*
X44488Y221034D01*
X44520Y220968D01*
X44551Y220901D01*
X44586Y220828D01*
X44618Y220751D01*
X44649Y220671D01*
X44677Y220587D01*
X44708Y220497D01*
X44733Y220406D01*
X44761Y220308D01*
X44785Y220210D01*
X44806Y220106D01*
X44824Y219998D01*
X44837Y219889D01*
X44851Y219774D01*
X44862Y219655D01*
X44865Y219533D01*
X44869Y219408D01*
Y219404D01*
Y219394D01*
Y219373D01*
Y219345D01*
Y219310D01*
Y219268D01*
X44865Y219219D01*
Y219160D01*
X40779D01*
Y219156D01*
Y219149D01*
Y219139D01*
X40782Y219122D01*
Y219101D01*
X40786Y219073D01*
X40789Y219045D01*
X40793Y219010D01*
X40803Y218936D01*
X40817Y218849D01*
X40838Y218752D01*
X40862Y218647D01*
X40890Y218539D01*
X40925Y218424D01*
X40967Y218308D01*
X41016Y218193D01*
X41072Y218081D01*
X41135Y217973D01*
X41208Y217869D01*
X41288Y217774D01*
X41295Y217767D01*
X41309Y217753D01*
X41337Y217729D01*
X41372Y217701D01*
X41417Y217663D01*
X41470Y217624D01*
X41532Y217579D01*
X41606Y217537D01*
X41682Y217492D01*
X41770Y217446D01*
X41864Y217408D01*
X41965Y217370D01*
X42073Y217342D01*
X42189Y217317D01*
X42307Y217303D01*
X42433Y217296D01*
X42457D01*
X42482Y217300D01*
X42520D01*
X42562Y217303D01*
X42614Y217310D01*
X42670Y217317D01*
X42733Y217331D01*
X42803Y217345D01*
X42873Y217363D01*
X42942Y217384D01*
X43019Y217411D01*
X43093Y217439D01*
X43166Y217478D01*
X43236Y217516D01*
X43305Y217565D01*
X43309Y217568D01*
X43323Y217579D01*
X43340Y217593D01*
X43365Y217617D01*
X43396Y217645D01*
X43431Y217680D01*
X43469Y217722D01*
X43515Y217774D01*
X43557Y217830D01*
X43606Y217893D01*
X43651Y217963D01*
X43700Y218040D01*
X43749Y218123D01*
X43794Y218214D01*
X43836Y218315D01*
X43878Y218420D01*
X44841Y218301D01*
Y218298D01*
X44837Y218291D01*
X44834Y218280D01*
X44831Y218263D01*
X44824Y218246D01*
X44816Y218221D01*
X44806Y218193D01*
X44796Y218162D01*
X44768Y218092D01*
X44736Y218012D01*
X44694Y217921D01*
X44649Y217823D01*
X44597Y217719D01*
X44534Y217614D01*
X44464Y217506D01*
X44387Y217397D01*
X44304Y217289D01*
X44209Y217185D01*
X44108Y217087D01*
X43996Y216996D01*
X43989Y216993D01*
X43979Y216986D01*
X43968Y216975D01*
X43934Y216954D01*
X43885Y216923D01*
X43825Y216888D01*
X43752Y216849D01*
X43668Y216808D01*
X43571Y216766D01*
X43462Y216724D01*
X43344Y216682D01*
X43215Y216644D01*
X43075Y216609D01*
X42928Y216577D01*
X42771Y216556D01*
X42604Y216542D01*
X42429Y216535D01*
X42377D01*
X42349Y216539D01*
X42314D01*
X42276Y216542D01*
X42230Y216546D01*
X42182Y216553D01*
X42129Y216556D01*
X42073Y216567D01*
X42011Y216574D01*
X41881Y216598D01*
X41738Y216626D01*
X41588Y216668D01*
X41435Y216717D01*
X41274Y216776D01*
X41117Y216846D01*
X41037Y216888D01*
X40960Y216930D01*
X40880Y216979D01*
X40806Y217027D01*
X40730Y217083D01*
X40657Y217143D01*
X40587Y217206D01*
X40520Y217272D01*
X40517Y217275D01*
X40513Y217282D01*
X40503Y217293D01*
X40489Y217307D01*
X40475Y217324D01*
X40454Y217349D01*
X40433Y217376D01*
X40409Y217408D01*
X40384Y217443D01*
X40356Y217485D01*
X40328Y217530D01*
X40297Y217576D01*
X40266Y217628D01*
X40234Y217684D01*
X40199Y217746D01*
X40168Y217809D01*
X40136Y217879D01*
X40102Y217949D01*
X40070Y218026D01*
X40039Y218106D01*
X40007Y218190D01*
X39979Y218277D01*
X39952Y218368D01*
X39927Y218462D01*
X39903Y218560D01*
X39882Y218661D01*
X39861Y218769D01*
X39847Y218877D01*
X39833Y218992D01*
X39822Y219108D01*
X39819Y219230D01*
X39815Y219352D01*
Y219355D01*
Y219369D01*
Y219387D01*
Y219411D01*
X39819Y219446D01*
Y219484D01*
X39822Y219530D01*
X39826Y219579D01*
X39833Y219635D01*
X39836Y219697D01*
X39843Y219760D01*
X39854Y219830D01*
X39864Y219903D01*
X39875Y219977D01*
X39906Y220137D01*
X39941Y220308D01*
X39990Y220483D01*
X40046Y220661D01*
X40115Y220842D01*
X40196Y221017D01*
X40245Y221104D01*
X40293Y221188D01*
X40346Y221268D01*
X40402Y221348D01*
X40461Y221425D01*
X40527Y221498D01*
X40531Y221502D01*
X40534Y221505D01*
X40545Y221516D01*
X40559Y221530D01*
X40580Y221547D01*
X40601Y221568D01*
X40628Y221592D01*
X40657Y221617D01*
X40691Y221645D01*
X40726Y221676D01*
X40768Y221708D01*
X40813Y221739D01*
X40862Y221774D01*
X40915Y221809D01*
X41026Y221882D01*
X41152Y221952D01*
X41295Y222022D01*
X41445Y222084D01*
X41609Y222144D01*
X41784Y222193D01*
X41972Y222231D01*
X42070Y222245D01*
X42171Y222255D01*
X42272Y222259D01*
X42377Y222263D01*
X42426D01*
X42450Y222259D01*
D02*
G37*
G36*
X28916D02*
X28947D01*
X28986Y222255D01*
X29028Y222252D01*
X29073Y222245D01*
X29122Y222242D01*
X29178Y222231D01*
X29234Y222224D01*
X29359Y222200D01*
X29495Y222168D01*
X29638Y222130D01*
X29789Y222081D01*
X29939Y222022D01*
X30096Y221948D01*
X30173Y221906D01*
X30249Y221865D01*
X30326Y221816D01*
X30399Y221763D01*
X30476Y221708D01*
X30546Y221652D01*
X30616Y221585D01*
X30685Y221519D01*
X30689Y221516D01*
X30692Y221512D01*
X30703Y221498D01*
X30717Y221484D01*
X30734Y221467D01*
X30752Y221442D01*
X30773Y221414D01*
X30797Y221383D01*
X30825Y221348D01*
X30853Y221306D01*
X30881Y221264D01*
X30912Y221216D01*
X30944Y221163D01*
X30979Y221107D01*
X31010Y221048D01*
X31045Y220985D01*
X31080Y220919D01*
X31111Y220849D01*
X31146Y220772D01*
X31178Y220695D01*
X31209Y220612D01*
X31237Y220528D01*
X31265Y220437D01*
X31293Y220343D01*
X31317Y220249D01*
X31338Y220148D01*
X31359Y220043D01*
X31373Y219938D01*
X31387Y219827D01*
X31398Y219711D01*
X31401Y219596D01*
X31405Y219474D01*
Y219471D01*
Y219463D01*
Y219446D01*
Y219429D01*
Y219401D01*
X31401Y219373D01*
Y219338D01*
Y219300D01*
X31398Y219258D01*
X31394Y219209D01*
X31387Y219108D01*
X31376Y218992D01*
X31366Y218870D01*
X31349Y218738D01*
X31328Y218601D01*
X31300Y218465D01*
X31272Y218326D01*
X31233Y218190D01*
X31192Y218054D01*
X31143Y217928D01*
X31087Y217809D01*
X31083Y217802D01*
X31073Y217781D01*
X31052Y217750D01*
X31027Y217708D01*
X30996Y217659D01*
X30954Y217600D01*
X30905Y217534D01*
X30853Y217464D01*
X30790Y217390D01*
X30720Y217314D01*
X30647Y217233D01*
X30563Y217157D01*
X30473Y217080D01*
X30375Y217003D01*
X30274Y216933D01*
X30162Y216867D01*
X30155Y216863D01*
X30134Y216853D01*
X30103Y216836D01*
X30057Y216815D01*
X29998Y216790D01*
X29932Y216762D01*
X29855Y216731D01*
X29768Y216703D01*
X29673Y216671D01*
X29572Y216640D01*
X29464Y216612D01*
X29349Y216588D01*
X29227Y216567D01*
X29101Y216549D01*
X28972Y216539D01*
X28839Y216535D01*
X28787D01*
X28763Y216539D01*
X28728D01*
X28689Y216542D01*
X28647Y216546D01*
X28602Y216553D01*
X28550Y216556D01*
X28497Y216567D01*
X28438Y216574D01*
X28312Y216598D01*
X28176Y216626D01*
X28030Y216668D01*
X27880Y216717D01*
X27722Y216776D01*
X27569Y216846D01*
X27489Y216888D01*
X27412Y216930D01*
X27335Y216979D01*
X27262Y217027D01*
X27185Y217083D01*
X27115Y217143D01*
X27045Y217206D01*
X26976Y217272D01*
X26972Y217275D01*
X26969Y217279D01*
X26958Y217293D01*
X26944Y217307D01*
X26930Y217324D01*
X26909Y217349D01*
X26888Y217376D01*
X26864Y217408D01*
X26840Y217446D01*
X26812Y217485D01*
X26784Y217530D01*
X26752Y217579D01*
X26721Y217631D01*
X26686Y217687D01*
X26655Y217750D01*
X26623Y217813D01*
X26588Y217883D01*
X26557Y217956D01*
X26522Y218033D01*
X26491Y218113D01*
X26463Y218200D01*
X26431Y218287D01*
X26403Y218382D01*
X26379Y218479D01*
X26354Y218581D01*
X26333Y218685D01*
X26313Y218794D01*
X26299Y218909D01*
X26285Y219024D01*
X26274Y219146D01*
X26271Y219268D01*
X26267Y219397D01*
Y219401D01*
Y219415D01*
Y219436D01*
X26271Y219463D01*
Y219498D01*
X26274Y219544D01*
X26278Y219593D01*
X26281Y219645D01*
X26285Y219708D01*
X26292Y219774D01*
X26302Y219844D01*
X26313Y219917D01*
X26323Y219998D01*
X26337Y220078D01*
X26372Y220249D01*
X26417Y220430D01*
X26473Y220615D01*
X26543Y220804D01*
X26581Y220898D01*
X26627Y220992D01*
X26672Y221083D01*
X26721Y221170D01*
X26777Y221261D01*
X26836Y221345D01*
X26899Y221428D01*
X26965Y221505D01*
X27038Y221582D01*
X27115Y221652D01*
X27119Y221655D01*
X27122Y221659D01*
X27133Y221666D01*
X27147Y221680D01*
X27164Y221694D01*
X27189Y221708D01*
X27213Y221725D01*
X27241Y221746D01*
X27272Y221770D01*
X27311Y221795D01*
X27391Y221844D01*
X27489Y221900D01*
X27597Y221959D01*
X27716Y222015D01*
X27845Y222071D01*
X27988Y222119D01*
X28141Y222168D01*
X28302Y222207D01*
X28473Y222238D01*
X28651Y222255D01*
X28745Y222263D01*
X28888D01*
X28916Y222259D01*
D02*
G37*
G36*
X25635Y164736D02*
Y164733D01*
Y164722D01*
Y164708D01*
Y164687D01*
Y164660D01*
Y164628D01*
X25632Y164590D01*
Y164548D01*
X25629Y164503D01*
Y164450D01*
X25625Y164398D01*
X25622Y164338D01*
X25615Y164216D01*
X25604Y164084D01*
X25590Y163941D01*
X25573Y163794D01*
X25552Y163640D01*
X25527Y163490D01*
X25496Y163340D01*
X25461Y163194D01*
X25423Y163058D01*
X25377Y162925D01*
Y162922D01*
X25374Y162918D01*
X25370Y162908D01*
X25363Y162897D01*
X25349Y162862D01*
X25325Y162813D01*
X25297Y162758D01*
X25259Y162691D01*
X25217Y162618D01*
X25164Y162538D01*
X25105Y162454D01*
X25035Y162363D01*
X24958Y162276D01*
X24875Y162182D01*
X24780Y162091D01*
X24679Y162004D01*
X24567Y161916D01*
X24445Y161836D01*
X24442D01*
X24438Y161833D01*
X24428Y161826D01*
X24414Y161819D01*
X24396Y161808D01*
X24376Y161798D01*
X24351Y161784D01*
X24323Y161770D01*
X24292Y161756D01*
X24257Y161738D01*
X24173Y161704D01*
X24079Y161665D01*
X23971Y161627D01*
X23852Y161588D01*
X23716Y161550D01*
X23573Y161515D01*
X23416Y161484D01*
X23245Y161456D01*
X23067Y161435D01*
X22875Y161421D01*
X22676Y161417D01*
X22603D01*
X22575Y161421D01*
X22540D01*
X22501Y161424D01*
X22456D01*
X22411Y161428D01*
X22358Y161431D01*
X22306Y161438D01*
X22187Y161449D01*
X22062Y161463D01*
X21926Y161484D01*
X21786Y161505D01*
X21639Y161536D01*
X21496Y161571D01*
X21350Y161613D01*
X21207Y161662D01*
X21071Y161717D01*
X20938Y161780D01*
X20934D01*
X20931Y161784D01*
X20921Y161791D01*
X20910Y161798D01*
X20875Y161819D01*
X20826Y161850D01*
X20774Y161885D01*
X20708Y161934D01*
X20638Y161986D01*
X20564Y162049D01*
X20484Y162122D01*
X20404Y162199D01*
X20324Y162286D01*
X20243Y162381D01*
X20167Y162485D01*
X20097Y162593D01*
X20030Y162712D01*
X19971Y162838D01*
Y162841D01*
X19968Y162845D01*
X19964Y162855D01*
X19961Y162869D01*
X19954Y162887D01*
X19943Y162911D01*
X19936Y162935D01*
X19926Y162967D01*
X19915Y162998D01*
X19905Y163037D01*
X19894Y163075D01*
X19881Y163120D01*
X19866Y163169D01*
X19856Y163222D01*
X19842Y163277D01*
X19828Y163337D01*
X19814Y163400D01*
X19800Y163462D01*
X19776Y163605D01*
X19751Y163763D01*
X19730Y163930D01*
X19713Y164115D01*
X19699Y164311D01*
X19689Y164516D01*
X19685Y164736D01*
Y169109D01*
X20687D01*
Y164740D01*
Y164736D01*
Y164729D01*
Y164715D01*
Y164698D01*
Y164673D01*
Y164646D01*
X20690Y164614D01*
Y164579D01*
Y164541D01*
X20694Y164499D01*
X20697Y164405D01*
X20701Y164300D01*
X20711Y164188D01*
X20718Y164073D01*
X20732Y163954D01*
X20764Y163714D01*
X20784Y163595D01*
X20809Y163483D01*
X20837Y163382D01*
X20868Y163288D01*
X20872Y163285D01*
X20879Y163267D01*
X20889Y163243D01*
X20903Y163211D01*
X20924Y163173D01*
X20948Y163127D01*
X20980Y163075D01*
X21015Y163023D01*
X21057Y162967D01*
X21102Y162908D01*
X21154Y162845D01*
X21210Y162785D01*
X21273Y162726D01*
X21343Y162670D01*
X21416Y162614D01*
X21496Y162566D01*
X21503Y162562D01*
X21517Y162555D01*
X21542Y162541D01*
X21577Y162527D01*
X21619Y162506D01*
X21671Y162485D01*
X21734Y162464D01*
X21800Y162440D01*
X21877Y162416D01*
X21960Y162394D01*
X22048Y162374D01*
X22145Y162353D01*
X22247Y162339D01*
X22355Y162325D01*
X22470Y162318D01*
X22589Y162314D01*
X22638D01*
X22662Y162318D01*
X22693D01*
X22728Y162321D01*
X22770D01*
X22812Y162325D01*
X22861Y162328D01*
X22962Y162342D01*
X23077Y162356D01*
X23200Y162377D01*
X23329Y162401D01*
X23458Y162436D01*
X23590Y162475D01*
X23720Y162524D01*
X23845Y162583D01*
X23960Y162649D01*
X24069Y162726D01*
X24117Y162768D01*
X24163Y162813D01*
X24170Y162820D01*
X24184Y162838D01*
X24205Y162869D01*
X24222Y162890D01*
X24236Y162915D01*
X24253Y162943D01*
X24271Y162974D01*
X24292Y163009D01*
X24313Y163047D01*
X24334Y163089D01*
X24355Y163138D01*
X24376Y163187D01*
X24400Y163243D01*
X24421Y163302D01*
X24442Y163365D01*
X24463Y163431D01*
X24484Y163504D01*
X24505Y163581D01*
X24526Y163661D01*
X24543Y163749D01*
X24561Y163839D01*
X24575Y163934D01*
X24592Y164035D01*
X24602Y164139D01*
X24613Y164248D01*
X24623Y164363D01*
X24630Y164485D01*
X24634Y164611D01*
Y164740D01*
Y169109D01*
X25635D01*
Y164736D01*
D02*
G37*
G36*
X30343Y169106D02*
X30413D01*
X30494Y169102D01*
X30581Y169099D01*
X30672Y169095D01*
X30769Y169092D01*
X30958Y169078D01*
X31052Y169071D01*
X31143Y169060D01*
X31230Y169050D01*
X31307Y169036D01*
X31314D01*
X31331Y169033D01*
X31363Y169026D01*
X31401Y169018D01*
X31446Y169005D01*
X31502Y168994D01*
X31565Y168977D01*
X31635Y168956D01*
X31705Y168935D01*
X31781Y168907D01*
X31858Y168879D01*
X31938Y168848D01*
X32015Y168809D01*
X32096Y168771D01*
X32169Y168729D01*
X32242Y168680D01*
X32245Y168676D01*
X32260Y168669D01*
X32277Y168652D01*
X32305Y168631D01*
X32336Y168607D01*
X32375Y168572D01*
X32413Y168537D01*
X32458Y168492D01*
X32507Y168443D01*
X32556Y168387D01*
X32605Y168327D01*
X32657Y168265D01*
X32706Y168191D01*
X32755Y168118D01*
X32800Y168038D01*
X32846Y167951D01*
X32849Y167944D01*
X32856Y167930D01*
X32867Y167905D01*
X32881Y167870D01*
X32898Y167825D01*
X32919Y167773D01*
X32940Y167713D01*
X32961Y167647D01*
X32982Y167574D01*
X33003Y167493D01*
X33024Y167410D01*
X33041Y167319D01*
X33055Y167225D01*
X33066Y167127D01*
X33073Y167026D01*
X33076Y166921D01*
Y166918D01*
Y166911D01*
Y166897D01*
Y166879D01*
X33073Y166855D01*
Y166827D01*
X33069Y166795D01*
X33066Y166761D01*
X33062Y166719D01*
X33059Y166677D01*
X33045Y166579D01*
X33024Y166471D01*
X32999Y166356D01*
X32968Y166230D01*
X32926Y166097D01*
X32877Y165961D01*
X32818Y165822D01*
X32748Y165686D01*
X32664Y165546D01*
X32570Y165413D01*
X32518Y165347D01*
X32462Y165284D01*
Y165281D01*
X32455Y165277D01*
X32445Y165267D01*
X32434Y165256D01*
X32417Y165239D01*
X32396Y165221D01*
X32371Y165204D01*
X32340Y165180D01*
X32308Y165155D01*
X32270Y165131D01*
X32228Y165103D01*
X32183Y165075D01*
X32134Y165043D01*
X32078Y165012D01*
X32019Y164981D01*
X31956Y164953D01*
X31886Y164921D01*
X31813Y164890D01*
X31732Y164858D01*
X31649Y164827D01*
X31561Y164799D01*
X31467Y164771D01*
X31370Y164747D01*
X31265Y164722D01*
X31157Y164698D01*
X31045Y164681D01*
X30923Y164663D01*
X30797Y164646D01*
X30668Y164635D01*
X30532Y164625D01*
X30389Y164621D01*
X30242Y164618D01*
X28302D01*
Y161543D01*
X27300D01*
Y169109D01*
X30281D01*
X30343Y169106D01*
D02*
G37*
G36*
X37575Y112867D02*
X36646D01*
Y113935D01*
X37575D01*
Y112867D01*
D02*
G37*
G36*
X26421D02*
X25492D01*
Y113935D01*
X26421D01*
Y112867D01*
D02*
G37*
G36*
X33645Y111970D02*
X33704Y111967D01*
X33771Y111960D01*
X33851Y111950D01*
X33938Y111936D01*
X34032Y111918D01*
X34130Y111894D01*
X34235Y111862D01*
X34336Y111827D01*
X34441Y111782D01*
X34542Y111730D01*
X34643Y111670D01*
X34734Y111600D01*
X34821Y111520D01*
X34825Y111517D01*
X34839Y111499D01*
X34863Y111471D01*
X34891Y111436D01*
X34922Y111388D01*
X34961Y111328D01*
X34999Y111258D01*
X35041Y111178D01*
X35083Y111088D01*
X35121Y110983D01*
X35160Y110871D01*
X35191Y110746D01*
X35219Y110609D01*
X35243Y110459D01*
X35257Y110302D01*
X35261Y110131D01*
Y106369D01*
X34340D01*
Y109821D01*
Y109828D01*
Y109845D01*
Y109873D01*
Y109911D01*
X34336Y109957D01*
Y110009D01*
X34333Y110068D01*
X34329Y110131D01*
X34319Y110260D01*
X34301Y110397D01*
X34291Y110459D01*
X34280Y110519D01*
X34266Y110574D01*
X34249Y110623D01*
Y110627D01*
X34245Y110634D01*
X34238Y110648D01*
X34231Y110665D01*
X34221Y110686D01*
X34207Y110707D01*
X34176Y110763D01*
X34130Y110826D01*
X34071Y110892D01*
X34005Y110958D01*
X33921Y111018D01*
X33917Y111021D01*
X33910Y111025D01*
X33896Y111032D01*
X33879Y111042D01*
X33854Y111053D01*
X33830Y111067D01*
X33799Y111081D01*
X33764Y111094D01*
X33722Y111108D01*
X33680Y111119D01*
X33586Y111143D01*
X33478Y111161D01*
X33422Y111168D01*
X33338D01*
X33307Y111164D01*
X33268Y111161D01*
X33216Y111157D01*
X33160Y111147D01*
X33097Y111136D01*
X33027Y111119D01*
X32954Y111098D01*
X32874Y111074D01*
X32797Y111042D01*
X32713Y111007D01*
X32633Y110962D01*
X32553Y110909D01*
X32476Y110850D01*
X32403Y110784D01*
X32399Y110780D01*
X32385Y110766D01*
X32368Y110742D01*
X32343Y110711D01*
X32315Y110669D01*
X32284Y110616D01*
X32249Y110557D01*
X32214Y110487D01*
X32176Y110407D01*
X32144Y110316D01*
X32109Y110215D01*
X32081Y110103D01*
X32057Y109981D01*
X32040Y109848D01*
X32026Y109705D01*
X32022Y109552D01*
Y106369D01*
X31090D01*
Y109929D01*
Y109932D01*
Y109936D01*
Y109957D01*
Y109988D01*
X31087Y110030D01*
X31083Y110082D01*
X31080Y110142D01*
X31073Y110208D01*
X31062Y110278D01*
X31049Y110351D01*
X31034Y110428D01*
X31017Y110505D01*
X30996Y110581D01*
X30968Y110658D01*
X30937Y110728D01*
X30902Y110798D01*
X30863Y110857D01*
X30860Y110861D01*
X30853Y110871D01*
X30839Y110885D01*
X30822Y110906D01*
X30794Y110930D01*
X30766Y110955D01*
X30727Y110983D01*
X30685Y111014D01*
X30637Y111042D01*
X30581Y111070D01*
X30522Y111094D01*
X30455Y111119D01*
X30382Y111140D01*
X30302Y111154D01*
X30214Y111164D01*
X30120Y111168D01*
X30082D01*
X30054Y111164D01*
X30019Y111161D01*
X29980Y111157D01*
X29932Y111150D01*
X29883Y111143D01*
X29831Y111133D01*
X29771Y111119D01*
X29712Y111101D01*
X29649Y111081D01*
X29586Y111056D01*
X29523Y111032D01*
X29457Y110997D01*
X29394Y110962D01*
X29391Y110958D01*
X29380Y110951D01*
X29363Y110941D01*
X29342Y110924D01*
X29314Y110903D01*
X29283Y110875D01*
X29248Y110843D01*
X29209Y110808D01*
X29171Y110770D01*
X29133Y110724D01*
X29091Y110676D01*
X29052Y110620D01*
X29014Y110561D01*
X28975Y110498D01*
X28944Y110431D01*
X28913Y110358D01*
Y110355D01*
X28906Y110341D01*
X28899Y110316D01*
X28888Y110285D01*
X28878Y110243D01*
X28864Y110194D01*
X28853Y110135D01*
X28839Y110065D01*
X28825Y109988D01*
X28811Y109904D01*
X28797Y109810D01*
X28787Y109705D01*
X28776Y109594D01*
X28769Y109475D01*
X28766Y109346D01*
X28763Y109210D01*
Y106369D01*
X27834D01*
Y111848D01*
X28665D01*
Y111081D01*
X28668Y111084D01*
X28675Y111098D01*
X28693Y111119D01*
X28714Y111147D01*
X28738Y111182D01*
X28769Y111220D01*
X28804Y111266D01*
X28846Y111311D01*
X28895Y111363D01*
X28947Y111416D01*
X29003Y111468D01*
X29063Y111524D01*
X29129Y111576D01*
X29199Y111628D01*
X29276Y111677D01*
X29352Y111726D01*
X29356Y111730D01*
X29373Y111737D01*
X29394Y111751D01*
X29429Y111765D01*
X29467Y111782D01*
X29516Y111803D01*
X29572Y111827D01*
X29635Y111852D01*
X29705Y111873D01*
X29778Y111897D01*
X29862Y111918D01*
X29946Y111936D01*
X30036Y111950D01*
X30131Y111963D01*
X30228Y111970D01*
X30329Y111974D01*
X30389D01*
X30431Y111970D01*
X30483Y111967D01*
X30542Y111960D01*
X30609Y111953D01*
X30682Y111943D01*
X30759Y111929D01*
X30839Y111911D01*
X30923Y111890D01*
X31007Y111866D01*
X31090Y111838D01*
X31171Y111803D01*
X31251Y111765D01*
X31324Y111719D01*
X31328Y111716D01*
X31342Y111709D01*
X31363Y111695D01*
X31387Y111674D01*
X31418Y111646D01*
X31457Y111615D01*
X31495Y111580D01*
X31541Y111538D01*
X31586Y111489D01*
X31631Y111436D01*
X31677Y111377D01*
X31722Y111314D01*
X31764Y111248D01*
X31806Y111175D01*
X31844Y111098D01*
X31876Y111014D01*
X31879Y111018D01*
X31883Y111025D01*
X31893Y111039D01*
X31907Y111056D01*
X31921Y111077D01*
X31942Y111101D01*
X31966Y111133D01*
X31994Y111164D01*
X32057Y111238D01*
X32137Y111318D01*
X32228Y111405D01*
X32333Y111496D01*
X32448Y111583D01*
X32577Y111670D01*
X32713Y111751D01*
X32867Y111824D01*
X32943Y111855D01*
X33027Y111887D01*
X33111Y111911D01*
X33198Y111932D01*
X33286Y111950D01*
X33376Y111963D01*
X33470Y111970D01*
X33568Y111974D01*
X33624D01*
X33645Y111970D01*
D02*
G37*
G36*
X37575Y106369D02*
X36646D01*
Y111848D01*
X37575D01*
Y106369D01*
D02*
G37*
G36*
X26421D02*
X25492D01*
Y111848D01*
X26421D01*
Y106369D01*
D02*
G37*
G36*
X20683Y107259D02*
X24410D01*
Y106369D01*
X19681D01*
Y113935D01*
X20683D01*
Y107259D01*
D02*
G37*
G36*
X40084Y111848D02*
X41016D01*
Y111126D01*
X40084D01*
Y107922D01*
Y107919D01*
Y107905D01*
Y107884D01*
Y107859D01*
Y107828D01*
X40088Y107789D01*
X40091Y107709D01*
X40095Y107622D01*
X40105Y107538D01*
X40112Y107500D01*
X40115Y107465D01*
X40126Y107433D01*
X40133Y107409D01*
X40136Y107405D01*
X40143Y107392D01*
X40154Y107371D01*
X40171Y107346D01*
X40192Y107315D01*
X40220Y107287D01*
X40252Y107255D01*
X40290Y107228D01*
X40297Y107224D01*
X40311Y107217D01*
X40335Y107207D01*
X40374Y107196D01*
X40419Y107182D01*
X40472Y107172D01*
X40538Y107165D01*
X40611Y107161D01*
X40639D01*
X40674Y107165D01*
X40719D01*
X40779Y107172D01*
X40848Y107179D01*
X40925Y107186D01*
X41016Y107200D01*
X41152Y106376D01*
X41148D01*
X41135Y106372D01*
X41114Y106369D01*
X41086Y106366D01*
X41051Y106359D01*
X41012Y106352D01*
X40967Y106345D01*
X40918Y106338D01*
X40862Y106331D01*
X40806Y106324D01*
X40691Y106310D01*
X40569Y106303D01*
X40451Y106299D01*
X40402D01*
X40367Y106303D01*
X40325D01*
X40276Y106306D01*
X40220Y106313D01*
X40164Y106320D01*
X40035Y106338D01*
X39906Y106366D01*
X39781Y106404D01*
X39721Y106428D01*
X39665Y106456D01*
X39662Y106460D01*
X39655Y106463D01*
X39637Y106474D01*
X39620Y106484D01*
X39595Y106502D01*
X39571Y106519D01*
X39512Y106568D01*
X39445Y106631D01*
X39383Y106701D01*
X39320Y106784D01*
X39295Y106826D01*
X39271Y106875D01*
Y106878D01*
X39267Y106889D01*
X39260Y106906D01*
X39254Y106927D01*
X39246Y106962D01*
X39236Y107001D01*
X39226Y107053D01*
X39215Y107109D01*
X39205Y107179D01*
X39194Y107259D01*
X39184Y107346D01*
X39177Y107447D01*
X39170Y107559D01*
X39163Y107685D01*
X39159Y107821D01*
Y107971D01*
Y111126D01*
X38479D01*
Y111848D01*
X39159D01*
Y113206D01*
X40084Y113764D01*
Y111848D01*
D02*
G37*
G36*
X43375Y139582D02*
X43420Y139578D01*
X43469Y139575D01*
X43529Y139571D01*
X43591Y139564D01*
X43658Y139554D01*
X43731Y139543D01*
X43885Y139512D01*
X43965Y139491D01*
X44045Y139467D01*
X44122Y139439D01*
X44202Y139407D01*
X44206Y139404D01*
X44220Y139400D01*
X44241Y139390D01*
X44272Y139376D01*
X44304Y139358D01*
X44345Y139338D01*
X44387Y139310D01*
X44436Y139282D01*
X44537Y139215D01*
X44638Y139135D01*
X44736Y139044D01*
X44782Y138992D01*
X44824Y138940D01*
X44827Y138936D01*
X44834Y138926D01*
X44844Y138912D01*
X44858Y138887D01*
X44872Y138859D01*
X44893Y138828D01*
X44914Y138790D01*
X44939Y138744D01*
X44960Y138699D01*
X44984Y138643D01*
X45009Y138587D01*
X45033Y138528D01*
X45054Y138465D01*
X45078Y138395D01*
X45113Y138252D01*
Y138249D01*
X45117Y138238D01*
Y138224D01*
X45120Y138203D01*
X45127Y138172D01*
X45131Y138137D01*
X45134Y138092D01*
X45141Y138043D01*
X45145Y137983D01*
X45148Y137917D01*
X45155Y137844D01*
X45159Y137764D01*
X45162Y137673D01*
Y137572D01*
X45166Y137463D01*
Y137348D01*
Y133980D01*
X44234D01*
Y137313D01*
Y137320D01*
Y137338D01*
Y137369D01*
Y137408D01*
X44230Y137453D01*
X44227Y137509D01*
X44223Y137568D01*
X44220Y137634D01*
X44206Y137771D01*
X44188Y137910D01*
X44174Y137980D01*
X44160Y138046D01*
X44143Y138106D01*
X44126Y138161D01*
Y138165D01*
X44122Y138175D01*
X44115Y138189D01*
X44105Y138207D01*
X44091Y138231D01*
X44077Y138259D01*
X44038Y138326D01*
X43986Y138395D01*
X43955Y138434D01*
X43920Y138472D01*
X43881Y138507D01*
X43836Y138545D01*
X43791Y138580D01*
X43742Y138612D01*
X43738Y138615D01*
X43728Y138619D01*
X43714Y138626D01*
X43693Y138640D01*
X43665Y138650D01*
X43633Y138664D01*
X43598Y138681D01*
X43557Y138695D01*
X43511Y138713D01*
X43462Y138727D01*
X43410Y138741D01*
X43351Y138755D01*
X43229Y138772D01*
X43162Y138776D01*
X43093Y138779D01*
X43065D01*
X43037Y138776D01*
X42995Y138772D01*
X42942Y138769D01*
X42883Y138758D01*
X42817Y138748D01*
X42744Y138734D01*
X42663Y138713D01*
X42583Y138688D01*
X42496Y138657D01*
X42408Y138619D01*
X42321Y138577D01*
X42234Y138528D01*
X42150Y138469D01*
X42066Y138402D01*
X42063Y138399D01*
X42049Y138385D01*
X42028Y138360D01*
X42000Y138326D01*
X41969Y138284D01*
X41930Y138228D01*
X41892Y138161D01*
X41853Y138081D01*
X41812Y137990D01*
X41773Y137886D01*
X41738Y137771D01*
X41721Y137708D01*
X41703Y137641D01*
X41690Y137568D01*
X41675Y137495D01*
X41665Y137418D01*
X41655Y137334D01*
X41648Y137250D01*
X41641Y137160D01*
X41637Y137069D01*
Y136971D01*
Y133980D01*
X40709D01*
Y139460D01*
X41546D01*
Y138681D01*
X41550Y138685D01*
X41553Y138692D01*
X41564Y138702D01*
X41574Y138720D01*
X41592Y138741D01*
X41609Y138765D01*
X41658Y138824D01*
X41721Y138891D01*
X41798Y138968D01*
X41888Y139048D01*
X41990Y139135D01*
X42108Y139219D01*
X42237Y139299D01*
X42380Y139376D01*
X42538Y139446D01*
X42705Y139502D01*
X42796Y139526D01*
X42890Y139547D01*
X42984Y139564D01*
X43086Y139575D01*
X43187Y139582D01*
X43291Y139585D01*
X43340D01*
X43375Y139582D01*
D02*
G37*
G36*
X38217Y133980D02*
X37254D01*
X36381Y137261D01*
X36168Y138196D01*
X35059Y133980D01*
X34088D01*
X32410Y139460D01*
X33369D01*
X34242Y136298D01*
X34570Y135118D01*
Y135125D01*
X34573Y135132D01*
X34577Y135150D01*
X34584Y135170D01*
X34591Y135202D01*
X34601Y135244D01*
X34612Y135293D01*
X34629Y135355D01*
X34640Y135394D01*
X34647Y135436D01*
X34661Y135478D01*
X34671Y135527D01*
X34685Y135579D01*
X34699Y135635D01*
X34713Y135694D01*
X34730Y135757D01*
X34748Y135827D01*
X34765Y135903D01*
X34786Y135980D01*
X34807Y136064D01*
X34828Y136155D01*
X34853Y136249D01*
X35725Y139460D01*
X36681D01*
X37501Y136280D01*
X37774Y135233D01*
X38088Y136291D01*
X39027Y139460D01*
X39930D01*
X38217Y133980D01*
D02*
G37*
G36*
X22508Y141543D02*
X22592Y141540D01*
X22686Y141536D01*
X22788Y141533D01*
X22896Y141529D01*
X23004Y141519D01*
X23231Y141501D01*
X23339Y141487D01*
X23444Y141473D01*
X23545Y141456D01*
X23636Y141439D01*
X23643D01*
X23653Y141435D01*
X23664Y141432D01*
X23698Y141421D01*
X23744Y141411D01*
X23800Y141393D01*
X23866Y141369D01*
X23939Y141344D01*
X24020Y141313D01*
X24103Y141278D01*
X24191Y141240D01*
X24285Y141194D01*
X24379Y141145D01*
X24473Y141090D01*
X24564Y141030D01*
X24658Y140964D01*
X24746Y140894D01*
X24749D01*
X24753Y140887D01*
X24773Y140870D01*
X24801Y140842D01*
X24843Y140803D01*
X24896Y140754D01*
X24951Y140692D01*
X25014Y140622D01*
X25084Y140542D01*
X25154Y140454D01*
X25227Y140357D01*
X25304Y140249D01*
X25377Y140133D01*
X25451Y140011D01*
X25520Y139882D01*
X25583Y139742D01*
X25642Y139599D01*
Y139596D01*
X25646Y139589D01*
X25649Y139578D01*
X25656Y139564D01*
X25663Y139543D01*
X25670Y139519D01*
X25677Y139491D01*
X25688Y139460D01*
X25698Y139425D01*
X25712Y139386D01*
X25723Y139345D01*
X25737Y139299D01*
X25765Y139195D01*
X25793Y139079D01*
X25817Y138954D01*
X25845Y138814D01*
X25869Y138668D01*
X25894Y138510D01*
X25911Y138343D01*
X25925Y138168D01*
X25936Y137990D01*
X25939Y137802D01*
Y137799D01*
Y137792D01*
Y137781D01*
Y137764D01*
Y137743D01*
Y137718D01*
X25936Y137690D01*
Y137655D01*
Y137620D01*
X25932Y137582D01*
X25929Y137495D01*
X25922Y137397D01*
X25915Y137289D01*
X25904Y137174D01*
X25890Y137052D01*
X25873Y136923D01*
X25855Y136793D01*
X25831Y136661D01*
X25803Y136532D01*
X25772Y136399D01*
X25737Y136273D01*
Y136270D01*
X25733Y136266D01*
Y136256D01*
X25726Y136245D01*
X25716Y136211D01*
X25702Y136162D01*
X25681Y136106D01*
X25656Y136039D01*
X25629Y135966D01*
X25597Y135886D01*
X25562Y135802D01*
X25520Y135715D01*
X25433Y135530D01*
X25332Y135345D01*
X25280Y135258D01*
X25220Y135174D01*
X25217Y135170D01*
X25206Y135157D01*
X25189Y135132D01*
X25164Y135101D01*
X25136Y135066D01*
X25102Y135024D01*
X25060Y134975D01*
X25018Y134926D01*
X24965Y134870D01*
X24913Y134815D01*
X24857Y134759D01*
X24798Y134699D01*
X24669Y134588D01*
X24599Y134535D01*
X24529Y134486D01*
X24526Y134483D01*
X24512Y134476D01*
X24491Y134462D01*
X24463Y134445D01*
X24428Y134424D01*
X24383Y134399D01*
X24334Y134375D01*
X24278Y134343D01*
X24212Y134316D01*
X24145Y134284D01*
X24069Y134253D01*
X23992Y134221D01*
X23904Y134190D01*
X23817Y134158D01*
X23723Y134131D01*
X23625Y134106D01*
X23618D01*
X23601Y134099D01*
X23573Y134096D01*
X23531Y134085D01*
X23482Y134078D01*
X23423Y134068D01*
X23353Y134054D01*
X23276Y134043D01*
X23192Y134033D01*
X23098Y134019D01*
X22997Y134008D01*
X22892Y134001D01*
X22781Y133991D01*
X22662Y133987D01*
X22540Y133980D01*
X19681D01*
Y141547D01*
X22435D01*
X22508Y141543D01*
D02*
G37*
G36*
X29499Y139582D02*
X29530D01*
X29569Y139578D01*
X29611Y139575D01*
X29656Y139568D01*
X29705Y139564D01*
X29761Y139554D01*
X29816Y139547D01*
X29942Y139523D01*
X30078Y139491D01*
X30221Y139453D01*
X30371Y139404D01*
X30522Y139345D01*
X30678Y139271D01*
X30755Y139229D01*
X30832Y139188D01*
X30909Y139139D01*
X30982Y139086D01*
X31059Y139030D01*
X31129Y138975D01*
X31199Y138908D01*
X31268Y138842D01*
X31272Y138839D01*
X31275Y138835D01*
X31286Y138821D01*
X31300Y138807D01*
X31317Y138790D01*
X31335Y138765D01*
X31356Y138737D01*
X31380Y138706D01*
X31408Y138671D01*
X31436Y138629D01*
X31464Y138587D01*
X31495Y138538D01*
X31527Y138486D01*
X31561Y138430D01*
X31593Y138371D01*
X31628Y138308D01*
X31663Y138242D01*
X31694Y138172D01*
X31729Y138095D01*
X31760Y138018D01*
X31792Y137935D01*
X31820Y137851D01*
X31848Y137760D01*
X31876Y137666D01*
X31900Y137572D01*
X31921Y137470D01*
X31942Y137366D01*
X31956Y137261D01*
X31970Y137149D01*
X31980Y137034D01*
X31984Y136919D01*
X31987Y136797D01*
Y136793D01*
Y136786D01*
Y136769D01*
Y136751D01*
Y136724D01*
X31984Y136696D01*
Y136661D01*
Y136622D01*
X31980Y136581D01*
X31977Y136532D01*
X31970Y136430D01*
X31959Y136315D01*
X31949Y136193D01*
X31931Y136061D01*
X31910Y135924D01*
X31883Y135788D01*
X31855Y135649D01*
X31816Y135512D01*
X31774Y135376D01*
X31725Y135251D01*
X31670Y135132D01*
X31666Y135125D01*
X31656Y135104D01*
X31635Y135073D01*
X31610Y135031D01*
X31579Y134982D01*
X31537Y134923D01*
X31488Y134856D01*
X31436Y134787D01*
X31373Y134713D01*
X31303Y134636D01*
X31230Y134556D01*
X31146Y134479D01*
X31056Y134403D01*
X30958Y134326D01*
X30856Y134256D01*
X30745Y134190D01*
X30738Y134186D01*
X30717Y134176D01*
X30685Y134158D01*
X30640Y134137D01*
X30581Y134113D01*
X30514Y134085D01*
X30438Y134054D01*
X30351Y134026D01*
X30256Y133994D01*
X30155Y133963D01*
X30047Y133935D01*
X29932Y133911D01*
X29809Y133890D01*
X29684Y133872D01*
X29555Y133862D01*
X29422Y133858D01*
X29370D01*
X29345Y133862D01*
X29311D01*
X29272Y133865D01*
X29230Y133869D01*
X29185Y133876D01*
X29133Y133879D01*
X29080Y133890D01*
X29021Y133897D01*
X28895Y133921D01*
X28759Y133949D01*
X28613Y133991D01*
X28462Y134040D01*
X28305Y134099D01*
X28152Y134169D01*
X28071Y134211D01*
X27995Y134253D01*
X27918Y134301D01*
X27845Y134350D01*
X27768Y134406D01*
X27698Y134466D01*
X27628Y134528D01*
X27558Y134595D01*
X27555Y134598D01*
X27551Y134602D01*
X27541Y134616D01*
X27527Y134630D01*
X27513Y134647D01*
X27492Y134671D01*
X27471Y134699D01*
X27447Y134731D01*
X27422Y134769D01*
X27395Y134808D01*
X27367Y134853D01*
X27335Y134902D01*
X27304Y134954D01*
X27269Y135010D01*
X27237Y135073D01*
X27206Y135136D01*
X27171Y135205D01*
X27140Y135279D01*
X27105Y135355D01*
X27073Y135436D01*
X27045Y135523D01*
X27014Y135610D01*
X26986Y135705D01*
X26962Y135802D01*
X26937Y135903D01*
X26916Y136008D01*
X26895Y136116D01*
X26881Y136232D01*
X26867Y136347D01*
X26857Y136469D01*
X26853Y136591D01*
X26850Y136720D01*
Y136724D01*
Y136738D01*
Y136758D01*
X26853Y136786D01*
Y136821D01*
X26857Y136867D01*
X26860Y136916D01*
X26864Y136968D01*
X26867Y137031D01*
X26874Y137097D01*
X26885Y137167D01*
X26895Y137240D01*
X26906Y137320D01*
X26920Y137401D01*
X26955Y137572D01*
X27000Y137753D01*
X27056Y137938D01*
X27126Y138127D01*
X27164Y138221D01*
X27209Y138315D01*
X27255Y138406D01*
X27304Y138493D01*
X27360Y138584D01*
X27419Y138668D01*
X27482Y138751D01*
X27548Y138828D01*
X27621Y138905D01*
X27698Y138975D01*
X27702Y138978D01*
X27705Y138982D01*
X27716Y138989D01*
X27729Y139003D01*
X27747Y139016D01*
X27771Y139030D01*
X27796Y139048D01*
X27824Y139069D01*
X27855Y139093D01*
X27893Y139118D01*
X27974Y139167D01*
X28071Y139222D01*
X28180Y139282D01*
X28298Y139338D01*
X28427Y139393D01*
X28571Y139442D01*
X28724Y139491D01*
X28885Y139530D01*
X29056Y139561D01*
X29234Y139578D01*
X29328Y139585D01*
X29471D01*
X29499Y139582D01*
D02*
G37*
G36*
X137458Y132395D02*
X137221Y130985D01*
X136153D01*
X135880Y132395D01*
Y133676D01*
X137458D01*
Y132395D01*
D02*
G37*
G36*
X92660D02*
X92423Y130985D01*
X91355D01*
X91083Y132395D01*
Y133676D01*
X92660D01*
Y132395D01*
D02*
G37*
G36*
X128866Y131711D02*
X128901D01*
X128942Y131708D01*
X128988D01*
X129037Y131704D01*
X129141Y131694D01*
X129260Y131683D01*
X129389Y131669D01*
X129522Y131649D01*
X129661Y131624D01*
X129801Y131596D01*
X129937Y131561D01*
X130073Y131519D01*
X130202Y131471D01*
X130321Y131415D01*
X130429Y131348D01*
X130436Y131345D01*
X130454Y131331D01*
X130482Y131310D01*
X130516Y131279D01*
X130562Y131240D01*
X130614Y131195D01*
X130670Y131139D01*
X130729Y131076D01*
X130792Y131003D01*
X130855Y130923D01*
X130918Y130832D01*
X130977Y130738D01*
X131036Y130629D01*
X131092Y130518D01*
X131141Y130392D01*
X131183Y130263D01*
X129815Y130012D01*
Y130015D01*
X129811Y130026D01*
X129804Y130043D01*
X129797Y130064D01*
X129787Y130092D01*
X129773Y130120D01*
X129742Y130193D01*
X129696Y130270D01*
X129637Y130350D01*
X129567Y130430D01*
X129529Y130465D01*
X129483Y130500D01*
X129480Y130504D01*
X129473Y130507D01*
X129459Y130518D01*
X129438Y130528D01*
X129413Y130539D01*
X129382Y130556D01*
X129347Y130570D01*
X129305Y130588D01*
X129256Y130602D01*
X129204Y130619D01*
X129148Y130633D01*
X129086Y130643D01*
X129019Y130657D01*
X128946Y130664D01*
X128869Y130668D01*
X128785Y130671D01*
X128729D01*
X128691Y130668D01*
X128646D01*
X128590Y130664D01*
X128531Y130657D01*
X128468Y130650D01*
X128335Y130633D01*
X128199Y130605D01*
X128133Y130584D01*
X128073Y130563D01*
X128014Y130539D01*
X127965Y130511D01*
X127962D01*
X127958Y130507D01*
X127941Y130490D01*
X127913Y130465D01*
X127881Y130434D01*
X127850Y130389D01*
X127826Y130340D01*
X127805Y130284D01*
X127801Y130253D01*
X127798Y130218D01*
Y130211D01*
X127801Y130193D01*
X127805Y130162D01*
X127815Y130127D01*
X127832Y130085D01*
X127860Y130040D01*
X127895Y129994D01*
X127944Y129952D01*
X127948D01*
X127955Y129945D01*
X127969Y129938D01*
X127993Y129924D01*
X128024Y129911D01*
X128066Y129893D01*
X128122Y129872D01*
X128189Y129848D01*
X128223Y129834D01*
X128265Y129820D01*
X128311Y129806D01*
X128359Y129788D01*
X128415Y129774D01*
X128471Y129757D01*
X128534Y129739D01*
X128597Y129719D01*
X128667Y129701D01*
X128743Y129680D01*
X128824Y129659D01*
X128908Y129638D01*
X128998Y129614D01*
X129092Y129593D01*
X129194Y129569D01*
X129298Y129544D01*
X129302D01*
X129312Y129541D01*
X129326Y129537D01*
X129351Y129534D01*
X129375Y129527D01*
X129410Y129516D01*
X129445Y129509D01*
X129487Y129499D01*
X129532Y129485D01*
X129581Y129471D01*
X129689Y129443D01*
X129808Y129404D01*
X129937Y129366D01*
X130066Y129321D01*
X130202Y129272D01*
X130338Y129219D01*
X130471Y129164D01*
X130597Y129101D01*
X130715Y129038D01*
X130824Y128972D01*
X130872Y128937D01*
X130918Y128902D01*
X130921Y128898D01*
X130939Y128884D01*
X130960Y128860D01*
X130988Y128832D01*
X131022Y128790D01*
X131061Y128741D01*
X131103Y128685D01*
X131145Y128623D01*
X131186Y128549D01*
X131228Y128469D01*
X131267Y128378D01*
X131302Y128284D01*
X131330Y128180D01*
X131351Y128068D01*
X131368Y127949D01*
X131371Y127823D01*
Y127820D01*
Y127816D01*
Y127806D01*
Y127789D01*
X131368Y127771D01*
Y127750D01*
X131361Y127698D01*
X131354Y127631D01*
X131336Y127558D01*
X131319Y127471D01*
X131291Y127380D01*
X131260Y127279D01*
X131218Y127178D01*
X131166Y127070D01*
X131106Y126958D01*
X131033Y126850D01*
X130949Y126738D01*
X130851Y126633D01*
X130796Y126581D01*
X130740Y126529D01*
X130733Y126522D01*
X130722Y126515D01*
X130712Y126504D01*
X130694Y126494D01*
X130673Y126480D01*
X130649Y126462D01*
X130621Y126445D01*
X130590Y126424D01*
X130555Y126403D01*
X130516Y126382D01*
X130474Y126358D01*
X130429Y126333D01*
X130380Y126309D01*
X130328Y126284D01*
X130272Y126260D01*
X130213Y126232D01*
X130146Y126208D01*
X130080Y126183D01*
X130010Y126159D01*
X129934Y126134D01*
X129857Y126113D01*
X129773Y126093D01*
X129689Y126072D01*
X129598Y126054D01*
X129508Y126037D01*
X129410Y126023D01*
X129312Y126012D01*
X129208Y126002D01*
X129099Y125995D01*
X128991Y125988D01*
X128827D01*
X128799Y125991D01*
X128733D01*
X128691Y125995D01*
X128646Y125998D01*
X128597Y126002D01*
X128544Y126005D01*
X128489Y126012D01*
X128366Y126026D01*
X128234Y126044D01*
X128094Y126068D01*
X127951Y126099D01*
X127805Y126134D01*
X127655Y126176D01*
X127508Y126229D01*
X127368Y126288D01*
X127232Y126358D01*
X127103Y126438D01*
X127100D01*
X127096Y126445D01*
X127075Y126459D01*
X127040Y126487D01*
X126998Y126522D01*
X126946Y126567D01*
X126887Y126623D01*
X126821Y126689D01*
X126751Y126762D01*
X126681Y126846D01*
X126608Y126941D01*
X126538Y127042D01*
X126468Y127150D01*
X126405Y127269D01*
X126346Y127398D01*
X126294Y127530D01*
X126252Y127673D01*
X127707Y127893D01*
Y127890D01*
X127710Y127876D01*
X127717Y127851D01*
X127724Y127823D01*
X127738Y127789D01*
X127752Y127747D01*
X127766Y127705D01*
X127787Y127656D01*
X127812Y127604D01*
X127840Y127551D01*
X127867Y127499D01*
X127902Y127443D01*
X127941Y127391D01*
X127983Y127342D01*
X128028Y127293D01*
X128080Y127251D01*
X128084Y127248D01*
X128094Y127241D01*
X128112Y127230D01*
X128133Y127216D01*
X128164Y127199D01*
X128199Y127181D01*
X128241Y127160D01*
X128286Y127143D01*
X128342Y127122D01*
X128401Y127101D01*
X128464Y127084D01*
X128537Y127066D01*
X128614Y127052D01*
X128695Y127042D01*
X128782Y127035D01*
X128876Y127031D01*
X128932D01*
X128970Y127035D01*
X129016Y127038D01*
X129071Y127042D01*
X129131Y127049D01*
X129194Y127056D01*
X129333Y127080D01*
X129403Y127098D01*
X129473Y127119D01*
X129543Y127143D01*
X129605Y127171D01*
X129668Y127202D01*
X129724Y127237D01*
X129728Y127241D01*
X129731Y127244D01*
X129755Y127265D01*
X129783Y127296D01*
X129822Y127342D01*
X129857Y127398D01*
X129885Y127464D01*
X129909Y127537D01*
X129913Y127579D01*
X129916Y127625D01*
Y127628D01*
Y127631D01*
Y127653D01*
X129909Y127684D01*
X129902Y127722D01*
X129892Y127764D01*
X129871Y127813D01*
X129846Y127858D01*
X129811Y127900D01*
X129804Y127904D01*
X129790Y127918D01*
X129777Y127928D01*
X129759Y127939D01*
X129735Y127949D01*
X129710Y127963D01*
X129679Y127977D01*
X129644Y127991D01*
X129605Y128005D01*
X129560Y128022D01*
X129511Y128040D01*
X129455Y128057D01*
X129393Y128071D01*
X129326Y128089D01*
X129323D01*
X129305Y128092D01*
X129281Y128099D01*
X129250Y128106D01*
X129211Y128117D01*
X129162Y128127D01*
X129106Y128141D01*
X129044Y128155D01*
X128977Y128169D01*
X128904Y128190D01*
X128827Y128207D01*
X128747Y128228D01*
X128660Y128249D01*
X128572Y128274D01*
X128391Y128323D01*
X128202Y128375D01*
X128010Y128431D01*
X127826Y128490D01*
X127648Y128553D01*
X127564Y128581D01*
X127483Y128612D01*
X127407Y128644D01*
X127333Y128675D01*
X127267Y128707D01*
X127204Y128738D01*
X127152Y128766D01*
X127103Y128797D01*
X127100D01*
X127096Y128804D01*
X127075Y128818D01*
X127044Y128843D01*
X127002Y128877D01*
X126953Y128923D01*
X126897Y128979D01*
X126838Y129045D01*
X126779Y129118D01*
X126716Y129202D01*
X126656Y129293D01*
X126601Y129394D01*
X126552Y129506D01*
X126510Y129624D01*
X126478Y129753D01*
X126458Y129890D01*
X126454Y129959D01*
X126451Y130033D01*
Y130036D01*
Y130040D01*
Y130050D01*
Y130064D01*
X126454Y130103D01*
X126461Y130151D01*
X126468Y130214D01*
X126482Y130284D01*
X126499Y130364D01*
X126520Y130448D01*
X126552Y130542D01*
X126587Y130636D01*
X126632Y130738D01*
X126688Y130839D01*
X126751Y130940D01*
X126827Y131038D01*
X126915Y131135D01*
X127012Y131230D01*
X127019Y131237D01*
X127040Y131251D01*
X127072Y131275D01*
X127121Y131307D01*
X127180Y131341D01*
X127253Y131383D01*
X127340Y131429D01*
X127442Y131474D01*
X127557Y131516D01*
X127620Y131540D01*
X127686Y131561D01*
X127756Y131582D01*
X127829Y131603D01*
X127906Y131621D01*
X127986Y131638D01*
X128070Y131656D01*
X128157Y131669D01*
X128248Y131683D01*
X128346Y131694D01*
X128443Y131704D01*
X128544Y131708D01*
X128649Y131715D01*
X128834D01*
X128866Y131711D01*
D02*
G37*
G36*
X66363Y126110D02*
X64946D01*
Y132064D01*
X63442Y126110D01*
X61973D01*
X60475Y132064D01*
Y126110D01*
X59055D01*
Y133676D01*
X61341D01*
X62716Y128515D01*
X64074Y133676D01*
X66363D01*
Y126110D01*
D02*
G37*
G36*
X145185Y126110D02*
X143555Y126110D01*
X140854Y133676D01*
X142508D01*
X144421Y128075D01*
X146274Y133676D01*
X147897D01*
X145185Y126110D01*
D02*
G37*
G36*
X159749Y133704D02*
X159780D01*
X159815Y133701D01*
X159857Y133697D01*
X159902Y133694D01*
X159951Y133690D01*
X160003Y133683D01*
X160059Y133676D01*
X160181Y133659D01*
X160310Y133631D01*
X160450Y133599D01*
X160593Y133561D01*
X160740Y133512D01*
X160886Y133453D01*
X161033Y133383D01*
X161172Y133303D01*
X161305Y133209D01*
X161368Y133160D01*
X161431Y133104D01*
X161434D01*
X161438Y133097D01*
X161459Y133076D01*
X161490Y133041D01*
X161532Y132996D01*
X161581Y132936D01*
X161633Y132867D01*
X161693Y132783D01*
X161752Y132689D01*
X161811Y132584D01*
X161871Y132472D01*
X161923Y132346D01*
X161972Y132214D01*
X162014Y132074D01*
X162045Y131924D01*
X162066Y131764D01*
X162073Y131683D01*
Y131600D01*
Y131593D01*
Y131575D01*
Y131551D01*
X162069Y131512D01*
X162066Y131467D01*
X162063Y131415D01*
X162059Y131355D01*
X162048Y131286D01*
X162041Y131216D01*
X162028Y131139D01*
X162014Y131059D01*
X161996Y130975D01*
X161975Y130888D01*
X161951Y130800D01*
X161919Y130713D01*
X161888Y130626D01*
X161884Y130622D01*
X161881Y130605D01*
X161867Y130581D01*
X161853Y130546D01*
X161832Y130504D01*
X161811Y130455D01*
X161780Y130396D01*
X161748Y130333D01*
X161710Y130263D01*
X161668Y130186D01*
X161619Y130109D01*
X161567Y130022D01*
X161511Y129935D01*
X161448Y129848D01*
X161382Y129753D01*
X161309Y129659D01*
X161305Y129656D01*
X161295Y129645D01*
X161281Y129624D01*
X161256Y129596D01*
X161225Y129561D01*
X161190Y129520D01*
X161145Y129471D01*
X161089Y129411D01*
X161029Y129349D01*
X160960Y129275D01*
X160883Y129195D01*
X160796Y129111D01*
X160698Y129017D01*
X160593Y128916D01*
X160482Y128808D01*
X160356Y128692D01*
X160352D01*
X160349Y128685D01*
X160338Y128679D01*
X160328Y128665D01*
X160293Y128633D01*
X160248Y128591D01*
X160192Y128539D01*
X160129Y128483D01*
X160063Y128420D01*
X159989Y128354D01*
X159843Y128214D01*
X159769Y128145D01*
X159700Y128075D01*
X159637Y128012D01*
X159578Y127953D01*
X159529Y127900D01*
X159487Y127858D01*
X159483Y127855D01*
X159480Y127848D01*
X159469Y127838D01*
X159455Y127823D01*
X159441Y127806D01*
X159424Y127782D01*
X159382Y127733D01*
X159333Y127670D01*
X159284Y127604D01*
X159236Y127530D01*
X159190Y127457D01*
X162073D01*
Y126110D01*
X156988D01*
Y126113D01*
Y126120D01*
X156992Y126131D01*
Y126145D01*
X156995Y126162D01*
X156999Y126183D01*
X157002Y126211D01*
X157009Y126239D01*
X157019Y126309D01*
X157037Y126386D01*
X157058Y126476D01*
X157082Y126578D01*
X157110Y126682D01*
X157145Y126797D01*
X157187Y126916D01*
X157232Y127042D01*
X157285Y127167D01*
X157344Y127296D01*
X157410Y127426D01*
X157484Y127555D01*
Y127558D01*
X157487Y127562D01*
X157494Y127572D01*
X157504Y127586D01*
X157515Y127604D01*
X157529Y127625D01*
X157546Y127649D01*
X157567Y127680D01*
X157592Y127712D01*
X157616Y127747D01*
X157644Y127789D01*
X157679Y127831D01*
X157752Y127928D01*
X157794Y127980D01*
X157843Y128040D01*
X157892Y128099D01*
X157944Y128162D01*
X158000Y128228D01*
X158063Y128298D01*
X158126Y128371D01*
X158196Y128448D01*
X158269Y128528D01*
X158346Y128609D01*
X158426Y128692D01*
X158510Y128783D01*
X158600Y128874D01*
X158695Y128968D01*
X158792Y129062D01*
X158894Y129164D01*
X159002Y129265D01*
X159113Y129370D01*
X159117Y129373D01*
X159124Y129380D01*
X159138Y129394D01*
X159155Y129408D01*
X159180Y129432D01*
X159204Y129457D01*
X159236Y129485D01*
X159271Y129516D01*
X159347Y129593D01*
X159434Y129677D01*
X159532Y129767D01*
X159633Y129869D01*
X159735Y129970D01*
X159839Y130075D01*
X159941Y130176D01*
X160035Y130277D01*
X160122Y130375D01*
X160202Y130462D01*
X160237Y130504D01*
X160269Y130542D01*
X160293Y130577D01*
X160318Y130608D01*
X160321Y130615D01*
X160331Y130630D01*
X160345Y130654D01*
X160363Y130685D01*
X160387Y130727D01*
X160412Y130773D01*
X160440Y130828D01*
X160468Y130888D01*
X160495Y130954D01*
X160523Y131024D01*
X160548Y131097D01*
X160572Y131174D01*
X160590Y131254D01*
X160604Y131334D01*
X160614Y131415D01*
X160618Y131499D01*
Y131505D01*
Y131519D01*
Y131544D01*
X160614Y131579D01*
X160611Y131621D01*
X160604Y131666D01*
X160597Y131718D01*
X160586Y131774D01*
X160572Y131834D01*
X160555Y131893D01*
X160534Y131956D01*
X160506Y132018D01*
X160478Y132078D01*
X160443Y132137D01*
X160401Y132190D01*
X160356Y132242D01*
X160352Y132245D01*
X160345Y132252D01*
X160328Y132266D01*
X160307Y132284D01*
X160283Y132301D01*
X160248Y132326D01*
X160213Y132350D01*
X160167Y132375D01*
X160118Y132399D01*
X160066Y132420D01*
X160007Y132444D01*
X159941Y132462D01*
X159874Y132479D01*
X159798Y132493D01*
X159721Y132500D01*
X159637Y132504D01*
X159595D01*
X159564Y132500D01*
X159525Y132497D01*
X159480Y132490D01*
X159431Y132479D01*
X159375Y132469D01*
X159319Y132455D01*
X159260Y132437D01*
X159201Y132413D01*
X159141Y132388D01*
X159082Y132357D01*
X159023Y132319D01*
X158967Y132277D01*
X158914Y132228D01*
X158911Y132224D01*
X158904Y132214D01*
X158890Y132200D01*
X158873Y132176D01*
X158852Y132144D01*
X158827Y132109D01*
X158803Y132064D01*
X158775Y132011D01*
X158747Y131952D01*
X158719Y131886D01*
X158695Y131813D01*
X158670Y131729D01*
X158649Y131642D01*
X158628Y131540D01*
X158614Y131436D01*
X158604Y131321D01*
X157159Y131467D01*
Y131471D01*
Y131481D01*
X157162Y131499D01*
X157166Y131519D01*
X157169Y131547D01*
X157176Y131582D01*
X157183Y131621D01*
X157190Y131662D01*
X157201Y131708D01*
X157211Y131760D01*
X157222Y131816D01*
X157236Y131872D01*
X157267Y131998D01*
X157309Y132130D01*
X157358Y132270D01*
X157414Y132413D01*
X157480Y132556D01*
X157557Y132695D01*
X157641Y132832D01*
X157738Y132961D01*
X157847Y133079D01*
X157906Y133135D01*
X157969Y133184D01*
X157972D01*
X157976Y133191D01*
X157986Y133198D01*
X158000Y133205D01*
X158018Y133219D01*
X158038Y133233D01*
X158063Y133247D01*
X158091Y133264D01*
X158122Y133285D01*
X158157Y133306D01*
X158237Y133348D01*
X158332Y133397D01*
X158436Y133446D01*
X158555Y133495D01*
X158684Y133544D01*
X158824Y133586D01*
X158974Y133627D01*
X159134Y133659D01*
X159305Y133687D01*
X159483Y133701D01*
X159672Y133708D01*
X159721D01*
X159749Y133704D01*
D02*
G37*
G36*
X155997Y126110D02*
X154545D01*
Y127558D01*
X155997D01*
Y126110D01*
D02*
G37*
G36*
X97264Y133673D02*
X97354D01*
X97407Y133669D01*
X97463D01*
X97522Y133666D01*
X97648Y133659D01*
X97784Y133652D01*
X97927Y133641D01*
X98073Y133627D01*
X98220Y133610D01*
X98363Y133589D01*
X98503Y133564D01*
X98635Y133540D01*
X98757Y133505D01*
X98817Y133488D01*
X98869Y133470D01*
X98876Y133467D01*
X98893Y133460D01*
X98921Y133449D01*
X98960Y133432D01*
X99009Y133407D01*
X99061Y133380D01*
X99120Y133345D01*
X99187Y133303D01*
X99256Y133257D01*
X99326Y133205D01*
X99400Y133146D01*
X99473Y133079D01*
X99546Y133006D01*
X99619Y132926D01*
X99689Y132839D01*
X99752Y132744D01*
X99756Y132737D01*
X99766Y132720D01*
X99783Y132692D01*
X99804Y132654D01*
X99829Y132605D01*
X99857Y132545D01*
X99888Y132476D01*
X99919Y132402D01*
X99948Y132315D01*
X99979Y132224D01*
X100007Y132127D01*
X100031Y132022D01*
X100052Y131914D01*
X100070Y131799D01*
X100080Y131680D01*
X100084Y131554D01*
Y131551D01*
Y131544D01*
Y131533D01*
Y131516D01*
X100080Y131495D01*
Y131471D01*
Y131443D01*
X100077Y131411D01*
X100070Y131341D01*
X100056Y131254D01*
X100042Y131160D01*
X100021Y131059D01*
X99993Y130950D01*
X99961Y130835D01*
X99919Y130720D01*
X99871Y130602D01*
X99815Y130483D01*
X99748Y130368D01*
X99668Y130256D01*
X99581Y130148D01*
X99574Y130141D01*
X99557Y130123D01*
X99529Y130096D01*
X99487Y130061D01*
X99434Y130015D01*
X99372Y129966D01*
X99295Y129911D01*
X99208Y129851D01*
X99106Y129792D01*
X98995Y129733D01*
X98873Y129673D01*
X98740Y129617D01*
X98593Y129565D01*
X98436Y129520D01*
X98265Y129478D01*
X98084Y129446D01*
X98091Y129443D01*
X98105Y129432D01*
X98133Y129418D01*
X98168Y129397D01*
X98209Y129370D01*
X98258Y129338D01*
X98311Y129300D01*
X98374Y129261D01*
X98436Y129216D01*
X98503Y129167D01*
X98639Y129059D01*
X98775Y128940D01*
X98838Y128877D01*
X98901Y128811D01*
X98904Y128808D01*
X98914Y128794D01*
X98935Y128773D01*
X98960Y128745D01*
X98991Y128703D01*
X99033Y128654D01*
X99078Y128598D01*
X99131Y128528D01*
X99190Y128448D01*
X99256Y128361D01*
X99326Y128260D01*
X99406Y128148D01*
X99490Y128026D01*
X99577Y127890D01*
X99672Y127747D01*
X99773Y127586D01*
X100698Y126110D01*
X98869D01*
X97766Y127754D01*
Y127757D01*
X97759Y127764D01*
X97752Y127775D01*
X97742Y127792D01*
X97728Y127813D01*
X97710Y127837D01*
X97672Y127897D01*
X97623Y127967D01*
X97567Y128047D01*
X97508Y128131D01*
X97445Y128225D01*
X97309Y128413D01*
X97243Y128507D01*
X97176Y128595D01*
X97114Y128679D01*
X97058Y128752D01*
X97005Y128818D01*
X96981Y128843D01*
X96960Y128867D01*
X96956Y128870D01*
X96949Y128877D01*
X96939Y128888D01*
X96922Y128905D01*
X96904Y128923D01*
X96880Y128944D01*
X96820Y128993D01*
X96754Y129045D01*
X96674Y129097D01*
X96590Y129143D01*
X96499Y129181D01*
X96496D01*
X96489Y129185D01*
X96475Y129188D01*
X96454Y129195D01*
X96426Y129202D01*
X96395Y129209D01*
X96356Y129216D01*
X96314Y129227D01*
X96262Y129233D01*
X96206Y129240D01*
X96143Y129247D01*
X96074Y129254D01*
X95997Y129261D01*
X95916Y129265D01*
X95826Y129268D01*
X95421D01*
Y126110D01*
X93892D01*
Y133676D01*
X97225D01*
X97264Y133673D01*
D02*
G37*
G36*
X87453Y132395D02*
X85213D01*
Y126110D01*
X83684D01*
Y132395D01*
X81440D01*
Y133676D01*
X87453D01*
Y132395D01*
D02*
G37*
G36*
X77660Y133673D02*
X77779D01*
X77845Y133669D01*
X77985Y133666D01*
X78132Y133662D01*
X78285Y133655D01*
X78439Y133648D01*
X78592Y133638D01*
X78739Y133627D01*
X78875Y133613D01*
X78938Y133606D01*
X79001Y133599D01*
X79056Y133589D01*
X79109Y133582D01*
X79158Y133572D01*
X79199Y133561D01*
X79203D01*
X79206Y133557D01*
X79217D01*
X79227Y133554D01*
X79262Y133540D01*
X79308Y133526D01*
X79363Y133505D01*
X79430Y133477D01*
X79500Y133442D01*
X79580Y133404D01*
X79664Y133359D01*
X79751Y133306D01*
X79842Y133244D01*
X79932Y133177D01*
X80023Y133100D01*
X80114Y133017D01*
X80204Y132922D01*
X80288Y132821D01*
X80292Y132814D01*
X80306Y132797D01*
X80330Y132762D01*
X80358Y132720D01*
X80389Y132661D01*
X80428Y132594D01*
X80466Y132514D01*
X80508Y132423D01*
X80550Y132322D01*
X80588Y132210D01*
X80627Y132092D01*
X80658Y131959D01*
X80686Y131819D01*
X80711Y131673D01*
X80725Y131512D01*
X80728Y131348D01*
Y131345D01*
Y131341D01*
Y131331D01*
Y131317D01*
Y131282D01*
X80725Y131233D01*
X80721Y131170D01*
X80714Y131104D01*
X80707Y131024D01*
X80697Y130940D01*
X80683Y130849D01*
X80665Y130755D01*
X80644Y130657D01*
X80620Y130560D01*
X80592Y130462D01*
X80557Y130364D01*
X80519Y130266D01*
X80473Y130176D01*
X80470Y130169D01*
X80463Y130155D01*
X80449Y130130D01*
X80428Y130099D01*
X80403Y130057D01*
X80372Y130012D01*
X80337Y129959D01*
X80299Y129903D01*
X80253Y129844D01*
X80204Y129785D01*
X80152Y129722D01*
X80096Y129659D01*
X80037Y129600D01*
X79971Y129541D01*
X79904Y129481D01*
X79831Y129429D01*
X79828Y129425D01*
X79814Y129418D01*
X79793Y129404D01*
X79765Y129387D01*
X79730Y129363D01*
X79688Y129338D01*
X79639Y129314D01*
X79587Y129282D01*
X79531Y129254D01*
X79468Y129223D01*
X79402Y129192D01*
X79332Y129164D01*
X79189Y129111D01*
X79116Y129087D01*
X79039Y129069D01*
X79032D01*
X79014Y129066D01*
X78983Y129059D01*
X78938Y129052D01*
X78882Y129045D01*
X78812Y129034D01*
X78728Y129024D01*
X78634Y129017D01*
X78529Y129007D01*
X78411Y128996D01*
X78281Y128986D01*
X78138Y128979D01*
X77985Y128972D01*
X77821Y128965D01*
X77643Y128961D01*
X76460D01*
Y126110D01*
X74931D01*
Y133676D01*
X77605D01*
X77660Y133673D01*
D02*
G37*
G36*
X70610D02*
X70729D01*
X70796Y133669D01*
X70935Y133666D01*
X71082Y133662D01*
X71235Y133655D01*
X71389Y133648D01*
X71542Y133638D01*
X71689Y133627D01*
X71825Y133613D01*
X71888Y133606D01*
X71951Y133599D01*
X72006Y133589D01*
X72059Y133582D01*
X72108Y133572D01*
X72150Y133561D01*
X72153D01*
X72157Y133557D01*
X72167D01*
X72177Y133554D01*
X72212Y133540D01*
X72258Y133526D01*
X72314Y133505D01*
X72380Y133477D01*
X72450Y133442D01*
X72530Y133404D01*
X72614Y133359D01*
X72701Y133306D01*
X72792Y133244D01*
X72882Y133177D01*
X72973Y133100D01*
X73064Y133017D01*
X73155Y132922D01*
X73238Y132821D01*
X73242Y132814D01*
X73256Y132797D01*
X73280Y132762D01*
X73308Y132720D01*
X73340Y132661D01*
X73378Y132594D01*
X73417Y132514D01*
X73458Y132423D01*
X73500Y132322D01*
X73539Y132210D01*
X73577Y132092D01*
X73608Y131959D01*
X73636Y131819D01*
X73661Y131673D01*
X73675Y131512D01*
X73678Y131348D01*
Y131345D01*
Y131341D01*
Y131331D01*
Y131317D01*
Y131282D01*
X73675Y131233D01*
X73671Y131170D01*
X73664Y131104D01*
X73657Y131024D01*
X73647Y130940D01*
X73633Y130849D01*
X73615Y130755D01*
X73594Y130657D01*
X73570Y130560D01*
X73542Y130462D01*
X73507Y130364D01*
X73469Y130266D01*
X73423Y130176D01*
X73420Y130169D01*
X73413Y130155D01*
X73399Y130130D01*
X73378Y130099D01*
X73354Y130057D01*
X73322Y130012D01*
X73287Y129959D01*
X73249Y129903D01*
X73204Y129844D01*
X73155Y129785D01*
X73102Y129722D01*
X73046Y129659D01*
X72987Y129600D01*
X72921Y129541D01*
X72855Y129481D01*
X72781Y129429D01*
X72778Y129425D01*
X72764Y129418D01*
X72743Y129404D01*
X72715Y129387D01*
X72680Y129363D01*
X72638Y129338D01*
X72589Y129314D01*
X72537Y129282D01*
X72481Y129254D01*
X72418Y129223D01*
X72352Y129192D01*
X72282Y129164D01*
X72139Y129111D01*
X72066Y129087D01*
X71989Y129069D01*
X71982D01*
X71965Y129066D01*
X71933Y129059D01*
X71888Y129052D01*
X71832Y129045D01*
X71762Y129034D01*
X71678Y129024D01*
X71584Y129017D01*
X71479Y129007D01*
X71361Y128996D01*
X71232Y128986D01*
X71089Y128979D01*
X70935Y128972D01*
X70771Y128965D01*
X70593Y128961D01*
X69410D01*
Y126110D01*
X67881D01*
Y133676D01*
X70555D01*
X70610Y133673D01*
D02*
G37*
G36*
X134163Y131589D02*
X135155D01*
Y130434D01*
X134163D01*
Y128225D01*
Y128221D01*
Y128218D01*
Y128197D01*
Y128162D01*
Y128120D01*
Y128068D01*
Y128008D01*
X134167Y127942D01*
Y127876D01*
X134170Y127740D01*
X134174Y127673D01*
Y127614D01*
X134177Y127558D01*
X134181Y127509D01*
X134188Y127471D01*
X134191Y127443D01*
Y127440D01*
X134198Y127426D01*
X134205Y127405D01*
X134219Y127377D01*
X134237Y127349D01*
X134258Y127317D01*
X134286Y127286D01*
X134320Y127258D01*
X134324Y127255D01*
X134338Y127248D01*
X134359Y127237D01*
X134390Y127223D01*
X134425Y127209D01*
X134467Y127199D01*
X134516Y127192D01*
X134568Y127188D01*
X134589D01*
X134607Y127192D01*
X134628D01*
X134652Y127195D01*
X134680Y127199D01*
X134715Y127206D01*
X134753Y127213D01*
X134799Y127223D01*
X134847Y127234D01*
X134900Y127248D01*
X134956Y127262D01*
X135015Y127283D01*
X135081Y127304D01*
X135151Y127328D01*
X135273Y126201D01*
X135266Y126197D01*
X135249Y126190D01*
X135221Y126180D01*
X135186Y126169D01*
X135137Y126152D01*
X135081Y126134D01*
X135015Y126113D01*
X134942Y126096D01*
X134858Y126075D01*
X134771Y126054D01*
X134676Y126037D01*
X134575Y126023D01*
X134470Y126009D01*
X134362Y125998D01*
X134247Y125991D01*
X134128Y125988D01*
X134090D01*
X134062Y125991D01*
X134027D01*
X133989Y125995D01*
X133943Y125998D01*
X133891Y126005D01*
X133839Y126012D01*
X133783Y126019D01*
X133664Y126044D01*
X133542Y126075D01*
X133420Y126117D01*
X133417D01*
X133406Y126124D01*
X133389Y126131D01*
X133368Y126141D01*
X133343Y126152D01*
X133312Y126169D01*
X133246Y126208D01*
X133169Y126257D01*
X133092Y126316D01*
X133022Y126382D01*
X132987Y126417D01*
X132959Y126455D01*
Y126459D01*
X132952Y126466D01*
X132945Y126476D01*
X132935Y126494D01*
X132924Y126515D01*
X132911Y126539D01*
X132896Y126571D01*
X132879Y126605D01*
X132862Y126644D01*
X132844Y126686D01*
X132827Y126731D01*
X132809Y126784D01*
X132795Y126836D01*
X132778Y126895D01*
X132764Y126954D01*
X132753Y127021D01*
Y127024D01*
X132750Y127035D01*
Y127049D01*
X132747Y127073D01*
X132743Y127104D01*
X132739Y127143D01*
X132736Y127188D01*
X132732Y127244D01*
X132726Y127307D01*
X132722Y127384D01*
X132719Y127468D01*
X132715Y127558D01*
X132712Y127663D01*
Y127778D01*
X132708Y127904D01*
Y128043D01*
Y130434D01*
X132042D01*
Y131589D01*
X132708D01*
Y132678D01*
X134163Y133526D01*
Y131589D01*
D02*
G37*
G36*
X122877Y131711D02*
X122912D01*
X122953Y131708D01*
X122999Y131701D01*
X123051Y131697D01*
X123107Y131690D01*
X123166Y131683D01*
X123229Y131673D01*
X123296Y131659D01*
X123365Y131649D01*
X123515Y131614D01*
X123672Y131572D01*
X123837Y131516D01*
X124007Y131453D01*
X124091Y131415D01*
X124179Y131373D01*
X124262Y131327D01*
X124346Y131282D01*
X124433Y131230D01*
X124514Y131174D01*
X124597Y131111D01*
X124678Y131048D01*
X124754Y130978D01*
X124831Y130905D01*
X124835Y130902D01*
X124842Y130895D01*
X124852Y130884D01*
X124866Y130867D01*
X124883Y130849D01*
X124904Y130821D01*
X124929Y130793D01*
X124957Y130759D01*
X124985Y130724D01*
X125016Y130682D01*
X125048Y130636D01*
X125082Y130584D01*
X125117Y130532D01*
X125156Y130472D01*
X125191Y130413D01*
X125229Y130347D01*
X125267Y130280D01*
X125302Y130207D01*
X125376Y130054D01*
X125442Y129886D01*
X125501Y129705D01*
X125554Y129509D01*
X125575Y129411D01*
X125592Y129307D01*
X125606Y129199D01*
X125616Y129090D01*
X125623Y128979D01*
X125627Y128864D01*
Y128860D01*
Y128849D01*
Y128832D01*
Y128808D01*
X125623Y128780D01*
Y128745D01*
X125620Y128703D01*
X125613Y128658D01*
X125609Y128605D01*
X125602Y128549D01*
X125595Y128490D01*
X125585Y128427D01*
X125575Y128361D01*
X125561Y128291D01*
X125526Y128141D01*
X125484Y127980D01*
X125431Y127816D01*
X125365Y127646D01*
X125330Y127558D01*
X125288Y127471D01*
X125243Y127384D01*
X125198Y127296D01*
X125145Y127213D01*
X125089Y127129D01*
X125030Y127045D01*
X124967Y126962D01*
X124898Y126881D01*
X124824Y126804D01*
X124821Y126801D01*
X124814Y126794D01*
X124803Y126784D01*
X124786Y126769D01*
X124768Y126752D01*
X124744Y126728D01*
X124713Y126703D01*
X124681Y126675D01*
X124643Y126647D01*
X124601Y126616D01*
X124555Y126581D01*
X124507Y126546D01*
X124454Y126511D01*
X124395Y126473D01*
X124336Y126435D01*
X124269Y126396D01*
X124203Y126358D01*
X124130Y126319D01*
X123980Y126246D01*
X123812Y126176D01*
X123634Y126117D01*
X123442Y126065D01*
X123341Y126040D01*
X123240Y126023D01*
X123135Y126009D01*
X123027Y125998D01*
X122915Y125991D01*
X122803Y125988D01*
X122751D01*
X122730Y125991D01*
X122702D01*
X122674Y125995D01*
X122608Y125998D01*
X122528Y126005D01*
X122441Y126016D01*
X122343Y126030D01*
X122235Y126047D01*
X122123Y126072D01*
X122001Y126099D01*
X121879Y126131D01*
X121753Y126169D01*
X121624Y126215D01*
X121495Y126267D01*
X121366Y126326D01*
X121362D01*
X121359Y126330D01*
X121348Y126337D01*
X121334Y126344D01*
X121299Y126361D01*
X121254Y126389D01*
X121195Y126424D01*
X121132Y126469D01*
X121058Y126518D01*
X120978Y126578D01*
X120898Y126644D01*
X120811Y126717D01*
X120723Y126801D01*
X120640Y126888D01*
X120552Y126986D01*
X120472Y127091D01*
X120395Y127202D01*
X120326Y127321D01*
Y127324D01*
X120322Y127328D01*
X120319Y127338D01*
X120312Y127352D01*
X120301Y127366D01*
X120294Y127387D01*
X120270Y127440D01*
X120242Y127502D01*
X120214Y127579D01*
X120183Y127670D01*
X120148Y127768D01*
X120116Y127879D01*
X120081Y128001D01*
X120053Y128134D01*
X120025Y128277D01*
X120001Y128427D01*
X119983Y128584D01*
X119973Y128752D01*
X119970Y128926D01*
Y128930D01*
Y128933D01*
Y128944D01*
Y128958D01*
Y128975D01*
X119973Y128996D01*
X119977Y129049D01*
X119980Y129115D01*
X119987Y129192D01*
X120001Y129275D01*
X120015Y129373D01*
X120032Y129474D01*
X120057Y129586D01*
X120085Y129701D01*
X120120Y129823D01*
X120161Y129945D01*
X120207Y130071D01*
X120263Y130200D01*
X120326Y130326D01*
Y130329D01*
X120329Y130333D01*
X120336Y130343D01*
X120343Y130357D01*
X120364Y130392D01*
X120392Y130438D01*
X120427Y130493D01*
X120472Y130560D01*
X120525Y130629D01*
X120584Y130710D01*
X120654Y130790D01*
X120727Y130877D01*
X120811Y130961D01*
X120901Y131048D01*
X120999Y131132D01*
X121104Y131212D01*
X121215Y131289D01*
X121334Y131359D01*
X121338D01*
X121341Y131362D01*
X121352Y131369D01*
X121366Y131373D01*
X121400Y131390D01*
X121449Y131415D01*
X121509Y131443D01*
X121582Y131471D01*
X121666Y131505D01*
X121760Y131537D01*
X121865Y131572D01*
X121976Y131603D01*
X122099Y131631D01*
X122224Y131659D01*
X122360Y131683D01*
X122500Y131701D01*
X122643Y131711D01*
X122793Y131715D01*
X122849D01*
X122877Y131711D01*
D02*
G37*
G36*
X116420D02*
X116455D01*
X116497Y131708D01*
X116542Y131701D01*
X116595Y131697D01*
X116651Y131690D01*
X116710Y131683D01*
X116773Y131673D01*
X116839Y131659D01*
X116909Y131649D01*
X117059Y131614D01*
X117216Y131572D01*
X117380Y131516D01*
X117551Y131453D01*
X117635Y131415D01*
X117722Y131373D01*
X117806Y131327D01*
X117889Y131282D01*
X117977Y131230D01*
X118057Y131174D01*
X118141Y131111D01*
X118221Y131048D01*
X118298Y130978D01*
X118375Y130905D01*
X118378Y130902D01*
X118385Y130895D01*
X118396Y130884D01*
X118410Y130867D01*
X118427Y130849D01*
X118448Y130821D01*
X118472Y130793D01*
X118500Y130759D01*
X118528Y130724D01*
X118560Y130682D01*
X118591Y130636D01*
X118626Y130584D01*
X118661Y130532D01*
X118699Y130472D01*
X118734Y130413D01*
X118772Y130347D01*
X118811Y130280D01*
X118846Y130207D01*
X118919Y130054D01*
X118985Y129886D01*
X119045Y129705D01*
X119097Y129509D01*
X119118Y129411D01*
X119135Y129307D01*
X119149Y129199D01*
X119160Y129090D01*
X119167Y128979D01*
X119170Y128864D01*
Y128860D01*
Y128849D01*
Y128832D01*
Y128808D01*
X119167Y128780D01*
Y128745D01*
X119163Y128703D01*
X119156Y128658D01*
X119153Y128605D01*
X119146Y128549D01*
X119139Y128490D01*
X119129Y128427D01*
X119118Y128361D01*
X119104Y128291D01*
X119069Y128141D01*
X119027Y127980D01*
X118975Y127816D01*
X118909Y127646D01*
X118874Y127558D01*
X118832Y127471D01*
X118787Y127384D01*
X118741Y127296D01*
X118689Y127213D01*
X118633Y127129D01*
X118574Y127045D01*
X118511Y126962D01*
X118441Y126881D01*
X118368Y126804D01*
X118364Y126801D01*
X118357Y126794D01*
X118347Y126784D01*
X118329Y126769D01*
X118312Y126752D01*
X118287Y126728D01*
X118256Y126703D01*
X118225Y126675D01*
X118186Y126647D01*
X118144Y126616D01*
X118099Y126581D01*
X118050Y126546D01*
X117998Y126511D01*
X117938Y126473D01*
X117879Y126435D01*
X117813Y126396D01*
X117746Y126358D01*
X117673Y126319D01*
X117523Y126246D01*
X117356Y126176D01*
X117178Y126117D01*
X116986Y126065D01*
X116884Y126040D01*
X116783Y126023D01*
X116679Y126009D01*
X116570Y125998D01*
X116459Y125991D01*
X116347Y125988D01*
X116295D01*
X116274Y125991D01*
X116246D01*
X116218Y125995D01*
X116151Y125998D01*
X116071Y126005D01*
X115984Y126016D01*
X115886Y126030D01*
X115778Y126047D01*
X115666Y126072D01*
X115544Y126099D01*
X115422Y126131D01*
X115296Y126169D01*
X115167Y126215D01*
X115038Y126267D01*
X114909Y126326D01*
X114906D01*
X114902Y126330D01*
X114892Y126337D01*
X114878Y126344D01*
X114843Y126361D01*
X114797Y126389D01*
X114738Y126424D01*
X114675Y126469D01*
X114602Y126518D01*
X114522Y126578D01*
X114441Y126644D01*
X114354Y126717D01*
X114267Y126801D01*
X114183Y126888D01*
X114096Y126986D01*
X114016Y127091D01*
X113939Y127202D01*
X113869Y127321D01*
Y127324D01*
X113866Y127328D01*
X113862Y127338D01*
X113855Y127352D01*
X113845Y127366D01*
X113838Y127387D01*
X113813Y127440D01*
X113785Y127502D01*
X113757Y127579D01*
X113726Y127670D01*
X113691Y127768D01*
X113660Y127879D01*
X113625Y128001D01*
X113597Y128134D01*
X113569Y128277D01*
X113544Y128427D01*
X113527Y128584D01*
X113517Y128752D01*
X113513Y128926D01*
Y128930D01*
Y128933D01*
Y128944D01*
Y128958D01*
Y128975D01*
X113517Y128996D01*
X113520Y129049D01*
X113524Y129115D01*
X113531Y129192D01*
X113544Y129275D01*
X113558Y129373D01*
X113576Y129474D01*
X113600Y129586D01*
X113628Y129701D01*
X113663Y129823D01*
X113705Y129945D01*
X113750Y130071D01*
X113806Y130200D01*
X113869Y130326D01*
Y130329D01*
X113873Y130333D01*
X113880Y130343D01*
X113886Y130357D01*
X113907Y130392D01*
X113935Y130438D01*
X113970Y130493D01*
X114016Y130560D01*
X114068Y130629D01*
X114127Y130710D01*
X114197Y130790D01*
X114270Y130877D01*
X114354Y130961D01*
X114445Y131048D01*
X114543Y131132D01*
X114647Y131212D01*
X114759Y131289D01*
X114878Y131359D01*
X114881D01*
X114885Y131362D01*
X114895Y131369D01*
X114909Y131373D01*
X114944Y131390D01*
X114993Y131415D01*
X115052Y131443D01*
X115126Y131471D01*
X115209Y131505D01*
X115303Y131537D01*
X115408Y131572D01*
X115520Y131603D01*
X115642Y131631D01*
X115768Y131659D01*
X115904Y131683D01*
X116043Y131701D01*
X116186Y131711D01*
X116337Y131715D01*
X116392D01*
X116420Y131711D01*
D02*
G37*
G36*
X108781Y130950D02*
X108784Y130954D01*
X108788Y130957D01*
X108798Y130968D01*
X108812Y130982D01*
X108829Y130999D01*
X108847Y131020D01*
X108899Y131069D01*
X108966Y131129D01*
X109042Y131191D01*
X109130Y131261D01*
X109231Y131334D01*
X109343Y131404D01*
X109461Y131474D01*
X109594Y131537D01*
X109733Y131596D01*
X109880Y131645D01*
X110037Y131683D01*
X110117Y131697D01*
X110201Y131708D01*
X110285Y131711D01*
X110369Y131715D01*
X110414D01*
X110438Y131711D01*
X110466D01*
X110498Y131708D01*
X110536Y131704D01*
X110578Y131697D01*
X110620Y131694D01*
X110721Y131676D01*
X110833Y131656D01*
X110951Y131624D01*
X111081Y131586D01*
X111213Y131537D01*
X111353Y131477D01*
X111492Y131408D01*
X111628Y131324D01*
X111698Y131279D01*
X111768Y131230D01*
X111834Y131174D01*
X111901Y131118D01*
X111963Y131055D01*
X112026Y130989D01*
X112030Y130985D01*
X112033Y130982D01*
X112044Y130972D01*
X112054Y130954D01*
X112068Y130937D01*
X112086Y130912D01*
X112107Y130884D01*
X112127Y130853D01*
X112152Y130818D01*
X112180Y130780D01*
X112204Y130734D01*
X112236Y130689D01*
X112264Y130636D01*
X112292Y130581D01*
X112323Y130521D01*
X112354Y130455D01*
X112386Y130389D01*
X112417Y130315D01*
X112445Y130242D01*
X112477Y130162D01*
X112504Y130078D01*
X112529Y129991D01*
X112557Y129900D01*
X112581Y129802D01*
X112602Y129705D01*
X112623Y129603D01*
X112641Y129495D01*
X112654Y129384D01*
X112665Y129272D01*
X112675Y129153D01*
X112679Y129031D01*
X112682Y128905D01*
Y128902D01*
Y128888D01*
Y128870D01*
Y128843D01*
X112679Y128811D01*
Y128773D01*
X112675Y128724D01*
X112672Y128675D01*
X112669Y128619D01*
X112662Y128556D01*
X112654Y128490D01*
X112648Y128420D01*
X112637Y128347D01*
X112627Y128270D01*
X112599Y128110D01*
X112564Y127939D01*
X112518Y127761D01*
X112466Y127583D01*
X112400Y127401D01*
X112323Y127227D01*
X112232Y127056D01*
X112183Y126972D01*
X112131Y126895D01*
X112072Y126818D01*
X112012Y126745D01*
X112009Y126742D01*
X112005Y126738D01*
X111995Y126728D01*
X111981Y126714D01*
X111963Y126696D01*
X111946Y126675D01*
X111922Y126651D01*
X111894Y126626D01*
X111827Y126571D01*
X111751Y126504D01*
X111660Y126438D01*
X111559Y126368D01*
X111447Y126295D01*
X111325Y126229D01*
X111189Y126162D01*
X111046Y126106D01*
X110896Y126058D01*
X110735Y126019D01*
X110651Y126005D01*
X110564Y125995D01*
X110477Y125991D01*
X110389Y125988D01*
X110344D01*
X110309Y125991D01*
X110267Y125995D01*
X110219Y126002D01*
X110163Y126009D01*
X110100Y126016D01*
X110030Y126030D01*
X109957Y126044D01*
X109883Y126065D01*
X109803Y126085D01*
X109720Y126113D01*
X109636Y126145D01*
X109552Y126180D01*
X109465Y126222D01*
X109461Y126225D01*
X109444Y126232D01*
X109419Y126246D01*
X109388Y126267D01*
X109350Y126291D01*
X109304Y126319D01*
X109252Y126354D01*
X109196Y126396D01*
X109133Y126442D01*
X109070Y126494D01*
X109008Y126550D01*
X108938Y126612D01*
X108871Y126679D01*
X108805Y126752D01*
X108739Y126829D01*
X108676Y126913D01*
Y126110D01*
X107329D01*
Y133676D01*
X108781D01*
Y130950D01*
D02*
G37*
G36*
X103685Y131711D02*
X103720D01*
X103759Y131708D01*
X103804Y131701D01*
X103853Y131697D01*
X103905Y131690D01*
X103964Y131683D01*
X104024Y131673D01*
X104156Y131649D01*
X104299Y131614D01*
X104453Y131572D01*
X104610Y131516D01*
X104771Y131453D01*
X104851Y131415D01*
X104931Y131373D01*
X105011Y131327D01*
X105092Y131282D01*
X105168Y131230D01*
X105245Y131174D01*
X105319Y131111D01*
X105392Y131048D01*
X105465Y130978D01*
X105531Y130905D01*
X105535Y130902D01*
X105538Y130895D01*
X105549Y130884D01*
X105563Y130867D01*
X105577Y130846D01*
X105598Y130821D01*
X105619Y130790D01*
X105643Y130752D01*
X105668Y130713D01*
X105695Y130668D01*
X105723Y130615D01*
X105755Y130563D01*
X105786Y130504D01*
X105818Y130438D01*
X105849Y130368D01*
X105880Y130294D01*
X105915Y130214D01*
X105947Y130130D01*
X105978Y130040D01*
X106010Y129945D01*
X106037Y129848D01*
X106065Y129743D01*
X106093Y129635D01*
X106118Y129520D01*
X106139Y129401D01*
X106156Y129279D01*
X106174Y129150D01*
X106188Y129017D01*
X106198Y128877D01*
X106205Y128734D01*
X106209Y128584D01*
Y128431D01*
X102575D01*
Y128427D01*
Y128424D01*
Y128403D01*
X102579Y128368D01*
X102582Y128326D01*
X102589Y128270D01*
X102596Y128207D01*
X102610Y128138D01*
X102624Y128064D01*
X102642Y127984D01*
X102666Y127900D01*
X102694Y127816D01*
X102729Y127733D01*
X102767Y127653D01*
X102813Y127572D01*
X102865Y127495D01*
X102924Y127426D01*
X102928Y127422D01*
X102938Y127412D01*
X102959Y127394D01*
X102984Y127370D01*
X103019Y127342D01*
X103057Y127314D01*
X103102Y127283D01*
X103155Y127248D01*
X103214Y127216D01*
X103277Y127181D01*
X103347Y127153D01*
X103420Y127126D01*
X103497Y127101D01*
X103580Y127084D01*
X103671Y127073D01*
X103762Y127070D01*
X103793D01*
X103818Y127073D01*
X103849Y127077D01*
X103881Y127080D01*
X103919Y127084D01*
X103961Y127094D01*
X104048Y127115D01*
X104146Y127146D01*
X104191Y127167D01*
X104240Y127195D01*
X104286Y127223D01*
X104331Y127255D01*
X104334Y127258D01*
X104341Y127265D01*
X104352Y127276D01*
X104369Y127289D01*
X104390Y127311D01*
X104411Y127335D01*
X104436Y127363D01*
X104464Y127398D01*
X104491Y127436D01*
X104519Y127481D01*
X104551Y127530D01*
X104579Y127586D01*
X104610Y127642D01*
X104638Y127708D01*
X104662Y127778D01*
X104687Y127851D01*
X106132Y127611D01*
Y127607D01*
X106128Y127600D01*
X106125Y127590D01*
X106118Y127576D01*
X106111Y127558D01*
X106104Y127534D01*
X106079Y127481D01*
X106048Y127415D01*
X106013Y127338D01*
X105968Y127251D01*
X105915Y127160D01*
X105859Y127066D01*
X105793Y126965D01*
X105720Y126864D01*
X105643Y126762D01*
X105556Y126665D01*
X105462Y126571D01*
X105357Y126483D01*
X105249Y126400D01*
X105242Y126396D01*
X105221Y126382D01*
X105186Y126361D01*
X105141Y126337D01*
X105081Y126305D01*
X105011Y126270D01*
X104928Y126232D01*
X104837Y126194D01*
X104732Y126155D01*
X104617Y126117D01*
X104495Y126082D01*
X104362Y126051D01*
X104219Y126026D01*
X104069Y126005D01*
X103912Y125991D01*
X103745Y125988D01*
X103710D01*
X103682Y125991D01*
X103647D01*
X103609Y125995D01*
X103563Y125998D01*
X103511Y126002D01*
X103455Y126009D01*
X103392Y126016D01*
X103326Y126026D01*
X103256Y126037D01*
X103183Y126051D01*
X103106Y126065D01*
X102945Y126103D01*
X102774Y126155D01*
X102600Y126215D01*
X102513Y126250D01*
X102425Y126291D01*
X102338Y126333D01*
X102251Y126382D01*
X102164Y126431D01*
X102080Y126487D01*
X102000Y126546D01*
X101919Y126612D01*
X101842Y126682D01*
X101766Y126755D01*
X101696Y126836D01*
X101630Y126920D01*
Y126923D01*
X101623Y126930D01*
X101616Y126941D01*
X101605Y126954D01*
X101595Y126972D01*
X101581Y126996D01*
X101563Y127024D01*
X101546Y127056D01*
X101525Y127091D01*
X101504Y127129D01*
X101483Y127171D01*
X101459Y127216D01*
X101434Y127265D01*
X101410Y127317D01*
X101361Y127436D01*
X101309Y127565D01*
X101260Y127708D01*
X101214Y127865D01*
X101172Y128033D01*
X101137Y128211D01*
X101113Y128399D01*
X101096Y128598D01*
X101089Y128808D01*
Y128811D01*
Y128822D01*
Y128843D01*
Y128867D01*
X101092Y128898D01*
Y128937D01*
X101096Y128982D01*
X101099Y129031D01*
X101106Y129087D01*
X101110Y129146D01*
X101117Y129212D01*
X101127Y129279D01*
X101137Y129352D01*
X101148Y129425D01*
X101179Y129586D01*
X101214Y129753D01*
X101263Y129928D01*
X101319Y130103D01*
X101389Y130280D01*
X101469Y130458D01*
X101518Y130542D01*
X101567Y130626D01*
X101619Y130710D01*
X101675Y130790D01*
X101734Y130867D01*
X101801Y130940D01*
X101804Y130944D01*
X101808Y130950D01*
X101818Y130961D01*
X101832Y130975D01*
X101853Y130992D01*
X101874Y131013D01*
X101898Y131034D01*
X101930Y131062D01*
X101961Y131090D01*
X102000Y131122D01*
X102038Y131153D01*
X102083Y131184D01*
X102181Y131254D01*
X102293Y131327D01*
X102418Y131401D01*
X102555Y131471D01*
X102701Y131537D01*
X102862Y131593D01*
X103033Y131645D01*
X103211Y131680D01*
X103305Y131697D01*
X103402Y131708D01*
X103500Y131711D01*
X103602Y131715D01*
X103654D01*
X103685Y131711D01*
D02*
G37*
G36*
X150881Y133704D02*
X150912D01*
X150950Y133701D01*
X150989Y133697D01*
X151034Y133690D01*
X151079Y133683D01*
X151132Y133676D01*
X151188Y133666D01*
X151306Y133641D01*
X151435Y133610D01*
X151568Y133568D01*
X151711Y133516D01*
X151851Y133453D01*
X151994Y133376D01*
X152067Y133334D01*
X152137Y133285D01*
X152207Y133237D01*
X152273Y133181D01*
X152339Y133125D01*
X152402Y133062D01*
X152465Y132992D01*
X152524Y132922D01*
X152528Y132919D01*
X152531Y132912D01*
X152542Y132898D01*
X152556Y132877D01*
X152573Y132853D01*
X152594Y132821D01*
X152615Y132786D01*
X152639Y132744D01*
X152667Y132695D01*
X152695Y132643D01*
X152727Y132580D01*
X152758Y132514D01*
X152793Y132444D01*
X152824Y132364D01*
X152859Y132280D01*
X152894Y132190D01*
X152929Y132092D01*
X152964Y131987D01*
X152996Y131879D01*
X153030Y131764D01*
X153062Y131638D01*
X153093Y131509D01*
X153121Y131373D01*
X153149Y131230D01*
X153173Y131080D01*
X153194Y130926D01*
X153215Y130762D01*
X153233Y130591D01*
X153247Y130413D01*
X153257Y130232D01*
X153261Y130040D01*
X153264Y129841D01*
Y129834D01*
Y129816D01*
Y129788D01*
Y129746D01*
X153261Y129698D01*
Y129635D01*
X153257Y129569D01*
X153254Y129492D01*
X153247Y129404D01*
X153243Y129314D01*
X153233Y129216D01*
X153226Y129111D01*
X153215Y129003D01*
X153201Y128888D01*
X153187Y128773D01*
X153170Y128651D01*
X153132Y128399D01*
X153083Y128145D01*
X153023Y127886D01*
X152950Y127631D01*
X152908Y127509D01*
X152866Y127387D01*
X152817Y127269D01*
X152765Y127157D01*
X152709Y127045D01*
X152653Y126941D01*
X152587Y126843D01*
X152521Y126752D01*
Y126749D01*
X152514Y126745D01*
X152503Y126735D01*
X152493Y126721D01*
X152475Y126703D01*
X152458Y126682D01*
X152409Y126633D01*
X152346Y126574D01*
X152269Y126508D01*
X152179Y126442D01*
X152078Y126368D01*
X151962Y126298D01*
X151833Y126229D01*
X151690Y126162D01*
X151540Y126103D01*
X151373Y126054D01*
X151198Y126016D01*
X151104Y126002D01*
X151006Y125995D01*
X150908Y125988D01*
X150807Y125984D01*
X150779D01*
X150758Y125988D01*
X150730D01*
X150699Y125991D01*
X150664Y125995D01*
X150622Y125998D01*
X150580Y126002D01*
X150531Y126009D01*
X150479Y126019D01*
X150423Y126030D01*
X150301Y126054D01*
X150169Y126089D01*
X150029Y126134D01*
X149886Y126190D01*
X149739Y126260D01*
X149662Y126298D01*
X149589Y126340D01*
X149512Y126386D01*
X149439Y126438D01*
X149366Y126490D01*
X149296Y126550D01*
X149223Y126612D01*
X149156Y126679D01*
X149090Y126752D01*
X149024Y126829D01*
X149020Y126832D01*
X149017Y126839D01*
X149006Y126853D01*
X148996Y126871D01*
X148978Y126892D01*
X148961Y126923D01*
X148940Y126954D01*
X148919Y126996D01*
X148895Y127042D01*
X148867Y127091D01*
X148839Y127150D01*
X148811Y127213D01*
X148779Y127283D01*
X148752Y127356D01*
X148720Y127436D01*
X148689Y127527D01*
X148654Y127618D01*
X148626Y127719D01*
X148595Y127827D01*
X148563Y127939D01*
X148535Y128061D01*
X148507Y128187D01*
X148479Y128323D01*
X148455Y128462D01*
X148434Y128612D01*
X148413Y128766D01*
X148396Y128930D01*
X148378Y129101D01*
X148368Y129275D01*
X148357Y129460D01*
X148354Y129656D01*
X148350Y129855D01*
Y129862D01*
Y129879D01*
Y129907D01*
Y129949D01*
X148354Y129998D01*
Y130057D01*
X148357Y130127D01*
X148361Y130204D01*
X148368Y130287D01*
X148375Y130378D01*
X148382Y130476D01*
X148389Y130581D01*
X148399Y130689D01*
X148413Y130804D01*
X148427Y130923D01*
X148444Y131041D01*
X148483Y131293D01*
X148532Y131547D01*
X148591Y131802D01*
X148664Y132057D01*
X148706Y132179D01*
X148748Y132301D01*
X148797Y132416D01*
X148849Y132531D01*
X148905Y132640D01*
X148965Y132744D01*
X149027Y132842D01*
X149094Y132933D01*
X149097Y132936D01*
X149101Y132943D01*
X149111Y132954D01*
X149122Y132968D01*
X149139Y132985D01*
X149156Y133006D01*
X149205Y133055D01*
X149268Y133114D01*
X149345Y133177D01*
X149436Y133247D01*
X149537Y133320D01*
X149655Y133394D01*
X149781Y133463D01*
X149924Y133530D01*
X150074Y133586D01*
X150242Y133638D01*
X150416Y133673D01*
X150511Y133690D01*
X150608Y133701D01*
X150706Y133704D01*
X150807Y133708D01*
X150856D01*
X150881Y133704D01*
D02*
G37*
%LPC*%
G36*
X363489Y133771D02*
X363487D01*
X363484D01*
X363477D01*
X363468D01*
X363458D01*
X363444Y133769D01*
X363428D01*
X363411D01*
X363392Y133767D01*
X363371Y133765D01*
X363326Y133762D01*
X363273Y133757D01*
X363216Y133751D01*
X363155Y133743D01*
X363091Y133732D01*
X363023Y133720D01*
X362955Y133704D01*
X362887Y133687D01*
X362817Y133666D01*
X362751Y133642D01*
X362685Y133614D01*
X362683D01*
X362682Y133612D01*
X362677Y133610D01*
X362669Y133607D01*
X362652Y133598D01*
X362628Y133584D01*
X362600Y133569D01*
X362567Y133549D01*
X362529Y133525D01*
X362489Y133499D01*
X362447Y133468D01*
X362403Y133435D01*
X362360Y133396D01*
X362315Y133356D01*
X362271Y133311D01*
X362229Y133264D01*
X362189Y133212D01*
X362153Y133158D01*
X362151Y133154D01*
X362144Y133144D01*
X362135Y133128D01*
X362123Y133106D01*
X362109Y133078D01*
X362092Y133043D01*
X362076Y133005D01*
X362057Y132961D01*
X362040Y132914D01*
X362022Y132862D01*
X362007Y132807D01*
X361993Y132749D01*
X361981Y132686D01*
X361972Y132622D01*
X361965Y132556D01*
X361963Y132486D01*
Y132462D01*
X361965Y132450D01*
Y132434D01*
X361967Y132417D01*
X361968Y132398D01*
X361972Y132375D01*
X361974Y132352D01*
X361977Y132326D01*
X361982Y132299D01*
X361993Y132239D01*
X362008Y132173D01*
X362028Y132104D01*
X362052Y132030D01*
X362081Y131954D01*
X362116Y131877D01*
X362158Y131799D01*
X362182Y131761D01*
X362207Y131722D01*
X362234Y131684D01*
X362262Y131646D01*
X362294Y131609D01*
X362327Y131573D01*
X362329Y131571D01*
X362330Y131569D01*
X362337Y131564D01*
X362344Y131557D01*
X362355Y131549D01*
X362365Y131538D01*
X362381Y131526D01*
X362396Y131514D01*
X362416Y131500D01*
X362436Y131484D01*
X362461Y131468D01*
X362487Y131453D01*
X362515Y131435D01*
X362546Y131418D01*
X362579Y131401D01*
X362616Y131383D01*
X362654Y131364D01*
X362694Y131347D01*
X362737Y131329D01*
X362783Y131312D01*
X362831Y131296D01*
X362883Y131281D01*
X362937Y131265D01*
X362993Y131251D01*
X363052Y131239D01*
X363115Y131227D01*
X363179Y131216D01*
X363246Y131208D01*
X363317Y131201D01*
X363388Y131195D01*
X363465Y131194D01*
X363543Y131192D01*
X363545D01*
X363550D01*
X363560D01*
X363573D01*
X363590Y131194D01*
X363609D01*
X363630Y131195D01*
X363656Y131197D01*
X363684Y131201D01*
X363714Y131202D01*
X363745Y131208D01*
X363780Y131211D01*
X363816Y131216D01*
X363853Y131223D01*
X363933Y131237D01*
X364018Y131256D01*
X364105Y131281D01*
X364194Y131310D01*
X364284Y131347D01*
X364330Y131366D01*
X364373Y131388D01*
X364417Y131411D01*
X364460Y131437D01*
X364500Y131463D01*
X364542Y131493D01*
X364580Y131524D01*
X364618Y131557D01*
X364620Y131559D01*
X364622Y131561D01*
X364629Y131568D01*
X364636Y131575D01*
X364644Y131583D01*
X364655Y131596D01*
X364667Y131608D01*
X364679Y131623D01*
X364693Y131641D01*
X364709Y131660D01*
X364724Y131681D01*
X364742Y131703D01*
X364759Y131728D01*
X364777Y131752D01*
X364813Y131809D01*
X364850Y131874D01*
X364886Y131944D01*
X364919Y132018D01*
X364949Y132100D01*
X364973Y132187D01*
X364992Y132279D01*
X364999Y132328D01*
X365005Y132377D01*
X365008Y132427D01*
X365010Y132478D01*
Y132502D01*
X365008Y132516D01*
X365006Y132532D01*
Y132551D01*
X365003Y132572D01*
X365001Y132594D01*
X364998Y132620D01*
X364994Y132647D01*
X364989Y132676D01*
X364977Y132737D01*
X364959Y132805D01*
X364938Y132876D01*
X364912Y132953D01*
X364881Y133029D01*
X364862Y133068D01*
X364843Y133108D01*
X364820Y133146D01*
X364797Y133184D01*
X364771Y133222D01*
X364744Y133261D01*
X364714Y133299D01*
X364683Y133335D01*
X364650Y133370D01*
X364613Y133405D01*
X364611Y133407D01*
X364608Y133409D01*
X364603Y133414D01*
X364594Y133421D01*
X364583Y133430D01*
X364571Y133438D01*
X364557Y133450D01*
X364540Y133463D01*
X364521Y133476D01*
X364498Y133490D01*
X364476Y133504D01*
X364450Y133520D01*
X364422Y133537D01*
X364390Y133553D01*
X364359Y133570D01*
X364324Y133588D01*
X364288Y133605D01*
X364248Y133623D01*
X364208Y133638D01*
X364164Y133656D01*
X364119Y133671D01*
X364072Y133685D01*
X364023Y133701D01*
X363971Y133713D01*
X363919Y133725D01*
X363863Y133737D01*
X363806Y133746D01*
X363747Y133755D01*
X363684Y133762D01*
X363621Y133767D01*
X363557Y133769D01*
X363489Y133771D01*
D02*
G37*
G36*
X30197Y195873D02*
Y195869D01*
Y195866D01*
X30193Y195855D01*
X30190Y195841D01*
X30187Y195824D01*
X30183Y195799D01*
X30169Y195747D01*
X30155Y195681D01*
X30138Y195604D01*
X30117Y195517D01*
X30092Y195419D01*
X30064Y195314D01*
X30033Y195199D01*
X29998Y195080D01*
X29963Y194955D01*
X29925Y194826D01*
X29883Y194696D01*
X29789Y194428D01*
X28958Y192208D01*
X31523D01*
X30731Y194302D01*
Y194306D01*
X30727Y194313D01*
X30720Y194326D01*
X30717Y194344D01*
X30707Y194368D01*
X30696Y194393D01*
X30685Y194424D01*
X30672Y194463D01*
X30658Y194501D01*
X30644Y194543D01*
X30609Y194637D01*
X30570Y194742D01*
X30529Y194857D01*
X30487Y194979D01*
X30441Y195105D01*
X30354Y195367D01*
X30312Y195499D01*
X30270Y195628D01*
X30232Y195754D01*
X30197Y195873D01*
D02*
G37*
G36*
X74725Y152196D02*
X73249D01*
Y148623D01*
X74829D01*
X74882Y148629D01*
X75004D01*
X75143Y148635D01*
X75294Y148640D01*
X75451Y148646D01*
X75619Y148658D01*
X75788Y148669D01*
X75956Y148687D01*
X76119Y148704D01*
X76276Y148728D01*
X76415Y148757D01*
X76543Y148786D01*
X76595Y148803D01*
X76648Y148820D01*
X76654D01*
X76671Y148832D01*
X76694Y148844D01*
X76735Y148855D01*
X76776Y148879D01*
X76822Y148908D01*
X76938Y148971D01*
X77066Y149059D01*
X77200Y149163D01*
X77328Y149291D01*
X77444Y149436D01*
X77450Y149442D01*
X77455Y149454D01*
X77473Y149477D01*
X77490Y149512D01*
X77513Y149553D01*
X77537Y149599D01*
X77560Y149657D01*
X77589Y149721D01*
X77618Y149785D01*
X77641Y149861D01*
X77688Y150029D01*
X77723Y150215D01*
X77728Y150314D01*
X77734Y150418D01*
Y150424D01*
Y150447D01*
Y150482D01*
X77728Y150534D01*
X77723Y150593D01*
X77711Y150656D01*
X77699Y150732D01*
X77682Y150819D01*
X77665Y150906D01*
X77636Y150993D01*
X77601Y151092D01*
X77566Y151185D01*
X77513Y151278D01*
X77461Y151377D01*
X77397Y151464D01*
X77328Y151551D01*
X77322Y151557D01*
X77310Y151569D01*
X77287Y151592D01*
X77258Y151621D01*
X77217Y151656D01*
X77171Y151696D01*
X77113Y151743D01*
X77049Y151789D01*
X76979Y151836D01*
X76903Y151882D01*
X76816Y151929D01*
X76729Y151975D01*
X76630Y152016D01*
X76526Y152051D01*
X76421Y152086D01*
X76305Y152109D01*
X76299D01*
X76282Y152115D01*
X76253D01*
X76212Y152121D01*
X76160Y152132D01*
X76090Y152138D01*
X76003Y152144D01*
X75904Y152155D01*
X75794Y152161D01*
X75660Y152167D01*
X75509Y152179D01*
X75340Y152184D01*
X75155Y152190D01*
X74951D01*
X74725Y152196D01*
D02*
G37*
G36*
X200845Y206679D02*
X200740D01*
X200618Y206661D01*
X200479Y206644D01*
X200304Y206609D01*
X200095Y206539D01*
X199903Y206469D01*
X199693Y206365D01*
X199676Y206347D01*
X199606Y206295D01*
X199589Y206277D01*
X199536Y206260D01*
X199519Y206242D01*
X199467Y206208D01*
X199379Y206138D01*
X199275Y206050D01*
X199170Y205928D01*
X199065Y205806D01*
X198943Y205667D01*
X198856Y205510D01*
X183168Y178357D01*
X183186D01*
X183168Y178340D01*
X183151Y178323D01*
Y178305D01*
X183133Y178288D01*
X183098Y178200D01*
X183064Y178096D01*
X183029Y178008D01*
X183011Y177973D01*
X182976Y177886D01*
X182941Y177781D01*
X182924Y177694D01*
Y177677D01*
Y177659D01*
X182906Y177555D01*
X182889Y177380D01*
Y177171D01*
X182906Y176927D01*
X182959Y176665D01*
X183046Y176368D01*
X183186Y176089D01*
X183203Y176071D01*
X183238Y176002D01*
X183308Y175897D01*
X183395Y175810D01*
X183413Y175792D01*
X183448Y175740D01*
X183517Y175670D01*
X183622Y175548D01*
X183657Y175531D01*
X183727Y175461D01*
X183866Y175356D01*
X184058Y175251D01*
X184285Y175147D01*
X184547Y175042D01*
X184844Y174972D01*
X185175Y174955D01*
X216533Y174955D01*
X216550Y174972D01*
X216899D01*
X216969Y175007D01*
X217039Y175024D01*
X217126Y175042D01*
X217213Y175077D01*
X217248D01*
X217213Y175059D01*
X217231D01*
X217248Y175077D01*
X217353Y175112D01*
X217492Y175181D01*
X217684Y175286D01*
X217894Y175426D01*
X218103Y175600D01*
X218313Y175827D01*
X218505Y176089D01*
X218522Y176106D01*
X218557Y176194D01*
X218609Y176298D01*
X218662Y176438D01*
X218714Y176612D01*
X218766Y176804D01*
X218801Y177014D01*
X218819Y177241D01*
Y177258D01*
Y177310D01*
Y177380D01*
X218801Y177433D01*
Y177450D01*
Y177467D01*
X218784Y177537D01*
X218766Y177624D01*
X218749Y177747D01*
X218696Y177904D01*
X218644Y178061D01*
X218574Y178218D01*
X218487Y178392D01*
X218470Y178410D01*
X202800Y205544D01*
X202782Y205579D01*
X202747Y205614D01*
X202712Y205667D01*
X202677Y205736D01*
X202608Y205824D01*
X202590Y205841D01*
X202555Y205893D01*
X202485Y205963D01*
X202381Y206068D01*
X202346Y206085D01*
X202259Y206155D01*
X202136Y206260D01*
X201944Y206365D01*
X201718Y206469D01*
X201456Y206574D01*
X201159Y206644D01*
X200845Y206661D01*
Y206679D01*
D02*
G37*
%LPD*%
G36*
X196308Y188042D02*
X206639Y193364D01*
X200357Y180364D01*
X202608Y180922D01*
X198856Y176525D01*
X198001Y181778D01*
X199728Y180434D01*
X202171Y189805D01*
X194232Y185896D01*
X199310Y203485D01*
X203061Y203608D01*
X196308Y188042D01*
D02*
G37*
%LPC*%
G36*
X22742Y223330D02*
X20683D01*
Y220626D01*
X22707D01*
X22732Y220629D01*
X22763D01*
X22798Y220633D01*
X22878Y220636D01*
X22969Y220643D01*
X23070Y220657D01*
X23178Y220671D01*
X23290Y220689D01*
X23402Y220713D01*
X23517Y220744D01*
X23632Y220776D01*
X23740Y220818D01*
X23842Y220866D01*
X23932Y220922D01*
X24016Y220985D01*
X24020Y220989D01*
X24034Y221003D01*
X24055Y221024D01*
X24079Y221052D01*
X24110Y221090D01*
X24145Y221135D01*
X24184Y221188D01*
X24222Y221250D01*
X24257Y221317D01*
X24295Y221393D01*
X24330Y221477D01*
X24362Y221568D01*
X24386Y221666D01*
X24407Y221774D01*
X24421Y221886D01*
X24424Y222004D01*
Y222011D01*
Y222025D01*
Y222050D01*
X24421Y222084D01*
X24418Y222126D01*
X24410Y222172D01*
X24404Y222224D01*
X24393Y222284D01*
X24383Y222346D01*
X24365Y222413D01*
X24348Y222479D01*
X24323Y222549D01*
X24295Y222619D01*
X24264Y222685D01*
X24226Y222751D01*
X24184Y222817D01*
X24180Y222821D01*
X24173Y222831D01*
X24159Y222849D01*
X24142Y222873D01*
X24117Y222898D01*
X24089Y222929D01*
X24055Y222964D01*
X24016Y222999D01*
X23974Y223037D01*
X23925Y223076D01*
X23873Y223114D01*
X23817Y223149D01*
X23758Y223184D01*
X23692Y223215D01*
X23625Y223240D01*
X23552Y223264D01*
X23549D01*
X23541Y223268D01*
X23524Y223271D01*
X23503Y223275D01*
X23472Y223278D01*
X23437Y223285D01*
X23391Y223292D01*
X23343Y223299D01*
X23283Y223303D01*
X23213Y223309D01*
X23137Y223317D01*
X23053Y223320D01*
X22959Y223323D01*
X22854Y223327D01*
X22742Y223330D01*
D02*
G37*
G36*
X42388Y221498D02*
X42360D01*
X42325Y221495D01*
X42279Y221491D01*
X42227Y221484D01*
X42164Y221477D01*
X42091Y221463D01*
X42014Y221446D01*
X41930Y221421D01*
X41843Y221393D01*
X41756Y221359D01*
X41665Y221317D01*
X41574Y221268D01*
X41484Y221212D01*
X41396Y221146D01*
X41313Y221069D01*
X41309Y221065D01*
X41295Y221048D01*
X41271Y221024D01*
X41243Y220992D01*
X41211Y220947D01*
X41173Y220894D01*
X41131Y220835D01*
X41089Y220765D01*
X41044Y220689D01*
X41002Y220601D01*
X40960Y220507D01*
X40925Y220406D01*
X40890Y220294D01*
X40862Y220179D01*
X40841Y220053D01*
X40828Y219924D01*
X43888D01*
Y219928D01*
Y219931D01*
Y219942D01*
X43885Y219956D01*
X43881Y219990D01*
X43874Y220039D01*
X43867Y220095D01*
X43853Y220162D01*
X43839Y220235D01*
X43822Y220312D01*
X43801Y220395D01*
X43777Y220483D01*
X43749Y220566D01*
X43717Y220654D01*
X43679Y220737D01*
X43637Y220818D01*
X43591Y220891D01*
X43539Y220961D01*
X43536Y220968D01*
X43518Y220985D01*
X43494Y221010D01*
X43459Y221044D01*
X43413Y221086D01*
X43361Y221132D01*
X43298Y221181D01*
X43229Y221230D01*
X43152Y221278D01*
X43065Y221327D01*
X42970Y221373D01*
X42866Y221414D01*
X42757Y221449D01*
X42639Y221474D01*
X42517Y221491D01*
X42388Y221498D01*
D02*
G37*
G36*
X28839Y221491D02*
X28808D01*
X28773Y221488D01*
X28724Y221484D01*
X28665Y221474D01*
X28595Y221463D01*
X28518Y221449D01*
X28435Y221425D01*
X28344Y221400D01*
X28249Y221366D01*
X28155Y221324D01*
X28058Y221271D01*
X27960Y221212D01*
X27862Y221142D01*
X27771Y221062D01*
X27681Y220971D01*
X27677Y220964D01*
X27660Y220947D01*
X27639Y220915D01*
X27611Y220873D01*
X27576Y220818D01*
X27538Y220751D01*
X27496Y220671D01*
X27454Y220580D01*
X27408Y220476D01*
X27367Y220357D01*
X27328Y220228D01*
X27297Y220088D01*
X27265Y219935D01*
X27244Y219767D01*
X27230Y219589D01*
X27223Y219397D01*
Y219394D01*
Y219387D01*
Y219369D01*
Y219352D01*
X27227Y219327D01*
Y219296D01*
Y219261D01*
X27230Y219226D01*
X27234Y219181D01*
X27237Y219135D01*
X27248Y219038D01*
X27262Y218926D01*
X27279Y218804D01*
X27304Y218678D01*
X27335Y218549D01*
X27373Y218417D01*
X27415Y218287D01*
X27468Y218158D01*
X27531Y218040D01*
X27600Y217924D01*
X27681Y217820D01*
X27688Y217813D01*
X27702Y217799D01*
X27729Y217771D01*
X27764Y217740D01*
X27810Y217698D01*
X27862Y217656D01*
X27925Y217607D01*
X27998Y217558D01*
X28078Y217509D01*
X28166Y217460D01*
X28260Y217418D01*
X28365Y217376D01*
X28473Y217345D01*
X28588Y217317D01*
X28710Y217303D01*
X28839Y217296D01*
X28871D01*
X28906Y217300D01*
X28954Y217303D01*
X29014Y217314D01*
X29084Y217324D01*
X29160Y217342D01*
X29241Y217363D01*
X29331Y217390D01*
X29422Y217425D01*
X29520Y217467D01*
X29614Y217520D01*
X29712Y217579D01*
X29806Y217649D01*
X29900Y217729D01*
X29987Y217823D01*
X29994Y217830D01*
X30009Y217848D01*
X30029Y217879D01*
X30061Y217921D01*
X30096Y217977D01*
X30134Y218047D01*
X30176Y218127D01*
X30218Y218221D01*
X30260Y218329D01*
X30302Y218448D01*
X30340Y218577D01*
X30375Y218724D01*
X30406Y218881D01*
X30427Y219052D01*
X30445Y219233D01*
X30448Y219429D01*
Y219432D01*
Y219439D01*
Y219453D01*
Y219474D01*
Y219498D01*
X30445Y219526D01*
Y219558D01*
X30441Y219596D01*
X30438Y219635D01*
X30434Y219680D01*
X30424Y219778D01*
X30410Y219886D01*
X30389Y220001D01*
X30364Y220123D01*
X30336Y220252D01*
X30298Y220378D01*
X30253Y220507D01*
X30200Y220633D01*
X30138Y220751D01*
X30064Y220863D01*
X29984Y220968D01*
X29980Y220975D01*
X29963Y220989D01*
X29939Y221017D01*
X29900Y221048D01*
X29855Y221090D01*
X29803Y221132D01*
X29740Y221181D01*
X29670Y221230D01*
X29590Y221278D01*
X29502Y221327D01*
X29408Y221369D01*
X29307Y221411D01*
X29199Y221442D01*
X29084Y221470D01*
X28965Y221484D01*
X28839Y221491D01*
D02*
G37*
G36*
X30361Y168216D02*
X28302D01*
Y165511D01*
X30326D01*
X30351Y165515D01*
X30382D01*
X30417Y165518D01*
X30497Y165522D01*
X30588Y165529D01*
X30689Y165542D01*
X30797Y165557D01*
X30909Y165574D01*
X31021Y165598D01*
X31136Y165630D01*
X31251Y165661D01*
X31359Y165703D01*
X31460Y165752D01*
X31551Y165808D01*
X31635Y165871D01*
X31638Y165874D01*
X31652Y165888D01*
X31673Y165909D01*
X31698Y165937D01*
X31729Y165975D01*
X31764Y166021D01*
X31802Y166073D01*
X31841Y166136D01*
X31876Y166202D01*
X31914Y166279D01*
X31949Y166363D01*
X31980Y166453D01*
X32005Y166551D01*
X32026Y166659D01*
X32040Y166771D01*
X32043Y166890D01*
Y166897D01*
Y166911D01*
Y166935D01*
X32040Y166970D01*
X32036Y167012D01*
X32029Y167057D01*
X32022Y167110D01*
X32012Y167169D01*
X32001Y167232D01*
X31984Y167298D01*
X31966Y167364D01*
X31942Y167434D01*
X31914Y167504D01*
X31883Y167570D01*
X31844Y167637D01*
X31802Y167703D01*
X31799Y167706D01*
X31792Y167717D01*
X31778Y167734D01*
X31760Y167759D01*
X31736Y167783D01*
X31708Y167815D01*
X31673Y167849D01*
X31635Y167884D01*
X31593Y167923D01*
X31544Y167961D01*
X31492Y167999D01*
X31436Y168034D01*
X31376Y168069D01*
X31310Y168101D01*
X31244Y168125D01*
X31171Y168149D01*
X31167D01*
X31160Y168153D01*
X31143Y168157D01*
X31122Y168160D01*
X31090Y168164D01*
X31056Y168170D01*
X31010Y168177D01*
X30961Y168184D01*
X30902Y168188D01*
X30832Y168195D01*
X30755Y168202D01*
X30672Y168205D01*
X30577Y168209D01*
X30473Y168212D01*
X30361Y168216D01*
D02*
G37*
G36*
X22435Y140653D02*
X20683D01*
Y134870D01*
X22372D01*
X22425Y134874D01*
X22488D01*
X22557Y134877D01*
X22641Y134881D01*
X22728Y134888D01*
X22819Y134895D01*
X22917Y134905D01*
X23112Y134930D01*
X23210Y134944D01*
X23304Y134965D01*
X23391Y134985D01*
X23475Y135010D01*
X23479D01*
X23493Y135017D01*
X23517Y135024D01*
X23545Y135034D01*
X23583Y135052D01*
X23622Y135069D01*
X23671Y135087D01*
X23720Y135111D01*
X23828Y135167D01*
X23939Y135237D01*
X24051Y135314D01*
X24103Y135359D01*
X24152Y135404D01*
X24156Y135408D01*
X24170Y135422D01*
X24187Y135443D01*
X24212Y135471D01*
X24239Y135505D01*
X24274Y135547D01*
X24313Y135600D01*
X24355Y135659D01*
X24400Y135722D01*
X24445Y135795D01*
X24491Y135872D01*
X24536Y135959D01*
X24581Y136050D01*
X24627Y136148D01*
X24669Y136252D01*
X24707Y136361D01*
Y136364D01*
X24711Y136368D01*
X24714Y136389D01*
X24725Y136423D01*
X24739Y136469D01*
X24753Y136525D01*
X24770Y136594D01*
X24787Y136678D01*
X24808Y136769D01*
X24826Y136870D01*
X24843Y136982D01*
X24861Y137101D01*
X24875Y137230D01*
X24889Y137366D01*
X24899Y137509D01*
X24903Y137662D01*
X24906Y137819D01*
Y137823D01*
Y137833D01*
Y137851D01*
Y137872D01*
Y137900D01*
X24903Y137935D01*
Y137973D01*
X24899Y138015D01*
Y138064D01*
X24896Y138113D01*
X24889Y138168D01*
X24885Y138228D01*
X24875Y138357D01*
X24857Y138493D01*
X24836Y138636D01*
X24812Y138786D01*
X24780Y138936D01*
X24742Y139090D01*
X24697Y139236D01*
X24644Y139379D01*
X24585Y139516D01*
X24515Y139641D01*
Y139645D01*
X24512Y139648D01*
X24498Y139669D01*
X24477Y139700D01*
X24445Y139746D01*
X24407Y139795D01*
X24362Y139854D01*
X24309Y139920D01*
X24253Y139987D01*
X24187Y140060D01*
X24114Y140130D01*
X24037Y140203D01*
X23953Y140273D01*
X23863Y140336D01*
X23772Y140399D01*
X23671Y140451D01*
X23569Y140496D01*
X23566Y140500D01*
X23552Y140503D01*
X23528Y140510D01*
X23493Y140521D01*
X23451Y140531D01*
X23395Y140545D01*
X23332Y140559D01*
X23259Y140577D01*
X23171Y140591D01*
X23077Y140604D01*
X22973Y140618D01*
X22854Y140629D01*
X22725Y140639D01*
X22585Y140646D01*
X22435Y140653D01*
D02*
G37*
G36*
X29422Y138814D02*
X29391D01*
X29356Y138811D01*
X29307Y138807D01*
X29248Y138797D01*
X29178Y138786D01*
X29101Y138772D01*
X29017Y138748D01*
X28927Y138723D01*
X28832Y138688D01*
X28738Y138647D01*
X28640Y138594D01*
X28543Y138535D01*
X28445Y138465D01*
X28354Y138385D01*
X28264Y138294D01*
X28260Y138287D01*
X28242Y138270D01*
X28222Y138238D01*
X28194Y138196D01*
X28159Y138140D01*
X28120Y138074D01*
X28078Y137994D01*
X28037Y137903D01*
X27991Y137799D01*
X27949Y137680D01*
X27911Y137551D01*
X27880Y137411D01*
X27848Y137258D01*
X27827Y137090D01*
X27813Y136912D01*
X27806Y136720D01*
Y136717D01*
Y136710D01*
Y136692D01*
Y136675D01*
X27810Y136650D01*
Y136619D01*
Y136584D01*
X27813Y136549D01*
X27817Y136504D01*
X27820Y136458D01*
X27831Y136361D01*
X27845Y136249D01*
X27862Y136127D01*
X27887Y136001D01*
X27918Y135872D01*
X27956Y135739D01*
X27998Y135610D01*
X28051Y135481D01*
X28113Y135363D01*
X28183Y135247D01*
X28264Y135143D01*
X28270Y135136D01*
X28284Y135122D01*
X28312Y135094D01*
X28347Y135062D01*
X28393Y135020D01*
X28445Y134979D01*
X28508Y134930D01*
X28581Y134881D01*
X28661Y134832D01*
X28749Y134783D01*
X28843Y134741D01*
X28947Y134699D01*
X29056Y134668D01*
X29171Y134640D01*
X29293Y134626D01*
X29422Y134619D01*
X29454D01*
X29489Y134623D01*
X29537Y134626D01*
X29597Y134636D01*
X29666Y134647D01*
X29743Y134664D01*
X29823Y134685D01*
X29914Y134713D01*
X30005Y134748D01*
X30103Y134790D01*
X30197Y134843D01*
X30295Y134902D01*
X30389Y134972D01*
X30483Y135052D01*
X30570Y135146D01*
X30577Y135153D01*
X30591Y135170D01*
X30612Y135202D01*
X30644Y135244D01*
X30678Y135300D01*
X30717Y135369D01*
X30759Y135450D01*
X30801Y135544D01*
X30843Y135652D01*
X30884Y135771D01*
X30923Y135900D01*
X30958Y136047D01*
X30989Y136204D01*
X31010Y136375D01*
X31027Y136556D01*
X31031Y136751D01*
Y136755D01*
Y136762D01*
Y136776D01*
Y136797D01*
Y136821D01*
X31027Y136849D01*
Y136881D01*
X31024Y136919D01*
X31021Y136957D01*
X31017Y137003D01*
X31007Y137101D01*
X30993Y137209D01*
X30972Y137324D01*
X30947Y137446D01*
X30919Y137575D01*
X30881Y137701D01*
X30836Y137830D01*
X30783Y137955D01*
X30720Y138074D01*
X30647Y138186D01*
X30567Y138291D01*
X30563Y138298D01*
X30546Y138312D01*
X30522Y138339D01*
X30483Y138371D01*
X30438Y138413D01*
X30385Y138455D01*
X30323Y138504D01*
X30253Y138552D01*
X30173Y138601D01*
X30085Y138650D01*
X29991Y138692D01*
X29890Y138734D01*
X29782Y138765D01*
X29666Y138793D01*
X29548Y138807D01*
X29422Y138814D01*
D02*
G37*
G36*
X96998Y132395D02*
X95421D01*
Y130476D01*
X96726D01*
X96772Y130479D01*
X96915D01*
X97023Y130483D01*
X97135Y130486D01*
X97368Y130497D01*
X97483Y130504D01*
X97595Y130514D01*
X97696Y130525D01*
X97787Y130535D01*
X97825Y130542D01*
X97864Y130549D01*
X97895Y130560D01*
X97923Y130567D01*
X97927D01*
X97937Y130570D01*
X97951Y130577D01*
X97969Y130584D01*
X97993Y130595D01*
X98018Y130608D01*
X98080Y130643D01*
X98150Y130685D01*
X98220Y130741D01*
X98290Y130807D01*
X98352Y130888D01*
X98356Y130891D01*
X98360Y130898D01*
X98366Y130912D01*
X98377Y130930D01*
X98387Y130950D01*
X98401Y130978D01*
X98415Y131010D01*
X98433Y131045D01*
X98447Y131083D01*
X98461Y131125D01*
X98475Y131174D01*
X98485Y131223D01*
X98503Y131334D01*
X98510Y131394D01*
Y131457D01*
Y131460D01*
Y131474D01*
Y131495D01*
X98506Y131519D01*
X98503Y131551D01*
X98499Y131589D01*
X98492Y131631D01*
X98485Y131676D01*
X98461Y131774D01*
X98443Y131826D01*
X98422Y131875D01*
X98398Y131928D01*
X98374Y131977D01*
X98339Y132026D01*
X98304Y132071D01*
X98300Y132074D01*
X98293Y132081D01*
X98283Y132092D01*
X98265Y132109D01*
X98244Y132127D01*
X98220Y132148D01*
X98189Y132172D01*
X98157Y132196D01*
X98119Y132224D01*
X98073Y132249D01*
X98028Y132273D01*
X97976Y132298D01*
X97920Y132319D01*
X97860Y132340D01*
X97798Y132357D01*
X97728Y132371D01*
X97717D01*
X97703Y132375D01*
X97686D01*
X97658Y132378D01*
X97620D01*
X97574Y132381D01*
X97518Y132385D01*
X97452D01*
X97375Y132388D01*
X97285D01*
X97232Y132392D01*
X97061D01*
X96998Y132395D01*
D02*
G37*
G36*
X77346Y132395D02*
X76460D01*
Y130249D01*
X77409D01*
X77440Y130253D01*
X77514D01*
X77597Y130256D01*
X77688Y130260D01*
X77782Y130263D01*
X77884Y130270D01*
X77985Y130277D01*
X78086Y130287D01*
X78184Y130298D01*
X78278Y130312D01*
X78362Y130329D01*
X78439Y130347D01*
X78470Y130357D01*
X78501Y130368D01*
X78505D01*
X78515Y130375D01*
X78529Y130382D01*
X78554Y130389D01*
X78578Y130403D01*
X78606Y130420D01*
X78676Y130458D01*
X78753Y130511D01*
X78833Y130574D01*
X78910Y130650D01*
X78979Y130738D01*
X78983Y130741D01*
X78987Y130748D01*
X78997Y130762D01*
X79007Y130783D01*
X79021Y130807D01*
X79035Y130835D01*
X79049Y130870D01*
X79067Y130909D01*
X79084Y130947D01*
X79098Y130992D01*
X79126Y131094D01*
X79147Y131205D01*
X79150Y131265D01*
X79154Y131327D01*
Y131331D01*
Y131345D01*
Y131366D01*
X79150Y131397D01*
X79147Y131432D01*
X79140Y131471D01*
X79133Y131516D01*
X79123Y131568D01*
X79112Y131621D01*
X79095Y131673D01*
X79074Y131732D01*
X79053Y131788D01*
X79021Y131844D01*
X78990Y131903D01*
X78952Y131956D01*
X78910Y132008D01*
X78906Y132011D01*
X78899Y132018D01*
X78885Y132032D01*
X78868Y132050D01*
X78843Y132071D01*
X78816Y132095D01*
X78781Y132123D01*
X78742Y132151D01*
X78700Y132179D01*
X78655Y132207D01*
X78603Y132235D01*
X78550Y132263D01*
X78491Y132287D01*
X78428Y132308D01*
X78365Y132329D01*
X78295Y132343D01*
X78292D01*
X78281Y132346D01*
X78264D01*
X78240Y132350D01*
X78208Y132357D01*
X78166Y132360D01*
X78114Y132364D01*
X78055Y132371D01*
X77988Y132374D01*
X77908Y132378D01*
X77817Y132385D01*
X77716Y132388D01*
X77605Y132392D01*
X77482D01*
X77346Y132395D01*
D02*
G37*
G36*
X70296D02*
X69410D01*
Y130249D01*
X70359D01*
X70391Y130253D01*
X70464D01*
X70548Y130256D01*
X70638Y130260D01*
X70733Y130263D01*
X70834Y130270D01*
X70935Y130277D01*
X71036Y130287D01*
X71134Y130298D01*
X71228Y130312D01*
X71312Y130329D01*
X71389Y130347D01*
X71420Y130357D01*
X71452Y130368D01*
X71455D01*
X71466Y130375D01*
X71479Y130382D01*
X71504Y130389D01*
X71528Y130403D01*
X71556Y130420D01*
X71626Y130458D01*
X71703Y130511D01*
X71783Y130574D01*
X71860Y130650D01*
X71930Y130738D01*
X71933Y130741D01*
X71937Y130748D01*
X71947Y130762D01*
X71958Y130783D01*
X71972Y130807D01*
X71986Y130835D01*
X72000Y130870D01*
X72017Y130909D01*
X72034Y130947D01*
X72048Y130992D01*
X72076Y131094D01*
X72097Y131205D01*
X72101Y131265D01*
X72104Y131327D01*
Y131331D01*
Y131345D01*
Y131366D01*
X72101Y131397D01*
X72097Y131432D01*
X72090Y131471D01*
X72083Y131516D01*
X72073Y131568D01*
X72062Y131621D01*
X72045Y131673D01*
X72024Y131732D01*
X72003Y131788D01*
X71972Y131844D01*
X71940Y131903D01*
X71902Y131956D01*
X71860Y132008D01*
X71856Y132011D01*
X71850Y132018D01*
X71836Y132032D01*
X71818Y132050D01*
X71794Y132071D01*
X71766Y132095D01*
X71731Y132123D01*
X71692Y132151D01*
X71650Y132179D01*
X71605Y132207D01*
X71553Y132235D01*
X71500Y132263D01*
X71441Y132287D01*
X71378Y132308D01*
X71315Y132329D01*
X71246Y132343D01*
X71242D01*
X71232Y132346D01*
X71214D01*
X71190Y132350D01*
X71158Y132357D01*
X71117Y132360D01*
X71064Y132364D01*
X71005Y132371D01*
X70939Y132374D01*
X70858Y132378D01*
X70768Y132385D01*
X70666Y132388D01*
X70555Y132392D01*
X70433D01*
X70296Y132395D01*
D02*
G37*
G36*
X122796Y130532D02*
X122772D01*
X122741Y130528D01*
X122702Y130525D01*
X122653Y130518D01*
X122598Y130507D01*
X122535Y130497D01*
X122465Y130479D01*
X122392Y130455D01*
X122315Y130427D01*
X122238Y130392D01*
X122158Y130350D01*
X122074Y130301D01*
X121997Y130242D01*
X121917Y130176D01*
X121844Y130099D01*
X121840Y130096D01*
X121826Y130078D01*
X121809Y130054D01*
X121784Y130019D01*
X121753Y129973D01*
X121722Y129918D01*
X121687Y129855D01*
X121652Y129781D01*
X121613Y129698D01*
X121579Y129603D01*
X121547Y129502D01*
X121516Y129391D01*
X121491Y129268D01*
X121474Y129139D01*
X121460Y129000D01*
X121456Y128849D01*
Y128846D01*
Y128839D01*
Y128829D01*
Y128815D01*
Y128794D01*
X121460Y128773D01*
X121463Y128717D01*
X121467Y128647D01*
X121477Y128567D01*
X121488Y128480D01*
X121505Y128389D01*
X121526Y128288D01*
X121551Y128186D01*
X121582Y128082D01*
X121620Y127977D01*
X121666Y127876D01*
X121715Y127778D01*
X121774Y127684D01*
X121844Y127600D01*
X121847Y127597D01*
X121861Y127583D01*
X121882Y127562D01*
X121914Y127534D01*
X121952Y127499D01*
X121997Y127464D01*
X122050Y127426D01*
X122109Y127384D01*
X122175Y127342D01*
X122245Y127304D01*
X122325Y127269D01*
X122409Y127234D01*
X122500Y127206D01*
X122594Y127185D01*
X122692Y127171D01*
X122796Y127167D01*
X122821D01*
X122852Y127171D01*
X122891Y127174D01*
X122940Y127181D01*
X122995Y127192D01*
X123062Y127202D01*
X123128Y127223D01*
X123201Y127244D01*
X123278Y127272D01*
X123358Y127307D01*
X123439Y127349D01*
X123519Y127401D01*
X123599Y127457D01*
X123676Y127523D01*
X123749Y127600D01*
X123753Y127604D01*
X123767Y127621D01*
X123784Y127646D01*
X123809Y127680D01*
X123840Y127726D01*
X123871Y127782D01*
X123906Y127844D01*
X123941Y127921D01*
X123976Y128005D01*
X124011Y128099D01*
X124046Y128200D01*
X124074Y128316D01*
X124098Y128438D01*
X124116Y128567D01*
X124130Y128710D01*
X124133Y128860D01*
Y128864D01*
Y128870D01*
Y128881D01*
Y128895D01*
Y128916D01*
X124130Y128937D01*
X124126Y128993D01*
X124123Y129059D01*
X124112Y129139D01*
X124102Y129223D01*
X124084Y129317D01*
X124063Y129415D01*
X124039Y129516D01*
X124007Y129621D01*
X123973Y129722D01*
X123927Y129823D01*
X123875Y129921D01*
X123816Y130015D01*
X123749Y130099D01*
X123746Y130103D01*
X123732Y130116D01*
X123711Y130137D01*
X123679Y130165D01*
X123645Y130200D01*
X123599Y130235D01*
X123547Y130273D01*
X123487Y130315D01*
X123421Y130357D01*
X123348Y130396D01*
X123271Y130430D01*
X123184Y130465D01*
X123097Y130493D01*
X123002Y130514D01*
X122901Y130528D01*
X122796Y130532D01*
D02*
G37*
G36*
X116340D02*
X116316D01*
X116284Y130528D01*
X116246Y130525D01*
X116197Y130518D01*
X116141Y130507D01*
X116078Y130497D01*
X116008Y130479D01*
X115935Y130455D01*
X115858Y130427D01*
X115782Y130392D01*
X115701Y130350D01*
X115618Y130301D01*
X115541Y130242D01*
X115461Y130176D01*
X115387Y130099D01*
X115384Y130096D01*
X115370Y130078D01*
X115352Y130054D01*
X115328Y130019D01*
X115296Y129973D01*
X115265Y129918D01*
X115230Y129855D01*
X115195Y129781D01*
X115157Y129698D01*
X115122Y129603D01*
X115091Y129502D01*
X115059Y129391D01*
X115035Y129268D01*
X115017Y129139D01*
X115003Y129000D01*
X115000Y128849D01*
Y128846D01*
Y128839D01*
Y128829D01*
Y128815D01*
Y128794D01*
X115003Y128773D01*
X115007Y128717D01*
X115010Y128647D01*
X115021Y128567D01*
X115031Y128480D01*
X115049Y128389D01*
X115070Y128288D01*
X115094Y128186D01*
X115126Y128082D01*
X115164Y127977D01*
X115209Y127876D01*
X115258Y127778D01*
X115317Y127684D01*
X115387Y127600D01*
X115391Y127597D01*
X115405Y127583D01*
X115426Y127562D01*
X115457Y127534D01*
X115495Y127499D01*
X115541Y127464D01*
X115593Y127426D01*
X115652Y127384D01*
X115719Y127342D01*
X115789Y127304D01*
X115869Y127269D01*
X115953Y127234D01*
X116043Y127206D01*
X116138Y127185D01*
X116235Y127171D01*
X116340Y127167D01*
X116364D01*
X116396Y127171D01*
X116434Y127174D01*
X116483Y127181D01*
X116539Y127192D01*
X116605Y127202D01*
X116672Y127223D01*
X116745Y127244D01*
X116822Y127272D01*
X116902Y127307D01*
X116982Y127349D01*
X117062Y127401D01*
X117143Y127457D01*
X117219Y127523D01*
X117293Y127600D01*
X117296Y127604D01*
X117310Y127621D01*
X117328Y127646D01*
X117352Y127680D01*
X117384Y127726D01*
X117415Y127782D01*
X117450Y127844D01*
X117485Y127921D01*
X117520Y128005D01*
X117554Y128099D01*
X117589Y128200D01*
X117617Y128316D01*
X117642Y128438D01*
X117659Y128567D01*
X117673Y128710D01*
X117677Y128860D01*
Y128864D01*
Y128870D01*
Y128881D01*
Y128895D01*
Y128916D01*
X117673Y128937D01*
X117670Y128993D01*
X117666Y129059D01*
X117656Y129139D01*
X117645Y129223D01*
X117628Y129317D01*
X117607Y129415D01*
X117582Y129516D01*
X117551Y129621D01*
X117516Y129722D01*
X117471Y129823D01*
X117418Y129921D01*
X117359Y130015D01*
X117293Y130099D01*
X117289Y130103D01*
X117275Y130116D01*
X117254Y130137D01*
X117223Y130165D01*
X117188Y130200D01*
X117143Y130235D01*
X117090Y130273D01*
X117031Y130315D01*
X116965Y130357D01*
X116891Y130396D01*
X116815Y130430D01*
X116727Y130465D01*
X116640Y130493D01*
X116546Y130514D01*
X116445Y130528D01*
X116340Y130532D01*
D02*
G37*
G36*
X109981Y130605D02*
X109957D01*
X109932Y130602D01*
X109894Y130598D01*
X109849Y130591D01*
X109800Y130584D01*
X109740Y130570D01*
X109678Y130556D01*
X109611Y130532D01*
X109541Y130507D01*
X109468Y130472D01*
X109398Y130434D01*
X109325Y130389D01*
X109252Y130333D01*
X109182Y130270D01*
X109116Y130200D01*
X109112Y130197D01*
X109102Y130183D01*
X109084Y130158D01*
X109063Y130123D01*
X109035Y130081D01*
X109008Y130029D01*
X108976Y129966D01*
X108945Y129893D01*
X108910Y129813D01*
X108878Y129722D01*
X108850Y129621D01*
X108826Y129509D01*
X108802Y129391D01*
X108784Y129258D01*
X108774Y129118D01*
X108770Y128968D01*
Y128965D01*
Y128958D01*
Y128947D01*
Y128930D01*
Y128912D01*
X108774Y128888D01*
Y128860D01*
Y128829D01*
X108777Y128759D01*
X108784Y128679D01*
X108791Y128588D01*
X108805Y128490D01*
X108819Y128389D01*
X108836Y128288D01*
X108857Y128183D01*
X108885Y128078D01*
X108913Y127977D01*
X108952Y127879D01*
X108990Y127789D01*
X109039Y127708D01*
X109042Y127701D01*
X109056Y127684D01*
X109077Y127656D01*
X109109Y127618D01*
X109147Y127576D01*
X109193Y127527D01*
X109245Y127474D01*
X109304Y127419D01*
X109374Y127366D01*
X109451Y127314D01*
X109531Y127265D01*
X109622Y127220D01*
X109716Y127181D01*
X109817Y127153D01*
X109925Y127136D01*
X110040Y127129D01*
X110062D01*
X110086Y127132D01*
X110121Y127136D01*
X110163Y127143D01*
X110208Y127150D01*
X110264Y127164D01*
X110323Y127181D01*
X110386Y127202D01*
X110449Y127230D01*
X110519Y127262D01*
X110589Y127304D01*
X110655Y127349D01*
X110725Y127405D01*
X110791Y127468D01*
X110857Y127541D01*
X110861Y127544D01*
X110871Y127562D01*
X110889Y127586D01*
X110909Y127618D01*
X110938Y127663D01*
X110965Y127719D01*
X110993Y127782D01*
X111028Y127858D01*
X111060Y127942D01*
X111088Y128036D01*
X111119Y128145D01*
X111143Y128260D01*
X111164Y128385D01*
X111182Y128525D01*
X111192Y128672D01*
X111196Y128832D01*
Y128836D01*
Y128843D01*
Y128857D01*
Y128874D01*
Y128895D01*
X111192Y128923D01*
Y128951D01*
Y128986D01*
X111185Y129062D01*
X111178Y129153D01*
X111168Y129251D01*
X111154Y129356D01*
X111136Y129464D01*
X111112Y129579D01*
X111084Y129691D01*
X111053Y129802D01*
X111011Y129911D01*
X110965Y130012D01*
X110913Y130106D01*
X110854Y130190D01*
X110850Y130193D01*
X110840Y130207D01*
X110819Y130228D01*
X110791Y130256D01*
X110759Y130287D01*
X110718Y130322D01*
X110672Y130357D01*
X110616Y130399D01*
X110557Y130438D01*
X110491Y130472D01*
X110421Y130507D01*
X110344Y130539D01*
X110260Y130567D01*
X110173Y130588D01*
X110079Y130602D01*
X109981Y130605D01*
D02*
G37*
G36*
X103689D02*
X103668D01*
X103643Y130602D01*
X103609Y130598D01*
X103570Y130595D01*
X103521Y130588D01*
X103469Y130577D01*
X103413Y130563D01*
X103354Y130542D01*
X103287Y130521D01*
X103225Y130493D01*
X103158Y130458D01*
X103092Y130420D01*
X103026Y130375D01*
X102963Y130319D01*
X102903Y130260D01*
X102900Y130256D01*
X102890Y130242D01*
X102876Y130225D01*
X102855Y130197D01*
X102834Y130162D01*
X102806Y130120D01*
X102778Y130068D01*
X102750Y130012D01*
X102722Y129949D01*
X102694Y129879D01*
X102670Y129799D01*
X102645Y129715D01*
X102628Y129624D01*
X102610Y129530D01*
X102603Y129425D01*
X102600Y129317D01*
X104767D01*
Y129321D01*
Y129324D01*
Y129345D01*
X104764Y129376D01*
X104760Y129422D01*
X104753Y129474D01*
X104746Y129534D01*
X104736Y129603D01*
X104722Y129673D01*
X104704Y129750D01*
X104683Y129830D01*
X104656Y129911D01*
X104624Y129987D01*
X104589Y130068D01*
X104547Y130141D01*
X104498Y130211D01*
X104443Y130277D01*
X104439Y130280D01*
X104429Y130291D01*
X104411Y130308D01*
X104387Y130329D01*
X104359Y130354D01*
X104320Y130382D01*
X104279Y130410D01*
X104233Y130441D01*
X104181Y130472D01*
X104121Y130500D01*
X104059Y130528D01*
X103992Y130553D01*
X103923Y130574D01*
X103849Y130591D01*
X103769Y130602D01*
X103689Y130605D01*
D02*
G37*
G36*
X150807Y132504D02*
X150783D01*
X150762Y132500D01*
X150741D01*
X150713Y132497D01*
X150650Y132483D01*
X150577Y132462D01*
X150497Y132434D01*
X150416Y132392D01*
X150374Y132364D01*
X150336Y132336D01*
X150333Y132333D01*
X150326Y132329D01*
X150315Y132319D01*
X150301Y132305D01*
X150284Y132284D01*
X150266Y132259D01*
X150242Y132231D01*
X150217Y132200D01*
X150193Y132158D01*
X150169Y132116D01*
X150141Y132067D01*
X150113Y132011D01*
X150088Y131952D01*
X150060Y131886D01*
X150039Y131813D01*
X150015Y131736D01*
Y131729D01*
X150008Y131708D01*
X150004Y131694D01*
X150001Y131676D01*
X149997Y131652D01*
X149991Y131628D01*
X149987Y131596D01*
X149980Y131565D01*
X149977Y131526D01*
X149970Y131488D01*
X149963Y131443D01*
X149956Y131394D01*
X149949Y131341D01*
X149942Y131286D01*
X149935Y131226D01*
X149928Y131163D01*
X149921Y131097D01*
X149914Y131024D01*
X149910Y130950D01*
X149903Y130870D01*
X149896Y130787D01*
X149893Y130699D01*
X149886Y130605D01*
X149882Y130511D01*
X149879Y130410D01*
X149875Y130305D01*
X149872Y130193D01*
Y130081D01*
X149868Y129963D01*
Y129841D01*
Y129837D01*
Y129827D01*
Y129806D01*
Y129781D01*
Y129750D01*
Y129715D01*
Y129673D01*
X149872Y129624D01*
Y129572D01*
Y129516D01*
X149875Y129457D01*
Y129394D01*
X149879Y129258D01*
X149886Y129111D01*
X149893Y128961D01*
X149900Y128808D01*
X149910Y128654D01*
X149924Y128504D01*
X149938Y128365D01*
X149956Y128232D01*
X149966Y128169D01*
X149977Y128110D01*
X149991Y128057D01*
X150001Y128008D01*
Y128001D01*
X150008Y127988D01*
X150015Y127963D01*
X150025Y127928D01*
X150039Y127890D01*
X150053Y127844D01*
X150071Y127792D01*
X150092Y127740D01*
X150141Y127628D01*
X150200Y127520D01*
X150231Y127468D01*
X150263Y127422D01*
X150298Y127380D01*
X150336Y127345D01*
X150340D01*
X150347Y127338D01*
X150357Y127331D01*
X150371Y127321D01*
X150392Y127307D01*
X150416Y127293D01*
X150441Y127279D01*
X150472Y127265D01*
X150542Y127234D01*
X150622Y127206D01*
X150709Y127188D01*
X150758Y127185D01*
X150807Y127181D01*
X150832D01*
X150853Y127185D01*
X150873D01*
X150901Y127192D01*
X150964Y127202D01*
X151038Y127223D01*
X151114Y127251D01*
X151195Y127293D01*
X151236Y127321D01*
X151275Y127349D01*
X151278Y127352D01*
X151285Y127356D01*
X151296Y127366D01*
X151310Y127380D01*
X151327Y127401D01*
X151345Y127426D01*
X151369Y127454D01*
X151393Y127489D01*
X151418Y127527D01*
X151442Y127569D01*
X151470Y127621D01*
X151498Y127673D01*
X151523Y127736D01*
X151551Y127803D01*
X151575Y127872D01*
X151596Y127953D01*
X151600Y127960D01*
X151603Y127980D01*
X151606Y127995D01*
X151610Y128012D01*
X151613Y128036D01*
X151620Y128061D01*
X151624Y128089D01*
X151631Y128124D01*
X151638Y128158D01*
X151645Y128197D01*
X151652Y128242D01*
X151659Y128291D01*
X151666Y128340D01*
X151673Y128396D01*
X151680Y128455D01*
X151687Y128518D01*
X151694Y128588D01*
X151697Y128658D01*
X151704Y128734D01*
X151711Y128811D01*
X151718Y128895D01*
X151722Y128982D01*
X151729Y129076D01*
X151732Y129171D01*
X151736Y129272D01*
X151739Y129376D01*
X151742Y129485D01*
X151746Y129600D01*
Y129719D01*
Y129841D01*
Y129844D01*
Y129855D01*
Y129876D01*
Y129900D01*
Y129931D01*
Y129966D01*
Y130008D01*
X151742Y130057D01*
Y130109D01*
Y130165D01*
X151739Y130225D01*
Y130287D01*
X151736Y130424D01*
X151729Y130567D01*
X151722Y130720D01*
X151715Y130870D01*
X151701Y131024D01*
X151690Y131174D01*
X151673Y131317D01*
X151655Y131446D01*
X151645Y131509D01*
X151634Y131568D01*
X151624Y131621D01*
X151610Y131669D01*
Y131676D01*
X151603Y131690D01*
X151596Y131718D01*
X151585Y131750D01*
X151572Y131792D01*
X151558Y131837D01*
X151540Y131886D01*
X151519Y131942D01*
X151470Y132053D01*
X151411Y132162D01*
X151380Y132214D01*
X151345Y132259D01*
X151310Y132301D01*
X151271Y132336D01*
X151268Y132340D01*
X151261Y132343D01*
X151251Y132350D01*
X151236Y132364D01*
X151216Y132375D01*
X151195Y132388D01*
X151139Y132420D01*
X151069Y132451D01*
X150989Y132479D01*
X150901Y132497D01*
X150856Y132500D01*
X150807Y132504D01*
D02*
G37*
%LPD*%
D10*
X147146Y285236D02*
G03*
X147146Y285236I-492J0D01*
G01*
X60532Y285236D02*
G03*
X60532Y285236I-492J0D01*
G01*
X300197Y227677D02*
X414370D01*
X300197Y47913D02*
X414370D01*
X300197Y197756D02*
X414370D01*
X300197Y47913D02*
Y227677D01*
X414370Y47913D02*
Y227677D01*
X300197Y77835D02*
X414370D01*
X282173Y175429D02*
X283537Y174642D01*
X231030Y204957D02*
X273990Y180154D01*
X255537Y225358D02*
X298498Y200555D01*
X245991Y230870D02*
X247354Y230082D01*
X283537Y174642D02*
X298498Y200555D01*
X231030Y204957D02*
X245991Y230870D01*
X280512Y984D02*
Y40354D01*
X319882D01*
Y4921D02*
Y40354D01*
X280512Y984D02*
X315945D01*
X319882Y4921D01*
X132874Y283366D02*
X184055D01*
Y243799D02*
Y283366D01*
X132874Y243799D02*
X184055D01*
X132874D02*
Y283366D01*
X215000Y243504D02*
Y268307D01*
X210315D02*
X215000D01*
X210315Y243504D02*
X215000D01*
X190512D02*
X195197D01*
X190512Y268307D02*
X195197D01*
X190512Y243504D02*
Y268307D01*
X316929Y260827D02*
Y274213D01*
X228346D02*
X316929D01*
Y231693D02*
Y245079D01*
X228346Y231693D02*
X316929D01*
X228346D02*
Y245079D01*
Y260827D02*
Y274213D01*
X65118Y39429D02*
X70039D01*
X72127Y38564D02*
X76599Y34996D01*
X54291Y39429D02*
X65118D01*
X52323Y32539D02*
Y37461D01*
X65118Y25650D02*
X70039D01*
X72127Y26515D02*
X76599Y30082D01*
X54291Y25650D02*
X65118D01*
X52323Y27618D02*
Y32539D01*
X96063Y2756D02*
Y101181D01*
X206299Y2756D02*
Y101181D01*
X96063D02*
X134252D01*
X168110D02*
X206299D01*
X168110Y2756D02*
X206299D01*
X96063D02*
X134252D01*
X46260Y283366D02*
X97441D01*
Y243799D02*
Y283366D01*
X46260Y243799D02*
X97441D01*
X46260D02*
Y283366D01*
X367126Y89173D02*
Y136417D01*
X355315Y89173D02*
Y136417D01*
D11*
X72127Y38564D02*
G03*
X70039Y39429I-2088J-2088D01*
G01*
X77913Y32539D02*
G03*
X76599Y34996I-2953J0D01*
G01*
X54291Y39429D02*
G03*
X52323Y37461I0J-1969D01*
G01*
X70039Y25650D02*
G03*
X72127Y26515I0J2953D01*
G01*
X76599Y30082D02*
G03*
X77913Y32539I-1638J2457D01*
G01*
X52323Y27618D02*
G03*
X54291Y25650I1969J0D01*
G01*
D12*
X264764Y173228D02*
G03*
X264764Y173228I-19685J0D01*
G01*
X299213Y114173D02*
G03*
X299213Y114173I-19685J0D01*
G01*
Y74803D02*
G03*
X299213Y74803I-19685J0D01*
G01*
X264764Y133858D02*
G03*
X264764Y133858I-19685J0D01*
G01*
X299213Y153543D02*
G03*
X299213Y153543I-19685J0D01*
G01*
X264764Y55118D02*
G03*
X264764Y55118I-19685J0D01*
G01*
Y94488D02*
G03*
X264764Y94488I-19685J0D01*
G01*
X245275Y152362D02*
Y148426D01*
X247242Y150394D02*
X243307D01*
X279724Y93307D02*
Y89371D01*
X281691Y91339D02*
X277756D01*
X279724Y53937D02*
Y50001D01*
X281691Y51969D02*
X277756D01*
X245275Y112992D02*
Y109056D01*
X247242Y111024D02*
X243307D01*
X279724Y132677D02*
Y128741D01*
X281691Y130709D02*
X277756D01*
X245275Y34252D02*
Y30316D01*
X247242Y32284D02*
X243307D01*
X245275Y73622D02*
Y69686D01*
X247242Y71654D02*
X243307D01*
D13*
X198Y236418D02*
G03*
X39172Y275393I19487J19487D01*
G01*
Y198D02*
G03*
X198Y39172I-19487J19487D01*
G01*
X369881D02*
G03*
X330907Y198I-19487J-19487D01*
G01*
Y275393D02*
G03*
X369881Y236418I19487J-19487D01*
G01*
D14*
X20866Y60827D02*
Y62795D01*
X40551Y60827D02*
Y62795D01*
X39370Y48622D02*
X40551Y49803D01*
X39370Y47047D02*
Y48622D01*
X38976Y46654D02*
X39370Y47047D01*
X22441Y46654D02*
X38976D01*
X22047Y47047D02*
X22441Y46654D01*
X22047Y47047D02*
Y48622D01*
X20866Y49803D02*
X22047Y48622D01*
X20866Y62795D02*
X40551D01*
D15*
X206608Y248441D02*
Y248631D01*
X206798Y249012D01*
X206989Y249202D01*
X207369Y249393D01*
X208131D01*
X208512Y249202D01*
X208703Y249012D01*
X208893Y248631D01*
Y248250D01*
X208703Y247869D01*
X208322Y247298D01*
X206417Y245394D01*
X209083D01*
X195749Y266164D02*
X195368Y265974D01*
X194987Y265593D01*
X194797Y265212D01*
X194606Y264641D01*
Y263689D01*
X194797Y263118D01*
X194987Y262737D01*
X195368Y262356D01*
X195749Y262165D01*
X196511D01*
X196891Y262356D01*
X197272Y262737D01*
X197463Y263118D01*
X197653Y263689D01*
Y264641D01*
X197463Y265212D01*
X197272Y265593D01*
X196891Y265974D01*
X196511Y266164D01*
X195749D01*
X198586D02*
Y262165D01*
Y266164D02*
X201253Y262165D01*
Y266164D02*
Y262165D01*
X197362Y248631D02*
X197743Y248821D01*
X198314Y249393D01*
Y245394D01*
M02*
